<?xml version="1.0" encoding="utf-8"?>
<!-- Generator: Adobe Illustrator 15.1.0, SVG Export Plug-In . SVG Version: 6.00 Build 0)  -->
<!DOCTYPE svg PUBLIC "-//W3C//DTD SVG 1.1//EN" "http://www.w3.org/Graphics/SVG/1.1/DTD/svg11.dtd">
<svg version="1.1" id="Layer_1" xmlns="http://www.w3.org/2000/svg" xmlns:xlink="http://www.w3.org/1999/xlink" x="0px" y="0px"
	 width="1417.32px" height="595.28px" viewBox="0 0 1417.32 595.28" enable-background="new 0 0 1417.32 595.28"
	 xml:space="preserve">
<linearGradient id="SVGID_1_" gradientUnits="userSpaceOnUse" x1="708.1235" y1="-32" x2="708.1235" y2="349.0005">
	<stop  offset="0" style="stop-color:#58BDEC"/>
	<stop  offset="1" style="stop-color:#A4DCE2"/>
</linearGradient>
<rect x="-9.292" y="-32" fill="url(#SVGID_1_)" stroke="#FFFFFF" stroke-miterlimit="10" width="1434.831" height="381"/>
<linearGradient id="SVGID_2_" gradientUnits="userSpaceOnUse" x1="-87.9067" y1="223.5327" x2="327.9377" y2="639.3771">
	<stop  offset="0" style="stop-color:#FFFFFF"/>
	<stop  offset="1" style="stop-color:#D7F0FC"/>
</linearGradient>
<path fill-rule="evenodd" clip-rule="evenodd" fill="url(#SVGID_2_)" d="M233.534,716.168c30.297-4.575,52.361-29.757,54.149-59.165
	c38.15-8.57,63.763-45.242,57.835-84.506c-4.398-29.128-24.981-51.742-51.216-60.263c6.145-9.13,9.061-20.475,7.292-32.207
	c-2.718-18.003-15.632-31.889-31.979-36.82c11.77-22.387,16.776-48.587,12.709-75.515c-7.97-52.797-48.396-92.653-97.95-102.392
	c2.956-7.317,4.099-15.471,2.837-23.836c-2.353-15.576-12.33-28.114-25.571-34.391c6.577-12.175,9.467-26.471,7.241-41.204
	c-5.449-36.097-39.125-60.931-75.217-55.483c-0.219,0.033-0.437,0.101-0.66,0.133c-9.908-11.01-24.965-17.006-40.708-14.628
	c-23.929,3.614-40.638,25.236-38.548,49.021c-32.472,12.251-53.149,45.85-47.764,81.555c0.009,0.019,0.018,0.037,0.022,0.054
	c-9.686,9.875-14.815,23.988-12.592,38.719c2.676,17.748,15.272,31.506,31.296,36.6c-3.1,10.313-4.108,21.434-2.392,32.787
	c0.267,1.783,0.683,3.503,1.069,5.236c-25.066,8.071-41.346,33.271-37.283,60.156c3.923,25.99,25.541,44.918,50.762,46.422
	c-2.976,9.151-3.995,19.09-2.459,29.255c2.081,13.786,8.469,25.82,17.535,35.069c-15.05,13.367-23.275,33.812-20.042,55.197
	c3.479,23.073,19.356,41.198,39.837,48.65c-4.276,11.426-5.816,24.05-3.862,36.953c6.108,40.444,43.846,68.283,84.291,62.175
	c23.138-3.495,42.112-17.356,52.999-36.138C176.162,704.005,203.972,720.632,233.534,716.168z"/>
<linearGradient id="SVGID_3_" gradientUnits="userSpaceOnUse" x1="415.5527" y1="30.5312" x2="455.0766" y2="159.808">
	<stop  offset="0" style="stop-color:#FFFFFF"/>
	<stop  offset="1" style="stop-color:#C7E8E8"/>
</linearGradient>
<path fill-rule="evenodd" clip-rule="evenodd" fill="url(#SVGID_3_)" d="M505.784,138.757c7.375-9.515,7.904-22.167,2.334-32.032
	c4.764-10.649,1.875-23.542-7.753-31.005c-3.42-2.652-7.298-4.297-11.279-5.011c0.214-10.757-4.484-21.47-13.64-28.565
	c-11.789-9.14-27.539-9.62-39.624-2.426c-0.956-1.177-2.046-2.275-3.297-3.246c-8.787-6.811-21.435-5.213-28.247,3.577
	c-0.557,0.716-1.037,1.472-1.484,2.238c-14.145-5.47-30.77-1.32-40.539,11.28c-11.925,15.381-9.124,37.511,6.259,49.436
	c4.521,3.505,9.622,5.729,14.88,6.744c-2.111,12.404,2.505,25.538,13.146,33.785c10.11,7.838,23.142,9.312,34.269,5.03
	c1.26,2.145,2.928,4.096,5.015,5.715c8.79,6.814,21.434,5.213,28.251-3.579c1.303-1.682,2.294-3.51,2.993-5.412
	C479.586,153.44,496.467,150.777,505.784,138.757z"/>
<linearGradient id="SVGID_4_" gradientUnits="userSpaceOnUse" x1="564.9473" y1="59.9023" x2="980.7951" y2="475.7502" gradientTransform="matrix(-0.345 0.9794 -1.1263 -0.2343 1122.9004 -319.8164)">
	<stop  offset="0" style="stop-color:#FFFFFF"/>
	<stop  offset="1" style="stop-color:#D7F0FC"/>
</linearGradient>
<path fill-rule="evenodd" clip-rule="evenodd" fill="url(#SVGID_4_)" d="M194.77,418.856c-5.3,30.746,15.449,58.255,47.954,66.897
	c-3.509,39.373,28.957,73.048,75.225,76.442c34.324,2.519,66.896-12.343,85.544-36.042c8.163,8.157,19.935,13.672,33.759,14.688
	c21.214,1.557,41.31-7.839,52.504-22.694c21.153,16.772,48.935,27.814,80.667,30.141c62.215,4.565,121.053-25.691,149.119-71.943
	c7.224,4.609,16.012,7.64,25.869,8.363c18.354,1.345,35.918-5.488,47.555-16.985c11.444,9.293,26.547,15.473,43.91,16.745
	c42.537,3.12,82.126-24.043,88.441-60.67c0.04-0.222,0.038-0.451,0.078-0.678c15.819-7.125,27.768-20.467,30.521-36.442
	c4.187-24.283-14.4-45.715-41.911-49.24c-2.596-34.673-33.302-62.797-75.375-65.888c-0.025,0.004-0.049,0.008-0.068,0.009
	c-7.78-11.8-21.907-20.13-39.266-21.403c-20.914-1.539-40.754,7.576-52.021,22.076c-10.545-5.453-22.722-9.045-36.102-10.025
	c-2.101-0.157-4.182-0.152-6.267-0.18c-0.442-26.441-23.206-48.29-54.89-50.61c-30.626-2.247-59.403,14.492-69.799,38.842
	c-9.28-5.059-20.122-8.386-32.101-9.263c-16.245-1.192-32.004,2.245-45.548,8.956c-9.863-17.871-30.052-30.717-55.253-32.562
	c-27.187-1.998-53.08,9.306-68.54,27.619c-11.394-6.866-25.081-11.332-40.287-12.441c-47.66-3.494-92.035,26.944-99.11,67.988
	c-4.048,23.48,5.019,45.312,22.416,60.375C228.263,365.516,199.942,388.855,194.77,418.856z"/>
<linearGradient id="SVGID_5_" gradientUnits="userSpaceOnUse" x1="564.6177" y1="-25.8682" x2="28.5417" y2="-609.0731" gradientTransform="matrix(-0.8426 -0.5386 0.5386 -0.8426 1535.1675 357.2549)">
	<stop  offset="0" style="stop-color:#FFFFFF"/>
	<stop  offset="0.411" style="stop-color:#C7E8E8"/>
</linearGradient>
<path fill-rule="evenodd" clip-rule="evenodd" fill="url(#SVGID_5_)" d="M1188.743,64.358
	c-37.083-16.51-79.674-4.146-102.654,27.401c-48.695-17.654-103.448,5.003-124.845,53.056
	c-15.878,35.649-9.038,75.576,14.165,103.804c-13.373,5.809-24.723,16.389-31.119,30.746c-9.811,22.034-5.305,46.746,9.423,63.915
	c-29.108,16.59-53.392,42.261-68.065,75.218c-28.777,64.613-12.092,137.943,36.27,184.17c-8.52,6.061-15.613,14.346-20.173,24.583
	c-8.485,19.062-6.298,40.176,4.002,56.628c-16.027,8.897-29.452,22.79-37.481,40.822c-19.672,44.181,0.195,95.926,44.368,115.596
	c0.267,0.12,0.559,0.201,0.832,0.323c3.202,19.358,15.73,36.794,34.998,45.371c29.288,13.041,63.364,0.832,78.002-27.21
	c44.985,9.493,92.035-13.252,111.5-56.948c0.005-0.026,0.007-0.052,0.015-0.074c17.857-4.111,33.65-16.206,41.679-34.235
	c9.681-21.717,5.435-46.06-8.816-63.179c10.819-9.299,19.878-20.991,26.064-34.889c0.976-2.182,1.736-4.397,2.543-6.607
	c33.736,8.876,69.886-7.636,84.535-40.541c14.165-31.809,3.541-68.36-23.538-88.034c9.853-8.089,18.081-18.455,23.62-30.898
	c7.512-16.872,8.97-34.861,5.45-51.651c26.334-4.182,50.104-21.134,61.754-47.31c12.579-28.235,7.79-59.793-9.754-82.725
	c12.928-9.702,23.652-22.694,30.678-38.488c22.041-49.501-0.219-107.499-49.718-129.539c-28.319-12.609-59.388-10.675-84.939,2.521
	C1244.101,118.869,1224.925,80.469,1188.743,64.358z"/>
<linearGradient id="SVGID_6_" gradientUnits="userSpaceOnUse" x1="1077.6406" y1="400.3516" x2="1493.4753" y2="816.1863" gradientTransform="matrix(0.7248 0.689 -0.689 0.7248 761.8975 -730.3428)">
	<stop  offset="0" style="stop-color:#FFFFFF"/>
	<stop  offset="1" style="stop-color:#D7F0FC"/>
</linearGradient>
<path fill-rule="evenodd" clip-rule="evenodd" fill="url(#SVGID_6_)" d="M1160.689,880.848c25.11,17.559,58.452,14.509,80.009-5.574
	c33.556,20.073,77.385,11.14,100.141-21.401c16.882-24.143,17.543-54.714,4.399-78.965c10.743-2.383,20.674-8.598,27.476-18.318
	c10.433-14.921,10.641-33.884,2.189-48.721c23.954-8.117,45.635-23.655,61.238-45.976c30.6-43.757,28.76-100.496-0.446-141.696
	c7.184-3.268,13.63-8.39,18.479-15.322c9.026-12.91,10.434-28.871,5.161-42.543c13.156-4.293,25.1-12.663,33.638-24.875
	c20.92-29.917,13.622-71.118-16.291-92.036c-0.181-0.127-0.386-0.228-0.57-0.358c0.404-14.807-6.378-29.526-19.426-38.648
	c-19.834-13.868-46.842-9.709-61.714,8.97c-31.975-13.492-70.111-3.386-90.809,26.202c-0.005,0.02-0.012,0.038-0.02,0.055
	c-13.823,0.483-27.265,7.179-35.803,19.389c-10.289,14.707-10.639,33.356-2.534,48.089c-9.352,5.339-17.745,12.704-24.323,22.116
	c-1.035,1.476-1.918,3.008-2.832,4.531c-23.728-11.42-52.889-4.373-68.469,17.913c-15.063,21.54-12.437,50.153,4.809,68.62
	c-8.462,4.582-16.048,11.084-21.938,19.509c-7.991,11.426-11.651,24.549-11.454,37.499c-20.117-0.681-40.164,8.47-52.556,26.198
	c-13.375,19.119-14.355,43.194-4.646,62.707c-10.971,5.335-20.783,13.423-28.258,24.122
	c-23.438,33.521-15.268,79.699,18.256,103.138c19.178,13.408,42.479,16.435,63.31,10.323
	C1127.486,832.504,1136.188,863.716,1160.689,880.848z"/>
<linearGradient id="SVGID_7_" gradientUnits="userSpaceOnUse" x1="672.0444" y1="317.6826" x2="672.0444" y2="614.4248">
	<stop  offset="0.3742" style="stop-color:#A1D7BE"/>
	<stop  offset="1" style="stop-color:#15B7B8"/>
</linearGradient>
<path fill="url(#SVGID_7_)" stroke="#FFFFFF" stroke-miterlimit="10" d="M98.472,601.771
	c307.671-300.276,733.732-447.9,1147.146-5.091C1133.825,633.381,98.479,601.771,98.472,601.771z"/>
<linearGradient id="SVGID_8_" gradientUnits="userSpaceOnUse" x1="820.1289" y1="50.0996" x2="853.072" y2="140.6102">
	<stop  offset="0" style="stop-color:#FFFFFF"/>
	<stop  offset="1" style="stop-color:#C7E8E8"/>
</linearGradient>
<path fill-rule="evenodd" clip-rule="evenodd" fill="url(#SVGID_8_)" d="M877.493,70.076c-1.469,0-2.889,0.192-4.258,0.52
	c-2.472-7.12-9.222-12.242-17.187-12.242c-4.351,0-8.343,1.531-11.475,4.077c-2.221-7.545-9.189-13.055-17.455-13.055
	c-7.132,0-13.288,4.11-16.277,10.082c-2.536-0.983-5.285-1.544-8.17-1.544c-12.501,0-22.635,10.134-22.635,22.633
	c0,9.13,5.414,16.975,13.197,20.556c-6.069,2.954-10.261,9.159-10.261,16.359c0,10.053,8.151,18.206,18.208,18.206
	c5.624,0,10.647-2.552,13.988-6.558c5.754,8.284,15.324,13.717,26.174,13.717c17.594,0,31.86-14.265,31.86-31.863
	c0-1.749-0.179-3.451-0.449-5.12c1.513,0.408,3.096,0.645,4.738,0.645c10.056,0,18.206-8.153,18.206-18.208
	C895.699,78.227,887.549,70.076,877.493,70.076z M810.777,102.012c-0.118-0.075-0.237-0.146-0.358-0.219
	c0.154-0.056,0.308-0.107,0.458-0.166C810.838,101.752,810.815,101.883,810.777,102.012z"/>
<circle fill-rule="evenodd" clip-rule="evenodd" fill="#FFF200" cx="354.333" cy="444.668" r="3"/>
<circle fill-rule="evenodd" clip-rule="evenodd" fill="#27AAE1" cx="382" cy="449.334" r="1.666"/>
<circle fill-rule="evenodd" clip-rule="evenodd" fill="#FFFFFF" cx="375.334" cy="438.668" r="3"/>
<circle fill-rule="evenodd" clip-rule="evenodd" fill="#15B7B8" cx="390.833" cy="421.5" r="1.167"/>
<circle fill-rule="evenodd" clip-rule="evenodd" fill="#FFF200" cx="399.833" cy="433.5" r="2.167"/>
<ellipse fill-rule="evenodd" clip-rule="evenodd" fill="#FFFFFF" cx="402" cy="422.084" rx="0" ry="0.583"/>
<circle fill-rule="evenodd" clip-rule="evenodd" fill="#FFFFFF" cx="428.766" cy="408.233" r="2.1"/>
<circle fill-rule="evenodd" clip-rule="evenodd" fill="#FFFFFF" cx="472" cy="386.333" r="1"/>
<circle fill-rule="evenodd" clip-rule="evenodd" fill="#FFFFFF" cx="461.233" cy="404.9" r="1.233"/>
<circle fill-rule="evenodd" clip-rule="evenodd" fill="#FFFFFF" cx="538.167" cy="356.166" r="1.167"/>
<circle fill-rule="evenodd" clip-rule="evenodd" fill="#FFFFFF" cx="613.167" cy="367.166" r="1.167"/>
<circle fill-rule="evenodd" clip-rule="evenodd" fill="#FFFFFF" cx="625.833" cy="337.167" r="1.167"/>
<circle fill-rule="evenodd" clip-rule="evenodd" fill="#FFFFFF" cx="543" cy="378.666" r="0.667"/>
<circle fill-rule="evenodd" clip-rule="evenodd" fill="#FFFFFF" cx="518" cy="370.666" r="2.333"/>
<circle fill-rule="evenodd" clip-rule="evenodd" fill="#FFFFFF" cx="665.333" cy="341.666" r="1.333"/>
<circle fill-rule="evenodd" clip-rule="evenodd" fill="#FFFFFF" cx="765.499" cy="351.834" r="2.167"/>
<circle fill-rule="evenodd" clip-rule="evenodd" fill="#FFFFFF" cx="830.5" cy="358.166" r="0.833"/>
<circle fill-rule="evenodd" clip-rule="evenodd" fill="#FFFFFF" cx="840.999" cy="379.333" r="1.333"/>
<circle fill-rule="evenodd" clip-rule="evenodd" fill="#FFFFFF" cx="901.165" cy="378.834" r="0.833"/>
<circle fill-rule="evenodd" clip-rule="evenodd" fill="#FFFFFF" cx="918.665" cy="414" r="2.667"/>
<circle fill-rule="evenodd" clip-rule="evenodd" fill="#FFFFFF" cx="955.25" cy="400.585" r="1.252"/>
<circle fill-rule="evenodd" clip-rule="evenodd" fill="#FFFFFF" cx="990.165" cy="425.166" r="2.833"/>
<circle fill-rule="evenodd" clip-rule="evenodd" fill="#FFFFFF" cx="784.664" cy="340" r="1"/>
<circle fill-rule="evenodd" clip-rule="evenodd" fill="#FFFFFF" cx="943.498" cy="380.5" r="0.833"/>
<circle fill-rule="evenodd" clip-rule="evenodd" fill="#FFFFFF" cx="1032.831" cy="445.5" r="1.167"/>
<circle fill-rule="evenodd" clip-rule="evenodd" fill="#FFFFFF" cx="994.831" cy="463.167" r="1.833"/>
<circle fill-rule="evenodd" clip-rule="evenodd" fill="#FFFFFF" cx="1057.163" cy="457.167" r="0.833"/>
<circle fill-rule="evenodd" clip-rule="evenodd" fill="#FFFFFF" cx="1077.997" cy="479.334" r="1.667"/>
<circle fill-rule="evenodd" clip-rule="evenodd" fill="#FFFFFF" cx="1041.83" cy="483.501" r="2.5"/>
<circle fill-rule="evenodd" clip-rule="evenodd" fill="#FFFFFF" cx="287.165" cy="482.834" r="1.5"/>
<circle fill-rule="evenodd" clip-rule="evenodd" fill="#FFFFFF" cx="248.665" cy="520.666" r="1.667"/>
<circle fill-rule="evenodd" clip-rule="evenodd" fill="#FFFFFF" cx="285.748" cy="511.084" r="1.417"/>
<circle fill-rule="evenodd" clip-rule="evenodd" fill="#FFDE17" cx="313.331" cy="474.667" r="1.333"/>
<circle fill-rule="evenodd" clip-rule="evenodd" fill="#FFDE17" cx="256.831" cy="501.834" r="1.167"/>
<circle fill-rule="evenodd" clip-rule="evenodd" fill="#FFDE17" cx="324.498" cy="507.167" r="1.5"/>
<circle fill-rule="evenodd" clip-rule="evenodd" fill="#FFDE17" cx="453.998" cy="443.335" r="1.667"/>
<circle fill-rule="evenodd" clip-rule="evenodd" fill="#FFDE17" cx="461.167" cy="384.166" r="1.167"/>
<circle fill-rule="evenodd" clip-rule="evenodd" fill="#FFDE17" cx="531.165" cy="368" r="0.833"/>
<circle fill-rule="evenodd" clip-rule="evenodd" fill="#FFDE17" cx="577.277" cy="369.22" r="2.054"/>
<circle fill-rule="evenodd" clip-rule="evenodd" fill="#FFDE17" cx="611.332" cy="342.334" r="0.668"/>
<circle fill-rule="evenodd" clip-rule="evenodd" fill="#FFDE17" cx="693.581" cy="338.75" r="1.583"/>
<circle fill-rule="evenodd" clip-rule="evenodd" fill="#FFDE17" cx="790.498" cy="350.5" r="1.5"/>
<circle fill-rule="evenodd" clip-rule="evenodd" fill="#FFDE17" cx="855.998" cy="373.273" r="2"/>
<circle fill-rule="evenodd" clip-rule="evenodd" fill="#FFDE17" cx="922.165" cy="378.834" r="0.833"/>
<circle fill-rule="evenodd" clip-rule="evenodd" fill="#FFDE17" cx="891.498" cy="405.834" r="2.167"/>
<circle fill-rule="evenodd" clip-rule="evenodd" fill="#FFDE17" cx="973.498" cy="405.834" r="2.167"/>
<circle fill-rule="evenodd" clip-rule="evenodd" fill="#FFDE17" cx="977.164" cy="441.5" r="1.5"/>
<circle fill-rule="evenodd" clip-rule="evenodd" fill="#FFDE17" cx="1018.665" cy="450" r="1.333"/>
<circle fill-rule="evenodd" clip-rule="evenodd" fill="#FFDE17" cx="1007.165" cy="417.833" r="1.167"/>
<circle fill-rule="evenodd" clip-rule="evenodd" fill="#FFDE17" cx="1051.665" cy="446.5" r="1"/>
<circle fill-rule="evenodd" clip-rule="evenodd" fill="#FFDE17" cx="1059.831" cy="491.168" r="1.834"/>
<circle fill-rule="evenodd" clip-rule="evenodd" fill="#FFFFFF" cx="1135" cy="511.334" r="2.667"/>
<circle fill-rule="evenodd" clip-rule="evenodd" fill="#FFFFFF" cx="1116.333" cy="548.002" r="1.333"/>
<circle fill-rule="evenodd" clip-rule="evenodd" fill="#FFFFFF" cx="1192.166" cy="569.168" r="2.167"/>
<circle fill-rule="evenodd" clip-rule="evenodd" fill="#FFFFFF" cx="1169.333" cy="581.334" r="1"/>
<circle fill-rule="evenodd" clip-rule="evenodd" fill="#FFFFFF" cx="1158.166" cy="543.168" r="1.5"/>
<circle fill-rule="evenodd" clip-rule="evenodd" fill="#FFF200" cx="1142.333" cy="574.668" r="1.333"/>
<circle fill-rule="evenodd" clip-rule="evenodd" fill="#FFF200" cx="1124.833" cy="523.501" r="1.167"/>
<circle fill-rule="evenodd" clip-rule="evenodd" fill="#00AEEF" cx="367.834" cy="482.501" r="1.167"/>
<circle fill-rule="evenodd" clip-rule="evenodd" fill="#00AEEF" cx="276.834" cy="499.502" r="1.167"/>
<circle fill-rule="evenodd" clip-rule="evenodd" fill="#00AEEF" cx="529.833" cy="381.498" r="2.165"/>
<circle fill-rule="evenodd" clip-rule="evenodd" fill="#00AEEF" cx="558.333" cy="353.668" r="1.333"/>
<circle fill-rule="evenodd" clip-rule="evenodd" fill="#00AEEF" cx="681.667" cy="348.668" r="1"/>
<circle fill-rule="evenodd" clip-rule="evenodd" fill="#00AEEF" cx="812.166" cy="348.168" r="0.5"/>
<circle fill-rule="evenodd" clip-rule="evenodd" fill="#00AEEF" cx="780.499" cy="360.836" r="0.5"/>
<circle fill-rule="evenodd" clip-rule="evenodd" fill="#00AEEF" cx="877.832" cy="367.5" r="1.5"/>
<circle fill-rule="evenodd" clip-rule="evenodd" fill="#00AEEF" cx="917.331" cy="396.669" r="1.333"/>
<circle fill-rule="evenodd" clip-rule="evenodd" fill="#00AEEF" cx="941.665" cy="396.669" r="1.333"/>
<circle fill-rule="evenodd" clip-rule="evenodd" fill="#00AEEF" cx="995.499" cy="442.5" r="2.5"/>
<circle fill-rule="evenodd" clip-rule="evenodd" fill="#00AEEF" cx="1099.332" cy="496.002" r="1.333"/>
<circle fill-rule="evenodd" clip-rule="evenodd" fill="#00AEEF" cx="1101.499" cy="530.836" r="2.167"/>
<circle fill-rule="evenodd" clip-rule="evenodd" fill="#00AEEF" cx="1163.166" cy="566.502" r="1.167"/>
<circle fill-rule="evenodd" clip-rule="evenodd" fill="#15B7B8" cx="1141.081" cy="544.918" r="1.75"/>
<circle fill-rule="evenodd" clip-rule="evenodd" fill="#15B7B8" cx="1044.549" cy="467.836" r="1.782"/>
<circle fill-rule="evenodd" clip-rule="evenodd" fill="#15B7B8" cx="953.791" cy="426.626" r="1.459"/>
<circle fill-rule="evenodd" clip-rule="evenodd" fill="#15B7B8" cx="806.998" cy="362.502" r="1.667"/>
<circle fill-rule="evenodd" clip-rule="evenodd" fill="#15B7B8" cx="726.832" cy="349.168" r="1.5"/>
<circle fill-rule="evenodd" clip-rule="evenodd" fill="#15B7B8" cx="628.999" cy="353.833" r="1.999"/>
<circle fill-rule="evenodd" clip-rule="evenodd" fill="#15B7B8" cx="490.499" cy="389.166" r="1.833"/>
<circle fill-rule="evenodd" clip-rule="evenodd" fill="#15B7B8" cx="432.933" cy="424.15" r="2.067"/>
<circle fill-rule="evenodd" clip-rule="evenodd" fill="#15B7B8" cx="334.167" cy="468.554" r="2.5"/>
<circle fill-rule="evenodd" clip-rule="evenodd" fill="#15B7B8" cx="367.251" cy="460.919" r="0.583"/>
<circle fill-rule="evenodd" clip-rule="evenodd" fill="#15B7B8" cx="298.167" cy="505.836" r="1.833"/>
<circle fill-rule="evenodd" clip-rule="evenodd" fill="#15B7B8" cx="164.333" cy="570.67" r="2.333"/>
<circle fill-rule="evenodd" clip-rule="evenodd" fill="#15B7B8" cx="204.166" cy="545.17" r="1.833"/>
<circle fill-rule="evenodd" clip-rule="evenodd" fill="#15B7B8" cx="233.833" cy="548.17" r="1.167"/>
<circle fill-rule="evenodd" clip-rule="evenodd" fill="#FFFFFF" cx="228.499" cy="517.837" r="2.5"/>
<circle fill-rule="evenodd" clip-rule="evenodd" fill="#FFFFFF" cx="192.639" cy="574.311" r="1.306"/>
<circle fill-rule="evenodd" clip-rule="evenodd" fill="#00AEEF" cx="177.333" cy="550.67" r="1.333"/>
<circle fill-rule="evenodd" clip-rule="evenodd" fill="#FFF200" cx="221.333" cy="542.004" r="1.333"/>
<circle fill-rule="evenodd" clip-rule="evenodd" fill="#FFF200" cx="210.999" cy="528.67" r="1"/>
<circle fill-rule="evenodd" clip-rule="evenodd" fill="#FFF200" cx="186.166" cy="564.307" r="1.833"/>
</svg>
