<?xml version="1.0" encoding="UTF-8" standalone="no"?>
<svg
   xmlns:dc="http://purl.org/dc/elements/1.1/"
   xmlns:cc="http://creativecommons.org/ns#"
   xmlns:rdf="http://www.w3.org/1999/02/22-rdf-syntax-ns#"
   xmlns:svg="http://www.w3.org/2000/svg"
   xmlns="http://www.w3.org/2000/svg"
   xmlns:sodipodi="http://sodipodi.sourceforge.net/DTD/sodipodi-0.dtd"
   xmlns:inkscape="http://www.inkscape.org/namespaces/inkscape"
   version="1.1"
   id="Calque_1"
   x="0px"
   y="0px"
   width="849.9881"
   height="1099.9949"
   viewBox="0 0 849.9881 1099.9949"
   enable-background="new 0 0 774 567"
   xml:space="preserve"
   inkscape:version="0.48.3.1 r9886"
   sodipodi:docname="puzzle_background1.svg"><metadata
   id="metadata212"><rdf:RDF><cc:Work
       rdf:about=""><dc:format>image/svg+xml</dc:format><dc:type
         rdf:resource="http://purl.org/dc/dcmitype/StillImage" /><dc:title></dc:title><cc:license
         rdf:resource="http://creativecommons.org/licenses/publicdomain/" /></cc:Work><cc:License
       rdf:about="http://creativecommons.org/licenses/publicdomain/"><cc:permits
         rdf:resource="http://creativecommons.org/ns#Reproduction" /><cc:permits
         rdf:resource="http://creativecommons.org/ns#Distribution" /><cc:permits
         rdf:resource="http://creativecommons.org/ns#DerivativeWorks" /></cc:License></rdf:RDF></metadata><defs
   id="defs210" /><sodipodi:namedview
   pagecolor="#ffffff"
   bordercolor="#666666"
   borderopacity="1"
   objecttolerance="10"
   gridtolerance="10"
   guidetolerance="10"
   inkscape:pageopacity="0"
   inkscape:pageshadow="2"
   inkscape:window-width="849"
   inkscape:window-height="830"
   id="namedview208"
   showgrid="false"
   fit-margin-top="0"
   fit-margin-left="0"
   fit-margin-right="0"
   fit-margin-bottom="0"
   inkscape:zoom="0.51322751"
   inkscape:cx="82.480891"
   inkscape:cy="550.48911"
   inkscape:window-x="794"
   inkscape:window-y="-3"
   inkscape:window-maximized="0"
   inkscape:current-layer="Calque_1" />
<g
   id="g3"
   transform="matrix(0,-1.4403114,1.5363558,0,-11.306974,1109.6034)"
   style="opacity:0.21000001">
	<g
   id="g5">
		<g
   id="g7">
			<g
   id="XMLID_6_">
				<g
   id="g10">
					<path
   d="m 597.651,341.15 c -0.86,14.52 0.71,36.19 -25.601,35.76 l -0.359,-0.1 -55.931,0.03 -0.01,-34.58 c -0.03,4.29 0.08,-19.04 -4.99,-25.93 -12.949,-17.64 -37.649,-4.69 -41.18,-4.69 -3.52,0 -48.22,20.02 -47.07,-36.45 1.141,-56.47 38.811,-31.78 56.45,-32.97 14.51,-0.97 36.931,-0.37 36.29,-26.67 l -0.01,-22.75 76.47,-0.04 c 8.181,0.1 16.431,-1.34 21.04,-4.68 17.74,-12.82 4.96,-37.61 4.98,-41.14 0.029,-3.53 -19.681,-48.37 36.779,-46.82 56.46,1.55 31.511,39.03 32.57,56.69 0.87,14.52 0.95,36.3 27.26,35.85 l 55.45,-0.03 0.01,23.53 0.061,120 0.02,40.55 -77.189,0.04 c -8.17,0.1 -16.08,-1.02 -20.7,-4.36 -17.74,-12.82 -4.97,-37.61 -5,-41.14 -0.021,-3.53 19.66,-48.38 -36.8,-46.8 -56.46,1.58 -31.49,39.05 -32.54,56.7 z"
   id="path12"
   inkscape:connector-curvature="0"
   style="fill:#b8619e" />
				</g>
				<g
   id="g14">
					<path
   d="m 692.691,376.75 c -8.17,0.1 -16.08,-1.02 -20.7,-4.36 -17.74,-12.82 -4.97,-37.61 -5,-41.14 -0.021,-3.53 19.66,-48.38 -36.8,-46.8 -56.46,1.58 -31.49,39.05 -32.54,56.7 -0.86,14.52 0.71,36.19 -25.601,35.76"
   id="path16"
   inkscape:connector-curvature="0"
   style="fill:none;stroke:#000000" />
					<polyline
   points="713.511,192.66 714.341,192.66 769.791,192.63 769.801,216.16 769.861,336.16        769.881,376.71 692.691,376.75      "
   id="polyline18"
   style="fill:none;stroke:#000000" />
					<polyline
   points="571.691,376.81 515.761,376.84 515.751,342.26      "
   id="polyline20"
   style="fill:none;stroke:#000000" />
					<path
   d="m 515.751,342.26 c -0.03,4.29 0.08,-19.04 -4.99,-25.93 -12.949,-17.64 -37.649,-4.69 -41.18,-4.69 -3.52,0 -48.22,20.02 -47.07,-36.45 1.141,-56.47 38.811,-31.78 56.45,-32.97 14.51,-0.97 36.931,-0.37 36.29,-26.67"
   id="path22"
   inkscape:connector-curvature="0"
   style="fill:none;stroke:#000000" />
					<polyline
   points="515.251,216.33 515.251,215.55 515.241,192.8 591.711,192.76      "
   id="polyline24"
   style="fill:none;stroke:#000000" />
					<path
   d="m 591.711,192.76 c 8.181,0.1 16.431,-1.34 21.04,-4.68 17.74,-12.82 4.96,-37.61 4.98,-41.14 0.029,-3.53 -19.681,-48.37 36.779,-46.82 56.46,1.55 31.511,39.03 32.57,56.69 0.87,14.52 0.95,36.3 27.26,35.85"
   id="path26"
   inkscape:connector-curvature="0"
   style="fill:none;stroke:#000000" />
				</g>
			</g>
		</g>
	</g>
	<g
   id="g28">
		<g
   id="g30">
			<g
   id="XMLID_5_">
				<g
   id="g33">
					<path
   d="m 343.111,341.15 c -0.87,14.52 0.7,36.19 -25.6,35.76 l -0.36,-0.1 -55.93,0.03 -0.02,-34.58 c -0.02,4.29 0.08,-19.04 -4.98,-25.94 -12.95,-17.64 -37.65,-4.68 -41.18,-4.68 -3.53,0 -48.22,20.02 -47.08,-36.45 1.15,-56.47 38.81,-31.78 56.46,-32.97 14.51,-0.97 36.92,-0.37 36.29,-26.67 l -0.01,-22.75 76.47,-0.04 c 8.18,0.1 16.42,-1.34 21.04,-4.68 17.729,-12.82 4.96,-37.61 4.979,-41.14 0.021,-3.53 -19.68,-48.37 36.78,-46.82 56.46,1.55 31.5,39.03 32.57,56.68 0.87,14.53 0.949,36.31 27.26,35.86 l 55.439,-0.03 0.021,23.53 c 0.62,26.31 -21.79,24.92 -36.3,25.89 -17.65,1.19 -55.311,-23.5 -56.45,32.97 -1.15,56.47 43.55,36.45 47.07,36.45 3.529,0 28.229,-12.96 41.18,4.69 3.37,4.59 4.59,11.81 4.55,19.99 l 0.01,0.01 0.021,40.55 -77.19,0.03 c -8.18,0.11 -16.08,-1.01 -20.7,-4.35 -17.739,-12.82 -4.979,-37.61 -5,-41.14 -0.029,-3.53 19.65,-48.38 -36.81,-46.8 -56.46,1.58 -31.48,39.05 -32.53,56.7 z"
   id="path35"
   inkscape:connector-curvature="0"
   style="fill:#365ba2" />
				</g>
				<g
   id="g37">
					<path
   d="m 438.15,376.74 c -8.18,0.11 -16.08,-1.01 -20.7,-4.35 -17.739,-12.82 -4.979,-37.61 -5,-41.14 -0.029,-3.53 19.65,-48.38 -36.81,-46.8 -56.46,1.58 -31.48,39.05 -32.53,56.7 -0.87,14.52 0.7,36.19 -25.6,35.76"
   id="path39"
   inkscape:connector-curvature="0"
   style="fill:none;stroke:#000000" />
					<polyline
   points="458.961,192.66 459.801,192.66 515.24,192.63 515.261,216.16      "
   id="polyline41"
   style="fill:none;stroke:#000000" />
					<polyline
   points="317.151,376.81 261.221,376.84 261.201,342.26      "
   id="polyline43"
   style="fill:none;stroke:#000000" />
					<polyline
   points="515.32,336.16 515.341,376.71 438.15,376.74      "
   id="polyline45"
   style="fill:none;stroke:#000000" />
					<path
   d="m 515.311,336.15 c 0.04,-8.18 -1.18,-15.4 -4.55,-19.99 -12.95,-17.65 -37.65,-4.69 -41.18,-4.69 -3.521,0 -48.221,20.02 -47.07,-36.45 1.14,-56.47 38.8,-31.78 56.45,-32.97 14.51,-0.97 36.92,0.42 36.3,-25.89"
   id="path47"
   inkscape:connector-curvature="0"
   style="fill:none;stroke:#000000" />
					<path
   d="m 261.201,342.26 c -0.02,4.29 0.08,-19.04 -4.98,-25.94 -12.95,-17.64 -37.65,-4.68 -41.18,-4.68 -3.53,0 -48.22,20.02 -47.08,-36.45 1.15,-56.47 38.81,-31.78 56.46,-32.97 14.51,-0.97 36.92,-0.37 36.29,-26.67"
   id="path49"
   inkscape:connector-curvature="0"
   style="fill:none;stroke:#000000" />
					<polyline
   points="260.71,216.33 260.71,215.55 260.701,192.8 337.171,192.76      "
   id="polyline51"
   style="fill:none;stroke:#000000" />
					<path
   d="m 337.171,192.76 c 8.18,0.1 16.42,-1.34 21.04,-4.68 17.729,-12.82 4.96,-37.61 4.979,-41.14 0.021,-3.53 -19.68,-48.37 36.78,-46.82 56.46,1.55 31.5,39.03 32.57,56.68 0.87,14.53 0.949,36.31 27.26,35.86"
   id="path53"
   inkscape:connector-curvature="0"
   style="fill:none;stroke:#000000" />
				</g>
			</g>
		</g>
	</g>
	<g
   id="g55">
		<g
   id="g57">
			<g
   id="XMLID_4_">
				<g
   id="g60">
					<path
   d="m 89.6,341.15 c -0.87,14.52 0.7,36.19 -25.6,35.76 L 63.64,376.8 7.71,376.83 7.69,342.26 7.2,216.33 7.19,192.8 83.66,192.76 c 8.18,0.1 16.42,-1.34 21.04,-4.68 17.73,-12.83 4.96,-37.62 4.98,-41.15 0.02,-3.53 -19.68,-48.36 36.78,-46.81 56.46,1.54 31.51,39.03 32.57,56.68 0.87,14.52 0.95,36.3 27.26,35.86 l 55.44,-0.03 0.02,23.53 c 0.63,26.3 -21.79,24.92 -36.3,25.89 -17.65,1.19 -55.31,-23.5 -56.45,32.97 -1.15,56.47 43.55,36.45 47.08,36.45 3.52,-0.01 28.22,-12.96 41.17,4.68 3.37,4.6 4.59,11.82 4.55,20 l 0.01,0.01 0.02,40.54 -77.19,0.04 c -8.18,0.1 -16.08,-1.02 -20.7,-4.35 -17.74,-12.82 -4.98,-37.62 -5,-41.15 -0.03,-3.52 19.66,-48.37 -36.81,-46.79 -56.46,1.58 -31.48,39.04 -32.53,56.7 z"
   id="path62"
   inkscape:connector-curvature="0"
   style="fill:#47c0eb" />
				</g>
				<g
   id="g64">
					<path
   d="m 184.64,376.74 c -8.18,0.1 -16.08,-1.02 -20.7,-4.35 -17.74,-12.82 -4.98,-37.62 -5,-41.15 -0.03,-3.52 19.66,-48.37 -36.81,-46.79 -56.46,1.58 -31.48,39.04 -32.53,56.7 -0.87,14.52 0.7,36.19 -25.6,35.76"
   id="path66"
   inkscape:connector-curvature="0"
   style="fill:none;stroke:#000000" />
					<polyline
   points="205.46,192.66 206.29,192.66 261.73,192.63 261.75,216.16      "
   id="polyline68"
   style="fill:none;stroke:#000000" />
					<polyline
   points="63.64,376.8 7.71,376.83 7.69,342.26      "
   id="polyline70"
   style="fill:none;stroke:#000000" />
					<polyline
   points="261.81,336.16 261.83,376.7 184.64,376.74      "
   id="polyline72"
   style="fill:none;stroke:#000000" />
					<path
   d="m 261.8,336.15 c 0.04,-8.18 -1.18,-15.4 -4.55,-20 -12.95,-17.64 -37.65,-4.69 -41.17,-4.68 -3.53,0 -48.23,20.02 -47.08,-36.45 1.14,-56.47 38.8,-31.78 56.45,-32.97 14.51,-0.97 36.93,0.41 36.3,-25.89"
   id="path74"
   inkscape:connector-curvature="0"
   style="fill:none;stroke:#000000" />
					<polyline
   points="83.66,192.76 7.19,192.8 7.2,216.33 7.69,342.26      "
   id="polyline76"
   style="fill:none;stroke:#000000" />
					<path
   d="m 83.66,192.76 c 8.18,0.1 16.42,-1.34 21.04,-4.68 17.73,-12.83 4.96,-37.62 4.98,-41.15 0.02,-3.53 -19.68,-48.36 36.78,-46.81 56.46,1.54 31.51,39.03 32.57,56.68 0.87,14.52 0.95,36.3 27.26,35.86"
   id="path78"
   inkscape:connector-curvature="0"
   style="fill:none;stroke:#000000" />
				</g>
			</g>
		</g>
	</g>
	<g
   id="g80">
		<g
   id="XMLID_3_">
			<g
   id="g83">
				<path
   d="m 769.086,128.841 v 63.07 h -56.59 c -26.29,0.74 -24.79,-22.38 -25.83,-36.89 -1.261,-17.64 23.279,-55.4 -33.19,-56.32 -56.479,-0.92 -36.28,43.7 -36.26,47.22 0.01,3.53 13.07,28.18 -4.521,41.2 -4.58,3.39 -11.8,4.64 -19.979,4.63 l -77.75,0.16 v -64.07 l 0.03,-0.03 c -0.04,-8.18 1.18,-15.41 4.55,-20 12.939,-17.65 37.64,-4.71 41.17,-4.71 3.53,0 48.24,20 47.06,-36.47 -1.18,-56.47 -38.819,-31.76 -56.47,-32.94 -14.51,-0.97 -36.19,0.45 -35.58,-25.85 h 253.36 v 121 z"
   id="path85"
   inkscape:connector-curvature="0"
   style="fill:#76b41f" />
			</g>
			<g
   id="g87">
				<path
   d="m 514.996,127.811 c -0.04,-8.18 1.18,-15.41 4.55,-20 12.939,-17.65 37.64,-4.71 41.17,-4.71 3.53,0 48.24,20 47.06,-36.47 -1.18,-56.47 -38.819,-31.76 -56.47,-32.94 -14.51,-0.97 -36.19,0.45 -35.58,-25.85"
   id="path89"
   inkscape:connector-curvature="0"
   style="fill:none;stroke:#000000" />
				<path
   d="m 592.716,191.75 c 8.18,0.01 15.399,-1.24 19.979,-4.63 17.591,-13.02 4.53,-37.67 4.521,-41.2 -0.021,-3.52 -20.22,-48.14 36.26,-47.22 56.47,0.92 31.93,38.68 33.19,56.32 1.04,14.51 -0.46,37.63 25.83,36.89"
   id="path91"
   inkscape:connector-curvature="0"
   style="fill:none;stroke:#000000" />
				<polyline
   points="514.966,127.841 514.966,191.911 592.716,191.75     "
   id="polyline93"
   style="fill:none;stroke:#000000" />
				<polyline
   points="769.086,7.841 515.726,7.841 514.966,7.841     "
   id="polyline95"
   style="fill:none;stroke:#000000" />
				<polyline
   points="712.496,191.911 769.086,191.911 769.086,128.841 769.086,7.841     "
   id="polyline97"
   style="fill:none;stroke:#000000" />
			</g>
		</g>
	</g>
	<g
   id="g99">
		<g
   id="XMLID_2_">
			<g
   id="g102">
				<path
   d="m 517.375,8.329 c -0.61,26.31 21.06,24.89 35.58,25.86 17.649,1.17 55.29,-23.53 56.47,32.94 1.18,56.47 -43.53,36.47 -47.061,36.47 -3.529,0 -28.229,-12.94 -41.18,4.7 -3.229,4.42 -4.45,12.84 -4.5,20.73 v 1 62.08 h -56.59 c -26.3,0.73 -24.8,-22.38 -25.83,-36.89 -1.26,-17.64 23.28,-55.4 -33.2,-56.32 -56.47,-0.92 -36.27,43.69 -36.26,47.22 0.02,3.53 13.07,28.18 -4.52,41.2 -4.57,3.39 -11.801,4.64 -19.971,4.63 l -77.75,0.16 v -64.07 l 0.03,-0.04 c -0.04,-8.17 1.17,-15.4 4.54,-19.99 12.94,-17.65 37.65,-4.71 41.18,-4.71 3.53,0 48.23,20 47.061,-36.47 -1.181,-56.47 -38.831,-31.77 -56.47,-32.94 -14.52,-0.97 -36.19,0.45 -35.58,-25.85 h 253.36 l 0.691,0.29 z"
   id="path104"
   inkscape:connector-curvature="0"
   style="fill:#ede439" />
			</g>
			<g
   id="g106">
				<path
   d="m 262.595,127.999 c -0.04,-8.17 1.17,-15.4 4.54,-19.99 12.94,-17.65 37.65,-4.71 41.18,-4.71 3.53,0 48.23,20 47.061,-36.47 -1.181,-56.47 -38.831,-31.77 -56.47,-32.94 -14.52,-0.97 -36.19,0.45 -35.58,-25.85"
   id="path108"
   inkscape:connector-curvature="0"
   style="fill:none;stroke:#000000" />
				<path
   d="m 516.685,129.028 c 0.05,-7.89 1.271,-16.31 4.5,-20.73 12.95,-17.64 37.65,-4.7 41.18,-4.7 3.53,0 48.24,20 47.061,-36.47 -1.18,-56.47 -38.82,-31.77 -56.47,-32.94 -14.521,-0.97 -36.19,0.45 -35.58,-25.86"
   id="path110"
   inkscape:connector-curvature="0"
   style="fill:none;stroke:#000000" />
				<path
   d="m 340.314,191.949 c 8.17,0.01 15.4,-1.24 19.971,-4.63 17.59,-13.02 4.539,-37.67 4.52,-41.2 -0.01,-3.53 -20.21,-48.14 36.26,-47.22 56.48,0.92 31.94,38.68 33.2,56.32 1.03,14.51 -0.47,37.62 25.83,36.89"
   id="path112"
   inkscape:connector-curvature="0"
   style="fill:none;stroke:#000000" />
				<polyline
   points="262.564,128.039 262.564,192.108 340.314,191.949     "
   id="polyline114"
   style="fill:none;stroke:#000000" />
				<polyline
   points="516.685,8.039 263.325,8.039 262.564,8.039     "
   id="polyline116"
   style="fill:none;stroke:#000000" />
				<polyline
   points="460.095,192.108 516.685,192.108 516.685,130.028 516.685,129.028     "
   id="polyline118"
   style="fill:none;stroke:#000000" />
			</g>
		</g>
	</g>
	<g
   id="g120">
		<g
   id="XMLID_1_">
			<g
   id="g123">
				<path
   d="m 264.019,8.332 c -0.62,26.3 21.06,24.89 35.57,25.85 17.65,1.18 55.29,-23.53 56.47,32.94 1.181,56.47 -43.53,36.47 -47.06,36.47 -3.53,0 -28.23,-12.94 -41.17,4.71 -3.23,4.42 -4.46,12.83 -4.51,20.73 v 1 62.08 h -56.59 c -26.3,0.73 -24.8,-22.39 -25.83,-36.89 -1.26,-17.65 23.28,-55.4 -33.2,-56.32 -56.47,-0.93 -36.27,43.69 -36.25,47.22 0.01,3.53 13.07,28.17 -4.52,41.2 -4.58,3.39 -11.8,4.63 -19.98,4.63 l -77.75,0.16 V 8.032 h 254.12 l 0.7,0.3 z"
   id="path125"
   inkscape:connector-curvature="0"
   style="fill:#de3918" />
			</g>
			<g
   id="g127">
				<path
   d="m 263.319,129.032 c 0.05,-7.9 1.28,-16.31 4.51,-20.73 12.94,-17.65 37.64,-4.71 41.17,-4.71 3.53,0 48.24,20 47.06,-36.47 -1.18,-56.47 -38.82,-31.76 -56.47,-32.94 -14.51,-0.96 -36.19,0.45 -35.57,-25.85"
   id="path129"
   inkscape:connector-curvature="0"
   style="fill:none;stroke:#000000" />
				<path
   d="m 86.949,191.952 c 8.18,0 15.4,-1.24 19.98,-4.63 17.59,-13.03 4.53,-37.67 4.52,-41.2 -0.02,-3.53 -20.22,-48.15 36.25,-47.22 56.48,0.92 31.94,38.67 33.2,56.32 1.03,14.5 -0.47,37.62 25.83,36.89"
   id="path131"
   inkscape:connector-curvature="0"
   style="fill:none;stroke:#000000" />
				<polyline
   points="263.319,8.032 9.199,8.032 9.199,192.112 86.949,191.952     "
   id="polyline133"
   style="fill:none;stroke:#000000" />
				<polyline
   points="206.729,192.112 263.319,192.112 263.319,130.032 263.319,129.032     "
   id="polyline135"
   style="fill:none;stroke:#000000" />
			</g>
		</g>
	</g>
	<g
   id="g137">
		<g
   id="XMLID_7_">
			<g
   id="g140">
				<path
   d="m 261.584,520.09 c 0.01,-0.07 0.01,-0.16 0.01,-0.28 v 40.32 H 7.474 V 376.06 l 56.67,-0.15 c 0.08,0 0.16,0 0.23,0 0.38,0.01 0.75,0.01 1.11,0 0.02,0.01 0.03,0.01 0.04,0 24.87,-0.34 23.37,-21.5 24.21,-35.76 1.05,-17.65 -23.92,-55.12 32.54,-56.7 56.46,-1.58 36.78,43.27 36.81,46.8 0.02,3.53 -12.74,28.32 5,41.14 4.61,3.33 12.86,4.77 21.04,4.67 h 76.47 v 22.75 c -0.62,26.3 21.79,25.69 36.3,26.65 17.65,1.18 55.299,-23.53 56.48,32.94 1.17,56.471 -43.53,36.471 -47.06,36.471 -3.53,0 -28.24,-12.94 -41.18,4.71 -3.94,5.369 -4.49,17.079 -4.54,20 v 0.01 c -0.01,0.219 -0.01,0.388 -0.01,0.499 z"
   id="path142"
   inkscape:connector-curvature="0"
   style="fill:#e64363" />
			</g>
			<g
   id="g144">
				<path
   d="m 261.594,519.58 c 0.05,-2.921 0.6,-14.631 4.54,-20 12.94,-17.65 37.65,-4.71 41.18,-4.71 3.53,0 48.23,20 47.06,-36.471 -1.181,-56.47 -38.83,-31.76 -56.48,-32.94 -14.51,-0.96 -36.92,-0.35 -36.3,-26.65"
   id="path146"
   inkscape:connector-curvature="0"
   style="fill:none;stroke:#000000" />
				<path
   d="m 261.584,520.09 c 0,-0.11 0,-0.28 0.01,-0.5"
   id="path148"
   inkscape:connector-curvature="0"
   style="fill:none;stroke:#000000" />
				<path
   d="m 261.594,519.81 c 0,0.12 0,0.21 -0.01,0.28 0.01,0.109 0.01,0.16 0,0.16"
   id="path150"
   inkscape:connector-curvature="0"
   style="fill:none;stroke:#000000" />
				<line
   x1="261.59399"
   y1="519.59003"
   x2="261.59399"
   y2="519.58002"
   id="line152"
   style="fill:none;stroke:#000000" />
				<polyline
   points="64.144,375.91 7.474,376.06 7.474,560.13 261.594,560.13 261.594,519.81       261.594,519.59     "
   id="polyline154"
   style="fill:none;stroke:#000000" />
				<line
   x1="65.484001"
   y1="375.91"
   x2="64.374001"
   y2="375.91"
   id="line156"
   style="fill:none;stroke:#000000" />
				<polyline
   points="261.594,399.59 261.594,398.81 261.594,376.06 185.124,376.06     "
   id="polyline158"
   style="fill:none;stroke:#000000" />
				<path
   d="m 185.124,376.06 c -8.18,0.1 -16.43,-1.34 -21.04,-4.67 -17.74,-12.82 -4.98,-37.61 -5,-41.14 -0.03,-3.53 19.65,-48.38 -36.81,-46.8 -56.46,1.58 -31.49,39.05 -32.54,56.7 -0.84,14.26 0.66,35.42 -24.21,35.76 -0.01,0.01 -0.02,0.01 -0.04,0 -0.36,0.01 -0.73,0.01 -1.11,0 -0.07,0 -0.15,0 -0.23,0"
   id="path160"
   inkscape:connector-curvature="0"
   style="fill:none;stroke:#000000" />
			</g>
		</g>
	</g>
	<g
   id="g162">
		<g
   id="g164">
			<g
   id="XMLID_8_">
				<g
   id="g167">
					<path
   d="m 607.41,458.424 c 1.18,56.47 -43.53,36.47 -47.061,36.47 -3.529,0 -28.229,-12.94 -41.18,4.7 -5.06,6.899 -4.939,30.229 -4.96,25.939 v 34.58 H 260.09 v -40.54 -0.02 c -0.05,-8.17 1.17,-15.4 4.54,-19.99 12.94,-17.65 37.65,-4.71 41.18,-4.71 3.53,0 48.23,20 47.06,-36.47 -1.18,-56.47 -38.83,-31.77 -56.48,-32.94 -14.51,-0.97 -36.92,0.43 -36.3,-25.88 v -23.52 h 55.44 c 26.31,0.43 26.38,-21.35 27.25,-35.88 1.05,-17.65 -23.93,-55.12 32.53,-56.7 56.46,-1.58 36.78,43.27 36.811,46.8 0.02,3.53 -12.74,28.33 5,41.14 4.62,3.34 12.86,4.78 21.04,4.67 h 76.47 v 22.75 c -0.62,26.3 21.79,25.69 36.311,26.66 17.648,1.171 55.288,-23.528 56.468,32.941 z"
   id="path169"
   inkscape:connector-curvature="0"
   style="fill:#e99d00" />
				</g>
				<g
   id="g171">
					<polyline
   points="316.37,376.044 315.53,376.044 260.09,376.044 260.09,399.564      "
   id="polyline173"
   style="fill:none;stroke:#000000" />
					<polyline
   points="260.09,519.574 260.09,560.114 514.21,560.114 514.21,525.534      "
   id="polyline175"
   style="fill:none;stroke:#000000" />
					<path
   d="m 260.09,519.555 c -0.05,-8.17 1.17,-15.4 4.54,-19.99 12.94,-17.65 37.65,-4.71 41.18,-4.71 3.53,0 48.23,20 47.06,-36.47 -1.18,-56.47 -38.83,-31.77 -56.48,-32.94 -14.51,-0.97 -36.92,0.43 -36.3,-25.88"
   id="path177"
   inkscape:connector-curvature="0"
   style="fill:none;stroke:#000000" />
					<path
   d="m 514.21,525.534 c 0.021,4.29 -0.1,-19.04 4.96,-25.939 12.95,-17.641 37.65,-4.7 41.18,-4.7 3.53,0 48.24,20 47.061,-36.47 -1.18,-56.47 -38.82,-31.77 -56.47,-32.94 -14.521,-0.97 -36.931,-0.36 -36.311,-26.66"
   id="path179"
   inkscape:connector-curvature="0"
   style="fill:none;stroke:#000000" />
					<polyline
   points="514.63,399.604 514.63,398.824 514.63,376.074 438.16,376.074      "
   id="polyline181"
   style="fill:none;stroke:#000000" />
					<path
   d="m 438.16,376.074 c -8.18,0.11 -16.42,-1.33 -21.04,-4.67 -17.74,-12.81 -4.98,-37.61 -5,-41.14 -0.03,-3.53 19.649,-48.38 -36.811,-46.8 -56.459,1.58 -31.479,39.05 -32.53,56.7 -0.87,14.53 -0.94,36.31 -27.25,35.88"
   id="path183"
   inkscape:connector-curvature="0"
   style="fill:none;stroke:#000000" />
				</g>
			</g>
		</g>
	</g>
	<g
   id="g185">
		<g
   id="g187">
			<g
   id="XMLID_9_">
				<g
   id="g190">
					<path
   d="m 769.247,376.075 v 23.53 l -0.431,125.93 v 34.58 h -254.12 v -40.55 l 0.011,-0.01 c -0.051,-8.181 1.17,-15.4 4.54,-20 12.939,-17.65 37.64,-4.7 41.17,-4.7 3.529,0 48.239,20 47.06,-36.48 -1.17,-56.47 -38.82,-31.76 -56.47,-32.94 -14.51,-0.96 -36.92,0.43 -36.311,-25.87 v -23.53 h 55.45 c 26.311,0.43 26.38,-21.35 27.24,-35.87 1.05,-17.65 -23.92,-55.12 32.54,-56.7 56.46,-1.58 36.78,43.27 36.8,46.8 0.03,3.53 -12.729,28.32 5,41.14 4.62,3.34 12.87,4.78 21.05,4.67 h 76.471 z"
   id="path192"
   inkscape:connector-curvature="0"
   style="fill:#bebfc0" />
				</g>
				<g
   id="g194">
					<polyline
   points="570.977,376.035 570.146,376.035 514.696,376.035 514.696,399.565      "
   id="polyline196"
   style="fill:none;stroke:#000000" />
					<polyline
   points="514.696,519.565 514.696,560.115 768.816,560.115 768.816,525.535        769.247,399.605      "
   id="polyline198"
   style="fill:none;stroke:#000000" />
					<path
   d="m 514.707,519.556 c -0.051,-8.181 1.17,-15.4 4.54,-20 12.939,-17.65 37.64,-4.7 41.17,-4.7 3.529,0 48.239,20 47.06,-36.48 -1.17,-56.47 -38.82,-31.76 -56.47,-32.94 -14.51,-0.96 -36.92,0.43 -36.311,-25.87"
   id="path200"
   inkscape:connector-curvature="0"
   style="fill:none;stroke:#000000" />
					<line
   x1="769.24701"
   y1="376.07501"
   x2="692.776"
   y2="376.07501"
   id="line202"
   style="fill:none;stroke:#000000" />
					<line
   x1="769.24701"
   y1="376.07501"
   x2="769.24701"
   y2="399.60501"
   id="line204"
   style="fill:none;stroke:#000000" />
					<path
   d="m 692.776,376.075 c -8.18,0.11 -16.43,-1.33 -21.05,-4.67 -17.729,-12.82 -4.97,-37.61 -5,-41.14 -0.02,-3.53 19.66,-48.38 -36.8,-46.8 -56.46,1.58 -31.49,39.05 -32.54,56.7 -0.86,14.52 -0.93,36.3 -27.24,35.87"
   id="path206"
   inkscape:connector-curvature="0"
   style="fill:none;stroke:#000000" />
				</g>
			</g>
		</g>
	</g>
</g>
</svg>