<?xml version="1.0" standalone="no"?>
<!DOCTYPE svg PUBLIC "-//W3C//DTD SVG 20010904//EN"
 "http://www.w3.org/TR/2001/REC-SVG-20010904/DTD/svg10.dtd">
<svg version="1.0" xmlns="http://www.w3.org/2000/svg"
 width="300.000000pt" height="156.000000pt" viewBox="0 0 300.000000 156.000000"
 preserveAspectRatio="xMidYMid meet">
<metadata>
Created by potrace 1.10, written by Peter Selinger 2001-2011
</metadata>
<g transform="translate(0.000000,156.000000) scale(0.100000,-0.100000)"
fill="#ffffff" stroke="none">
<path d="M1280 1528 c-83 -30 -169 -87 -225 -151 -24 -28 -43 -52 -42 -53 1
-2 29 10 62 25 110 52 191 66 385 66 197 -1 267 -13 383 -70 37 -18 67 -30 67
-26 0 4 -33 40 -74 80 -55 52 -96 82 -153 108 -76 36 -82 37 -208 40 -114 3
-138 1 -195 -19z m320 -12 c62 -20 130 -54 130 -67 0 -6 4 -8 8 -5 5 3 21 -6
38 -19 l29 -24 -39 5 c-21 2 -43 7 -49 11 -10 6 -29 9 -137 21 -114 13 -317 1
-397 -23 -57 -18 -63 -18 -63 -5 0 6 6 10 14 10 8 0 17 7 20 16 3 8 10 12 16
9 5 -3 10 -1 10 5 0 5 17 18 38 26 20 9 45 21 56 26 71 37 231 43 326 14z"/>
<path d="M1254 1364 c-87 -14 -196 -51 -250 -85 -24 -14 -37 -34 -50 -72 -9
-29 -19 -58 -22 -66 -3 -9 11 -4 39 12 185 108 596 130 859 46 72 -23 116 -44
144 -68 18 -15 19 -15 12 4 -4 11 -15 42 -24 69 -13 39 -25 55 -60 77 -134 85
-421 121 -648 83z m379 -20 c12 -4 32 -7 44 -5 13 1 28 -1 35 -6 7 -4 24 -9
38 -11 14 -2 27 -7 28 -13 2 -5 8 -7 12 -4 11 7 80 -26 80 -37 0 -5 4 -7 9 -3
14 8 58 -42 58 -67 0 -13 -11 -11 -69 13 -37 15 -68 26 -68 24 0 -2 -21 2 -47
10 -61 18 -258 34 -348 29 -152 -9 -244 -24 -330 -53 -106 -36 -95 -34 -95
-18 1 40 125 116 197 120 17 1 29 5 27 9 -2 3 26 9 63 13 38 3 77 7 88 9 39 5
255 -3 278 -10z"/>
<path d="M1285 1199 c-114 -11 -234 -41 -305 -77 l-55 -27 -3 -72 c-2 -40 -1
-73 2 -73 3 0 17 12 31 26 33 33 117 71 202 90 92 22 407 30 516 14 131 -19
231 -55 277 -99 l41 -39 -3 77 -3 76 -64 31 c-136 68 -389 96 -636 73z m370
-25 c28 -2 59 -7 70 -11 11 -4 29 -7 40 -8 42 -4 85 -17 85 -27 0 -5 6 -8 13
-5 6 2 33 -6 60 -20 42 -21 47 -27 47 -58 0 -37 -9 -38 -55 -9 -30 19 -139 51
-224 64 -146 24 -502 11 -576 -20 -11 -5 -44 -16 -72 -25 -29 -9 -55 -21 -58
-26 -4 -5 -15 -9 -26 -9 -27 0 -25 40 3 64 54 46 198 84 353 93 50 3 92 8 95
10 5 5 143 -2 245 -13z"/>
<path d="M1246 1039 c-137 -19 -233 -51 -286 -95 -32 -28 -34 -37 -11 -97 l9
-24 59 27 c91 44 228 63 443 63 244 0 419 -32 481 -89 14 -12 17 -8 28 37 13
50 13 51 -15 80 -32 33 -98 60 -205 84 -89 19 -401 28 -503 14z m439 -24 c155
-29 209 -48 244 -86 11 -13 21 -33 21 -46 0 -20 -3 -23 -27 -17 -16 4 -37 12
-48 18 -23 12 -27 13 -56 15 -11 0 -18 4 -16 9 3 4 -12 6 -34 6 -21 -1 -41 2
-44 6 -6 10 -128 15 -328 13 -174 -2 -272 -16 -371 -55 -39 -15 -51 -16 -57
-6 -38 59 95 125 298 148 79 9 363 6 418 -5z"/>
<path d="M1230 879 c-36 -4 -85 -13 -110 -20 -48 -13 -135 -53 -143 -67 -7
-10 68 -118 80 -115 4 1 26 9 48 17 158 56 668 45 743 -16 14 -12 26 -1 68 70
26 42 26 43 8 57 -35 27 -127 56 -223 70 -103 16 -362 18 -471 4z m398 -15
c34 -4 59 -11 56 -15 -3 -5 -1 -9 5 -9 5 0 11 4 13 10 6 20 182 -35 200 -63 7
-12 -4 -38 -29 -67 -13 -14 -21 -16 -47 -9 -62 19 -193 38 -271 40 -44 1 -90
6 -102 10 -14 5 -23 5 -23 -1 0 -6 -28 -9 -68 -8 -37 1 -72 0 -77 -3 -12 -6
-75 -13 -127 -14 -20 0 -34 -3 -32 -6 2 -3 -12 -11 -31 -16 -29 -9 -36 -8 -53
11 -30 33 -34 44 -23 65 14 25 115 59 211 70 93 10 316 13 398 5z"/>
<path d="M1315 700 c-158 -12 -267 -38 -240 -57 6 -5 35 -27 65 -49 152 -115
371 -136 545 -54 65 31 155 95 155 110 0 34 -325 65 -525 50z m325 -26 c96 -8
140 -16 147 -27 15 -24 -105 -96 -208 -122 -113 -30 -296 -5 -377 52 -14 10
-37 25 -51 34 -38 23 -33 42 14 51 115 23 298 27 475 12z"/>
<path d="M800 378 c-93 -14 -162 -75 -194 -171 -38 -113 1 -198 88 -196 l41 1
-37 12 c-98 30 -112 122 -38 239 44 69 117 102 208 94 47 -5 70 -12 84 -27 19
-20 19 -20 -7 -30 -35 -13 -42 -13 -69 5 -56 37 -133 8 -166 -62 -47 -100 -22
-177 61 -185 21 -2 40 -1 41 3 2 3 17 12 33 20 23 11 30 21 30 44 0 23 -5 31
-22 33 -13 2 -23 10 -23 19 0 9 6 13 15 9 8 -3 15 -1 15 3 0 5 8 8 18 6 9 -2
29 -4 43 -4 26 -1 26 -1 16 -53 -13 -68 -32 -83 -137 -113 l-45 -13 41 -1 c26
-1 59 9 94 27 53 27 53 28 75 105 l22 77 -88 0 c-48 0 -90 -3 -92 -7 -3 -5 -8
-23 -12 -40 -6 -32 -6 -33 29 -33 48 0 48 -26 1 -46 -100 -42 -147 17 -101
128 30 71 116 105 149 58 13 -18 19 -19 67 -10 30 6 54 11 55 13 1 1 -2 17 -7
34 -14 53 -84 76 -188 61z"/>
<path d="M1078 318 c-10 -35 -33 -118 -51 -185 l-34 -123 53 0 c50 0 54 2 60
27 8 36 83 314 89 331 3 8 -10 12 -48 12 l-52 0 -17 -62z m82 18 c0 -6 -9 -43
-21 -81 -21 -72 -42 -149 -53 -197 -5 -23 -12 -28 -36 -28 -27 0 -28 2 -21 28
5 15 23 83 41 152 18 69 39 130 47 137 17 13 43 7 43 -11z"/>
<path d="M1606 363 c-3 -10 -23 -88 -46 -173 -22 -85 -43 -161 -45 -168 -3 -8
10 -12 45 -12 45 0 50 2 51 23 l0 22 16 -23 c12 -18 25 -22 65 -22 65 0 103
27 134 94 30 63 31 115 3 150 -24 31 -73 35 -119 11 -34 -18 -35 -17 -15 49 8
27 15 53 15 58 0 4 -22 8 -49 8 -39 0 -51 -4 -55 -17z m71 -35 c-16 -63 -17
-74 -8 -87 7 -11 16 -11 53 3 51 20 92 10 103 -24 18 -57 -30 -156 -90 -184
-43 -21 -57 -20 -85 4 -28 24 -34 25 -54 5 -21 -22 -59 -20 -52 3 3 9 14 51
25 94 11 42 27 100 37 130 9 29 19 59 20 66 2 6 15 12 30 12 22 0 25 -3 21
-22z"/>
<path d="M1682 217 c-63 -36 -76 -148 -18 -159 38 -8 72 16 94 65 17 39 15 60
-8 85 -24 25 -36 27 -68 9z m62 -32 c6 -16 -11 -72 -27 -92 -13 -18 -64 -16
-71 2 -3 8 0 32 7 52 17 54 75 78 91 38z"/>
<path d="M2305 368 c-7 -21 -95 -350 -95 -355 0 -2 23 -3 52 -1 l51 3 42 155
c23 85 45 167 49 183 6 27 6 27 -44 27 -32 0 -52 -5 -55 -12z m65 -40 c0 -13
-12 -63 -26 -113 -13 -50 -30 -111 -36 -137 -10 -43 -14 -48 -39 -48 -21 0
-26 4 -23 18 2 9 20 79 39 154 19 75 35 139 35 142 0 3 11 6 25 6 19 0 25 -5
25 -22z"/>
<path d="M1294 265 c-43 -19 -101 -89 -109 -131 -12 -69 25 -125 84 -123 l36
1 -30 10 c-55 21 -69 43 -66 111 1 28 45 79 89 104 29 17 118 19 137 3 8 -7
15 -9 15 -4 1 5 8 -3 16 -19 33 -61 -32 -163 -119 -189 -35 -10 -38 -13 -18
-16 37 -6 68 6 107 40 57 50 80 129 54 179 -25 46 -128 64 -196 34z"/>
<path d="M1975 266 c-16 -7 -40 -25 -53 -39 l-23 -25 45 -6 c34 -5 52 -3 68 8
32 23 78 21 78 -3 0 -15 -15 -22 -85 -36 -93 -20 -129 -43 -141 -91 -11 -45 6
-59 76 -62 43 -2 69 2 86 12 29 20 38 20 30 1 -4 -12 5 -15 49 -15 41 0 53 3
49 13 -3 8 5 48 16 90 27 96 24 137 -10 154 -33 17 -147 16 -185 -1z m184 -38
c11 -18 10 -34 -10 -109 -22 -84 -24 -89 -50 -89 -18 0 -28 6 -32 20 -3 11 -1
23 5 26 20 12 26 49 11 66 -13 14 -12 17 6 23 15 4 21 15 21 35 0 24 -5 31
-27 37 l-28 7 35 6 c44 7 52 5 69 -22z m-124 15 c-11 -3 -28 -12 -37 -21 -12
-10 -18 -11 -18 -3 0 7 -6 9 -12 6 -7 -4 -4 1 6 9 11 9 34 15 50 15 22 -1 25
-3 11 -6z m34 -135 c-17 -33 -40 -47 -72 -48 -24 0 -28 4 -25 22 2 16 16 26
53 38 28 10 51 16 53 15 2 -2 -2 -14 -9 -27z m-117 -26 c-2 -18 1 -32 7 -32 6
0 11 -7 11 -15 0 -16 -35 -20 -64 -9 -23 9 -20 54 6 76 29 25 44 18 40 -20z"/>
<path d="M1307 209 c-33 -25 -53 -93 -38 -125 12 -26 67 -46 93 -33 20 10 58
87 58 117 0 29 -34 62 -64 62 -13 0 -35 -9 -49 -21z m83 -14 c27 -32 -21 -125
-65 -125 -33 0 -47 29 -35 70 18 62 70 91 100 55z"/>
</g>
</svg>
