<?xml version="1.0" standalone="no"?>
<!DOCTYPE svg PUBLIC "-//W3C//DTD SVG 20010904//EN"
 "http://www.w3.org/TR/2001/REC-SVG-20010904/DTD/svg10.dtd">
<svg version="1.0" xmlns="http://www.w3.org/2000/svg"
 width="231.000000pt" height="110.000000pt" viewBox="0 0 231.000000 110.000000"
 preserveAspectRatio="xMidYMid meet">
<metadata>
Created by potrace 1.10, written by Peter Selinger 2001-2011
</metadata>
<g transform="translate(0.000000,110.000000) scale(0.100000,-0.100000)"
fill="#ffffff" stroke="none">
<path d="M1182 1092 c-7 -5 -10 -16 -6 -25 3 -9 10 -15 15 -12 4 3 6 12 2 20
-3 8 0 15 7 15 6 0 9 -4 5 -9 -3 -5 -1 -12 5 -16 17 -10 11 -25 -9 -25 -11 0
-23 -9 -26 -21 -8 -23 3 -95 12 -85 3 3 17 -3 31 -14 16 -13 34 -18 51 -15 21
4 22 4 6 -3 -18 -8 -17 -10 10 -23 20 -10 29 -22 30 -41 0 -15 -5 -30 -12 -32
-9 -4 -13 4 -13 24 0 21 -5 30 -16 30 -9 0 -32 10 -52 22 -19 12 -46 22 -61
23 -14 2 -49 6 -77 10 -44 6 -60 4 -107 -18 -61 -28 -71 -41 -82 -104 -7 -47
2 -126 15 -118 8 5 25 100 21 122 -1 6 3 14 9 18 5 3 10 -2 10 -13 0 -10 7
-34 17 -52 14 -29 14 -38 3 -64 -31 -71 -21 -196 16 -196 8 0 14 6 11 13 -2 6
-9 11 -15 10 -23 -5 8 136 35 159 15 12 16 10 10 -14 -4 -15 -3 -37 2 -50 5
-13 14 -42 21 -65 9 -31 18 -41 31 -40 11 1 17 6 15 12 -2 5 -10 9 -17 7 -8
-2 -11 -1 -7 3 3 4 1 26 -7 50 -11 40 -11 50 10 108 31 90 29 89 78 67 23 -11
54 -20 68 -20 15 0 41 -3 58 -6 l32 -7 -3 -104 c-2 -81 1 -106 12 -113 22 -14
31 -1 15 23 -14 22 -11 67 5 67 5 0 6 -9 3 -20 -6 -22 14 -80 28 -80 13 0 11
28 -2 36 -8 4 -9 31 -5 83 4 46 3 71 -2 63 -7 -11 -11 -8 -15 10 -11 38 -8 58
8 58 9 0 15 -10 15 -26 l0 -26 28 33 c15 17 38 55 52 83 19 38 31 52 50 54 14
2 29 7 33 11 4 4 -7 5 -25 3 -30 -5 -32 -3 -19 12 14 17 50 13 62 -6 11 -17
74 -15 74 2 0 10 -8 14 -26 12 -28 -3 -43 16 -29 37 5 10 9 9 13 -3 4 -9 12
-16 19 -16 7 0 -2 14 -19 31 -18 16 -33 40 -33 52 -1 19 -2 20 -13 7 -7 -9
-37 -22 -67 -29 -30 -8 -73 -23 -94 -33 -56 -29 -100 -28 -125 3 -26 31 -35
77 -22 111 9 23 7 29 -9 38 -22 12 -22 12 -38 2z m28 -103 c0 -5 -4 -9 -10 -9
-5 0 -10 7 -10 16 0 8 5 12 10 9 6 -3 10 -10 10 -16z m320 -42 c0 -8 3 -8 9 2
7 10 9 7 8 -12 -2 -29 -7 -33 -24 -16 -7 7 -19 -1 -42 -28 -17 -20 -31 -33
-31 -28 0 5 12 22 27 37 15 15 22 28 16 28 -7 0 -28 -20 -49 -45 -20 -25 -41
-45 -47 -45 -7 0 -7 4 1 12 17 17 15 35 -6 40 -10 3 -19 12 -19 20 0 10 7 14
19 10 10 -2 18 1 18 8 0 7 7 10 15 6 8 -3 15 -1 15 5 0 6 7 9 15 6 8 -4 16 -3
19 1 8 13 56 12 56 -1z m-428 -59 c5 -14 -15 -38 -31 -38 -6 0 -11 -4 -11 -10
0 -5 5 -10 10 -10 13 0 13 -46 0 -71 -6 -10 -17 -19 -25 -19 -8 0 -22 -16 -31
-35 -16 -35 -34 -54 -34 -38 0 5 7 19 15 31 16 22 16 23 -14 120 -9 30 -7 37
14 58 27 26 100 34 107 12z m41 -28 c4 -25 4 -25 12 -2 12 37 31 26 26 -15 -1
-7 3 -13 9 -13 5 0 10 12 10 28 l1 27 29 -35 c16 -19 30 -38 30 -41 0 -4 -18
-5 -40 -3 -31 3 -38 0 -33 -11 3 -8 14 -15 24 -15 10 0 19 -4 19 -10 0 -19
-39 -10 -66 15 -26 24 -51 34 -40 16 3 -5 -3 -11 -14 -14 -26 -7 -27 28 -2 77
18 37 28 36 35 -4z m227 31 c3 -1 -1 -5 -8 -9 -9 -7 -6 -15 13 -36 26 -28 35
-63 13 -50 -9 5 -8 2 1 -10 19 -23 -1 -45 -24 -26 -9 7 -15 8 -15 2 0 -5 -9
-8 -19 -5 -12 3 -17 11 -14 19 3 8 9 12 13 9 5 -3 8 9 8 26 -1 17 5 34 12 39
9 6 7 11 -9 19 -24 14 -20 31 7 26 9 -2 19 -4 22 -4z m-408 -43 c-7 -7 -12 -8
-12 -2 0 14 12 26 19 19 2 -3 -1 -11 -7 -17z m320 -33 c4 -16 2 -34 -3 -39 -5
-6 -9 0 -9 16 0 15 -7 34 -16 43 -16 15 -16 16 2 13 12 -2 22 -15 26 -33z
m149 -27 c-16 -35 -19 -37 -14 -13 7 36 23 69 30 62 2 -3 -5 -25 -16 -49z
m-146 -37 c3 -5 1 -12 -5 -16 -5 -3 -10 1 -10 9 0 18 6 21 15 7z m-225 -38 c0
-5 -5 -15 -10 -23 -8 -12 -10 -11 -10 8 0 12 5 22 10 22 6 0 10 -3 10 -7z
m-80 -73 c0 -5 -5 -10 -11 -10 -5 0 -7 5 -4 10 3 6 8 10 11 10 2 0 4 -4 4 -10z
m380 -10 c0 -5 -8 -10 -17 -10 -15 0 -16 2 -3 10 19 12 20 12 20 0z"/>
<path d="M1050 810 c0 -5 5 -10 10 -10 6 0 10 5 10 10 0 6 -4 10 -10 10 -5 0
-10 -4 -10 -10z"/>
<path d="M1050 769 c0 -5 5 -7 10 -4 6 3 10 8 10 11 0 2 -4 4 -10 4 -5 0 -10
-5 -10 -11z"/>
<path d="M20 410 c0 -6 6 -10 14 -10 10 0 12 -20 9 -97 -4 -80 -8 -101 -24
-114 -17 -16 -16 -17 22 -17 36 -1 39 1 24 12 -16 11 -17 23 -10 102 l7 89 37
-97 c20 -54 39 -100 42 -103 3 -3 20 32 37 77 60 158 57 155 60 43 2 -80 0
-102 -13 -111 -12 -9 -3 -11 39 -11 51 0 54 1 36 16 -26 23 -40 211 -16 211 9
0 16 5 16 11 0 6 -7 8 -16 5 -9 -3 -26 -6 -38 -6 -18 0 -27 -14 -56 -91 l-33
-90 -33 86 c-18 48 -34 88 -36 89 -11 9 -68 14 -68 6z"/>
<path d="M548 404 c-37 -20 -58 -63 -58 -120 0 -39 5 -51 34 -80 39 -39 86
-45 136 -19 72 37 80 144 16 202 -40 37 -82 43 -128 17z m85 -3 c34 -13 50
-60 45 -128 -4 -43 -10 -61 -28 -75 -31 -25 -66 -23 -95 7 -22 21 -25 33 -25
90 0 57 3 69 25 90 26 27 41 30 78 16z"/>
<path d="M910 408 c0 -5 7 -8 15 -8 22 0 22 -205 0 -218 -10 -5 1 -8 34 -8 36
0 46 3 36 10 -15 13 -27 94 -14 101 4 3 25 -19 45 -50 39 -59 70 -75 107 -57
21 10 21 11 -5 11 -21 1 -36 12 -62 48 -31 43 -33 49 -18 57 45 23 55 71 22
101 -16 14 -37 19 -90 19 -39 1 -70 -2 -70 -6z m138 -55 c2 -33 -1 -44 -17
-52 -36 -20 -56 -1 -56 52 l0 48 35 -3 c33 -3 35 -5 38 -45z"/>
<path d="M1264 411 c-2 -2 -4 -16 -4 -30 l0 -25 16 22 c10 14 25 22 45 22 l29
0 0 -99 c0 -89 -2 -101 -20 -114 -19 -13 -16 -14 35 -14 43 0 52 2 40 11 -12
9 -16 35 -18 114 l-2 102 27 0 c16 0 33 -9 42 -22 l16 -22 0 29 0 30 -101 0
c-55 0 -102 -2 -105 -4z"/>
<path d="M1696 399 c-100 -79 -56 -229 68 -229 66 0 126 82 109 149 -21 87
-115 129 -177 80z m101 -4 c46 -32 52 -138 11 -190 -37 -47 -108 -24 -124 40
-12 50 2 118 31 142 31 27 52 29 82 8z"/>
<path d="M2050 411 c0 -6 7 -11 15 -11 23 0 22 -205 -2 -218 -12 -7 -6 -10 26
-10 41 -1 41 0 21 16 -19 15 -21 26 -18 106 l3 89 85 -106 c47 -58 88 -106 93
-106 4 -1 7 51 7 114 0 96 3 115 15 115 8 0 15 3 15 8 0 4 -18 7 -40 7 -22 0
-40 -3 -40 -7 0 -5 7 -8 15 -8 12 0 15 -15 15 -75 0 -41 -2 -75 -3 -75 -2 0
-33 36 -68 80 -44 55 -71 80 -86 80 -12 0 -28 3 -37 6 -9 3 -16 1 -16 -5z"/>
<path d="M230 90 c-24 -24 -26 -53 -4 -75 20 -19 66 -16 71 5 4 12 3 12 -5 2
-5 -8 -20 -12 -33 -10 -20 2 -24 9 -24 37 0 44 29 65 51 37 11 -16 14 -17 14
-4 0 15 -19 28 -41 28 -5 0 -18 -9 -29 -20z"/>
<path d="M1212 98 c-20 -20 -14 -36 18 -53 17 -9 28 -20 25 -25 -8 -13 -42
-13 -48 0 -3 6 -4 5 -3 -2 1 -7 15 -14 29 -16 41 -5 48 25 12 53 -16 13 -25
28 -20 34 5 9 11 9 23 -1 13 -11 14 -11 10 2 -6 20 -30 24 -46 8z"/>
<path d="M0 56 c0 -17 7 -25 25 -28 22 -5 25 -2 25 23 0 24 -4 29 -25 29 -20
0 -25 -5 -25 -24z"/>
<path d="M382 55 c-16 -35 -15 -44 3 -21 13 18 14 17 21 -8 3 -14 10 -26 15
-26 8 0 -14 66 -25 77 -1 2 -8 -8 -14 -22z"/>
<path d="M497 73 c-13 -13 -7 -32 13 -38 11 -3 20 -11 20 -17 0 -6 -9 -8 -20
-5 -11 3 -20 1 -20 -5 0 -5 10 -8 22 -6 30 4 35 34 9 43 -27 8 -27 29 -1 22
11 -3 20 -1 20 4 0 10 -33 12 -43 2z"/>
<path d="M633 60 c3 -11 2 -18 -2 -15 -5 2 -13 -7 -19 -20 -7 -15 -8 -25 -2
-25 6 0 10 7 10 15 0 8 7 15 15 15 8 0 15 -7 15 -15 0 -8 6 -15 14 -15 10 0 9
9 -6 40 -22 43 -34 53 -25 20z"/>
<path d="M840 40 c0 -39 2 -41 26 -38 57 7 57 69 0 76 -24 3 -26 1 -26 -38z
m54 15 c8 -21 -3 -45 -20 -45 -9 0 -14 11 -14 30 0 32 23 42 34 15z"/>
<path d="M970 40 c0 -22 5 -40 10 -40 6 0 10 16 10 36 0 31 3 36 20 31 11 -3
18 -1 14 4 -3 5 -16 9 -30 9 -21 0 -24 -4 -24 -40z"/>
<path d="M1329 43 c5 -32 10 -38 31 -38 21 0 26 6 31 38 4 24 2 37 -6 37 -7 0
-9 -13 -7 -35 4 -31 1 -35 -18 -35 -19 0 -22 4 -18 35 2 22 0 35 -7 35 -8 0
-10 -13 -6 -37z"/>
<path d="M1455 40 c0 -22 3 -40 8 -40 4 0 7 16 7 35 0 34 12 46 25 25 3 -5 1
-10 -6 -10 -8 0 -8 -4 2 -16 10 -13 10 -17 -2 -25 -8 -5 -9 -9 -3 -9 16 0 35
25 27 34 -4 4 -8 15 -8 24 0 11 -9 18 -25 20 -23 3 -25 0 -25 -38z"/>
<path d="M1587 40 c-8 -22 -11 -40 -6 -40 5 0 9 7 9 15 0 8 7 15 15 15 8 0 15
-7 15 -15 0 -8 6 -15 14 -15 10 0 9 9 -6 40 -11 22 -21 40 -23 40 -1 0 -9 -18
-18 -40z"/>
<path d="M1707 73 c-13 -13 -7 -32 13 -38 11 -3 20 -11 20 -17 0 -6 -9 -8 -20
-5 -11 3 -20 1 -20 -5 0 -5 10 -8 22 -6 30 4 35 34 9 43 -27 8 -27 29 -1 22
11 -3 18 -1 14 4 -6 11 -28 12 -37 2z"/>
<path d="M1800 70 c0 -5 7 -7 16 -3 14 5 16 0 12 -30 -2 -23 0 -37 7 -37 7 0
9 14 7 37 -4 30 -2 35 12 30 9 -4 16 -2 16 3 0 6 -16 10 -35 10 -19 0 -35 -4
-35 -10z"/>
<path d="M1953 60 c3 -11 2 -18 -2 -15 -5 2 -13 -7 -19 -20 -7 -15 -8 -25 -2
-25 6 0 10 7 10 15 0 8 7 15 15 15 8 0 15 -7 15 -15 0 -8 6 -15 14 -15 10 0 9
9 -6 40 -22 43 -34 53 -25 20z"/>
<path d="M2057 73 c-13 -13 -7 -32 13 -38 11 -3 20 -11 20 -17 0 -6 -9 -8 -20
-5 -11 3 -20 1 -20 -5 0 -5 10 -8 22 -6 30 4 35 34 9 43 -27 8 -27 29 -1 22
11 -3 20 -1 20 4 0 10 -33 12 -43 2z"/>
<path d="M2260 49 c0 -24 3 -30 16 -25 9 3 20 6 25 6 5 0 9 11 9 25 0 20 -5
25 -25 25 -21 0 -25 -5 -25 -31z"/>
<path d="M1005 40 c3 -5 8 -10 11 -10 2 0 4 5 4 10 0 6 -5 10 -11 10 -5 0 -7
-4 -4 -10z"/>
<path d="M1010 10 c-13 -8 -12 -10 3 -10 9 0 17 5 17 10 0 12 -1 12 -20 0z"/>
</g>
</svg>
