<svg id="svg" version="1.1" width="1000" height="557" xmlns="http://www.w3.org/2000/svg" xmlns:xlink="http://www.w3.org/1999/xlink" style="display: block;"><g id="svgg"><path id="path0" d="M354.800 25.000 C 354.800 25.990,354.620 26.800,354.400 26.800 C 354.180 26.800,354.000 26.980,354.000 27.200 C 354.000 27.420,354.360 27.600,354.800 27.600 C 355.421 27.600,355.600 27.333,355.600 26.411 L 355.600 25.221 361.500 25.099 L 367.400 24.977 361.500 24.888 C 355.896 24.804,355.600 24.760,355.600 24.000 C 355.600 23.560,355.420 23.200,355.200 23.200 C 354.980 23.200,354.800 24.010,354.800 25.000 M368.054 24.900 C 368.011 26.400,367.857 26.800,367.320 26.800 C 366.814 26.800,366.756 26.916,367.093 27.253 C 367.852 28.012,368.724 27.381,368.504 26.232 C 368.318 25.258,368.399 25.200,369.953 25.200 L 371.600 25.200 371.600 28.000 L 371.600 30.800 361.400 30.800 L 351.200 30.800 351.200 28.000 L 351.200 25.200 352.900 25.133 L 354.600 25.066 353.072 24.907 C 350.372 24.627,350.400 24.509,350.400 36.075 C 350.400 42.464,350.559 46.750,350.814 47.226 C 351.255 48.050,370.266 48.454,371.506 47.666 C 371.900 47.417,371.989 44.844,371.906 36.172 L 371.800 25.000 370.125 24.878 C 368.768 24.780,368.418 24.590,368.279 23.878 C 368.186 23.395,368.084 23.855,368.054 24.900 M117.778 26.301 C 108.803 29.512,107.036 41.404,114.705 46.976 C 124.399 54.020,137.307 43.600,132.460 32.643 C 130.052 27.199,123.354 24.305,117.778 26.301 M126.220 27.169 C 135.589 31.308,135.168 44.401,125.549 48.056 C 116.881 51.350,108.142 43.029,110.834 34.045 C 112.717 27.758,120.094 24.462,126.220 27.169 M117.400 28.155 C 107.329 32.924,110.707 47.829,121.835 47.724 C 129.218 47.655,134.189 39.720,131.012 33.072 C 128.636 28.098,122.330 25.821,117.400 28.155 M126.721 29.067 C 135.644 34.558,131.271 47.856,120.788 47.106 C 111.677 46.454,108.571 34.507,116.171 29.342 C 119.334 27.193,123.499 27.084,126.721 29.067 M360.100 29.487 C 360.705 29.578,361.695 29.578,362.300 29.487 C 362.905 29.395,362.410 29.320,361.200 29.320 C 359.990 29.320,359.495 29.395,360.100 29.487 M115.762 31.942 C 116.181 32.414,116.687 32.800,116.886 32.800 C 117.449 32.800,116.850 32.054,115.878 31.544 C 115.006 31.087,115.005 31.090,115.762 31.942 M371.508 39.300 L 371.400 47.400 361.400 47.400 L 351.400 47.400 351.292 39.300 L 351.183 31.200 361.400 31.200 L 371.617 31.200 371.508 39.300 M122.995 36.005 L 121.428 37.610 122.578 38.705 L 123.728 39.800 122.889 38.600 L 122.050 37.400 123.506 35.900 C 124.307 35.075,124.872 34.400,124.762 34.400 C 124.652 34.400,123.857 35.122,122.995 36.005 M113.105 37.483 C 113.602 37.579,114.322 37.575,114.705 37.475 C 115.087 37.375,114.680 37.296,113.800 37.301 C 112.920 37.305,112.607 37.387,113.105 37.483 M128.705 37.483 C 129.202 37.579,129.922 37.575,130.305 37.475 C 130.687 37.375,130.280 37.296,129.400 37.301 C 128.520 37.305,128.207 37.387,128.705 37.483 M127.002 43.202 C 127.402 43.644,127.815 43.918,127.921 43.812 C 128.190 43.543,127.192 42.400,126.689 42.400 C 126.462 42.400,126.603 42.761,127.002 43.202 M167.455 43.855 L 166.400 44.909 166.400 52.055 C 166.400 55.985,166.296 59.200,166.170 59.200 C 166.043 59.200,164.738 58.494,163.270 57.632 C 146.315 47.675,123.768 58.644,122.899 77.273 C 122.602 83.630,122.950 84.504,124.406 81.054 C 133.309 59.951,167.707 60.998,174.365 82.575 L 175.114 85.000 175.448 83.000 C 176.209 78.453,175.021 69.478,173.537 68.561 C 173.352 68.447,173.200 64.133,173.200 58.976 L 173.200 49.600 226.200 49.600 L 279.200 49.600 279.200 77.802 L 279.200 106.003 228.119 105.902 L 177.038 105.800 175.381 96.200 C 173.576 85.745,173.184 84.491,170.734 81.314 C 162.156 70.196,141.646 68.432,130.767 77.877 C 125.574 82.385,124.456 84.905,122.398 96.742 C 121.531 101.724,120.266 108.950,119.585 112.800 C 118.905 116.650,118.250 120.361,118.130 121.047 C 117.986 121.872,116.425 124.030,113.517 127.425 C 108.876 132.842,108.251 133.867,108.640 135.418 C 109.013 136.903,111.783 139.200,113.201 139.200 L 114.400 139.200 114.400 136.346 C 114.400 131.082,117.023 126.875,121.046 125.686 C 123.122 125.073,171.056 124.985,173.168 125.591 C 174.964 126.106,177.477 127.873,178.253 129.166 C 178.996 130.402,184.303 133.600,185.613 133.600 C 186.121 133.600,189.293 134.080,192.661 134.668 C 199.617 135.881,200.438 135.763,201.421 133.412 C 203.032 129.555,201.769 128.248,195.400 127.182 C 192.760 126.741,189.699 126.221,188.598 126.027 C 187.444 125.823,185.165 124.849,183.217 123.726 L 179.837 121.779 179.148 117.989 C 178.769 115.905,178.445 113.885,178.429 113.500 C 178.402 112.837,181.208 112.800,232.000 112.800 L 285.600 112.800 285.600 79.587 C 285.600 44.091,285.610 44.276,283.660 43.232 C 283.092 42.928,265.870 42.800,225.681 42.800 L 168.509 42.800 167.455 43.855 M307.092 46.538 C 297.366 47.521,294.827 47.894,294.989 48.315 C 295.245 48.982,311.874 72.334,312.804 73.332 C 313.454 74.030,313.681 73.727,317.738 66.732 C 320.076 62.699,322.155 59.147,322.357 58.837 C 322.632 58.417,323.610 59.633,326.220 63.637 C 328.143 66.587,331.304 71.430,333.245 74.400 C 335.187 77.370,337.747 81.330,338.935 83.200 L 341.095 86.600 339.548 86.723 C 338.091 86.839,337.257 88.042,338.340 88.467 C 338.527 88.540,336.610 92.110,334.081 96.400 C 331.552 100.690,327.062 108.340,324.103 113.400 C 321.144 118.460,318.561 122.660,318.362 122.733 C 317.382 123.094,318.039 124.400,319.200 124.400 C 320.369 124.400,320.400 124.450,320.400 126.346 L 320.400 128.291 318.605 128.537 C 313.604 129.223,308.000 134.216,308.000 137.987 C 308.000 138.789,308.191 138.800,322.400 138.800 L 336.800 138.800 336.800 137.787 C 336.800 133.394,331.490 129.321,324.300 128.198 C 322.761 127.958,321.811 124.452,323.300 124.507 C 325.273 124.581,325.612 124.394,325.528 123.283 C 325.469 122.513,326.384 120.556,328.475 116.983 C 336.772 102.806,343.559 91.257,344.334 90.000 C 345.539 88.045,345.487 86.800,344.200 86.800 C 343.650 86.800,343.200 86.634,343.200 86.432 C 343.200 86.062,341.352 83.153,330.047 65.737 L 323.894 56.257 325.126 54.016 L 326.359 51.774 324.279 48.493 C 321.808 44.594,323.929 44.835,307.092 46.538 M342.450 89.100 C 342.241 89.485,339.690 93.850,336.780 98.800 C 333.871 103.750,330.911 108.790,330.204 110.000 C 329.496 111.210,327.523 114.585,325.818 117.500 C 323.567 121.349,322.510 122.800,321.959 122.800 C 320.832 122.800,320.832 122.800,326.796 112.800 C 327.387 111.810,328.654 109.650,329.613 108.000 C 330.571 106.350,332.642 102.840,334.214 100.200 C 335.787 97.560,337.957 93.830,339.037 91.911 C 340.600 89.133,341.186 88.420,341.914 88.411 C 342.663 88.402,342.760 88.526,342.450 89.100 M27.862 93.131 C 27.265 93.791,27.200 95.789,27.200 113.509 L 27.200 133.155 28.089 133.777 C 29.180 134.541,101.412 134.743,102.826 133.986 C 103.782 133.474,104.065 93.825,103.120 92.880 C 102.205 91.965,28.695 92.211,27.862 93.131 M99.600 113.000 L 99.600 130.000 65.600 130.000 L 31.600 130.000 31.600 113.000 L 31.600 96.000 65.600 96.000 L 99.600 96.000 99.600 113.000 M88.000 116.800 L 88.000 120.000 91.200 120.000 L 94.400 120.000 94.400 116.800 L 94.400 113.600 91.200 113.600 L 88.000 113.600 88.000 116.800 M31.600 149.200 L 31.600 152.000 73.000 152.000 L 114.400 152.000 114.400 149.200 L 114.400 146.400 73.000 146.400 L 31.600 146.400 31.600 149.200 M180.400 149.200 L 180.400 152.000 196.000 152.000 L 211.600 152.000 211.600 157.800 C 211.600 161.400,211.752 163.600,212.000 163.600 C 212.220 163.600,212.026 163.974,211.568 164.432 C 210.831 165.169,210.748 165.667,210.846 168.768 L 210.957 172.271 209.579 173.503 C 207.587 175.283,207.553 178.288,209.506 180.033 C 213.812 183.880,219.623 177.916,215.666 173.710 C 214.673 172.655,214.628 172.420,214.749 168.938 C 214.861 165.712,214.781 165.181,214.078 164.478 C 213.571 163.971,213.419 163.541,213.662 163.298 C 213.881 163.079,213.992 160.573,213.922 157.457 L 213.800 151.999 220.880 151.999 L 227.960 152.000 228.080 158.100 C 228.171 162.734,228.072 164.361,227.666 164.869 C 227.286 165.345,227.165 166.600,227.248 169.211 C 227.359 172.712,227.320 172.908,226.426 173.386 C 222.646 175.409,224.591 181.600,229.007 181.600 C 232.670 181.600,234.700 176.636,232.100 174.040 C 231.030 172.972,231.004 172.836,231.127 169.091 C 231.242 165.599,231.180 165.194,230.455 164.742 C 229.828 164.350,229.743 164.081,230.058 163.491 C 230.291 163.056,230.406 160.475,230.330 157.369 L 230.200 151.999 271.705 151.999 C 303.764 152.000,313.389 151.888,313.995 151.510 C 314.615 151.123,314.883 151.123,315.270 151.510 C 315.657 151.897,315.582 152.000,314.918 152.000 C 314.203 152.000,314.032 152.320,313.795 154.100 C 312.819 161.428,308.709 178.298,306.153 185.467 C 304.585 189.866,300.847 192.205,295.400 192.193 C 288.763 192.180,285.528 189.428,283.763 182.294 C 280.269 168.163,276.241 162.506,271.454 165.002 C 270.824 165.331,270.009 165.600,269.643 165.600 C 268.751 165.600,264.000 170.431,264.000 171.338 C 264.000 171.874,263.797 171.990,263.194 171.798 C 258.495 170.307,255.972 177.910,260.404 180.202 C 264.010 182.067,268.291 177.933,266.404 174.407 C 266.072 173.788,266.463 173.228,268.804 170.968 C 270.342 169.483,271.600 167.938,271.600 167.534 C 271.600 166.282,274.407 166.535,275.661 167.900 C 277.446 169.844,279.229 173.583,280.450 177.947 C 283.274 188.036,283.058 187.534,285.733 190.174 C 294.072 198.400,306.832 193.974,309.219 182.026 C 309.463 180.802,310.172 178.180,310.793 176.200 C 312.800 169.801,316.400 154.780,316.400 152.803 C 316.400 152.026,316.657 152.000,324.400 152.000 L 332.400 152.000 332.400 149.200 L 332.400 146.400 256.400 146.400 L 180.400 146.400 180.400 149.200 M240.207 175.450 C 238.831 176.826,240.156 178.749,242.138 178.251 C 244.049 177.772,243.288 174.800,241.255 174.800 C 241.036 174.800,240.565 175.092,240.207 175.450 M245.297 175.663 C 244.152 176.808,245.173 178.578,246.837 178.331 C 248.052 178.151,248.727 177.009,248.158 176.100 C 247.620 175.241,245.971 174.989,245.297 175.663 M130.149 192.500 C 131.399 201.364,132.421 216.656,131.831 217.655 C 129.960 220.823,131.408 222.800,135.600 222.800 C 139.617 222.800,141.423 220.499,139.486 217.850 C 139.065 217.274,139.131 215.375,139.853 207.274 C 140.337 201.843,140.859 195.915,141.014 194.100 L 141.295 190.800 135.602 190.800 L 129.909 190.800 130.149 192.500 M154.142 192.900 C 155.571 204.731,156.388 216.881,155.812 217.705 C 153.813 220.558,155.481 222.800,159.600 222.800 C 163.617 222.800,165.423 220.499,163.486 217.850 C 163.065 217.274,163.131 215.375,163.853 207.274 C 164.337 201.843,164.859 195.915,165.014 194.100 L 165.295 190.800 159.592 190.800 L 153.889 190.800 154.142 192.900 " stroke="none" fill="#49340a" fill-rule="evenodd"></path><path id="path1" d="M367.714 25.000 C 367.717 26.100,367.795 26.503,367.887 25.895 C 367.979 25.286,367.977 24.386,367.882 23.895 C 367.787 23.403,367.711 23.900,367.714 25.000 M352.305 24.683 C 352.802 24.779,353.522 24.775,353.905 24.675 C 354.287 24.575,353.880 24.496,353.000 24.501 C 352.120 24.505,351.807 24.587,352.305 24.683 M358.518 24.698 C 360.233 24.773,362.933 24.772,364.518 24.697 C 366.103 24.621,364.700 24.559,361.400 24.560 C 358.100 24.561,356.803 24.622,358.518 24.698 M369.105 24.683 C 369.602 24.779,370.322 24.775,370.705 24.675 C 371.087 24.575,370.680 24.496,369.800 24.501 C 368.920 24.505,368.607 24.587,369.105 24.683 M369.800 25.600 L 368.200 25.886 369.900 25.943 C 370.835 25.974,371.600 25.820,371.600 25.600 C 371.600 25.380,371.555 25.226,371.500 25.257 C 371.445 25.288,370.680 25.442,369.800 25.600 M352.500 25.876 C 352.885 25.976,353.515 25.976,353.900 25.876 C 354.285 25.775,353.970 25.693,353.200 25.693 C 352.430 25.693,352.115 25.775,352.500 25.876 M358.518 25.898 C 360.233 25.973,362.933 25.972,364.518 25.897 C 366.103 25.821,364.700 25.759,361.400 25.760 C 358.100 25.761,356.803 25.822,358.518 25.898 M367.895 27.477 C 367.507 27.578,367.293 27.827,367.419 28.030 C 367.761 28.584,368.285 28.477,368.545 27.800 C 368.671 27.470,368.736 27.221,368.687 27.246 C 368.639 27.272,368.283 27.376,367.895 27.477 M121.200 29.800 C 121.200 30.570,121.380 31.200,121.600 31.200 C 121.820 31.200,122.000 30.570,122.000 29.800 C 122.000 29.030,121.820 28.400,121.600 28.400 C 121.380 28.400,121.200 29.030,121.200 29.800 M360.100 29.887 C 360.705 29.978,361.695 29.978,362.300 29.887 C 362.905 29.795,362.410 29.720,361.200 29.720 C 359.990 29.720,359.495 29.795,360.100 29.887 M126.770 31.865 C 126.236 32.450,126.070 32.768,126.400 32.571 C 126.730 32.374,127.163 32.209,127.362 32.206 C 127.561 32.203,127.770 31.885,127.826 31.500 C 127.960 30.591,127.916 30.606,126.770 31.865 M122.827 35.773 C 121.781 36.838,121.350 37.507,121.747 37.449 C 122.450 37.346,123.596 36.400,123.018 36.400 C 122.830 36.400,122.998 36.044,123.391 35.609 C 123.785 35.175,124.233 34.897,124.387 34.992 C 124.541 35.087,124.667 34.903,124.667 34.582 C 124.667 33.836,124.832 33.729,122.827 35.773 M356.400 41.689 C 356.400 41.860,357.435 41.979,358.700 41.954 C 361.141 41.904,360.902 41.728,358.100 41.511 C 357.165 41.438,356.400 41.519,356.400 41.689 M364.000 41.689 C 364.000 41.860,365.035 41.979,366.300 41.954 C 368.741 41.904,368.502 41.728,365.700 41.511 C 364.765 41.438,364.000 41.519,364.000 41.689 M115.764 42.891 C 115.344 43.383,115.270 43.580,115.600 43.327 C 115.930 43.075,116.335 42.853,116.500 42.834 C 116.840 42.795,116.951 42.418,116.698 42.164 C 116.605 42.071,116.185 42.398,115.764 42.891 M121.200 45.200 C 121.200 45.860,121.380 46.400,121.600 46.400 C 121.820 46.400,122.000 45.860,122.000 45.200 C 122.000 44.540,121.820 44.000,121.600 44.000 C 121.380 44.000,121.200 44.540,121.200 45.200 M129.775 46.100 L 128.600 47.400 129.900 46.225 C 131.112 45.130,131.384 44.800,131.075 44.800 C 131.006 44.800,130.421 45.385,129.775 46.100 M166.164 52.600 C 166.163 56.340,166.223 57.924,166.297 56.120 C 166.371 54.315,166.372 51.255,166.298 49.320 C 166.225 47.384,166.164 48.860,166.164 52.600 M120.900 49.476 C 121.285 49.576,121.915 49.576,122.300 49.476 C 122.685 49.375,122.370 49.293,121.600 49.293 C 120.830 49.293,120.515 49.375,120.900 49.476 M225.897 49.900 L 278.795 50.003 278.900 78.101 L 279.005 106.200 279.103 77.900 L 279.200 49.600 226.100 49.699 L 173.000 49.797 225.897 49.900 M178.500 51.898 C 180.645 51.970,184.155 51.970,186.300 51.898 C 188.445 51.826,186.690 51.767,182.400 51.767 C 178.110 51.767,176.355 51.826,178.500 51.898 M180.713 62.695 C 181.876 62.776,183.676 62.776,184.713 62.693 C 185.751 62.611,184.800 62.545,182.600 62.546 C 180.400 62.547,179.551 62.614,180.713 62.695 M200.000 85.200 L 200.000 106.000 239.300 105.996 L 278.600 105.992 272.600 102.760 C 269.300 100.983,263.000 97.610,258.600 95.264 L 250.600 91.000 241.400 90.800 L 232.200 90.600 232.073 89.500 L 231.947 88.400 238.673 88.396 L 245.400 88.392 243.200 87.096 L 241.000 85.800 227.000 85.600 L 213.000 85.400 213.000 84.200 L 213.000 83.000 223.943 82.800 L 234.887 82.600 233.033 81.700 C 232.013 81.205,230.476 80.800,229.617 80.800 C 228.308 80.800,228.035 80.656,227.928 79.910 C 227.834 79.258,226.840 78.485,224.200 77.010 L 220.600 75.000 215.200 74.800 L 209.800 74.600 209.800 73.600 C 209.800 72.656,209.947 72.589,212.400 72.400 L 215.000 72.200 211.200 70.204 C 209.110 69.106,207.279 68.151,207.131 68.081 C 206.983 68.011,206.803 68.369,206.731 68.877 C 206.646 69.479,206.286 69.845,205.698 69.928 C 204.581 70.087,204.080 69.004,204.765 67.908 C 205.035 67.476,205.198 67.079,205.128 67.026 C 204.617 66.644,200.451 64.400,200.251 64.400 C 200.113 64.400,200.000 73.760,200.000 85.200 M206.800 73.567 C 206.800 74.854,206.173 75.284,205.100 74.732 C 203.742 74.034,204.279 72.400,205.867 72.400 C 206.631 72.400,206.800 72.611,206.800 73.567 M122.501 78.600 C 122.505 79.480,122.587 79.793,122.683 79.295 C 122.779 78.798,122.775 78.078,122.675 77.695 C 122.575 77.313,122.496 77.720,122.501 78.600 M206.800 78.757 C 206.800 80.051,205.824 80.684,204.949 79.958 C 203.799 79.003,204.345 77.600,205.867 77.600 C 206.629 77.600,206.800 77.812,206.800 78.757 M225.127 78.900 L 225.253 80.000 219.027 80.000 L 212.800 80.000 212.800 79.033 C 212.800 77.696,213.071 77.643,219.400 77.726 L 225.000 77.800 225.127 78.900 M206.734 83.946 C 206.906 85.162,206.306 85.751,205.240 85.413 C 204.415 85.151,204.066 83.667,204.684 83.050 C 205.292 82.442,206.602 83.014,206.734 83.946 M338.700 86.682 C 339.195 86.778,340.005 86.778,340.500 86.682 C 340.995 86.587,340.590 86.509,339.600 86.509 C 338.610 86.509,338.205 86.587,338.700 86.682 M206.600 89.405 C 206.600 90.411,206.443 90.600,205.605 90.600 C 204.466 90.600,204.049 89.505,204.830 88.564 C 205.634 87.595,206.600 88.055,206.600 89.405 M229.200 89.408 L 229.200 90.817 221.105 90.708 C 213.663 90.609,212.999 90.542,212.871 89.877 C 212.519 88.044,212.714 88.000,221.187 88.000 L 229.200 88.000 229.200 89.408 M47.130 92.300 C 57.322 92.359,73.882 92.359,83.930 92.300 C 93.979 92.240,85.640 92.192,65.400 92.192 C 45.160 92.192,36.939 92.240,47.130 92.300 M206.945 93.800 C 207.322 94.785,206.779 95.600,205.745 95.600 C 205.211 95.600,204.671 95.330,204.545 95.000 C 204.167 94.015,204.710 93.200,205.745 93.200 C 206.278 93.200,206.818 93.470,206.945 93.800 M224.800 94.192 C 224.800 95.554,224.187 95.648,216.200 95.514 L 209.400 95.400 209.273 94.300 L 209.147 93.200 216.973 93.200 L 224.800 93.200 224.800 94.192 M103.785 113.400 C 103.785 124.180,103.837 128.533,103.900 123.072 C 103.963 117.612,103.963 108.792,103.900 103.472 C 103.837 98.153,103.785 102.620,103.785 113.400 M206.758 98.949 C 207.429 99.758,206.859 100.800,205.745 100.800 C 204.710 100.800,204.167 99.985,204.545 99.000 C 204.833 98.249,206.152 98.219,206.758 98.949 M233.927 99.700 L 234.053 100.800 221.627 100.800 L 209.200 100.800 209.200 99.867 C 209.200 98.379,209.164 98.383,221.772 98.494 L 233.800 98.600 233.927 99.700 M89.500 113.493 C 90.435 113.577,91.965 113.577,92.900 113.493 C 93.835 113.409,93.070 113.340,91.200 113.340 C 89.330 113.340,88.565 113.409,89.500 113.493 M59.200 120.800 L 59.200 127.600 68.200 127.600 L 77.200 127.600 77.200 120.800 L 77.200 114.000 68.200 114.000 L 59.200 114.000 59.200 120.800 M276.537 121.400 C 276.539 123.160,276.609 123.830,276.693 122.889 C 276.778 121.949,276.777 120.509,276.691 119.689 C 276.605 118.870,276.536 119.640,276.537 121.400 M88.000 124.400 L 88.000 127.600 91.200 127.600 L 94.400 127.600 94.400 124.400 L 94.400 121.200 91.200 121.200 L 88.000 121.200 88.000 124.400 M298.854 123.737 C 298.890 124.827,298.971 125.056,299.088 124.400 C 299.359 122.894,299.784 122.667,301.362 123.187 C 306.654 124.934,303.322 134.000,297.388 134.000 L 296.428 134.000 297.214 132.167 C 297.646 131.159,297.994 130.124,297.987 129.867 C 297.980 129.610,297.423 130.705,296.749 132.299 C 296.052 133.948,294.748 136.061,293.725 137.199 L 291.926 139.200 287.880 139.200 L 283.834 139.200 282.217 137.700 L 280.601 136.200 281.979 137.700 L 283.357 139.200 231.678 139.200 L 180.000 139.200 179.996 135.700 C 179.991 130.461,177.550 126.848,173.168 125.591 C 171.056 124.985,123.122 125.073,121.046 125.686 C 117.023 126.875,114.400 131.082,114.400 136.346 L 114.400 139.200 66.600 139.200 L 18.800 139.200 18.800 142.800 L 18.800 146.400 66.600 146.400 L 114.400 146.400 114.400 164.813 C 114.400 184.936,114.356 184.514,116.794 187.593 L 118.000 189.115 118.000 205.958 L 118.000 222.800 121.600 222.800 L 125.200 222.800 125.200 207.060 L 125.200 191.320 128.861 191.060 C 133.829 190.707,141.200 190.731,141.199 191.100 C 141.199 191.265,146.546 191.242,153.082 191.049 C 159.891 190.848,165.016 190.848,165.082 191.049 C 165.146 191.242,166.189 191.338,167.399 191.263 L 169.600 191.126 169.600 206.963 L 169.600 222.800 173.000 222.800 L 176.400 222.800 176.400 205.953 L 176.400 189.106 177.650 187.682 C 179.989 185.018,180.000 184.930,180.000 169.275 C 180.000 161.382,180.117 153.006,180.261 150.662 L 180.522 146.400 262.861 146.400 L 345.200 146.400 345.200 142.800 L 345.200 139.200 328.500 139.171 C 319.315 139.155,310.865 139.008,309.722 138.845 C 308.580 138.682,307.735 138.696,307.846 138.875 C 307.957 139.054,304.537 139.200,300.246 139.200 L 292.445 139.200 293.648 137.900 C 294.309 137.185,295.148 136.105,295.511 135.500 C 296.020 134.653,296.479 134.400,297.502 134.400 C 303.637 134.400,307.374 124.519,301.867 122.858 C 298.766 121.923,298.795 121.915,298.854 123.737 M318.500 124.676 C 318.885 124.776,319.515 124.776,319.900 124.676 C 320.285 124.575,319.970 124.493,319.200 124.493 C 318.430 124.493,318.115 124.575,318.500 124.676 M313.800 151.600 C 313.659 151.828,314.004 152.000,314.600 152.000 C 315.196 152.000,315.541 151.828,315.400 151.600 C 315.264 151.380,314.904 151.200,314.600 151.200 C 314.296 151.200,313.936 151.380,313.800 151.600 M38.405 186.500 C 38.408 205.475,38.519 221.405,38.652 221.900 C 38.885 222.769,39.055 222.800,43.647 222.800 L 48.400 222.800 48.400 187.400 L 48.400 152.000 43.400 152.000 L 38.400 152.000 38.405 186.500 M316.176 154.300 C 315.957 155.643,315.844 170.376,315.905 189.700 L 316.009 222.800 321.005 222.800 L 326.000 222.800 326.000 187.400 L 326.000 152.000 321.276 152.000 L 316.552 152.000 316.176 154.300 M211.357 157.600 C 211.357 160.570,211.420 161.785,211.497 160.300 C 211.574 158.815,211.574 156.385,211.497 154.900 C 211.420 153.415,211.357 154.630,211.357 157.600 M227.757 158.000 C 227.757 160.970,227.820 162.185,227.897 160.700 C 227.974 159.215,227.974 156.785,227.897 155.300 C 227.820 153.815,227.757 155.030,227.757 158.000 M267.375 166.900 L 266.200 168.200 267.500 167.025 C 268.215 166.379,268.800 165.794,268.800 165.725 C 268.800 165.416,268.470 165.688,267.375 166.900 M233.293 177.200 C 233.293 177.970,233.375 178.285,233.476 177.900 C 233.576 177.515,233.576 176.885,233.476 176.500 C 233.375 176.115,233.293 176.430,233.293 177.200 M253.613 186.950 C 256.301 188.609,258.585 189.923,262.090 191.827 C 264.564 193.171,264.745 193.358,264.341 194.144 C 263.561 195.664,264.594 194.297,267.550 189.900 L 270.440 185.600 260.933 185.600 L 251.425 185.600 253.613 186.950 M0.183 206.000 C 0.183 215.350,0.236 219.175,0.300 214.500 C 0.364 209.825,0.364 202.175,0.300 197.500 C 0.236 192.825,0.183 196.650,0.183 206.000 " stroke="none" fill="#7e8e89" fill-rule="evenodd"></path><path id="path2" d="M209.273 94.300 L 209.400 95.400 216.200 95.514 C 224.187 95.648,224.800 95.554,224.800 94.192 L 224.800 93.200 216.973 93.200 L 209.147 93.200 209.273 94.300 M79.600 107.600 L 79.600 116.400 82.800 116.400 L 86.000 116.400 86.000 107.600 L 86.000 98.800 82.800 98.800 L 79.600 98.800 79.600 107.600 " stroke="none" fill="#42ea86" fill-rule="evenodd"></path><path id="path3" d="M-0.004 85.100 C -0.004 131.905,0.116 182.035,0.263 196.500 L 0.530 222.800 19.712 222.800 L 38.893 222.800 38.652 221.900 C 38.519 221.405,38.408 205.475,38.405 186.500 L 38.400 152.000 35.000 152.000 L 31.600 152.000 31.600 149.200 L 31.600 146.400 25.200 146.400 L 18.800 146.400 18.800 142.800 L 18.800 139.200 65.494 139.200 L 112.189 139.200 110.909 138.300 C 107.263 135.736,107.584 134.300,113.316 127.533 L 117.833 122.200 118.928 116.000 C 119.529 112.590,120.630 106.380,121.373 102.200 C 122.116 98.020,122.945 93.160,123.214 91.400 C 125.745 74.831,145.546 66.533,162.728 74.841 C 168.451 77.608,173.520 83.607,174.185 88.400 C 174.485 90.559,175.142 94.575,175.445 96.100 L 175.664 97.200 185.832 97.200 L 196.000 97.200 196.000 98.400 L 196.000 99.600 185.973 99.600 C 176.612 99.600,175.960 99.647,176.151 100.300 C 176.330 100.912,177.200 105.535,177.200 105.873 C 177.200 105.943,182.330 106.000,188.600 106.000 L 200.000 106.000 200.000 85.200 C 200.000 73.760,200.113 64.400,200.251 64.400 C 200.451 64.400,204.617 66.644,205.128 67.026 C 205.198 67.079,205.035 67.476,204.765 67.908 C 204.080 69.004,204.581 70.087,205.698 69.928 C 206.286 69.845,206.646 69.479,206.731 68.877 C 206.803 68.369,206.983 68.011,207.131 68.081 C 207.279 68.151,209.110 69.106,211.200 70.204 L 215.000 72.200 212.400 72.400 C 209.947 72.589,209.800 72.656,209.800 73.600 L 209.800 74.600 215.200 74.800 L 220.600 75.000 224.200 77.010 C 226.840 78.485,227.834 79.258,227.928 79.910 C 228.035 80.656,228.308 80.800,229.617 80.800 C 230.476 80.800,232.013 81.205,233.033 81.700 L 234.887 82.600 223.943 82.800 L 213.000 83.000 213.000 84.200 L 213.000 85.400 227.000 85.600 L 241.000 85.800 243.200 87.096 L 245.400 88.392 238.673 88.396 L 231.947 88.400 232.073 89.500 L 232.200 90.600 241.400 90.800 L 250.600 91.000 255.800 93.767 C 258.660 95.289,264.240 98.279,268.200 100.412 C 272.160 102.545,276.165 104.678,277.100 105.153 L 278.800 106.016 278.800 78.008 L 278.800 50.000 226.000 50.000 L 173.200 50.000 173.202 58.700 C 173.204 67.002,173.248 67.510,174.181 69.800 L 175.158 72.200 186.079 72.400 L 197.000 72.600 197.127 73.700 L 197.253 74.800 186.384 74.800 C 176.637 74.800,175.539 74.865,175.757 75.433 C 175.891 75.781,176.000 76.226,176.000 76.423 C 176.000 76.620,179.105 76.830,182.900 76.891 L 189.800 77.000 189.927 78.100 L 190.053 79.200 183.027 79.200 C 176.326 79.200,176.000 79.236,176.000 79.980 C 176.000 80.409,175.795 81.714,175.545 82.880 L 175.090 85.000 174.609 83.400 C 167.928 61.140,133.927 59.573,124.572 81.093 C 123.008 84.690,122.649 84.224,122.653 78.600 C 122.667 59.177,145.477 47.388,163.300 57.593 L 166.000 59.139 166.000 52.757 C 166.000 45.953,166.385 44.064,167.940 43.232 C 169.051 42.638,282.508 42.615,283.618 43.209 C 285.644 44.294,285.600 43.488,285.600 79.380 L 285.600 112.800 231.982 112.800 L 178.364 112.800 178.596 114.100 C 178.724 114.815,179.067 116.800,179.359 118.511 C 179.650 120.222,179.959 121.675,180.044 121.740 C 183.448 124.316,186.850 125.587,193.375 126.719 C 201.362 128.105,202.256 128.649,201.890 131.898 C 201.448 135.818,200.025 136.186,191.439 134.600 C 188.461 134.050,185.701 133.600,185.306 133.600 C 184.911 133.600,183.356 132.881,181.851 132.001 C 179.945 130.887,179.215 130.614,179.445 131.101 C 179.626 131.486,179.837 133.465,179.915 135.500 L 180.055 139.200 231.706 139.200 L 283.357 139.200 281.979 137.700 L 280.601 136.200 282.217 137.700 L 283.834 139.200 287.880 139.200 L 291.926 139.200 293.725 137.199 C 294.748 136.061,296.052 133.948,296.749 132.299 C 297.423 130.705,297.980 129.610,297.987 129.867 C 297.994 130.124,297.646 131.159,297.214 132.167 L 296.428 134.000 297.427 134.000 C 303.329 134.000,306.631 124.927,301.362 123.187 C 299.784 122.667,299.359 122.894,299.088 124.400 C 298.971 125.056,298.890 124.827,298.854 123.737 C 298.795 121.915,298.766 121.923,301.867 122.858 C 307.374 124.519,303.637 134.400,297.502 134.400 C 296.479 134.400,296.020 134.653,295.511 135.500 C 295.148 136.105,294.309 137.185,293.648 137.900 L 292.445 139.200 300.137 139.200 L 307.830 139.200 307.926 137.933 C 308.240 133.812,313.236 129.362,318.563 128.459 C 320.825 128.076,321.417 124.800,319.223 124.800 C 318.185 124.800,318.000 124.649,318.000 123.800 C 318.000 123.250,318.135 122.800,318.300 122.800 C 318.465 122.799,319.125 121.854,319.767 120.700 C 320.408 119.545,323.904 113.560,327.535 107.400 C 338.829 88.238,338.343 89.142,338.119 87.727 C 337.926 86.510,337.981 86.448,339.361 86.327 L 340.805 86.200 338.343 82.400 C 336.990 80.310,333.720 75.270,331.078 71.200 C 328.435 67.130,325.472 62.564,324.492 61.053 L 322.710 58.305 321.776 59.853 C 321.262 60.704,320.489 62.030,320.057 62.800 C 319.625 63.570,317.938 66.481,316.307 69.268 L 313.342 74.336 309.580 69.068 C 307.511 66.171,303.240 60.224,300.090 55.853 C 296.939 51.482,294.415 47.865,294.481 47.815 C 294.546 47.766,296.850 47.505,299.600 47.236 C 302.350 46.968,308.110 46.402,312.400 45.979 C 323.158 44.919,321.928 44.680,324.230 48.281 C 325.314 49.976,326.253 51.485,326.318 51.634 C 326.382 51.783,325.886 52.836,325.215 53.974 C 323.763 56.437,323.304 55.308,329.780 65.199 C 332.445 69.270,336.600 75.699,339.013 79.487 C 342.541 85.025,343.576 86.376,344.300 86.387 C 346.514 86.419,346.107 87.230,331.474 111.995 C 326.639 120.176,325.467 122.447,325.537 123.495 C 325.621 124.739,325.559 124.800,324.213 124.800 C 322.837 124.800,322.800 124.841,322.800 126.362 L 322.800 127.925 324.900 128.210 C 331.157 129.059,336.800 133.451,336.800 137.473 L 336.800 138.789 323.900 138.900 C 311.559 139.007,311.741 139.016,328.100 139.106 L 345.200 139.200 345.200 142.800 L 345.200 146.400 338.800 146.400 L 332.400 146.400 332.400 149.200 L 332.400 152.000 329.200 152.000 L 326.000 152.000 326.000 187.400 L 326.000 222.800 363.000 222.800 L 400.000 222.800 400.000 111.400 L 400.000 0.000 199.998 0.000 L -0.003 0.000 -0.004 85.100 M355.600 23.800 C 355.600 24.306,356.511 24.400,361.400 24.400 C 365.000 24.400,367.200 24.552,367.200 24.800 C 367.200 25.045,364.908 25.234,361.300 25.288 L 355.400 25.377 361.273 25.499 C 366.433 25.606,367.167 25.705,367.326 26.311 C 367.426 26.690,367.528 26.145,367.554 25.100 C 367.594 23.447,368.400 22.209,368.400 23.800 C 368.400 24.215,368.817 24.400,369.751 24.400 C 372.011 24.400,372.023 24.468,371.906 36.649 L 371.800 47.800 361.649 47.907 C 354.496 47.982,351.337 47.879,350.949 47.558 C 350.509 47.192,350.400 44.984,350.400 36.380 C 350.400 24.454,350.412 24.400,353.029 24.400 C 354.884 24.400,354.779 25.120,352.900 25.276 L 351.400 25.400 351.359 28.200 L 351.318 31.000 351.559 28.400 C 351.813 25.661,353.961 24.121,354.520 26.277 C 354.623 26.675,354.728 26.145,354.754 25.100 C 354.794 23.447,355.600 22.209,355.600 23.800 M369.105 25.483 C 369.602 25.579,370.322 25.575,370.705 25.475 C 371.087 25.375,370.680 25.296,369.800 25.301 C 368.920 25.305,368.607 25.387,369.105 25.483 M125.595 26.236 C 131.981 28.132,135.537 36.658,132.457 42.689 C 126.739 53.887,109.826 50.085,109.818 37.600 C 109.813 29.132,117.267 23.762,125.595 26.236 M118.656 28.253 C 111.964 30.308,109.750 39.288,114.711 44.250 C 120.856 50.394,131.424 46.044,131.353 37.400 C 131.299 30.867,124.976 26.312,118.656 28.253 M122.000 29.800 C 122.000 30.570,121.820 31.200,121.600 31.200 C 121.380 31.200,121.200 30.570,121.200 29.800 C 121.200 29.030,121.380 28.400,121.600 28.400 C 121.820 28.400,122.000 29.030,122.000 29.800 M117.001 32.732 C 116.735 32.998,115.200 31.579,115.200 31.068 C 115.200 30.844,115.649 31.083,116.198 31.599 C 116.748 32.114,117.109 32.625,117.001 32.732 M127.379 32.265 C 126.149 33.164,125.804 32.861,126.822 31.776 C 127.437 31.122,127.843 30.929,127.947 31.241 C 128.037 31.510,127.781 31.971,127.379 32.265 M351.200 39.157 C 351.200 48.669,349.909 47.600,361.400 47.600 C 372.891 47.600,371.600 48.669,371.600 39.157 L 371.600 31.200 361.400 31.200 L 351.200 31.200 351.200 39.157 M123.614 35.985 C 122.179 37.521,122.158 37.657,123.200 38.600 C 123.640 38.998,124.000 39.511,124.000 39.740 C 124.000 39.970,123.369 39.545,122.597 38.797 L 121.194 37.437 122.893 35.706 C 124.822 33.739,125.476 33.992,123.614 35.985 M359.373 35.661 C 361.472 36.617,361.087 38.340,358.353 40.229 L 356.658 41.400 358.729 41.521 C 362.114 41.719,361.084 42.400,357.400 42.400 C 353.353 42.400,353.380 42.451,356.372 40.419 C 360.144 37.858,359.465 34.332,355.598 36.401 C 354.617 36.926,354.133 36.195,355.092 35.637 C 356.043 35.083,358.131 35.095,359.373 35.661 M367.411 36.108 C 368.763 37.271,368.260 38.636,365.871 40.286 L 364.258 41.400 366.329 41.521 C 369.714 41.719,368.684 42.400,365.000 42.400 C 360.953 42.400,360.980 42.451,363.972 40.419 C 368.058 37.644,367.350 35.133,362.850 36.440 C 362.548 36.528,362.223 36.390,362.128 36.134 C 361.689 34.944,366.033 34.923,367.411 36.108 M114.705 37.475 C 114.322 37.575,113.602 37.579,113.105 37.483 C 112.607 37.387,112.920 37.305,113.800 37.301 C 114.680 37.296,115.087 37.375,114.705 37.475 M130.305 37.475 C 129.922 37.575,129.202 37.579,128.705 37.483 C 128.207 37.387,128.520 37.305,129.400 37.301 C 130.280 37.296,130.687 37.375,130.305 37.475 M117.200 42.354 C 117.200 42.549,116.750 43.003,116.200 43.363 C 115.055 44.113,114.890 43.805,115.862 42.731 C 116.568 41.951,117.200 41.773,117.200 42.354 M127.402 42.802 C 128.472 43.984,127.899 44.170,126.799 42.998 C 126.283 42.449,126.044 42.000,126.268 42.000 C 126.493 42.000,127.003 42.361,127.402 42.802 M122.000 45.200 C 122.000 45.860,121.820 46.400,121.600 46.400 C 121.380 46.400,121.200 45.860,121.200 45.200 C 121.200 44.540,121.380 44.000,121.600 44.000 C 121.820 44.000,122.000 44.540,122.000 45.200 M190.327 52.900 L 190.453 54.000 182.427 54.000 L 174.400 54.000 174.400 53.067 C 174.400 51.599,174.527 51.577,182.575 51.692 L 190.200 51.800 190.327 52.900 M193.200 58.200 L 193.200 59.200 185.600 59.200 L 178.000 59.200 178.000 58.200 L 178.000 57.200 185.600 57.200 L 193.200 57.200 193.200 58.200 M186.600 63.600 L 186.600 64.600 182.405 64.600 C 178.152 64.600,176.673 63.905,178.461 62.746 C 179.868 61.834,186.600 62.540,186.600 63.600 M190.327 68.500 L 190.453 69.600 184.414 69.600 C 178.100 69.600,177.518 69.432,178.149 67.789 C 178.347 67.273,179.293 67.196,184.292 67.289 L 190.200 67.400 190.327 68.500 M198.800 68.400 L 198.800 69.600 196.000 69.600 L 193.200 69.600 193.200 68.400 L 193.200 67.200 196.000 67.200 L 198.800 67.200 198.800 68.400 M204.667 72.667 C 203.773 73.560,205.076 75.351,206.300 74.913 C 207.278 74.562,206.905 72.400,205.867 72.400 C 205.353 72.400,204.813 72.520,204.667 72.667 M204.667 77.867 C 203.777 78.756,204.976 80.614,206.149 80.164 C 207.246 79.743,207.010 77.600,205.867 77.600 C 205.353 77.600,204.813 77.720,204.667 77.867 M213.300 77.859 C 213.025 77.973,212.800 78.502,212.800 79.033 L 212.800 80.000 219.027 80.000 L 225.253 80.000 225.127 78.900 L 225.000 77.800 219.400 77.726 C 216.320 77.685,213.575 77.745,213.300 77.859 M185.600 81.600 L 185.600 82.800 181.600 82.800 L 177.600 82.800 177.600 81.600 L 177.600 80.400 181.600 80.400 L 185.600 80.400 185.600 81.600 M198.800 81.600 L 198.800 82.800 193.600 82.800 L 188.400 82.800 188.400 81.600 L 188.400 80.400 193.600 80.400 L 198.800 80.400 198.800 81.600 M204.684 83.050 C 204.066 83.667,204.415 85.151,205.240 85.413 C 206.306 85.751,206.906 85.162,206.734 83.946 C 206.602 83.014,205.292 82.442,204.684 83.050 M195.400 86.000 L 195.400 87.000 186.500 87.108 L 177.600 87.215 177.600 86.000 L 177.600 84.785 186.500 84.892 L 195.400 85.000 195.400 86.000 M204.830 88.564 C 204.049 89.505,204.466 90.600,205.605 90.600 C 206.443 90.600,206.600 90.411,206.600 89.405 C 206.600 88.055,205.634 87.595,204.830 88.564 M212.954 88.577 C 212.208 90.521,212.483 90.593,221.105 90.708 L 229.200 90.817 229.200 89.408 L 229.200 88.000 221.187 88.000 C 214.578 88.000,213.136 88.101,212.954 88.577 M340.669 89.300 C 340.367 89.795,338.809 92.450,337.208 95.200 C 335.607 97.950,333.540 101.460,332.615 103.000 C 331.690 104.540,329.623 108.050,328.023 110.800 C 326.422 113.550,324.525 116.790,323.807 118.000 C 321.319 122.190,321.075 122.801,321.890 122.795 C 322.371 122.791,323.491 121.274,325.360 118.095 C 326.878 115.513,330.141 109.980,332.612 105.800 C 335.083 101.620,338.116 96.439,339.352 94.287 C 340.588 92.134,341.890 89.929,342.246 89.387 C 342.862 88.446,342.853 88.400,342.055 88.400 C 341.595 88.400,340.971 88.805,340.669 89.300 M182.200 90.800 C 182.200 92.448,177.861 92.332,177.671 90.679 L 177.543 89.558 179.871 89.679 C 182.056 89.793,182.200 89.862,182.200 90.800 M198.727 90.700 L 198.600 91.800 192.000 91.800 L 185.400 91.800 185.273 90.700 L 185.147 89.600 192.000 89.600 L 198.853 89.600 198.727 90.700 M103.018 92.982 L 104.000 93.964 104.000 113.382 C 104.000 132.267,103.978 132.822,103.200 133.600 C 102.060 134.740,29.187 134.874,27.931 133.738 C 27.241 133.114,27.200 131.946,27.200 113.161 L 27.200 93.245 28.089 92.623 C 28.878 92.070,33.093 92.000,65.507 92.000 L 102.036 92.000 103.018 92.982 M192.200 94.400 L 192.200 95.400 184.900 95.509 L 177.600 95.618 177.600 94.676 C 177.600 93.202,177.742 93.176,185.176 93.291 L 192.200 93.400 192.200 94.400 M198.327 94.500 C 198.452 95.593,198.438 95.600,196.027 95.600 C 193.751 95.600,193.600 95.542,193.600 94.667 C 193.600 92.660,198.097 92.501,198.327 94.500 M204.545 93.800 C 204.167 94.785,204.710 95.600,205.745 95.600 C 206.278 95.600,206.818 95.330,206.945 95.000 C 207.322 94.015,206.779 93.200,205.745 93.200 C 205.211 93.200,204.671 93.470,204.545 93.800 M31.600 113.000 L 31.600 130.000 65.600 130.000 L 99.600 130.000 99.600 113.000 L 99.600 96.000 65.600 96.000 L 31.600 96.000 31.600 113.000 M204.545 99.000 C 204.167 99.985,204.710 100.800,205.745 100.800 C 206.859 100.800,207.429 99.758,206.758 98.949 C 206.152 98.219,204.833 98.249,204.545 99.000 M209.472 98.661 C 209.323 98.811,209.200 99.353,209.200 99.867 L 209.200 100.800 221.627 100.800 L 234.053 100.800 233.927 99.700 L 233.800 98.600 221.772 98.494 C 215.157 98.436,209.622 98.511,209.472 98.661 M86.000 107.600 L 86.000 116.400 82.800 116.400 L 79.600 116.400 79.600 107.600 L 79.600 98.800 82.800 98.800 L 86.000 98.800 86.000 107.600 M94.400 102.000 L 94.400 105.200 91.200 105.200 L 88.000 105.200 88.000 102.000 L 88.000 98.800 91.200 98.800 L 94.400 98.800 94.400 102.000 M94.400 116.600 L 94.400 120.000 91.200 120.000 L 88.000 120.000 88.000 116.600 L 88.000 113.200 91.200 113.200 L 94.400 113.200 94.400 116.600 M77.200 120.800 L 77.200 127.600 68.200 127.600 L 59.200 127.600 59.200 120.800 L 59.200 114.000 68.200 114.000 L 77.200 114.000 77.200 120.800 M276.693 122.889 C 276.609 123.830,276.539 123.160,276.537 121.400 C 276.536 119.640,276.605 118.870,276.691 119.689 C 276.777 120.509,276.778 121.949,276.693 122.889 M94.400 124.400 L 94.400 127.600 91.200 127.600 L 88.000 127.600 88.000 124.400 L 88.000 121.200 91.200 121.200 L 94.400 121.200 94.400 124.400 M48.400 187.400 L 48.400 222.800 83.200 222.800 L 118.000 222.800 118.000 205.958 L 118.000 189.115 116.794 187.593 C 114.386 184.553,114.400 184.665,114.400 167.613 L 114.400 152.000 81.400 152.000 L 48.400 152.000 48.400 187.400 M180.000 167.813 C 180.000 185.061,180.008 184.997,177.650 187.682 L 176.400 189.106 176.400 205.953 L 176.400 222.800 246.200 222.800 L 316.000 222.800 316.000 189.933 C 316.000 171.857,315.907 157.160,315.792 157.274 C 315.678 157.389,315.066 159.894,314.432 162.841 C 313.798 165.788,312.521 170.720,311.594 173.800 C 310.667 176.880,309.565 180.823,309.146 182.562 C 307.254 190.399,302.821 194.144,295.392 194.182 C 287.326 194.223,283.802 190.799,281.025 180.223 C 278.908 172.162,275.934 166.800,273.579 166.800 C 272.469 166.800,271.600 167.236,271.600 167.793 C 271.600 168.372,267.022 173.200,266.473 173.200 C 266.266 173.200,266.289 173.868,266.526 174.755 C 267.887 179.854,261.717 183.061,258.602 178.873 C 256.430 175.952,258.889 171.334,262.436 171.672 C 263.738 171.796,264.000 171.699,264.000 171.091 C 264.000 170.169,268.328 165.662,269.400 165.467 C 269.840 165.388,270.740 165.090,271.400 164.805 C 276.676 162.533,279.432 166.575,284.369 183.824 C 286.484 191.216,293.695 194.401,300.870 191.112 C 305.949 188.784,309.462 178.521,313.812 153.300 L 314.036 152.000 272.118 152.000 L 230.200 152.000 230.200 158.100 C 230.200 162.572,230.339 164.347,230.722 164.751 C 231.089 165.137,231.222 166.428,231.169 169.073 C 231.096 172.664,231.144 172.897,232.161 173.960 C 236.280 178.259,229.970 184.450,225.760 180.240 C 223.689 178.169,224.242 173.810,226.672 173.041 C 227.320 172.837,227.386 172.400,227.274 169.076 C 227.174 166.087,227.272 165.238,227.766 164.828 C 228.239 164.436,228.284 164.131,227.961 163.527 C 227.705 163.049,227.590 160.630,227.670 157.369 L 227.800 151.999 220.921 151.999 L 214.041 152.000 213.921 157.900 C 213.830 162.342,213.931 163.964,214.329 164.464 C 214.707 164.937,214.822 166.200,214.729 168.864 C 214.610 172.302,214.670 172.656,215.471 173.306 C 218.584 175.830,216.743 181.200,212.765 181.200 C 208.303 181.200,206.353 176.767,209.451 173.669 L 210.903 172.217 210.829 168.576 C 210.772 165.726,210.889 164.824,211.370 164.425 C 211.834 164.040,211.882 163.728,211.570 163.143 C 211.326 162.688,211.206 160.239,211.278 157.184 L 211.400 151.999 195.700 151.999 L 180.000 152.000 180.000 167.813 M243.019 175.773 C 243.884 177.094,243.211 178.400,241.666 178.400 C 240.347 178.400,239.600 177.749,239.600 176.600 C 239.600 174.691,241.939 174.125,243.019 175.773 M248.333 176.567 C 248.628 178.058,246.404 179.044,245.280 177.920 C 243.956 176.596,245.821 174.319,247.381 175.353 C 247.832 175.651,248.260 176.198,248.333 176.567 M267.550 189.900 C 264.594 194.297,263.561 195.664,264.341 194.144 C 264.745 193.358,264.564 193.171,262.090 191.827 C 258.585 189.923,256.301 188.609,253.613 186.950 L 251.425 185.600 260.933 185.600 L 270.440 185.600 267.550 189.900 M125.200 207.000 L 125.200 222.800 128.823 222.800 L 132.445 222.800 131.823 221.911 C 131.033 220.783,131.023 218.830,131.802 217.718 C 132.438 216.810,132.245 213.613,130.591 197.711 C 130.266 194.583,130.000 191.838,130.000 191.611 C 130.000 191.375,128.978 191.200,127.600 191.200 L 125.200 191.200 125.200 207.000 M141.475 191.500 C 140.906 192.491,139.078 216.913,139.520 217.621 C 140.212 218.728,140.110 221.215,139.338 222.069 C 138.699 222.775,138.978 222.800,147.525 222.800 L 156.373 222.800 155.555 221.414 C 154.699 219.963,154.789 218.777,155.847 217.569 C 156.389 216.950,156.144 213.521,154.142 193.700 L 153.890 191.200 147.768 191.200 C 144.402 191.200,141.570 191.335,141.475 191.500 M165.426 191.700 C 165.272 192.218,164.364 201.730,163.554 211.318 C 163.205 215.454,163.202 217.087,163.544 217.837 C 164.179 219.231,164.113 220.861,163.377 221.911 L 162.755 222.800 166.177 222.800 L 169.600 222.800 169.600 207.000 L 169.600 191.200 167.587 191.200 C 166.323 191.200,165.520 191.386,165.426 191.700 " stroke="none" fill="#e6ffef" fill-rule="evenodd"></path><path id="path4" d="M118.669 26.554 C 111.926 28.434,108.366 36.161,111.419 42.288 C 116.306 52.094,130.298 50.409,132.787 39.715 C 134.628 31.806,126.617 24.338,118.669 26.554 M351.600 28.400 L 351.600 30.800 361.600 30.800 L 371.600 30.800 371.600 28.400 L 371.600 26.000 370.055 26.000 C 368.644 26.000,368.527 26.082,368.693 26.953 C 368.793 27.477,368.651 28.045,368.377 28.214 C 367.759 28.596,366.769 27.345,367.070 26.561 C 367.249 26.095,366.291 26.000,361.435 26.000 L 355.585 26.000 355.825 26.956 C 355.959 27.490,355.866 28.036,355.615 28.191 C 354.953 28.600,353.914 27.572,354.135 26.728 C 354.291 26.129,354.083 26.000,352.963 26.000 L 351.600 26.000 351.600 28.400 M125.808 28.143 C 133.752 31.842,134.131 42.211,126.479 46.509 C 120.732 49.738,113.663 46.655,111.750 40.085 C 109.371 31.912,118.056 24.533,125.808 28.143 M363.200 29.600 C 363.200 29.820,362.300 30.000,361.200 30.000 C 360.100 30.000,359.200 29.820,359.200 29.600 C 359.200 29.380,360.100 29.200,361.200 29.200 C 362.300 29.200,363.200 29.380,363.200 29.600 M355.500 35.476 C 354.107 35.840,354.841 36.297,356.516 36.108 C 360.075 35.707,360.004 37.904,356.376 40.449 C 353.410 42.529,353.341 42.414,357.500 42.324 C 360.215 42.266,360.484 42.216,358.700 42.104 C 355.985 41.934,355.884 41.708,357.952 40.430 C 362.264 37.765,360.486 34.173,355.500 35.476 M362.900 35.612 C 361.470 36.187,361.845 36.381,363.913 36.136 C 367.678 35.690,367.709 37.831,363.976 40.449 C 361.010 42.529,360.941 42.414,365.100 42.324 C 367.815 42.266,368.084 42.216,366.300 42.104 C 364.522 41.993,362.793 41.200,364.328 41.200 C 365.179 41.200,368.000 38.274,368.000 37.392 C 368.000 35.606,365.278 34.657,362.900 35.612 M174.400 53.000 L 174.400 54.000 182.400 54.000 L 190.400 54.000 190.400 53.000 L 190.400 52.000 182.400 52.000 L 174.400 52.000 174.400 53.000 M178.267 57.467 C 176.782 58.952,177.832 59.200,185.600 59.200 L 193.200 59.200 193.200 58.200 L 193.200 57.200 185.867 57.200 C 181.833 57.200,178.413 57.320,178.267 57.467 M178.129 63.440 C 177.719 64.510,178.823 64.808,182.800 64.702 C 186.401 64.605,186.607 64.553,186.728 63.700 C 186.897 62.512,178.582 62.261,178.129 63.440 M178.149 67.789 C 177.518 69.432,178.100 69.600,184.414 69.600 L 190.453 69.600 190.327 68.500 L 190.200 67.400 184.292 67.289 C 179.293 67.196,178.347 67.273,178.149 67.789 M193.200 68.400 L 193.200 69.600 196.000 69.600 L 198.800 69.600 198.800 68.400 L 198.800 67.200 196.000 67.200 L 193.200 67.200 193.200 68.400 M175.206 73.094 C 175.221 74.797,175.373 74.818,186.428 74.707 L 197.000 74.600 197.000 73.600 L 197.000 72.600 186.100 72.494 C 175.906 72.394,175.200 72.433,175.206 73.094 M176.000 77.991 L 176.000 79.200 183.027 79.200 L 190.053 79.200 189.927 78.100 L 189.800 77.000 182.900 76.891 L 176.000 76.781 176.000 77.991 M177.600 81.600 L 177.600 82.800 181.600 82.800 L 185.600 82.800 185.600 81.600 L 185.600 80.400 181.600 80.400 L 177.600 80.400 177.600 81.600 M188.400 81.600 L 188.400 82.800 193.600 82.800 L 198.800 82.800 198.800 81.600 L 198.800 80.400 193.600 80.400 L 188.400 80.400 188.400 81.600 M177.874 85.059 C 177.723 85.210,177.600 85.757,177.600 86.274 L 177.600 87.215 186.500 87.108 L 195.400 87.000 195.400 86.000 L 195.400 85.000 186.774 84.892 C 182.030 84.833,178.025 84.908,177.874 85.059 M177.673 90.700 C 177.827 92.037,181.025 92.575,181.980 91.424 C 182.960 90.243,182.187 89.600,179.786 89.600 C 177.579 89.600,177.549 89.616,177.673 90.700 M185.273 90.700 L 185.400 91.800 192.000 91.800 L 198.600 91.800 198.727 90.700 L 198.853 89.600 192.000 89.600 L 185.147 89.600 185.273 90.700 M177.876 93.458 C 177.724 93.609,177.600 94.153,177.600 94.667 L 177.600 95.600 184.827 95.600 L 192.053 95.600 191.927 94.500 L 191.800 93.400 184.976 93.291 C 181.222 93.231,178.027 93.306,177.876 93.458 M193.885 93.449 C 192.676 94.658,193.630 95.638,195.900 95.520 C 198.055 95.408,198.200 95.337,198.200 94.400 C 198.200 93.393,194.710 92.624,193.885 93.449 M175.748 98.100 C 175.881 98.595,175.992 99.135,175.995 99.300 C 175.998 99.465,180.500 99.600,186.000 99.600 L 196.000 99.600 196.000 98.400 L 196.000 97.200 185.753 97.200 L 175.507 97.200 175.748 98.100 M88.000 102.000 L 88.000 105.200 91.200 105.200 L 94.400 105.200 94.400 102.000 L 94.400 98.800 91.200 98.800 L 88.000 98.800 88.000 102.000 " stroke="none" fill="#b85be8" fill-rule="evenodd"></path></g></svg>