<?xml version="1.0" standalone="no"?>
<!DOCTYPE svg PUBLIC "-//W3C//DTD SVG 20010904//EN"
 "http://www.w3.org/TR/2001/REC-SVG-20010904/DTD/svg10.dtd">
<svg version="1.0" xmlns="http://www.w3.org/2000/svg"
 width="278.000000pt" height="181.000000pt" viewBox="0 0 278.000000 181.000000"
 preserveAspectRatio="xMidYMid meet">
<metadata>
Created by potrace 1.10, written by Peter Selinger 2001-2011
</metadata>
<g transform="translate(0.000000,181.000000) scale(0.100000,-0.100000)"
fill="#ffffff" stroke="none">
<path d="M1765 1435 l0 -105 43 0 42 0 0 105 0 105 -42 0 -43 0 0 -105z m65 5
c0 -79 0 -80 -26 -80 -25 0 -25 0 -23 80 2 77 3 80 25 80 23 0 24 -3 24 -80z"/>
<path d="M2032 1391 l-92 -95 27 -28 28 -27 96 95 97 95 -30 29 c-16 17 -30
29 -31 28 -1 0 -44 -44 -95 -97z m118 54 c11 -13 0 -28 -69 -97 -76 -75 -83
-80 -98 -65 -15 15 -11 22 62 97 44 44 82 80 86 80 3 0 12 -7 19 -15z"/>
<path d="M615 1311 c-43 -19 -100 -78 -116 -118 -12 -32 -12 -125 1 -157 5
-14 25 -43 45 -65 97 -108 269 -89 342 37 l25 42 -42 0 c-35 0 -50 -7 -81 -35
-34 -30 -46 -35 -89 -35 -43 0 -56 5 -86 33 -63 57 -63 146 0 205 31 27 43 32
87 32 48 0 55 -3 90 -40 32 -34 44 -40 79 -40 l40 0 -19 38 c-55 106 -173 150
-276 103z m181 -26 c24 -14 51 -39 59 -55 15 -29 15 -30 -7 -30 -13 0 -29 9
-36 21 -16 25 -70 49 -110 49 -63 0 -114 -34 -142 -95 -16 -35 -16 -38 -7 -91
8 -51 37 -88 84 -111 63 -30 121 -17 187 41 31 27 42 31 50 18 14 -23 -72 -96
-127 -108 -114 -26 -235 62 -243 177 -5 75 49 164 119 194 53 22 124 19 173
-10z"/>
<path d="M950 1115 l0 -215 40 0 40 0 0 215 0 215 -40 0 -40 0 0 -215z m60 0
c0 -188 -1 -195 -20 -195 -19 0 -20 7 -20 195 0 188 1 195 20 195 19 0 20 -7
20 -195z"/>
<path d="M1590 1243 c-14 -3 -40 -16 -59 -31 -33 -25 -34 -25 -29 -4 6 20 2
22 -38 22 l-44 0 0 -165 0 -165 45 0 45 0 0 105 c0 99 2 107 25 130 15 16 36
25 55 25 29 0 30 2 30 45 0 25 -1 44 -2 44 -2 -1 -14 -4 -28 -6z m0 -43 c0
-12 -7 -20 -17 -20 -10 0 -31 -11 -48 -24 -29 -24 -30 -26 -33 -130 -4 -96 -6
-106 -23 -106 -19 0 -21 7 -21 65 0 199 2 215 22 215 10 0 23 -7 28 -15 7 -14
11 -14 33 3 20 16 37 25 57 31 1 1 2 -8 2 -19z"/>
<path d="M1760 1243 c-88 -32 -132 -89 -132 -172 0 -128 129 -209 244 -152 64
31 93 80 93 156 0 52 -4 67 -29 99 -43 56 -124 88 -176 69z m119 -40 c76 -57
94 -149 42 -219 -53 -74 -163 -85 -227 -23 -30 29 -44 60 -50 114 -5 50 48
125 106 148 27 12 102 0 129 -20z"/>
<path d="M1769 1183 c-34 -5 -65 -38 -76 -83 -16 -58 20 -120 83 -140 30 -10
38 -9 76 17 54 36 69 85 44 142 -25 54 -63 73 -127 64z m92 -42 c38 -39 39
-87 3 -130 -21 -25 -33 -31 -65 -31 -88 0 -124 101 -58 163 40 37 82 36 120
-2z"/>
<path d="M1153 1230 c-23 -10 -47 -41 -58 -77 -6 -21 -3 -23 34 -23 31 0 41 4
46 20 7 23 44 35 81 26 20 -5 25 -12 22 -34 -3 -25 -8 -28 -68 -38 -36 -6 -73
-15 -83 -19 -23 -9 -47 -56 -47 -90 0 -33 24 -81 45 -89 30 -11 99 -6 129 9
35 18 36 18 36 0 0 -11 11 -15 38 -15 l37 0 -5 149 c-3 82 -7 151 -10 154 -36
29 -61 37 -115 36 -33 0 -70 -4 -82 -9z m166 -29 c11 -7 21 -15 21 -19 0 -4 2
-63 3 -132 2 -114 0 -125 -16 -128 -10 -2 -24 4 -31 14 -8 11 -18 14 -27 9 -8
-5 -4 3 9 17 14 15 22 37 22 59 0 50 -12 63 -46 54 -16 -5 -37 -9 -47 -10 -42
-5 -73 -66 -49 -101 13 -19 48 -33 73 -28 20 3 19 2 -6 -10 -38 -19 -50 -19
-85 -1 -22 11 -30 24 -35 57 -7 38 -5 44 22 68 21 19 46 29 83 33 59 7 90 29
90 62 0 31 -17 43 -67 46 -29 2 -48 -2 -61 -14 -19 -18 -52 -23 -52 -9 0 19
43 46 83 52 44 6 79 0 116 -19z m-39 -170 c0 -48 -21 -71 -64 -71 -75 0 -71
74 4 86 22 4 43 11 46 15 10 17 14 9 14 -30z"/>
<path d="M2060 1115 l0 -45 103 0 102 0 0 45 0 45 -102 0 -103 0 0 -45z m188
3 c3 -16 -6 -18 -82 -18 -80 0 -86 1 -86 20 0 20 5 21 82 18 70 -3 83 -6 86
-20z"/>
<path d="M1211 790 l-31 -50 33 0 c17 0 37 4 43 8 13 9 64 77 64 85 0 4 -18 7
-39 7 -36 0 -42 -4 -70 -50z"/>
<path d="M1730 790 l0 -40 45 0 45 0 0 40 0 40 -45 0 -45 0 0 -40z"/>
<path d="M711 699 c-18 -4 -37 -13 -42 -21 -7 -10 -9 -9 -9 5 0 14 -9 17 -45
17 l-45 0 0 -155 0 -155 45 0 45 0 0 108 c0 114 6 132 46 132 45 0 54 -23 54
-136 l0 -105 41 3 42 3 -2 90 c-1 100 11 138 47 143 45 7 52 -12 52 -129 l0
-109 45 0 45 0 0 125 c0 122 -1 125 -28 156 -24 27 -34 31 -81 31 -29 -1 -63
-7 -76 -16 -14 -9 -26 -11 -32 -5 -17 17 -67 26 -102 18z m-66 -43 c19 -14 19
-15 2 -33 -13 -15 -17 -38 -17 -106 0 -71 -3 -87 -15 -87 -12 0 -15 20 -15
120 0 127 4 136 45 106z m156 -2 c7 -8 20 -13 29 -11 15 4 15 1 -2 -32 -12
-24 -18 -57 -18 -108 0 -42 -4 -73 -10 -73 -6 0 -10 32 -10 75 0 82 -14 123
-52 149 -22 16 -22 16 14 16 20 0 41 -7 49 -16z m177 0 c20 -14 22 -23 22
-120 0 -86 -3 -104 -15 -104 -12 0 -15 16 -15 88 0 91 -10 116 -55 140 -18 10
-17 11 10 12 17 0 41 -7 53 -16z"/>
<path d="M1973 700 c-80 -19 -108 -68 -101 -177 4 -60 7 -68 41 -99 32 -29 44
-34 87 -34 51 0 96 16 119 43 10 12 6 19 -19 37 -28 20 -32 20 -52 6 -51 -36
-88 -9 -88 65 0 28 5 59 10 70 13 23 57 25 81 3 16 -14 20 -14 49 8 l31 23
-30 27 c-17 16 -40 28 -50 28 -11 0 -25 2 -33 4 -7 2 -28 0 -45 -4z m-9 -64
c-31 -31 -34 -40 -34 -90 0 -47 4 -61 29 -88 28 -32 30 -32 72 -21 46 12 64 9
39 -7 -8 -6 -37 -10 -63 -10 -40 0 -53 5 -78 29 -26 27 -29 35 -29 99 0 66 2
72 31 96 17 14 39 26 49 26 14 0 11 -7 -16 -34z m106 24 c26 -16 3 -22 -27 -6
-23 13 -24 15 -8 15 11 1 27 -3 35 -9z"/>
<path d="M1090 576 c0 -119 1 -126 26 -155 22 -26 33 -31 72 -31 28 0 52 6 64
17 17 15 18 15 18 0 0 -13 10 -17 45 -17 l45 0 0 155 0 155 -45 0 -45 0 0
-101 c0 -110 -9 -139 -43 -139 -41 0 -47 17 -47 132 l0 108 -45 0 -45 0 0
-124z m60 2 c0 -98 9 -121 55 -146 18 -10 16 -11 -14 -12 -62 0 -71 18 -71
142 0 89 3 108 15 108 12 0 15 -17 15 -92z m180 -28 l0 -120 -24 0 c-33 0 -41
15 -22 42 12 16 16 47 16 110 0 72 3 88 15 88 13 0 15 -20 15 -120z"/>
<path d="M1449 671 c-32 -33 -37 -67 -15 -110 15 -28 68 -51 118 -51 30 0 50
-20 39 -39 -12 -18 -72 -16 -111 4 -31 16 -32 16 -49 -7 -23 -33 -20 -41 19
-60 40 -20 136 -24 173 -7 47 22 73 102 44 140 -18 23 -46 36 -102 44 -53 7
-71 21 -53 42 14 17 56 16 88 -2 22 -12 27 -11 48 7 12 12 22 25 22 30 0 18
-71 38 -130 38 -55 0 -65 -3 -91 -29z m48 -19 c-10 -10 -17 -27 -17 -37 0 -22
28 -55 46 -55 7 0 15 -4 18 -8 3 -5 -5 -7 -17 -6 -12 1 -27 3 -34 3 -43 3 -58
79 -21 105 31 22 45 20 25 -2z m131 -118 c31 -22 29 -67 -5 -93 -31 -25 -44
-19 -18 9 23 26 13 65 -23 84 l-27 15 25 1 c14 0 36 -7 48 -16z m-142 -99 c18
-13 18 -14 -4 -8 -12 3 -25 9 -28 14 -8 14 10 11 32 -6z"/>
<path d="M1730 545 l0 -155 45 0 45 0 0 155 0 155 -45 0 -45 0 0 -155z m60 5
c0 -100 -2 -120 -15 -120 -12 0 -15 20 -15 120 0 100 3 120 15 120 13 0 15
-20 15 -120z"/>
<path d="M2201 687 c-24 -12 -25 -17 -9 -53 9 -20 11 -20 54 -5 40 14 47 14
72 1 15 -9 28 -23 30 -33 3 -14 -4 -17 -40 -17 -101 0 -148 -33 -148 -103 0
-56 34 -87 97 -87 28 0 58 7 71 16 20 14 22 14 22 0 0 -12 10 -16 40 -16 l40
0 0 126 c0 125 0 126 -29 155 -27 27 -35 29 -103 29 -40 0 -84 -6 -97 -13z
m181 -34 c15 -14 18 -32 18 -120 l0 -103 -26 0 c-21 0 -25 3 -19 18 15 34 17
72 5 88 -10 11 -10 18 -2 26 20 20 13 58 -14 83 l-27 25 23 0 c13 0 32 -7 42
-17z m-152 -132 c-17 -32 -12 -69 12 -85 l22 -16 -21 0 c-29 0 -53 26 -53 58
0 37 12 51 48 61 1 1 -2 -8 -8 -18z m120 -21 c0 -43 -80 -65 -103 -28 -17 27
9 48 59 48 37 0 44 -3 44 -20z"/>
</g>
</svg>
