<!DOCTYPE svg PUBLIC "-//W3C//DTD SVG 20010904//EN" "http://www.w3.org/TR/2001/REC-SVG-20010904/DTD/svg10.dtd">
<svg version="1.0" xmlns="http://www.w3.org/2000/svg" width="1600px" height="891px" viewBox="0 0 16000 8910" preserveAspectRatio="xMidYMid meet">
<g id="layer1" fill="#44e988" stroke="none">
 <path d="M3180 4305 l0 -345 130 0 130 0 0 345 0 345 -130 0 -130 0 0 -345z"/>
 <path d="M8376 3804 c-19 -18 -21 -55 -4 -72 17 -17 589 -17 606 0 17 17 15 54 -4 72 -13 14 -55 16 -299 16 -244 0 -286 -2 -299 -16z"/>
 </g>
<g id="layer2" fill="#ec5e4c" stroke="none">
 <path d="M3520 4085 l0 -125 130 0 130 0 0 125 0 125 -130 0 -130 0 0 -125z"/>
 <path d="M14170 1686 c0 -8 17 -25 38 -37 125 -77 176 -135 153 -178 -14 -26 -69 -36 -123 -23 -64 16 -83 -5 -25 -26 47 -17 122 -15 160 4 40 21 47 31 47 71 0 38 -39 82 -123 138 l-52 35 98 0 c80 0 97 3 97 15 0 13 -22 15 -135 15 -110 0 -135 -3 -135 -14z"/>
 <path d="M14470 1688 c0 -7 21 -26 48 -42 26 -16 71 -49 100 -74 40 -34 52 -50 52 -72 0 -52 -59 -73 -140 -50 -22 6 -38 6 -44 0 -14 -14 55 -40 109 -40 90 0 144 44 129 106 -6 25 -80 92 -144 132 l-35 22 98 0 c79 0 97 3 97 15 0 13 -22 15 -135 15 -101 0 -135 -3 -135 -12z"/>
 <path d="M14070 1130 l0 -100 50 0 51 0 -6 33 c-8 41 25 78 53 61 19 -12 29 -54 13 -54 -6 0 -11 -9 -11 -20 0 -19 7 -20 230 -20 l230 0 0 40 c0 33 4 42 25 52 19 8 28 8 40 -2 19 -16 19 -46 0 -54 -8 -3 -15 -12 -15 -21 0 -12 13 -15 65 -15 l65 0 0 100 0 100 -395 0 -395 0 0 -100z m468 53 c3 -10 -18 -13 -82 -13 -79 0 -97 5 -79 24 13 12 156 2 161 -11z"/>
 </g>
<g id="layer3" fill="#ad5ddc" stroke="none">
 <path d="M7033 3938 l-8 -53 394 -3 c282 -1 398 1 407 9 17 14 18 71 2 87 -9 9 -111 12 -399 12 l-387 0 -9 -52z"/>
 <path d="M7112 3818 c-7 -7 -12 -24 -12 -38 0 -14 5 -31 12 -38 17 -17 549 -17 566 0 15 15 15 61 0 76 -17 17 -549 17 -566 0z"/>
 <path d="M7756 3814 c-19 -19 -20 -44 -3 -68 10 -14 26 -16 92 -14 l80 3 3 39 c4 49 -6 56 -90 56 -47 0 -71 -5 -82 -16z"/>
 <path d="M7107 3664 c-11 -12 -8 -59 5 -72 7 -7 41 -12 84 -12 80 0 98 11 92 57 -3 28 -3 28 -88 31 -47 1 -89 0 -93 -4z"/>
 <path d="M7412 3628 l3 -43 264 0 c289 0 292 1 277 58 l-6 27 -271 0 -270 0 3 -42z"/>
 <path d="M7112 3478 c-19 -19 -15 -66 7 -78 13 -6 139 -10 341 -10 202 0 328 4 341 10 22 12 26 59 7 78 -17 17 -679 17 -696 0z"/>
 <path d="M7104 3296 c-3 -8 -4 -27 -2 -43 l3 -28 160 0 160 0 0 40 0 40 -158 3 c-130 2 -158 0 -163 -12z"/>
 <path d="M7540 3265 l0 -45 204 0 c198 0 205 1 211 21 4 11 4 31 1 45 l-6 24 -205 0 -205 0 0 -45z"/>
 <path d="M7040 3136 c0 -19 -2 -40 -5 -48 -4 -11 45 -12 277 -8 l283 5 0 40 0 40 -277 3 -278 2 0 -34z"/>
 <path d="M7025 2988 c-2 -7 -8 -30 -14 -50 l-9 -38 434 0 434 0 11 23 c7 15 7 31 0 50 l-11 27 -420 0 c-328 0 -422 -3 -425 -12z"/>
 <path d="M7132 2738 l3 -43 229 -3 c250 -3 259 -1 254 52 l-3 31 -243 3 -243 2 3 -42z"/>
 <path d="M7727 2774 c-9 -9 -9 -47 -1 -68 5 -13 25 -16 115 -16 107 0 109 0 115 24 14 57 8 61 -112 64 -60 1 -113 -1 -117 -4z"/>
 <path d="M7134 2576 c-3 -8 -4 -27 -2 -43 l3 -28 163 -3 162 -2 11 23 c8 18 8 30 0 46 -11 20 -19 21 -172 21 -128 0 -161 -3 -165 -14z"/>
 <path d="M7132 2328 l3 -43 130 -3 c72 -1 202 1 290 5 l160 8 3 31 3 31 -77 6 c-42 4 -176 7 -296 7 l-219 0 3 -42z"/>
 <path d="M6979 2146 c-9 -18 -9 -33 -2 -48 l10 -23 299 4 c164 2 302 5 307 8 4 2 7 17 7 33 0 23 -5 31 -22 34 -13 3 -150 8 -305 11 l-283 6 -11 -25z"/>
 <path d="M4745 1936 c-83 -27 -140 -61 -194 -115 -118 -118 -165 -275 -126 -424 51 -197 195 -322 405 -352 65 -9 180 18 255 60 148 82 235 229 235 395 0 175 -100 329 -266 410 -61 29 -80 33 -169 36 -66 3 -114 -1 -140 -10z m295 -62 c85 -40 158 -113 201 -200 32 -64 34 -75 34 -169 0 -118 -17 -176 -73 -250 -196 -258 -596 -211 -719 85 -23 55 -27 80 -27 160 0 79 4 104 24 150 43 98 101 163 192 214 66 37 110 45 213 43 76 -2 100 -7 155 -33z"/>
 </g>
<g id="layer4" fill="#0b004f" stroke="none">
 <path d="M5306 8596 c-4 -34 -15 -153 -26 -266 -28 -297 -50 -534 -57 -617 l-6 -73 212 0 213 0 -6 38 c-3 20 -8 75 -11 122 -3 47 -15 173 -25 280 -11 107 -26 276 -35 375 -9 99 -18 185 -20 192 -3 10 -14 9 -46 -2 -51 -18 -102 -18 -151 -1 l-37 13 -5 -61z"/>
 <path d="M6270 8656 c-2 -6 -34 -345 -50 -526 -20 -223 -37 -395 -45 -457 l-4 -33 214 0 215 0 -5 58 c-3 31 -12 131 -21 222 -8 91 -24 260 -34 375 -31 338 -33 355 -40 360 -5 3 -24 -2 -44 -10 -43 -18 -99 -19 -148 -1 -21 8 -38 13 -38 12z"/>
 <path d="M3530 4665 l0 -115 120 0 120 0 0 115 0 115 -120 0 -120 0 0 -115z"/>
 </g>
<g id="layer5" fill="#3f3443" stroke="none">
 <path d="M5 8235 c0 -374 1 -526 2 -337 2 189 2 495 0 680 -1 185 -2 31 -2 -343z"/>
 <path d="M5280 8883 c-19 -21 -25 -43 -28 -88 -4 -55 -1 -64 23 -93 l27 -32 -12 -128 c-6 -70 -15 -158 -20 -197 -5 -38 -12 -106 -15 -150 -5 -77 -13 -167 -20 -230 -2 -16 -6 -61 -10 -100 -4 -38 -10 -103 -14 -143 -4 -40 -4 -75 -1 -77 4 -3 10 28 13 68 7 83 29 320 57 617 11 113 22 232 26 266 l5 61 37 -13 c49 -17 100 -17 151 1 32 11 43 12 46 2 2 -7 11 -93 20 -192 9 -99 24 -268 35 -375 10 -107 22 -233 25 -280 7 -101 15 -163 21 -157 2 2 -2 80 -11 173 -8 93 -17 200 -20 238 -4 39 -8 72 -10 75 -1 4 -6 53 -10 111 -4 58 -8 112 -10 120 -1 8 -6 56 -9 105 -7 85 -17 194 -19 205 -1 3 7 18 17 33 31 46 36 98 13 146 -11 23 -29 47 -41 53 -21 11 -21 11 1 -13 46 -50 55 -114 23 -167 -57 -94 -190 -105 -272 -22 -34 34 -38 43 -38 88 0 43 5 57 31 87 17 19 27 35 22 35 -5 0 -20 -12 -33 -27z"/>
 <path d="M6241 8886 c-45 -48 -45 -144 -1 -191 18 -19 21 -31 16 -62 -3 -21 -8 -68 -11 -105 -7 -81 -9 -94 -34 -373 -12 -121 -25 -269 -31 -330 -5 -60 -12 -127 -14 -148 -2 -21 -2 -36 2 -33 6 7 21 146 52 483 16 186 48 524 50 529 0 1 17 -4 38 -12 49 -18 105 -17 148 1 56 23 47 63 84 -350 11 -115 26 -293 35 -395 9 -102 20 -203 25 -225 7 -32 8 -26 4 30 -3 39 -7 88 -9 110 -2 22 -7 78 -10 125 -4 47 -8 99 -10 115 -2 17 -6 50 -9 75 -6 48 -7 57 -32 345 -8 105 -18 192 -20 194 -2 2 5 16 16 32 41 57 38 138 -7 183 -14 14 -30 26 -36 26 -5 0 2 -9 16 -20 32 -25 51 -81 43 -125 -10 -51 -47 -89 -108 -109 -70 -24 -126 -10 -180 44 -34 34 -38 43 -38 88 0 43 5 57 31 87 35 39 26 49 -10 11z"/>
 <path d="M11489 7583 c-13 -16 -12 -17 4 -4 9 7 17 15 17 17 0 8 -8 3 -21 -13z"/>
 <path d="M9608 7113 c-42 -49 -12 -116 52 -116 40 0 81 41 75 74 -11 55 -92 82 -127 42z"/>
 <path d="M9805 7106 c-31 -47 7 -104 65 -97 55 6 80 69 42 104 -29 26 -88 22 -107 -7z"/>
 <path d="M9331 7044 c0 -11 3 -14 6 -6 3 7 2 16 -1 19 -3 4 -6 -2 -5 -13z"/>
 <path d="M11019 6703 c-13 -16 -12 -17 4 -4 9 7 17 15 17 17 0 8 -8 3 -21 -13z"/>
 <path d="M9114 6315 c0 -115 2 -161 3 -102 2 59 2 154 0 210 -1 56 -3 8 -3 -108z"/>
 <path d="M3 5555 c0 -22 2 -30 4 -17 2 12 2 30 0 40 -3 9 -5 -1 -4 -23z"/>
 <path d="M4488 5562 c-42 -17 -128 -104 -139 -141 -20 -67 0 -102 176 -307 88 -103 169 -197 181 -211 l20 -24 1233 12 c978 10 1234 10 1240 0 6 -9 46 9 144 64 l136 77 148 23 c388 63 399 66 436 136 14 25 17 46 12 83 -8 65 -27 99 -70 126 -42 26 -77 25 -270 -10 -216 -38 -290 -50 -317 -50 -15 0 -78 -28 -139 -62 -89 -50 -119 -73 -149 -113 -43 -58 -84 -91 -155 -126 l-50 -24 -1035 0 -1035 0 -59 30 c-154 78 -226 213 -226 428 l0 97 -32 -1 c-18 0 -41 -3 -50 -7z"/>
 <path d="M3520 4665 l0 -125 130 0 130 0 0 125 0 125 -130 0 -130 0 0 -125z m250 0 l0 -115 -120 0 -120 0 0 115 0 115 120 0 120 0 0 -115z"/>
 </g>
<g id="layer6" fill="#ebd350" stroke="none">
 <path d="M2370 4830 l0 -270 360 0 360 0 0 270 0 270 -360 0 -360 0 0 -270z"/>
 <path d="M1470 4240 l0 -280 350 0 350 0 0 280 0 280 -350 0 -350 0 0 -280z"/>
 <path d="M2370 4385 l0 -125 360 0 360 0 0 125 0 125 -360 0 -360 0 0 -125z"/>
 <path d="M3520 4385 l0 -125 130 0 130 0 0 125 0 125 -130 0 -130 0 0 -125z"/>
 </g>
<g id="layer7" fill="#f5d2c3" stroke="none">
 <path d="M11325 5533 l-17 -28 23 22 c12 12 20 25 17 28 -3 3 -13 -7 -23 -22z"/>
 <path d="M983 5440 c0 -36 2 -50 4 -32 2 17 2 47 0 65 -2 17 -4 3 -4 -33z"/>
 <path d="M8699 5363 l-24 -28 28 24 c15 14 27 26 27 28 0 8 -8 1 -31 -24z"/>
 <path d="M8059 5344 c45 -75 19 -183 -51 -220 l-33 -17 30 -13 c46 -20 404 -19 452 1 61 26 84 57 92 125 4 33 5 60 2 60 -3 0 -14 14 -23 30 -9 16 -32 39 -50 50 -30 18 -50 20 -236 20 l-204 0 21 -36z"/>
 <path d="M8634 5314 c-18 -14 -18 -15 4 -4 12 6 22 13 22 15 0 8 -5 6 -26 -11z"/>
 <path d="M11524 5158 l-19 -23 23 19 c21 18 27 26 19 26 -2 0 -12 -10 -23 -22z"/>
 <path d="M2174 4970 c0 -74 1 -105 3 -67 2 37 2 97 0 135 -2 37 -3 6 -3 -68z"/>
 <path d="M11888 5093 c6 -2 18 -2 25 0 6 3 1 5 -13 5 -14 0 -19 -2 -12 -5z"/>
 <path d="M11060 5019 c0 -5 5 -7 10 -4 6 3 10 8 10 11 0 2 -4 4 -10 4 -5 0 -10 -5 -10 -11z"/>
 <path d="M11830 4966 c0 -2 8 -10 18 -17 15 -13 16 -12 3 4 -13 16 -21 21 -21 13z"/>
 <path d="M8948 4933 c12 -2 30 -2 40 0 9 3 -1 5 -23 4 -22 0 -30 -2 -17 -4z"/>
 <path d="M11091 4914 c0 -11 3 -14 6 -6 3 7 2 16 -1 19 -3 4 -6 -2 -5 -13z"/>
 <path d="M8849 4893 l-24 -28 28 24 c15 14 27 26 27 28 0 8 -8 1 -31 -24z"/>
 <path d="M9065 4890 c3 -5 8 -10 11 -10 2 0 4 5 4 10 0 6 -5 10 -11 10 -5 0 -7 -4 -4 -10z"/>
 <path d="M9105 4780 c0 -32 3 -53 7 -47 10 16 10 95 1 100 -5 3 -8 -21 -8 -53z"/>
 <path d="M8802 4785 c0 -16 2 -22 5 -12 2 9 2 23 0 30 -3 6 -5 -1 -5 -18z"/>
 <path d="M8850 4675 c13 -14 26 -25 28 -25 3 0 -5 11 -18 25 -13 14 -26 25 -28 25 -3 0 5 -11 18 -25z"/>
 <path d="M8918 4633 c7 -3 16 -2 19 1 4 3 -2 6 -13 5 -11 0 -14 -3 -6 -6z"/>
 <path d="M8988 4633 c7 -3 16 -2 19 1 4 3 -2 6 -13 5 -11 0 -14 -3 -6 -6z"/>
 <path d="M7141 4564 c0 -11 3 -14 6 -6 3 7 2 16 -1 19 -3 4 -6 -2 -5 -13z"/>
 <path d="M1460 4240 l0 -290 358 2 357 3 3 288 2 287 -360 0 -360 0 0 -290z m710 0 l0 -280 -350 0 -350 0 0 280 0 280 350 0 350 0 0 -280z"/>
 <path d="M2548 4513 c100 -2 264 -2 365 0 100 1 18 2 -183 2 -201 0 -283 -1 -182 -2z"/>
 <path d="M3583 4513 c37 -2 97 -2 135 0 37 2 6 3 -68 3 -74 0 -105 -1 -67 -3z"/>
 <path d="M2558 4253 c101 -2 263 -2 360 0 97 1 15 2 -183 2 -198 0 -278 -1 -177 -2z"/>
 <path d="M3583 4253 c37 -2 97 -2 135 0 37 2 6 3 -68 3 -74 0 -105 -1 -67 -3z"/>
 <path d="M2377 4213 c-4 -3 -7 -64 -7 -135 l0 -128 360 0 360 0 0 135 0 135 -353 0 c-195 0 -357 -3 -360 -7z"/>
 <path d="M3583 4213 c37 -2 97 -2 135 0 37 2 6 3 -68 3 -74 0 -105 -1 -67 -3z"/>
 <path d="M8383 4033 c-19 -7 -17 -80 3 -87 20 -8 938 -8 958 0 19 7 22 64 4 82 -9 9 -129 12 -483 11 -258 0 -476 -3 -482 -6z"/>
 <path d="M3583 3953 c37 -2 97 -2 135 0 37 2 6 3 -68 3 -74 0 -105 -1 -67 -3z"/>
 <path d="M6967 3520 c-12 -73 -89 -217 -159 -297 -89 -102 -186 -175 -313 -238 -201 -99 -351 -130 -580 -122 -125 4 -169 10 -263 36 -113 31 -252 90 -327 139 -144 94 -277 244 -322 362 -10 24 -25 59 -34 78 l-17 33 -7 -67 c-10 -87 5 -149 60 -258 51 -99 117 -189 183 -250 25 -22 52 -48 61 -57 34 -35 201 -137 272 -167 226 -94 506 -114 734 -52 95 25 224 76 246 96 8 8 20 14 26 14 22 0 172 121 238 192 83 89 149 193 193 303 41 103 46 144 29 230 l-13 70 -7 -45z"/>
 <path d="M8402 2988 c-18 -18 -15 -75 4 -82 9 -3 228 -6 488 -6 499 0 496 0 496 46 0 55 8 54 -504 54 -354 0 -475 -3 -484 -12z"/>
 <path d="M8402 2158 c-7 -7 -12 -24 -12 -38 0 -14 5 -31 12 -38 9 -9 157 -12 604 -12 326 0 599 3 608 6 19 7 22 64 4 82 -17 17 -1199 17 -1216 0z"/>
 <path d="M4630 1705 c19 -19 36 -35 39 -35 3 0 -10 16 -29 35 -19 19 -36 35 -39 35 -3 0 10 -16 29 -35z"/>
 <path d="M5074 1688 l-19 -23 23 19 c12 11 22 21 22 23 0 8 -8 2 -26 -19z"/>
 <path d="M14161 1684 c0 -11 3 -14 6 -6 3 7 2 16 -1 19 -3 4 -6 -2 -5 -13z"/>
 <path d="M14461 1684 c0 -11 3 -14 6 -6 3 7 2 16 -1 19 -3 4 -6 -2 -5 -13z"/>
 <path d="M14345 1600 c10 -11 20 -20 23 -20 3 0 -3 9 -13 20 -10 11 -20 20 -23 20 -3 0 3 -9 13 -20z"/>
 <path d="M14560 1616 c0 -2 8 -10 18 -17 15 -13 16 -12 3 4 -13 16 -21 21 -21 13z"/>
 <path d="M14630 1616 c0 -2 8 -10 18 -17 15 -13 16 -12 3 4 -13 16 -21 21 -21 13z"/>
 <path d="M14610 1577 c0 -2 15 -16 33 -33 l32 -29 -29 33 c-28 30 -36 37 -36 29z"/>
 <path d="M4939 1553 c-13 -16 -12 -17 4 -4 16 13 21 21 13 21 -2 0 -10 -8 -17 -17z"/>
 <path d="M14320 1566 c0 -2 8 -10 18 -17 15 -13 16 -12 3 4 -13 16 -21 21 -21 13z"/>
 <path d="M4844 1509 c-3 -6 9 -25 27 -43 l34 -31 -29 32 c-15 17 -25 36 -22 42 4 6 5 11 2 11 -3 0 -8 -5 -12 -11z"/>
 <path d="M14419 1488 c-3 -22 -1 -34 4 -29 5 5 7 21 5 37 -3 27 -4 26 -9 -8z"/>
 <path d="M14361 1494 c0 -11 3 -14 6 -6 3 7 2 16 -1 19 -3 4 -6 -2 -5 -13z"/>
 <path d="M14649 1463 c-13 -16 -12 -17 4 -4 16 13 21 21 13 21 -2 0 -10 -8 -17 -17z"/>
 <path d="M14186 1462 c-2 -4 4 -8 14 -8 10 0 16 4 14 8 -3 4 -9 8 -14 8 -5 0 -11 -4 -14 -8z"/>
 <path d="M14500 1460 c8 -5 20 -10 25 -10 6 0 3 5 -5 10 -8 5 -19 10 -25 10 -5 0 -3 -5 5 -10z"/>
 <path d="M14370 1425 c-14 -8 -20 -14 -14 -15 5 0 19 7 30 15 24 18 16 19 -16 0z"/>
 <path d="M14487 1429 c7 -7 15 -10 18 -7 3 3 -2 9 -12 12 -14 6 -15 5 -6 -5z"/>
 <path d="M4925 1410 c10 -11 20 -20 23 -20 3 0 -3 9 -13 20 -10 11 -20 20 -23 20 -3 0 3 -9 13 -20z"/>
 <path d="M4659 1273 c-13 -16 -12 -17 4 -4 16 13 21 21 13 21 -2 0 -10 -8 -17 -17z"/>
 <path d="M5050 1286 c0 -2 8 -10 18 -17 15 -13 16 -12 3 4 -13 16 -21 21 -21 13z"/>
 <path d="M14198 1123 c7 -3 16 -2 19 1 4 3 -2 6 -13 5 -11 0 -14 -3 -6 -6z"/>
 <path d="M14718 1123 c7 -3 16 -2 19 1 4 3 -2 6 -13 5 -11 0 -14 -3 -6 -6z"/>
 <path d="M14681 1044 c0 -11 3 -14 6 -6 3 7 2 16 -1 19 -3 4 -6 -2 -5 -13z"/>
 </g>
<g id="layer8" fill="#adbcfa" stroke="none">
 <path d="M11318 5513 c-40 -42 -111 -153 -131 -206 -4 -11 1 -25 13 -37 31 -31 27 -93 -6 -119 -15 -12 -35 -21 -45 -21 -11 0 -21 -9 -23 -22 -20 -93 -26 -138 -32 -232 l-7 -106 212 0 c176 0 211 2 211 14 0 8 12 28 26 45 43 52 125 34 139 -30 l7 -29 139 0 139 0 1 88 c1 48 0 92 -1 97 -2 6 -5 28 -7 50 -6 74 -7 80 -13 85 -3 3 -15 37 -25 75 -21 83 -82 219 -121 272 -15 21 -46 57 -68 81 l-40 42 -161 0 -161 0 -46 -47z m454 -65 c14 -18 32 -47 41 -65 16 -31 16 -32 -5 -47 -31 -22 -70 -20 -102 5 -33 26 -37 88 -6 119 28 28 44 25 72 -12z m-325 -31 c8 -7 16 -29 19 -48 12 -75 -82 -123 -136 -69 -20 20 -28 83 -12 106 23 35 99 41 129 11z m192 -253 c40 -33 42 -78 6 -117 -37 -39 -85 -37 -120 5 -32 38 -29 81 11 116 33 29 65 28 103 -4z m290 -114 c6 -28 11 -67 11 -85 0 -33 -2 -35 -35 -35 -79 0 -112 85 -56 141 45 45 67 39 80 -21z m-615 -31 c20 -16 26 -29 26 -58 0 -51 -29 -81 -79 -81 -51 0 -81 29 -81 80 0 45 35 80 80 80 15 0 39 -9 54 -21z"/>
 <path d="M1460 4970 l0 -130 355 0 355 0 0 130 0 130 -355 0 -355 0 0 -130z"/>
 <path d="M3520 4970 l0 -130 130 0 130 0 0 130 0 130 -130 0 -130 0 0 -130z"/>
 <path d="M8000 3115 l0 -1125 1580 0 1580 0 0 1125 0 1125 -1580 0 -1580 0 0 -1125z m1355 875 l0 -45 -484 -3 c-349 -1 -488 1 -497 9 -17 14 -18 43 -4 70 11 19 24 19 498 17 l487 -3 0 -45z m-1087 28 c7 -7 12 -21 12 -33 0 -28 -19 -45 -50 -45 -14 0 -31 5 -38 12 -16 16 -15 65 1 71 23 10 63 7 75 -5z m0 -210 c16 -16 15 -53 -2 -67 -8 -7 -30 -11 -48 -9 -28 3 -33 7 -36 31 -2 16 -1 35 2 43 7 17 67 19 84 2z m706 -4 c19 -18 21 -55 4 -72 -17 -17 -589 -17 -606 0 -17 17 -15 54 4 72 13 14 55 16 299 16 244 0 286 -2 299 -16z m-714 -194 c27 -27 25 -56 -5 -76 -23 -15 -27 -15 -50 0 -43 28 -28 94 23 96 6 0 21 -9 32 -20z m898 8 c16 -16 16 -70 0 -86 -9 -9 -91 -12 -309 -12 -164 0 -304 3 -313 6 -19 7 -22 74 -4 92 17 17 609 17 626 0z m1016 -4 c10 -27 7 -61 -8 -73 -11 -9 -122 -10 -448 -4 l-433 8 -3 28 c-7 59 -19 57 453 57 386 0 434 -2 439 -16z m884 4 c7 -7 12 -24 12 -38 0 -14 -5 -31 -12 -38 -9 -9 -106 -12 -374 -12 -199 0 -369 3 -378 6 -16 6 -23 73 -9 87 3 4 173 7 378 7 275 0 374 -3 383 -12z m-2797 -219 c15 -15 19 -28 14 -47 -9 -35 -9 -35 -46 -35 -35 0 -49 15 -49 55 0 46 46 62 81 27z m1487 12 c9 -5 12 -24 10 -52 l-3 -44 -595 -3 c-327 -1 -605 0 -617 3 -20 5 -23 12 -23 50 l0 45 538 3 c295 1 569 3 607 4 39 2 76 -1 83 -6z m1306 3 c11 -4 16 -19 16 -44 0 -25 -5 -40 -16 -44 -9 -3 -109 -6 -223 -6 -221 0 -231 2 -231 50 0 48 10 50 231 50 114 0 214 -3 223 -6z m-560 -37 c7 -19 7 -34 0 -45 -10 -15 -40 -17 -310 -17 l-299 0 -3 39 c-2 24 2 42 10 47 7 5 143 8 303 6 l290 -2 9 -28z m-509 -207 l0 -55 -424 -3 c-315 -2 -427 1 -438 10 -10 8 -12 23 -7 52 3 23 8 44 11 49 2 4 196 6 431 5 l427 -3 0 -55z m1080 10 l0 -45 -475 0 -475 0 -3 24 c-2 12 -1 34 2 47 l6 24 473 -2 472 -3 0 -45z m-2805 10 c11 -11 20 -28 20 -37 0 -21 -29 -53 -48 -53 -48 0 -72 83 -29 100 32 13 35 12 57 -10z m745 -30 l0 -35 -240 0 -240 0 -3 23 c-8 53 -11 53 245 50 l238 -3 0 -35z m-745 -180 c37 -37 20 -83 -30 -83 -48 0 -69 53 -34 87 21 21 40 20 64 -4z m1118 8 c16 -16 15 -63 -2 -77 -9 -8 -148 -10 -497 -9 l-484 3 -3 39 c-2 24 2 42 10 47 22 14 962 11 976 -3z m-1118 -208 c11 -11 20 -28 20 -37 0 -21 -29 -53 -48 -53 -44 0 -71 78 -34 99 25 15 40 13 62 -9z m1521 10 c22 -12 27 -68 7 -88 -9 -9 -160 -12 -619 -12 -544 0 -607 2 -613 16 -10 26 -7 69 6 82 16 16 1189 17 1219 2z m1314 -40 l0 -45 -205 -3 c-113 -1 -215 0 -227 3 -19 4 -23 12 -23 44 0 22 6 42 13 44 6 3 109 5 227 4 l215 -2 0 -45z m-567 -12 l-3 -43 -299 -3 c-233 -2 -301 1 -308 10 -9 16 -11 62 -1 71 3 4 143 7 310 7 l304 0 -3 -42z m567 -188 l0 -45 -300 0 -300 0 -3 33 c-6 66 -22 63 305 60 l298 -3 0 -45z m-2831 18 c20 -29 20 -52 0 -72 -33 -34 -84 -8 -84 43 0 52 55 71 84 29z m890 16 c11 -4 16 -19 16 -44 0 -25 -5 -40 -16 -44 -9 -3 -143 -6 -298 -6 -301 0 -306 1 -306 50 0 49 5 50 306 50 155 0 289 -3 298 -6z m1220 0 c11 -4 16 -19 16 -44 0 -25 -5 -40 -16 -44 -9 -3 -251 -6 -538 -6 -393 0 -525 3 -534 12 -7 7 -12 24 -12 38 0 14 5 31 12 38 9 9 141 12 534 12 287 0 529 -3 538 -6z m-2116 -220 c39 -27 19 -94 -28 -94 -45 0 -70 77 -32 99 24 14 34 13 60 -5z m2110 -27 c7 -60 39 -57 -668 -57 -357 0 -655 3 -664 6 -16 6 -23 64 -9 77 3 4 306 6 672 5 l666 -3 3 -28z m720 -9 l-3 -43 -297 -3 c-293 -2 -297 -2 -308 19 -7 11 -9 32 -6 45 l6 24 306 0 305 0 -3 -42z m-2824 -180 c20 -29 20 -52 0 -72 -33 -34 -84 -8 -84 43 0 52 55 71 84 29z m1361 -28 l0 -45 -615 0 -615 0 -3 39 c-2 24 2 42 10 47 7 5 285 8 618 6 l605 -2 0 -45z"/>
 <path d="M7932 3780 c0 -19 2 -27 5 -17 2 9 2 25 0 35 -3 9 -5 1 -5 -18z"/>
 <path d="M7158 3673 c23 -2 59 -2 80 0 20 2 1 4 -43 4 -44 0 -61 -2 -37 -4z"/>
 <path d="M7548 3673 c72 -2 192 -2 265 0 72 1 13 3 -133 3 -146 0 -205 -2 -132 -3z"/>
 <path d="M7402 3625 c0 -16 2 -22 5 -12 2 9 2 23 0 30 -3 6 -5 -1 -5 -18z"/>
 <path d="M7107 3399 c7 -7 15 -10 18 -7 3 3 -2 9 -12 12 -14 6 -15 5 -6 -5z"/>
 <path d="M7532 3265 c0 -16 2 -22 5 -12 2 9 2 23 0 30 -3 6 -5 -1 -5 -18z"/>
 <path d="M7595 3127 l0 -42 -280 -5 -280 -5 276 -3 c203 -1 278 1 287 10 13 13 17 74 5 81 -5 3 -8 -14 -8 -36z"/>
 <path d="M7253 2783 c64 -2 170 -2 235 0 64 1 11 3 -118 3 -129 0 -182 -2 -117 -3z"/>
 <path d="M7788 2783 c28 -2 76 -2 105 0 28 2 5 3 -53 3 -58 0 -81 -1 -52 -3z"/>
 <path d="M7122 2740 c0 -19 2 -27 5 -17 2 9 2 25 0 35 -3 9 -5 1 -5 -18z"/>
 <path d="M7122 2550 c0 -14 2 -19 5 -12 2 6 2 18 0 25 -3 6 -5 1 -5 -13z"/>
 <path d="M7410 2369 c151 -3 283 -7 292 -8 11 -1 18 -12 20 -33 3 -27 6 -30 12 -15 5 11 4 28 -2 43 l-12 24 -292 -2 -293 -2 275 -7z"/>
 <path d="M7122 2330 c0 -19 2 -27 5 -17 2 9 2 25 0 35 -3 9 -5 1 -5 -18z"/>
 <path d="M7580 2160 c0 -5 5 -10 10 -10 6 0 10 -16 10 -35 0 -19 5 -35 10 -35 14 0 12 64 -2 78 -15 15 -28 16 -28 2z"/>
 </g>
<g id="layer9" fill="#929993" stroke="none">
 <path d="M1540 7495 l0 -1415 200 0 200 0 0 1415 0 1415 -200 0 -200 0 0 -1415z"/>
 <path d="M4730 8234 l0 -676 -38 -36 c-46 -45 -86 -112 -102 -170 -8 -30 -11 -204 -11 -565 1 -287 -2 -613 -5 -724 l-7 -203 -1648 0 -1648 0 -4 113 -3 112 -2 -112 -2 -113 -250 0 -250 0 0 -145 0 -145 1868 -1 c1027 -1 1884 0 1905 1 l37 2 0 -99 c0 -215 71 -350 226 -428 l59 -30 1035 0 1035 0 50 24 c164 80 235 208 235 423 l0 109 2238 -1 c1230 -1 2715 -1 3300 -1 l1062 1 0 145 0 145 -3300 0 -3300 0 0 714 c0 691 -1 716 -20 780 -22 69 -60 134 -104 175 l-26 24 0 679 0 678 -140 0 -140 0 0 -635 0 -635 -79 0 c-67 0 -80 3 -84 18 -4 16 -5 16 -6 0 -1 -17 -31 -18 -475 -18 -444 0 -475 1 -479 18 -4 16 -5 16 -6 0 -1 -17 -23 -18 -321 -18 l-320 0 0 635 0 635 -140 0 -140 0 0 -676z"/>
 <path d="M12646 7873 c-8 -1315 -8 -1608 0 -1710 l7 -83 193 0 194 0 0 1415 0 1415 -193 0 -194 0 -7 -1037z"/>
 <path d="M6562 8790 c0 -19 2 -27 5 -17 2 9 2 25 0 35 -3 9 -5 1 -5 -18z"/>
 <path d="M6251 8654 c0 -11 3 -14 6 -6 3 7 2 16 -1 19 -3 4 -6 -2 -5 -13z"/>
 <path d="M5291 8634 c0 -11 3 -14 6 -6 3 7 2 16 -1 19 -3 4 -6 -2 -5 -13z"/>
 <path d="M5561 8624 c0 -11 3 -14 6 -6 3 7 2 16 -1 19 -3 4 -6 -2 -5 -13z"/>
 <path d="M6521 8624 c0 -11 3 -14 6 -6 3 7 2 16 -1 19 -3 4 -6 -2 -5 -13z"/>
 <path d="M6242 8550 c0 -14 2 -19 5 -12 2 6 2 18 0 25 -3 6 -5 1 -5 -13z"/>
 <path d="M5282 8525 c0 -16 2 -22 5 -12 2 9 2 23 0 30 -3 6 -5 -1 -5 -18z"/>
 <path d="M6531 8504 c0 -11 3 -14 6 -6 3 7 2 16 -1 19 -3 4 -6 -2 -5 -13z"/>
 <path d="M6231 8464 c0 -11 3 -14 6 -6 3 7 2 16 -1 19 -3 4 -6 -2 -5 -13z"/>
 <path d="M5272 8440 c0 -14 2 -19 5 -12 2 6 2 18 0 25 -3 6 -5 1 -5 -13z"/>
 <path d="M5581 8384 c0 -11 3 -14 6 -6 3 7 2 16 -1 19 -3 4 -6 -2 -5 -13z"/>
 <path d="M6541 8384 c0 -11 3 -14 6 -6 3 7 2 16 -1 19 -3 4 -6 -2 -5 -13z"/>
 <path d="M6221 8354 c0 -11 3 -14 6 -6 3 7 2 16 -1 19 -3 4 -6 -2 -5 -13z"/>
 <path d="M5261 8334 c0 -11 3 -14 6 -6 3 7 2 16 -1 19 -3 4 -6 -2 -5 -13z"/>
 <path d="M6552 8285 c0 -16 2 -22 5 -12 2 9 2 23 0 30 -3 6 -5 -1 -5 -18z"/>
 <path d="M5592 8280 c0 -14 2 -19 5 -12 2 6 2 18 0 25 -3 6 -5 1 -5 -13z"/>
 <path d="M6211 8234 c0 -11 3 -14 6 -6 3 7 2 16 -1 19 -3 4 -6 -2 -5 -13z"/>
 <path d="M5251 8214 c0 -11 3 -14 6 -6 3 7 2 16 -1 19 -3 4 -6 -2 -5 -13z"/>
 <path d="M6562 8190 c0 -14 2 -19 5 -12 2 6 2 18 0 25 -3 6 -5 1 -5 -13z"/>
 <path d="M5601 8184 c0 -11 3 -14 6 -6 3 7 2 16 -1 19 -3 4 -6 -2 -5 -13z"/>
 <path d="M6201 8114 c0 -11 3 -14 6 -6 3 7 2 16 -1 19 -3 4 -6 -2 -5 -13z"/>
 <path d="M6192 8020 c0 -19 2 -27 5 -17 2 9 2 25 0 35 -3 9 -5 1 -5 -18z"/>
 <path d="M5232 8005 c0 -16 2 -22 5 -12 2 9 2 23 0 30 -3 6 -5 -1 -5 -18z"/>
 <path d="M5621 7954 c0 -11 3 -14 6 -6 3 7 2 16 -1 19 -3 4 -6 -2 -5 -13z"/>
 <path d="M6182 7930 c0 -14 2 -19 5 -12 2 6 2 18 0 25 -3 6 -5 1 -5 -13z"/>
 <path d="M6591 7844 c0 -11 3 -14 6 -6 3 7 2 16 -1 19 -3 4 -6 -2 -5 -13z"/>
 <path d="M5631 7834 c0 -11 3 -14 6 -6 3 7 2 16 -1 19 -3 4 -6 -2 -5 -13z"/>
 <path d="M5642 7750 c0 -19 2 -27 5 -17 2 9 2 25 0 35 -3 9 -5 1 -5 -18z"/>
 <path d="M6602 7750 c0 -19 2 -27 5 -17 2 9 2 25 0 35 -3 9 -5 1 -5 -18z"/>
 <path d="M11748 7763 c7 -3 16 -2 19 1 4 3 -2 6 -13 5 -11 0 -14 -3 -6 -6z"/>
 <path d="M11868 7763 c7 -3 16 -2 19 1 4 3 -2 6 -13 5 -11 0 -14 -3 -6 -6z"/>
 <path d="M6161 7694 c0 -11 3 -14 6 -6 3 7 2 16 -1 19 -3 4 -6 -2 -5 -13z"/>
 <path d="M11419 7613 c-13 -16 -12 -17 4 -4 9 7 17 15 17 17 0 8 -8 3 -21 -13z"/>
 <path d="M10720 7546 c0 -2 8 -10 18 -17 15 -13 16 -12 3 4 -13 16 -21 21 -21 13z"/>
 <path d="M10765 7483 c34 -53 45 -67 45 -60 0 10 -51 87 -57 87 -3 0 3 -12 12 -27z"/>
 <path d="M12190 7506 c0 -2 8 -10 18 -17 15 -13 16 -12 3 4 -13 16 -21 21 -21 13z"/>
 <path d="M9240 7246 c0 -2 8 -10 18 -17 15 -13 16 -12 3 4 -13 16 -21 21 -21 13z"/>
 <path d="M10458 7223 c7 -3 16 -2 19 1 4 3 -2 6 -13 5 -11 0 -14 -3 -6 -6z"/>
 <path d="M11331 7214 c0 -11 3 -14 6 -6 3 7 2 16 -1 19 -3 4 -6 -2 -5 -13z"/>
 <path d="M11241 7204 c0 -11 3 -14 6 -6 3 7 2 16 -1 19 -3 4 -6 -2 -5 -13z"/>
 <path d="M11286 7075 c-9 -26 -7 -32 5 -12 6 10 9 21 6 23 -2 3 -7 -2 -11 -11z"/>
 <path d="M9909 7023 c-13 -16 -12 -17 4 -4 9 7 17 15 17 17 0 8 -8 3 -21 -13z"/>
 <path d="M9590 7026 c0 -2 8 -10 18 -17 15 -13 16 -12 3 4 -13 16 -21 21 -21 13z"/>
 <path d="M9010 6966 c0 -2 8 -10 18 -17 15 -13 16 -12 3 4 -13 16 -21 21 -21 13z"/>
 <path d="M10650 6926 c0 -2 7 -7 16 -10 8 -3 12 -2 9 4 -6 10 -25 14 -25 6z"/>
 <path d="M8433 6815 c0 -33 2 -45 4 -27 2 18 2 45 0 60 -2 15 -4 0 -4 -33z"/>
 <path d="M10473 6863 c9 -2 25 -2 35 0 9 3 1 5 -18 5 -19 0 -27 -2 -17 -5z"/>
 <path d="M12431 6744 c0 -11 3 -14 6 -6 3 7 2 16 -1 19 -3 4 -6 -2 -5 -13z"/>
 <path d="M8433 6660 c0 -36 2 -50 4 -32 2 17 2 47 0 65 -2 17 -4 3 -4 -33z"/>
 <path d="M10861 6693 c-1 -16 5 -23 17 -23 10 0 13 3 6 8 -6 4 -14 14 -17 22 -4 10 -6 8 -6 -7z"/>
 <path d="M11039 6593 c-13 -16 -12 -17 4 -4 9 7 17 15 17 17 0 8 -8 3 -21 -13z"/>
 <path d="M12471 6564 c0 -11 3 -14 6 -6 3 7 2 16 -1 19 -3 4 -6 -2 -5 -13z"/>
 <path d="M8540 6560 c-12 -7 -12 -11 -2 -20 6 -5 10 -7 7 -4 -3 4 0 13 6 21 13 15 10 16 -11 3z"/>
 <path d="M9124 6548 l-19 -23 23 19 c12 11 22 21 22 23 0 8 -8 2 -26 -19z"/>
 <path d="M8475 6550 c-3 -5 -1 -10 4 -10 6 0 11 5 11 10 0 6 -2 10 -4 10 -3 0 -8 -4 -11 -10z"/>
 <path d="M12481 6524 c0 -11 3 -14 6 -6 3 7 2 16 -1 19 -3 4 -6 -2 -5 -13z"/>
 <path d="M8554 6310 c0 -118 2 -167 3 -107 2 59 2 155 0 215 -1 59 -3 10 -3 -108z"/>
 <path d="M8454 6310 c0 -113 2 -159 3 -102 2 56 2 148 0 205 -1 56 -3 10 -3 -103z"/>
 <path d="M12522 6310 c0 -14 2 -19 5 -12 2 6 2 18 0 25 -3 6 -5 1 -5 -13z"/>
 <path d="M12550 6069 c0 -13 41 -22 52 -11 6 6 -1 11 -21 14 -17 3 -31 1 -31 -3z"/>
 <path d="M11291 5525 c-17 -20 -31 -39 -31 -43 0 -4 8 2 18 13 9 11 28 30 42 43 13 12 19 22 13 22 -6 0 -25 -16 -42 -35z"/>
 <path d="M11720 5525 c18 -19 36 -32 39 -30 6 7 -50 65 -63 65 -5 0 5 -16 24 -35z"/>
 <path d="M12311 5544 c0 -11 3 -14 6 -6 3 7 2 16 -1 19 -3 4 -6 -2 -5 -13z"/>
 <path d="M13448 5553 c6 -2 18 -2 25 0 6 3 1 5 -13 5 -14 0 -19 -2 -12 -5z"/>
 <path d="M4439 5533 c-13 -16 -12 -17 4 -4 9 7 17 15 17 17 0 8 -8 3 -21 -13z"/>
 <path d="M4374 5478 l-19 -23 23 19 c12 11 22 21 22 23 0 8 -8 2 -26 -19z"/>
 <path d="M11771 5475 c0 -5 11 -23 24 -40 14 -16 25 -25 25 -20 0 6 -11 24 -25 40 -13 17 -24 26 -24 20z"/>
 <path d="M11226 5443 c-6 -14 -5 -15 5 -6 7 7 10 15 7 18 -3 3 -9 -2 -12 -12z"/>
 <path d="M7918 5423 c6 -2 18 -2 25 0 6 3 1 5 -13 5 -14 0 -19 -2 -12 -5z"/>
 <path d="M7798 5403 c6 -2 18 -2 25 0 6 3 1 5 -13 5 -14 0 -19 -2 -12 -5z"/>
 <path d="M11197 5403 c-4 -3 -7 -11 -7 -17 0 -6 5 -5 12 2 6 6 9 14 7 17 -3 3 -9 2 -12 -2z"/>
 <path d="M7688 5383 c7 -3 16 -2 19 1 4 3 -2 6 -13 5 -11 0 -14 -3 -6 -6z"/>
 <path d="M11830 5386 c0 -9 70 -156 75 -156 2 0 1 10 -4 23 -33 86 -71 157 -71 133z"/>
 <path d="M1888 5373 c402 -2 1062 -2 1465 0 402 1 73 2 -733 2 -806 0 -1135 -1 -732 -2z"/>
 <path d="M1114 5348 l-19 -23 23 19 c21 18 27 26 19 26 -2 0 -12 -10 -23 -22z"/>
 <path d="M7563 5363 c9 -2 23 -2 30 0 6 3 -1 5 -18 5 -16 0 -22 -2 -12 -5z"/>
 <path d="M4341 5344 c0 -11 3 -14 6 -6 3 7 2 16 -1 19 -3 4 -6 -2 -5 -13z"/>
 <path d="M7508 5353 c6 -2 18 -2 25 0 6 3 1 5 -13 5 -14 0 -19 -2 -12 -5z"/>
 <path d="M7418 5343 c12 -2 30 -2 40 0 9 3 -1 5 -23 4 -22 0 -30 -2 -17 -4z"/>
 <path d="M11160 5329 c-20 -36 -40 -100 -30 -94 6 3 10 12 10 18 0 7 6 23 13 37 18 34 27 60 22 60 -2 0 -9 -9 -15 -21z"/>
 <path d="M7334 5314 c-18 -14 -18 -15 4 -4 12 6 22 13 22 15 0 8 -5 6 -26 -11z"/>
 <path d="M8072 5300 c0 -14 2 -19 5 -12 2 6 2 18 0 25 -3 6 -5 1 -5 -13z"/>
 <path d="M4370 5286 c0 -2 8 -10 18 -17 15 -13 16 -12 3 4 -13 16 -21 21 -21 13z"/>
 <path d="M7264 5274 c-18 -14 -18 -15 4 -4 12 6 22 13 22 15 0 8 -5 6 -26 -11z"/>
 <path d="M13334 5268 l-19 -23 23 19 c21 18 27 26 19 26 -2 0 -12 -10 -23 -22z"/>
 <path d="M4435 5210 c10 -11 20 -20 23 -20 3 0 -3 9 -13 20 -10 11 -20 20 -23 20 -3 0 3 -9 13 -20z"/>
 <path d="M11109 5193 c-20 -56 -20 -58 -11 -48 11 12 33 75 26 75 -2 0 -9 -12 -15 -27z"/>
 <path d="M11904 5206 c3 -10 11 -38 17 -62 6 -25 15 -47 20 -49 10 -7 -21 107 -34 120 -7 7 -8 4 -3 -9z"/>
 <path d="M8034 5148 l-19 -23 23 19 c21 18 27 26 19 26 -2 0 -12 -10 -23 -22z"/>
 <path d="M4500 5136 c0 -2 8 -10 18 -17 15 -13 16 -12 3 4 -13 16 -21 21 -21 13z"/>
 <path d="M12958 5123 c7 -3 16 -2 19 1 4 3 -2 6 -13 5 -11 0 -14 -3 -6 -6z"/>
 <path d="M7928 5103 c7 -3 16 -2 19 1 4 3 -2 6 -13 5 -11 0 -14 -3 -6 -6z"/>
 <path d="M7808 5083 c6 -2 18 -2 25 0 6 3 1 5 -13 5 -14 0 -19 -2 -12 -5z"/>
 <path d="M4565 5060 c10 -11 20 -20 23 -20 3 0 -3 9 -13 20 -10 11 -20 20 -23 20 -3 0 3 -9 13 -20z"/>
 <path d="M11076 5055 c-9 -26 -7 -32 5 -12 6 10 9 21 6 23 -2 3 -7 -2 -11 -11z"/>
 <path d="M11940 5065 c0 -5 5 -17 10 -25 5 -8 10 -10 10 -5 0 6 -5 17 -10 25 -5 8 -10 11 -10 5z"/>
 <path d="M7568 5043 c7 -3 16 -2 19 1 4 3 -2 6 -13 5 -11 0 -14 -3 -6 -6z"/>
 <path d="M7508 5033 c6 -2 18 -2 25 0 6 3 1 5 -13 5 -14 0 -19 -2 -12 -5z"/>
 <path d="M11066 4983 c-11 -29 -20 -253 -10 -253 5 0 8 24 6 52 -2 29 1 89 6 133 10 83 9 98 -2 68z"/>
 <path d="M11951 4990 c0 -8 4 -22 9 -30 12 -18 12 -2 0 25 -6 13 -9 15 -9 5z"/>
 <path d="M4660 4946 c0 -2 8 -10 18 -17 15 -13 16 -12 3 4 -13 16 -21 21 -21 13z"/>
 <path d="M11960 4910 c0 -19 3 -21 12 -12 9 9 9 15 0 24 -9 9 -12 7 -12 -12z"/>
 <path d="M11958 4795 c-1 -36 0 -65 5 -65 4 0 7 29 7 65 0 36 -2 65 -4 65 -2 0 -6 -29 -8 -65z"/>
 <path d="M3583 4793 c37 -2 97 -2 135 0 37 2 6 3 -68 3 -74 0 -105 -1 -67 -3z"/>
 <path d="M11165 3120 c0 -619 1 -872 2 -563 2 310 2 816 0 1125 -1 310 -2 57 -2 -562z"/>
 <path d="M1083 3845 c0 -44 2 -61 4 -37 2 23 2 59 0 80 -2 20 -4 1 -4 -43z"/>
 <path d="M1110 3716 c0 -2 8 -10 18 -17 15 -13 16 -12 3 4 -13 16 -21 21 -21 13z"/>
 <path d="M3918 3683 c23 -2 61 -2 85 0 23 2 4 4 -43 4 -47 0 -66 -2 -42 -4z"/>
 <path d="M4931 3634 c0 -11 3 -14 6 -6 3 7 2 16 -1 19 -3 4 -6 -2 -5 -13z"/>
 <path d="M6961 3544 c0 -11 3 -14 6 -6 3 7 2 16 -1 19 -3 4 -6 -2 -5 -13z"/>
 <path d="M4927 3363 c-4 -3 -7 -11 -7 -17 0 -6 5 -5 12 2 6 6 9 14 7 17 -3 3 -9 2 -12 -2z"/>
 <path d="M7031 3204 c0 -11 3 -14 6 -6 3 7 2 16 -1 19 -3 4 -6 -2 -5 -13z"/>
 <path d="M6744 3158 l-19 -23 23 19 c12 11 22 21 22 23 0 8 -8 2 -26 -19z"/>
 <path d="M5728 2883 c7 -3 16 -2 19 1 4 3 -2 6 -13 5 -11 0 -14 -3 -6 -6z"/>
 <path d="M6168 2883 c6 -2 18 -2 25 0 6 3 1 5 -13 5 -14 0 -19 -2 -12 -5z"/>
 <path d="M6925 2350 c0 -201 1 -283 2 -183 2 101 2 265 0 365 -1 101 -2 19 -2 -182z"/>
 <path d="M5888 2623 c7 -3 16 -2 19 1 4 3 -2 6 -13 5 -11 0 -14 -3 -6 -6z"/>
 <path d="M6028 2623 c7 -3 16 -2 19 1 4 3 -2 6 -13 5 -11 0 -14 -3 -6 -6z"/>
 <path d="M5195 2460 c21 -22 41 -40 44 -40 3 0 -13 18 -34 40 -21 22 -41 40 -44 40 -3 0 13 -18 34 -40z"/>
 <path d="M6644 2105 c0 -148 2 -211 3 -138 2 72 2 194 0 270 -1 76 -3 17 -3 -132z"/>
 <path d="M5888 2153 c12 -2 30 -2 40 0 9 3 -1 5 -23 4 -22 0 -30 -2 -17 -4z"/>
 <path d="M6018 2153 c12 -2 30 -2 40 0 9 3 -1 5 -23 4 -22 0 -30 -2 -17 -4z"/>
 <path d="M11929 2133 c-13 -16 -12 -17 4 -4 16 13 21 21 13 21 -2 0 -10 -8 -17 -17z"/>
 <path d="M11829 1993 c-13 -16 -12 -17 4 -4 16 13 21 21 13 21 -2 0 -10 -8 -17 -17z"/>
 <path d="M4750 1961 c-93 -25 -165 -68 -224 -132 -96 -103 -136 -200 -136 -327 0 -239 163 -432 397 -473 289 -50 557 174 557 466 0 229 -150 417 -376 470 -81 19 -138 18 -218 -4z m304 -51 c341 -165 358 -622 31 -805 -75 -42 -190 -69 -255 -60 -210 30 -354 155 -405 352 -59 227 78 458 320 539 26 9 74 13 140 10 89 -3 108 -7 169 -36z"/>
 <path d="M4757 1900 c-79 -20 -168 -81 -222 -153 -60 -80 -79 -141 -79 -247 0 -80 4 -105 27 -160 64 -152 211 -252 377 -253 137 -2 259 59 342 168 56 74 73 132 73 250 0 94 -2 105 -34 169 -43 87 -116 160 -201 200 -55 26 -79 31 -155 33 -49 1 -107 -2 -128 -7z m198 -24 c84 -22 127 -47 191 -111 80 -80 109 -154 108 -275 -1 -74 -5 -94 -32 -151 -41 -84 -109 -153 -192 -193 -59 -28 -73 -31 -165 -31 -90 0 -106 3 -160 29 -115 55 -194 157 -221 285 -13 63 -13 79 1 143 45 218 264 359 470 304z"/>
 <path d="M4852 1813 c4 -66 28 -70 28 -4 0 39 -4 51 -16 51 -12 0 -14 -10 -12 -47z"/>
 <path d="M4606 1752 c-3 -5 12 -26 33 -46 50 -48 68 -30 20 20 -34 35 -44 40 -53 26z"/>
 <path d="M5072 1726 c-23 -23 -30 -36 -22 -41 13 -8 82 53 74 67 -9 13 -17 9 -52 -26z"/>
 <path d="M4892 1543 l-44 -46 65 -65 c41 -41 69 -62 77 -57 8 5 -7 26 -46 66 l-58 59 37 38 c20 21 37 41 37 45 0 19 -29 2 -68 -40z"/>
 <path d="M4500 1500 c0 -5 25 -10 55 -10 30 0 55 5 55 10 0 6 -25 10 -55 10 -30 0 -55 -4 -55 -10z"/>
 <path d="M5120 1500 c0 -5 25 -10 55 -10 30 0 55 5 55 10 0 6 -25 10 -55 10 -30 0 -55 -4 -55 -10z"/>
 <path d="M4635 1286 c-25 -23 -33 -36 -25 -41 7 -5 26 7 47 27 47 47 26 60 -22 14z"/>
 <path d="M5046 1312 c-8 -14 61 -75 74 -67 8 5 1 18 -21 41 -34 35 -44 40 -53 26z"/>
 <path d="M4857 1233 c-4 -3 -7 -28 -7 -55 0 -36 4 -48 15 -48 12 0 15 13 15 55 0 51 -7 65 -23 48z"/>
 <path d="M14042 1904 l-22 -15 0 -433 c0 -349 3 -436 14 -451 19 -26 136 -36 136 -11 0 13 -11 16 -53 16 -29 0 -58 5 -65 12 -8 8 -12 47 -12 110 l0 98 410 0 411 0 -3 -107 -3 -108 -62 -3 c-60 -3 -63 -2 -63 21 0 12 4 27 10 33 12 12 -15 54 -34 54 -15 0 -26 -22 -25 -48 0 -11 2 -12 6 -4 13 32 23 5 23 -63 0 -43 4 -75 10 -75 6 0 10 11 10 25 0 24 3 25 54 25 39 0 60 6 80 21 l26 20 0 428 c0 416 -1 428 -20 449 -21 22 -22 22 -413 22 -339 0 -396 -2 -415 -16z m799 -14 c18 -10 19 -25 19 -325 l0 -315 -410 0 -410 0 0 315 c0 288 1 315 18 324 24 14 757 15 783 1z"/>
 <path d="M12048 1883 c7 -3 16 -2 19 1 4 3 -2 6 -13 5 -11 0 -14 -3 -6 -6z"/>
 <path d="M12128 1873 c7 -3 16 -2 19 1 4 3 -2 6 -13 5 -11 0 -14 -3 -6 -6z"/>
 <path d="M12543 1833 c9 -2 23 -2 30 0 6 3 -1 5 -18 5 -16 0 -22 -2 -12 -5z"/>
 <path d="M12638 1823 c6 -2 18 -2 25 0 6 3 1 5 -13 5 -14 0 -19 -2 -12 -5z"/>
 <path d="M11369 1753 l-24 -28 28 24 c15 14 27 26 27 28 0 8 -8 1 -31 -24z"/>
 <path d="M6700 1746 c0 -2 8 -10 18 -17 15 -13 16 -12 3 4 -13 16 -21 21 -21 13z"/>
 <path d="M14370 1180 c0 -6 33 -10 80 -10 47 0 80 4 80 10 0 6 -33 10 -80 10 -47 0 -80 -4 -80 -10z"/>
 <path d="M14172 1108 c-17 -17 -15 -39 3 -32 13 5 15 -6 15 -70 0 -61 3 -76 15 -76 9 0 15 9 15 25 l0 25 230 2 c145 2 230 7 230 13 0 6 -86 11 -231 13 l-232 2 6 39 c7 58 -20 90 -51 59z"/>
 </g>
<g id="layer10" fill="#453721" stroke="none">
 <path d="M5306 8891 c-10 -11 -23 -18 -28 -15 -4 3 -8 2 -7 -3 3 -18 -1 -34 -9 -29 -4 2 -5 -23 -2 -56 5 -53 10 -64 42 -94 84 -76 211 -63 269 28 16 26 19 43 14 78 -3 25 -7 53 -8 62 -1 9 -4 15 -8 12 -9 -5 -31 21 -23 28 3 3 -46 6 -109 7 -102 2 -115 0 -131 -18z"/>
 <path d="M6252 8875 c-27 -30 -32 -44 -32 -87 0 -45 4 -54 38 -88 54 -54 110 -68 179 -45 29 10 60 26 69 36 9 10 20 17 23 14 4 -2 7 4 8 13 1 9 4 33 8 52 5 25 2 48 -11 75 -9 22 -18 45 -18 50 -1 6 -49 11 -117 13 l-116 4 -31 -37z"/>
 <path d="M5242 8790 c0 -14 2 -19 5 -12 2 6 2 18 0 25 -3 6 -5 1 -5 -13z"/>
 <path d="M5601 8784 c0 -11 3 -14 6 -6 3 7 2 16 -1 19 -3 4 -6 -2 -5 -13z"/>
 <path d="M6232 8420 c0 -14 2 -19 5 -12 2 6 2 18 0 25 -3 6 -5 1 -5 -13z"/>
 <path d="M5272 8400 c0 -14 2 -19 5 -12 2 6 2 18 0 25 -3 6 -5 1 -5 -13z"/>
 <path d="M5602 8150 c0 -14 2 -19 5 -12 2 6 2 18 0 25 -3 6 -5 1 -5 -13z"/>
 <path d="M6562 8150 c0 -14 2 -19 5 -12 2 6 2 18 0 25 -3 6 -5 1 -5 -13z"/>
 <path d="M5231 7954 c0 -11 3 -14 6 -6 3 7 2 16 -1 19 -3 4 -6 -2 -5 -13z"/>
 <path d="M11730 7760 c-123 -14 -231 -69 -314 -162 -83 -91 -121 -172 -156 -333 -34 -156 -83 -301 -137 -404 -29 -57 -60 -110 -68 -118 -8 -8 -15 -19 -15 -24 0 -22 -66 -49 -122 -49 -57 0 -58 0 -58 29 0 22 -20 48 -93 123 -51 53 -103 98 -115 102 l-21 7 19 35 c73 128 -51 286 -199 253 -55 -12 -90 -39 -118 -92 -28 -50 -29 -98 -4 -152 35 -79 116 -118 206 -101 27 5 34 4 29 -7 -10 -28 18 -70 105 -158 79 -79 93 -89 125 -89 20 0 36 -4 36 -9 0 -4 24 -16 54 -25 119 -38 199 10 274 161 23 45 46 90 52 100 25 44 103 289 140 446 65 270 193 385 448 400 69 5 214 -27 274 -60 86 -46 165 -163 204 -298 7 -27 26 -90 40 -140 125 -428 208 -799 239 -1067 6 -54 8 -58 33 -58 19 0 23 -3 15 -11 -12 -12 -53 -3 -53 12 0 5 -648 9 -1680 9 -1659 0 -1681 0 -1670 19 6 12 10 102 10 225 0 175 -2 207 -16 221 -9 9 -15 17 -13 18 2 1 13 7 24 13 11 6 26 22 32 35 16 31 17 239 2 273 -10 22 -7 28 34 68 82 79 87 177 11 252 -62 62 -141 74 -216 32 -46 -26 -87 -89 -92 -142 -6 -66 44 -149 105 -174 23 -10 27 -15 19 -30 -6 -10 -10 -77 -10 -147 0 -116 2 -131 20 -151 12 -12 26 -22 32 -22 6 0 3 -9 -6 -19 -16 -17 -17 -43 -16 -230 0 -116 3 -218 6 -226 5 -13 -31 -15 -285 -15 l-291 0 0 225 c0 202 -2 225 -17 234 -16 8 -15 11 9 21 14 7 31 23 37 37 15 32 14 248 0 275 -10 19 -7 26 29 57 51 45 72 88 71 143 -2 139 -162 225 -274 149 -115 -78 -111 -242 7 -305 l33 -18 -3 -150 c-3 -131 -1 -152 14 -169 9 -10 24 -19 33 -20 12 0 10 -4 -6 -16 -23 -15 -23 -18 -23 -239 l0 -224 -625 0 -625 0 0 -110 0 -110 3045 0 3045 0 0 110 0 110 -325 0 -325 0 0 44 c0 39 -10 106 -25 161 -11 46 -47 205 -60 270 -16 79 -59 247 -80 315 -8 25 -31 99 -51 165 -19 66 -40 131 -44 145 -5 14 -14 54 -20 89 -19 105 -73 232 -138 316 -98 129 -295 198 -502 175z"/>
 <path d="M9858 7003 c7 -3 16 -2 19 1 4 3 -2 6 -13 5 -11 0 -14 -3 -6 -6z"/>
 <path d="M1270 5970 l0 -110 1650 0 1650 0 0 110 0 110 -1650 0 -1650 0 0 -110z"/>
 <path d="M12323 5508 c17 -170 205 -332 427 -370 l70 -12 0 -73 0 -73 -50 0 -50 0 0 -35 c0 -22 5 -35 13 -35 7 0 44 -55 83 -121 38 -67 80 -141 94 -164 134 -228 260 -443 280 -479 14 -24 49 -84 78 -133 223 -370 283 -477 271 -481 -5 -2 -9 -19 -9 -37 l0 -34 55 -3 55 -3 -42 -65 c-24 -36 -80 -123 -127 -195 -46 -71 -145 -224 -221 -340 -75 -115 -176 -271 -223 -345 -48 -74 -95 -145 -105 -158 l-18 -23 -64 113 c-36 62 -69 121 -75 130 -5 9 -37 63 -69 120 -33 57 -83 143 -112 191 l-53 88 -18 -28 c-10 -15 -114 -162 -233 -327 -210 -291 -276 -385 -326 -456 -66 -95 -118 -169 -146 -203 -16 -21 -28 -40 -26 -43 2 -2 81 -11 174 -19 93 -8 180 -17 194 -20 14 -2 106 -11 205 -20 149 -13 360 -33 498 -49 27 -3 34 5 94 98 36 56 73 113 84 128 10 15 19 32 19 38 0 6 -21 47 -46 91 -25 44 -43 86 -40 94 6 16 73 121 291 455 83 126 188 289 235 361 47 73 117 182 157 242 40 60 75 118 78 128 5 14 16 19 46 19 38 0 39 1 39 36 0 26 -17 65 -57 136 -32 54 -69 119 -83 143 -14 24 -46 79 -71 122 -25 43 -107 182 -181 308 -75 127 -153 259 -175 295 -22 36 -60 100 -84 143 -24 43 -53 93 -64 112 -78 131 -82 139 -77 183 4 42 4 42 -29 43 -19 1 -44 0 -56 -1 -22 -1 -23 2 -23 69 l0 70 48 6 c177 26 311 80 398 163 56 53 109 150 119 218 6 40 5 41 -26 48 -17 3 -279 6 -582 6 l-550 0 6 -52z m702 -800 c64 -112 125 -214 134 -228 10 -14 43 -70 75 -125 32 -55 91 -156 132 -225 41 -69 108 -183 150 -255 41 -71 102 -175 134 -230 33 -55 60 -103 60 -107 0 -5 -13 -8 -30 -8 -31 0 -39 9 -101 117 -118 204 -160 275 -224 383 -41 69 -100 169 -132 224 -32 54 -68 115 -80 135 -12 20 -51 88 -88 151 -36 63 -89 153 -116 200 -28 47 -62 104 -75 128 l-25 42 35 0 c34 0 35 -1 151 -202z"/>
 <path d="M1123 5346 l-28 -24 0 -791 0 -791 28 -27 27 -28 1471 0 1471 0 29 33 29 32 0 781 0 781 -29 29 -29 29 -1471 0 -1470 0 -28 -24z m2857 -826 l0 -680 -1360 0 -1360 0 0 680 0 680 1360 0 1360 0 0 -680z"/>
 <path d="M5521 4888 c-437 -4 -796 -10 -798 -12 -4 -3 10 -90 51 -321 14 -77 32 -183 41 -235 8 -52 22 -126 30 -165 8 -38 19 -104 25 -145 6 -41 15 -93 21 -115 5 -22 16 -80 23 -130 50 -321 108 -455 258 -601 148 -144 304 -223 532 -270 321 -66 666 -3 919 166 180 121 332 335 342 480 2 19 15 103 29 185 15 83 39 215 53 295 14 80 28 162 30 182 l5 38 2044 2 2044 3 0 -1127 0 -1128 -2125 0 -2125 0 0 352 0 351 31 65 c53 113 82 241 83 372 0 113 -18 240 -35 240 -5 0 -9 -7 -9 -15 0 -8 -13 -47 -29 -87 -171 -430 -619 -688 -1110 -640 -128 13 -266 50 -371 100 -246 118 -448 337 -525 570 -9 30 -21 50 -25 45 -17 -16 -29 -197 -21 -289 22 -227 118 -421 290 -587 222 -214 465 -310 781 -309 225 0 417 56 604 176 31 20 59 36 61 36 3 0 5 -119 5 -265 0 -293 4 -318 63 -365 l31 -25 2286 -3 2286 -2 42 35 c26 23 45 50 52 73 6 24 10 486 10 1365 l0 1327 -2143 0 -2144 0 8 53 c10 72 47 282 55 312 l6 25 -443 -2 c-244 -1 -801 -5 -1238 -10z"/>
 <path d="M14450 1193 c42 -2 78 -9 83 -16 6 -8 7 -8 4 3 -3 12 -21 15 -83 16 l-79 0 75 -3z"/>
 </g>
<g id="layer11" fill="#e0f6e9" stroke="none">
 <path d="M10 4455 l0 -4455 7995 0 7995 0 0 4455 0 4455 -1480 0 -1480 0 0 -1415 0 -1415 130 0 130 0 0 -110 0 -110 255 0 255 0 0 -145 0 -145 -1060 0 -1061 0 36 -31 c19 -17 35 -36 35 -43 0 -6 9 -17 21 -24 12 -8 18 -19 15 -27 -3 -8 0 -14 7 -12 6 1 13 -8 15 -20 2 -13 8 -23 13 -23 9 0 66 -117 73 -149 2 -9 6 -23 9 -31 18 -49 28 -93 23 -106 -3 -8 -2 -12 3 -9 8 5 19 -52 26 -134 1 -15 5 -33 9 -39 4 -7 4 -18 -1 -24 -4 -7 -6 -48 -4 -90 2 -48 -1 -78 -7 -78 -6 0 -8 9 -5 20 5 19 0 20 -133 20 l-139 0 -15 33 c-32 69 -109 71 -145 4 l-20 -37 -207 0 -208 0 0 68 c1 76 15 195 30 252 8 29 17 39 38 45 15 3 35 14 45 22 25 23 22 81 -5 110 l-22 23 30 62 c16 34 47 85 68 112 64 84 64 83 41 66 -11 -8 -28 -23 -38 -35 l-18 -20 10 21 c6 12 24 34 42 48 l31 26 -2066 0 -2066 0 0 -109 c0 -81 -5 -126 -20 -173 -11 -34 -20 -64 -20 -65 0 -2 72 37 115 62 87 52 102 58 165 66 76 9 291 43 405 64 85 16 141 9 165 -20 10 -12 48 -15 219 -15 189 0 209 -2 239 -20 18 -11 41 -34 50 -50 9 -16 20 -30 23 -30 3 0 2 -27 -2 -60 -8 -68 -31 -99 -92 -125 -51 -21 -402 -22 -452 -1 -25 11 -48 12 -87 6 -67 -10 -235 -39 -268 -46 -49 -10 -66 -13 -115 -19 -59 -7 -105 -24 -105 -37 0 -5 -4 -7 -9 -4 -5 3 -14 -1 -21 -9 -7 -8 -19 -15 -26 -15 -8 0 -14 -4 -14 -10 0 -5 -5 -10 -11 -10 -6 0 -25 -10 -42 -22 -18 -13 -33 -22 -35 -20 -1 1 -21 -11 -44 -28 -22 -16 -39 -30 -35 -30 3 0 -1 -24 -8 -52 -7 -29 -16 -73 -19 -98 -12 -95 -25 -170 -31 -180 -4 -7 662 -10 2139 -10 l2146 0 0 -1342 c-1 -1496 4 -1386 -69 -1435 l-34 -23 -2293 2 -2292 3 -27 25 c-60 55 -65 86 -65 371 l0 259 -51 -35 c-28 -19 -86 -51 -128 -71 -362 -172 -777 -144 -1108 73 -314 206 -477 539 -443 905 6 61 14 116 18 122 19 29 27 157 15 219 -7 34 -20 105 -28 157 -8 52 -29 172 -46 265 -17 94 -37 208 -45 255 -7 47 -25 148 -39 225 -14 77 -35 199 -47 270 l-22 130 -50 60 c-97 114 -180 210 -185 215 -15 13 -109 128 -124 152 -21 34 -22 95 -2 135 14 28 74 84 119 110 17 10 -377 12 -1846 13 l-1868 0 0 145 0 145 250 0 250 0 0 110 0 110 140 0 140 0 0 1415 0 1415 -765 0 -765 0 0 -4455z m13470 1075 c0 -49 -47 -159 -92 -212 -83 -100 -243 -174 -420 -194 l-58 -7 0 -69 c0 -65 1 -69 23 -67 12 1 37 1 56 1 33 -2 33 -2 29 -44 -4 -37 2 -53 37 -113 23 -38 68 -115 100 -170 88 -154 196 -336 221 -375 20 -32 85 -143 152 -260 14 -25 42 -72 62 -105 20 -33 39 -67 43 -75 4 -8 16 -28 26 -45 10 -16 37 -62 59 -101 23 -40 53 -89 67 -109 17 -26 25 -51 25 -81 l0 -44 -38 0 c-33 0 -41 -4 -51 -27 -7 -16 -32 -58 -57 -95 -47 -72 -109 -168 -166 -258 -19 -30 -61 -95 -94 -145 -32 -49 -63 -98 -69 -107 -5 -9 -31 -48 -56 -85 -25 -37 -77 -116 -115 -175 -38 -59 -99 -154 -136 -212 -38 -57 -68 -107 -68 -110 0 -6 39 -74 81 -144 19 -32 21 -29 -70 -168 -36 -56 -70 -109 -76 -117 -9 -14 -30 -14 -210 4 -110 11 -290 28 -400 39 -423 41 -497 49 -502 53 -4 5 64 108 111 169 12 15 32 43 46 63 14 19 43 60 65 90 22 30 63 86 90 126 28 39 66 92 86 118 19 25 55 75 80 109 24 35 53 76 64 92 11 15 37 52 58 81 21 30 52 72 68 94 16 22 41 57 55 78 l25 38 22 -33 c13 -18 52 -84 87 -146 36 -62 70 -121 75 -130 6 -10 45 -78 88 -152 83 -143 104 -176 111 -169 6 7 141 213 146 224 3 6 14 24 25 40 43 66 226 346 291 445 38 58 71 110 74 115 5 11 123 191 166 255 l24 35 -55 3 -55 3 0 34 c0 18 5 35 11 37 6 2 0 18 -13 38 -13 19 -52 85 -86 145 -58 101 -168 287 -213 360 -10 17 -39 66 -64 110 -25 44 -56 98 -70 120 -13 22 -46 78 -72 124 -26 45 -57 98 -68 117 -11 18 -44 75 -74 126 -88 153 -143 238 -152 238 -5 0 -9 16 -9 35 l0 35 50 0 50 0 0 70 c0 68 -1 70 -27 75 -171 35 -272 83 -357 169 -63 63 -110 150 -120 224 l-6 42 585 0 585 0 0 -30z m-12493 -122 c-2 -18 -4 -4 -4 32 0 36 2 50 4 33 2 -18 2 -48 0 -65z m10244 29 c-10 -9 -11 -8 -5 6 3 10 9 15 12 12 3 -3 0 -11 -7 -18z m-29 -49 c-7 -7 -12 -8 -12 -2 0 14 12 26 19 19 2 -3 -1 -11 -7 -17z m-7076 -41 l24 -28 0 -788 0 -788 -24 -26 c-15 -16 -39 -28 -67 -32 -24 -3 -690 -5 -1480 -3 -1158 2 -1439 6 -1452 16 -43 36 -43 36 -39 850 l4 773 23 27 23 27 569 5 c312 3 979 3 1481 0 l914 -5 24 -28z m4604 40 c0 -2 -12 -14 -27 -28 l-28 -24 24 28 c23 25 31 32 31 24z m2443 -54 c-3 -10 -10 -24 -16 -30 -5 -7 -7 -13 -3 -13 4 0 0 -13 -9 -30 -9 -16 -17 -30 -20 -30 -5 0 20 71 35 99 13 26 22 27 13 4z m-2513 -8 c0 -2 -10 -9 -22 -15 -22 -11 -22 -10 -4 4 21 17 26 19 26 11z m2460 -130 c-5 -14 -7 -25 -4 -25 4 0 1 -6 -5 -13 -6 -8 -7 -18 -3 -22 4 -5 2 -5 -5 -1 -7 4 -10 12 -8 19 18 50 25 67 30 67 2 0 0 -11 -5 -25z m-40 -160 c-6 -15 -13 -25 -16 -23 -2 3 1 17 7 32 16 34 23 27 9 -9z m-12 -120 c-5 -44 -8 -104 -6 -133 2 -28 -1 -52 -5 -52 -11 0 -6 207 6 243 14 42 15 30 5 -58z m-2080 18 c-10 -2 -28 -2 -40 0 -13 2 -5 4 17 4 22 1 32 -1 23 -4z m-108 -16 c0 -2 -12 -14 -27 -28 l-28 -24 24 28 c23 25 31 32 31 24z m200 -27 c0 -5 -2 -10 -4 -10 -3 0 -8 5 -11 10 -3 6 -1 10 4 10 6 0 11 -4 11 -10z m40 -103 c0 -23 -4 -47 -8 -54 -4 -6 -7 15 -7 47 0 32 3 56 8 53 4 -2 7 -23 7 -46z m-313 -14 c-3 -10 -5 -4 -5 12 0 17 2 24 5 18 2 -7 2 -21 0 -30z m53 -98 c13 -14 21 -25 18 -25 -2 0 -15 11 -28 25 -13 14 -21 25 -18 25 2 0 15 -11 28 -25z m77 -41 c-3 -3 -12 -4 -19 -1 -8 3 -5 6 6 6 11 1 17 -2 13 -5z m70 0 c-3 -3 -12 -4 -19 -1 -8 3 -5 6 6 6 11 1 17 -2 13 -5z m-4039 -2669 c226 -53 376 -241 376 -470 0 -292 -268 -516 -557 -466 -112 19 -191 63 -275 151 -132 138 -161 383 -65 547 68 117 175 199 303 234 80 22 137 23 218 4z m9902 -67 c19 -21 20 -33 20 -449 l0 -428 -26 -20 c-20 -15 -41 -21 -80 -21 -51 0 -54 -1 -54 -25 0 -14 -4 -25 -10 -25 -6 0 -10 32 -10 75 0 43 -4 75 -10 75 -5 0 -10 -11 -10 -25 l0 -25 -235 0 c-147 0 -235 -4 -235 -10 0 -6 88 -11 230 -12 145 -2 230 -7 230 -13 0 -6 -85 -11 -230 -13 l-230 -2 0 -25 c0 -16 -6 -25 -15 -25 -12 0 -15 15 -15 75 0 43 -4 75 -10 75 -5 0 -10 -11 -10 -25 0 -23 -3 -25 -50 -25 l-50 0 0 100 c0 82 -3 100 -15 100 -12 0 -15 -18 -15 -98 0 -63 4 -102 12 -110 7 -7 36 -12 65 -12 42 0 53 -3 53 -16 0 -25 -117 -15 -136 11 -11 15 -14 102 -14 451 l0 433 22 15 c19 14 76 16 415 16 391 0 392 0 413 -22z"/>
 <path d="M12888 4830 c26 -44 56 -96 67 -114 11 -18 42 -71 68 -117 26 -46 56 -97 66 -114 10 -16 44 -75 76 -130 32 -55 65 -112 74 -127 65 -109 153 -257 194 -328 28 -47 57 -96 66 -110 8 -14 23 -38 32 -55 103 -184 115 -200 147 -203 18 -2 32 -1 32 1 0 3 -15 31 -34 63 -19 33 -64 111 -100 174 -37 63 -77 133 -91 155 -13 22 -54 92 -90 155 -37 63 -93 158 -125 210 -33 52 -89 147 -125 210 -36 63 -77 133 -90 155 -13 22 -41 69 -61 105 -81 143 -86 150 -121 150 l-32 0 47 -80z"/>
 <path d="M1260 4520 l0 -680 1360 0 1360 0 0 680 0 680 -1360 0 -1360 0 0 -680z m920 450 l0 -130 -360 0 -360 0 0 130 0 130 360 0 360 0 0 -130z m910 -140 l0 -270 -360 0 -360 0 0 270 0 270 360 0 360 0 0 -270z m690 140 l0 -130 -130 0 -130 0 0 130 0 130 130 0 130 0 0 -130z m0 -300 l0 -130 -130 0 -130 0 0 130 0 130 130 0 130 0 0 -130z m-340 -365 l0 -345 -130 0 -130 0 0 345 0 345 130 0 130 0 0 -345z m-1262 -62 l-3 -288 -357 -3 -358 -2 0 290 0 290 360 0 360 0 -2 -287z m912 142 l0 -135 -357 2 -358 3 -3 133 -3 132 361 0 360 0 0 -135z m690 0 l0 -135 -130 0 -130 0 0 135 0 135 130 0 130 0 0 -135z m-690 -300 l0 -135 -360 0 -360 0 0 128 c0 71 3 132 7 135 3 4 165 7 360 7 l353 0 0 -135z m690 0 l0 -135 -130 0 -130 0 0 135 0 135 130 0 130 0 0 -135z"/>
 <path d="M4749 1867 c-36 -12 -78 -31 -94 -41 -41 -27 -115 -105 -115 -122 0 -8 -3 -14 -8 -14 -4 0 -15 -17 -24 -38 -82 -190 5 -416 197 -508 54 -26 70 -29 161 -29 71 0 106 4 117 14 10 7 17 11 17 7 0 -11 84 35 113 63 63 58 78 78 112 151 17 36 19 42 31 118 6 41 -10 143 -26 167 -4 6 -10 22 -14 38 -3 15 -11 27 -16 27 -6 0 -10 5 -10 11 0 16 -82 99 -97 99 -7 0 -13 5 -13 10 0 6 -7 10 -15 10 -8 0 -15 4 -15 8 0 4 -15 13 -32 20 -99 35 -185 38 -269 9z m131 -58 c0 -66 -24 -62 -28 4 -2 37 0 47 12 47 12 0 16 -12 16 -51z m-221 -81 c34 -34 37 -43 20 -54 -15 -9 -84 60 -75 75 11 17 21 13 55 -21z m465 23 c3 -4 -8 -25 -26 -45 -24 -28 -34 -34 -44 -25 -11 9 -10 15 4 34 9 13 20 21 23 19 4 -2 9 3 13 11 6 17 22 20 30 6z m-164 -169 c0 -8 -16 -31 -36 -50 l-35 -34 55 -55 c45 -44 54 -58 45 -69 -9 -11 -24 -1 -80 54 -38 37 -69 70 -69 74 0 3 15 16 33 27 18 11 39 31 46 44 14 26 41 32 41 9z m-350 -82 c0 -5 -25 -10 -55 -10 -30 0 -55 5 -55 10 0 6 25 10 55 10 30 0 55 -4 55 -10z m620 0 c0 -5 -25 -10 -55 -10 -30 0 -55 5 -55 10 0 6 25 10 55 10 30 0 55 -4 55 -10z m-540 -191 c0 -5 -15 -25 -33 -44 -22 -23 -37 -31 -46 -26 -18 11 -1 42 33 60 14 8 23 18 20 22 -3 5 2 6 10 3 9 -3 16 -10 16 -15z m428 -66 c-9 -11 -17 -8 -45 22 -26 28 -32 39 -23 50 9 10 18 6 45 -22 28 -29 33 -39 23 -50z m-238 -58 c0 -42 -3 -55 -15 -55 -11 0 -15 12 -15 48 0 27 3 52 7 55 16 17 23 3 23 -48z"/>
 <path d="M14058 1889 c-17 -9 -18 -36 -18 -324 l0 -315 410 0 410 0 0 315 c0 300 -1 315 -19 325 -26 14 -759 13 -783 -1z m382 -204 c0 -11 -19 -15 -92 -17 l-93 -3 47 -28 c25 -15 65 -48 87 -72 52 -56 54 -92 10 -129 -26 -22 -40 -26 -99 -26 -77 0 -120 12 -120 34 0 22 19 30 36 15 21 -17 107 -17 127 0 48 39 4 99 -135 186 -78 49 -67 55 92 55 116 0 140 -2 140 -15z m300 0 c0 -12 -17 -15 -92 -15 l-93 0 40 -27 c135 -90 167 -154 104 -207 -26 -22 -40 -26 -99 -26 -68 0 -120 12 -120 27 1 27 17 32 60 17 64 -22 130 2 130 47 0 22 -81 95 -154 139 -87 53 -78 60 84 60 118 0 140 -2 140 -15z"/>
 <path d="M14216 1105 c4 -8 10 -15 15 -15 4 0 6 7 3 15 -4 8 -10 15 -15 15 -4 0 -6 -7 -3 -15z"/>
 <path d="M14732 1100 c15 -24 33 -27 24 -4 -3 9 -6 18 -6 20 0 2 -7 4 -15 4 -13 0 -13 -3 -3 -20z"/>
 <path d="M14730 1020 c0 -6 26 -10 59 -10 33 0 63 5 66 10 4 6 -18 10 -59 10 -37 0 -66 -4 -66 -10z"/>
 <path d="M1940 7495 l0 -1415 1318 2 1317 3 2 611 c1 425 5 625 13 655 16 59 56 126 102 171 l38 36 0 676 0 676 -1395 0 -1395 0 0 -1415z"/>
 <path d="M5010 8275 l0 -635 94 0 95 0 5 43 c4 23 13 121 21 217 33 372 54 608 64 688 8 76 7 86 -9 102 -11 11 -24 37 -31 59 -14 48 -1 109 32 142 19 19 18 19 -126 19 l-145 0 0 -635z"/>
 <path d="M5562 8893 c52 -59 59 -126 19 -182 -20 -28 -20 -31 -6 -192 49 -556 71 -777 81 -846 l5 -33 249 0 c138 0 250 4 250 8 0 21 31 368 40 442 5 47 17 168 26 270 9 102 19 214 22 250 6 58 5 67 -15 88 -43 47 -39 138 9 190 l21 22 -358 0 c-340 0 -357 -1 -343 -17z"/>
 <path d="M6535 8876 c39 -51 43 -95 12 -151 l-26 -46 14 -157 c50 -554 73 -799 81 -849 l5 -33 79 0 80 0 0 635 0 635 -136 0 -135 0 26 -34z"/>
 <path d="M7060 8232 l0 -679 26 -24 c44 -41 82 -106 104 -175 19 -64 20 -90 20 -670 l0 -604 623 0 622 0 -3 209 c-3 166 0 215 11 236 13 25 12 29 -9 52 -21 23 -22 33 -22 159 0 74 4 136 9 140 14 8 11 24 -6 24 -20 0 -83 57 -101 91 -22 43 -18 124 8 170 68 121 258 118 317 -4 40 -83 22 -169 -50 -230 -28 -24 -35 -37 -29 -47 6 -8 10 -74 10 -147 0 -124 -1 -133 -24 -160 -18 -22 -22 -33 -15 -46 6 -10 9 -107 7 -232 l-3 -215 290 0 c225 0 286 3 277 12 -19 19 -17 442 2 457 12 10 10 16 -11 37 -24 24 -24 26 -21 172 l3 148 -40 25 c-55 34 -89 104 -82 166 6 56 50 121 97 146 51 26 157 19 198 -14 60 -48 88 -145 62 -213 -5 -14 -29 -45 -54 -68 -36 -35 -43 -46 -34 -61 5 -10 8 -75 6 -153 -3 -119 -5 -137 -22 -149 -10 -8 -23 -16 -29 -18 -6 -2 -5 -11 2 -25 9 -16 11 -86 9 -242 l-3 -220 1677 0 1677 0 -4 33 c-25 185 -83 483 -139 702 -56 223 -65 254 -91 340 -15 50 -36 122 -46 160 -18 63 -46 129 -83 193 -75 130 -266 202 -463 174 -212 -30 -324 -145 -378 -389 -26 -114 -122 -417 -147 -458 -6 -11 -31 -58 -56 -105 -55 -106 -99 -146 -168 -155 -55 -7 -129 8 -156 32 -9 8 -21 12 -26 9 -22 -13 -72 22 -154 109 -70 74 -88 99 -88 123 0 29 0 29 -39 19 -75 -20 -175 40 -202 121 -18 53 -6 125 26 168 75 99 220 95 295 -8 29 -40 31 -48 28 -110 -3 -47 -9 -73 -22 -87 -19 -21 -19 -21 0 -21 24 0 209 -186 219 -220 10 -32 22 -40 64 -40 48 0 92 31 135 95 20 30 36 57 36 59 0 2 15 31 34 64 19 33 38 75 44 94 62 204 78 266 93 343 6 33 14 65 19 70 4 6 15 30 24 54 41 107 141 214 248 265 165 79 399 71 555 -21 112 -66 212 -226 253 -408 12 -55 40 -158 62 -230 62 -202 85 -285 132 -490 82 -353 74 -360 75 65 1 206 4 804 8 1328 l6 952 -2796 0 -2797 0 0 -678z m3681 -699 c13 -16 12 -17 -3 -4 -10 7 -18 15 -18 17 0 8 8 3 21 -13z m43 -63 c14 -22 26 -43 26 -47 0 -4 -6 1 -13 12 -33 48 -49 75 -44 75 2 0 16 -18 31 -40z m-1061 -361 c24 -29 21 -61 -8 -93 -54 -58 -147 -12 -130 65 13 57 99 75 138 28z m183 13 c28 -23 35 -47 24 -77 -20 -52 -95 -58 -126 -10 -43 65 41 137 102 87z"/>
 <path d="M11702 5457 c-41 -44 -20 -119 36 -132 37 -8 82 10 82 32 0 22 -70 123 -85 123 -6 0 -21 -10 -33 -23z"/>
 <path d="M11353 5430 c-45 -18 -58 -95 -23 -130 22 -22 70 -26 101 -9 48 25 43 115 -7 138 -29 13 -41 13 -71 1z"/>
 <path d="M11565 5180 c-33 -12 -58 -48 -58 -82 0 -37 41 -78 79 -78 32 0 84 51 84 82 0 50 -60 94 -105 78z"/>
 <path d="M11851 5073 c-11 -10 -24 -32 -27 -49 -8 -42 35 -94 77 -94 39 0 44 16 29 95 -11 57 -15 65 -35 65 -13 0 -32 -8 -44 -17z"/>
 <path d="M11225 5029 c-77 -44 -51 -149 37 -149 49 0 82 40 74 89 -3 19 -11 40 -18 48 -19 18 -70 25 -93 12z"/>
 <path d="M7087 4233 c-3 -5 -8 -30 -11 -58 -4 -27 -11 -63 -16 -80 -4 -16 -11 -47 -13 -67 l-6 -38 397 -2 397 -3 0 -50 0 -50 -407 -3 c-316 -2 -408 -5 -408 -15 -1 -6 -11 -74 -24 -151 -23 -137 -23 -139 -6 -240 10 -55 23 -121 28 -146 6 -25 14 -71 17 -102 l6 -58 282 -2 282 -3 3 -33 c6 -62 8 -62 -299 -62 l-279 0 0 -35 0 -35 418 0 c312 0 421 -3 430 -12 18 -18 15 -75 -4 -82 -9 -3 -208 -6 -444 -6 l-427 0 -7 -31 c-3 -16 -19 -59 -36 -95 l-30 -65 0 -360 0 -359 535 0 535 0 0 1125 0 1125 -454 0 c-250 0 -457 -3 -459 -7z m592 -417 c7 -8 11 -30 9 -48 l-3 -33 -290 0 -290 0 -3 39 c-2 24 2 42 10 47 7 5 135 9 284 9 224 0 274 -3 283 -14z m249 2 c7 -7 12 -24 12 -38 0 -14 -5 -31 -12 -38 -12 -12 -143 -17 -172 -6 -19 7 -22 64 -4 82 16 16 160 16 176 0z m-650 -147 c8 -5 12 -23 10 -47 l-3 -39 -90 0 -90 0 -3 39 c-4 50 6 56 93 56 39 0 76 -4 83 -9z m670 -3 c13 -13 16 -47 6 -72 -5 -14 -38 -16 -268 -16 -190 0 -265 3 -274 12 -15 15 -15 43 -2 69 10 18 24 19 268 19 187 0 261 -3 270 -12z m-132 -203 c3 -14 3 -36 0 -50 l-6 -25 -353 2 -352 3 -3 33 c-6 65 -27 62 357 62 l351 0 6 -25z m-388 -197 l-3 -43 -160 0 -160 0 -3 28 c-7 57 -6 57 168 57 l161 0 -3 -42z m527 -3 l0 -40 -207 -3 c-202 -2 -207 -2 -213 19 -4 11 -4 31 -1 45 l6 24 208 -2 207 -3 0 -40z m-346 -489 c7 -8 11 -30 9 -48 l-3 -33 -239 -3 c-257 -3 -256 -3 -256 49 0 47 9 49 251 49 185 0 229 -3 238 -14z m340 0 c7 -8 11 -30 9 -48 l-3 -33 -115 0 -115 0 -3 33 c-5 55 8 62 118 62 73 0 101 -4 109 -14z m-485 -192 c10 -4 16 -18 16 -40 0 -44 -8 -45 -195 -42 l-150 3 -9 27 c-18 52 -1 58 169 58 85 0 160 -3 169 -6z m266 -223 c15 -29 12 -49 -9 -60 -10 -6 -145 -13 -301 -17 -306 -8 -300 -9 -300 47 0 48 5 49 312 49 274 0 288 -1 298 -19z m-118 -207 c4 -3 8 -20 8 -39 l0 -34 -247 -1 c-137 0 -271 -3 -300 -7 -79 -9 -103 1 -103 40 0 18 5 38 12 45 9 9 89 10 317 6 168 -3 309 -7 313 -10z"/>
 <path d="M8193 4023 c-16 -6 -17 -55 -1 -71 7 -7 24 -12 38 -12 31 0 50 17 50 45 0 12 -5 26 -12 33 -12 12 -52 15 -75 5z"/>
 <path d="M8362 3985 c0 -16 2 -22 5 -12 2 9 2 23 0 30 -3 6 -5 -1 -5 -18z"/>
 <path d="M8184 3806 c-3 -8 -4 -27 -2 -43 3 -24 8 -28 36 -31 18 -2 40 2 48 9 17 14 18 51 2 67 -17 17 -77 15 -84 -2z"/>
 <path d="M8198 3619 c-27 -16 -23 -65 7 -85 23 -15 27 -15 50 0 30 20 32 49 5 76 -22 22 -37 24 -62 9z"/>
 <path d="M8532 3618 c-18 -18 -15 -85 4 -92 9 -3 149 -6 313 -6 218 0 300 3 309 12 16 16 16 70 0 86 -17 17 -609 17 -626 0z"/>
 <path d="M9291 3616 c-7 -8 -11 -27 -9 -43 l3 -28 433 -8 c461 -8 462 -8 462 38 0 58 26 55 -445 55 -364 0 -434 -2 -444 -14z"/>
 <path d="M10297 3623 c-14 -14 -7 -81 9 -87 9 -3 179 -6 378 -6 268 0 365 3 374 12 7 7 12 24 12 38 0 14 -5 31 -12 38 -9 9 -108 12 -383 12 -205 0 -375 -3 -378 -7z"/>
 <path d="M8198 3409 c-19 -11 -24 -54 -9 -78 8 -13 65 -20 75 -10 2 2 7 16 11 31 5 19 1 32 -14 47 -23 23 -37 25 -63 10z"/>
 <path d="M9058 3413 l-538 -3 0 -45 c0 -38 3 -45 23 -50 12 -3 290 -4 617 -3 l595 3 3 44 c2 28 -1 47 -10 52 -7 5 -44 8 -83 6 -38 -1 -312 -3 -607 -4z"/>
 <path d="M10612 3408 c-7 -7 -12 -24 -12 -38 0 -48 10 -50 231 -50 114 0 214 3 223 6 11 4 16 19 16 44 0 25 -5 40 -16 44 -31 12 -429 7 -442 -6z"/>
 <path d="M9892 3401 c-8 -5 -12 -23 -10 -47 l3 -39 299 0 c270 0 300 2 310 17 7 11 7 26 0 45 l-9 28 -290 2 c-160 2 -296 -1 -303 -6z"/>
 <path d="M9127 3223 c-3 -5 -8 -26 -11 -49 -5 -29 -3 -44 7 -52 11 -9 123 -12 438 -10 l424 3 0 55 0 55 -427 3 c-235 1 -429 -1 -431 -5z"/>
 <path d="M10114 3206 c-3 -13 -4 -35 -2 -47 l3 -24 475 0 475 0 0 45 0 45 -472 3 -473 2 -6 -24z"/>
 <path d="M8203 3200 c-43 -17 -19 -100 29 -100 19 0 48 32 48 53 0 17 -34 58 -47 56 -5 0 -18 -4 -30 -9z"/>
 <path d="M8524 3186 c-3 -8 -4 -25 -2 -38 l3 -23 240 0 240 0 0 35 0 35 -238 3 c-200 2 -238 0 -243 -12z"/>
 <path d="M8196 2984 c-35 -34 -14 -87 34 -87 50 0 67 46 30 83 -24 24 -43 25 -64 4z"/>
 <path d="M6278 2903 c7 -3 16 -2 19 1 4 3 -2 6 -13 5 -11 0 -14 -3 -6 -6z"/>
 <path d="M5758 2873 c7 -3 16 -2 19 1 4 3 -2 6 -13 5 -11 0 -14 -3 -6 -6z"/>
 <path d="M6148 2873 c6 -2 18 -2 25 0 6 3 1 5 -13 5 -14 0 -19 -2 -12 -5z"/>
 <path d="M5893 2863 c43 -2 110 -2 150 0 40 1 5 3 -78 3 -82 0 -115 -2 -72 -3z"/>
 <path d="M8198 2789 c-37 -21 -10 -99 34 -99 19 0 48 32 48 53 0 20 -35 57 -52 57 -7 0 -21 -5 -30 -11z"/>
 <path d="M8562 2788 c-13 -13 -16 -56 -6 -82 6 -14 69 -16 613 -16 459 0 610 3 619 12 20 20 15 76 -7 88 -30 15 -1203 14 -1219 -2z"/>
 <path d="M10653 2793 c-7 -2 -13 -22 -13 -44 0 -32 4 -40 23 -44 12 -3 114 -4 227 -3 l205 3 0 45 0 45 -215 2 c-118 1 -221 -1 -227 -4z"/>
 <path d="M9917 2773 c-10 -9 -8 -55 1 -71 7 -9 75 -12 308 -10 l299 3 3 43 3 42 -304 0 c-167 0 -307 -3 -310 -7z"/>
 <path d="M10494 2586 c-3 -8 -4 -29 -2 -48 l3 -33 300 0 300 0 0 45 0 45 -298 3 c-249 2 -298 0 -303 -12z"/>
 <path d="M8192 2578 c-30 -30 -3 -98 38 -98 23 0 50 26 50 48 0 47 -58 80 -88 50z"/>
 <path d="M8562 2578 c-7 -7 -12 -24 -12 -38 0 -49 5 -50 306 -50 155 0 289 3 298 6 11 4 16 19 16 44 0 25 -5 40 -16 44 -9 3 -143 6 -298 6 -206 0 -285 -3 -294 -12z"/>
 <path d="M9302 2578 c-7 -7 -12 -24 -12 -38 0 -14 5 -31 12 -38 9 -9 141 -12 534 -12 287 0 529 3 538 6 11 4 16 19 16 44 0 25 -5 40 -16 44 -9 3 -251 6 -538 6 -393 0 -525 -3 -534 -12z"/>
 <path d="M8198 2369 c-38 -22 -13 -99 32 -99 47 0 67 67 28 94 -26 18 -36 19 -60 5z"/>
 <path d="M9027 2363 c-14 -13 -7 -71 9 -77 9 -3 307 -6 664 -6 707 0 675 -3 668 57 l-3 28 -666 3 c-366 1 -669 -1 -672 -5z"/>
 <path d="M10474 2346 c-3 -13 -1 -34 6 -45 11 -21 15 -21 308 -19 l297 3 3 43 3 42 -305 0 -306 0 -6 -24z"/>
 <path d="M8192 2158 c-30 -30 -3 -98 38 -98 23 0 50 26 50 48 0 47 -58 80 -88 50z"/>
 </g>

</svg>