<?xml version="1.0" standalone="no"?>
<!DOCTYPE svg PUBLIC "-//W3C//DTD SVG 20010904//EN"
 "http://www.w3.org/TR/2001/REC-SVG-20010904/DTD/svg10.dtd">
<svg version="1.0" xmlns="http://www.w3.org/2000/svg"
 width="5700.000000pt" height="3175.000000pt" viewBox="0 0 5700.000000 3175.000000"
 preserveAspectRatio="xMidYMid meet">
<metadata>
Created by potrace 1.13, written by Peter Selinger 2001-2015
</metadata>
<g transform="translate(0.000000,3175.000000) scale(0.100000,-0.100000)"
fill="#000000" stroke="none">
<path d="M50570 28180 l0 -270 -40 0 -40 0 0 80 0 80 -176 0 c-139 0 -178 -3
-190 -14 -12 -12 -14 -73 -14 -350 l0 -336 -40 0 -40 0 0 360 c0 233 4 360 10
360 6 0 10 9 10 20 0 13 7 20 20 20 11 0 20 5 20 10 0 6 9 10 20 10 11 0 20 5
20 10 0 6 67 10 180 10 l180 0 0 30 0 30 -210 0 c-133 0 -210 -4 -210 -10 0
-5 -7 -10 -15 -10 -20 0 -85 -65 -85 -85 0 -8 -4 -15 -10 -15 -7 0 -10 -517
-10 -1530 0 -1013 3 -1530 10 -1530 6 0 10 -9 10 -20 0 -11 5 -20 10 -20 6 0
10 -9 10 -20 0 -13 7 -20 18 -20 10 0 24 -9 32 -20 10 -14 26 -20 52 -20 21 0
38 -4 38 -10 0 -7 460 -10 1360 -10 900 0 1360 3 1360 10 0 6 14 10 30 10 17
0 30 5 30 10 0 6 7 10 15 10 20 0 85 65 85 85 0 8 5 15 10 15 7 0 10 513 10
1520 0 1007 -3 1520 -10 1520 -5 0 -10 11 -10 25 0 29 -59 95 -85 95 -8 0 -15
5 -15 10 0 6 -77 10 -210 10 l-210 0 0 110 0 110 -40 0 -40 0 0 -270 0 -270
-50 0 -50 0 0 80 0 80 -830 0 -830 0 0 50 0 50 830 0 830 0 0 30 0 30 -816 0
c-693 0 -818 2 -830 14 -10 11 -14 41 -14 110 l0 96 -40 0 -40 0 0 -270z
m2280 -20 c0 -5 7 -10 15 -10 14 0 85 -62 85 -75 0 -3 -103 -5 -230 -5 l-230
0 0 50 0 50 180 0 c113 0 180 -4 180 -10z m-2145 -215 c22 -21 25 -33 25 -90
0 -37 -4 -65 -10 -65 -5 0 -10 -9 -10 -20 0 -13 -7 -20 -20 -20 -11 0 -20 -4
-20 -10 0 -6 -27 -10 -60 -10 -33 0 -60 4 -60 10 0 6 -7 10 -16 10 -15 0 -44
23 -44 34 0 3 29 6 65 6 57 0 69 3 90 25 14 13 25 31 25 40 0 8 5 15 10 15 6
0 10 14 10 30 0 17 -4 30 -10 30 -5 0 -10 9 -10 20 0 26 6 25 35 -5z m1840 0
c14 -13 25 -31 25 -40 0 -8 5 -15 10 -15 6 0 10 -13 10 -30 0 -16 -4 -30 -10
-30 -5 0 -10 -12 -10 -26 0 -29 -21 -54 -44 -54 -9 0 -16 -4 -16 -10 0 -6 -27
-10 -60 -10 -33 0 -60 4 -60 10 0 6 -9 10 -20 10 -13 0 -20 7 -20 20 0 18 7
20 66 20 67 0 94 13 94 44 0 9 5 16 10 16 6 0 10 23 10 50 0 28 -4 50 -10 50
-5 0 -10 5 -10 10 0 16 9 12 35 -15z m405 -1770 l0 -1116 -25 -24 c-13 -14
-31 -25 -40 -25 -8 0 -15 -4 -15 -10 0 -7 -467 -10 -1380 -10 -913 0 -1380 3
-1380 10 0 6 -7 10 -15 10 -9 0 -27 11 -40 25 l-25 24 0 1116 0 1115 1460 0
1460 0 0 -1115z"/>
<path d="M50830 26720 c0 -6 -27 -10 -60 -10 -33 0 -60 -4 -60 -10 0 -5 -18
-10 -40 -10 -22 0 -40 -4 -40 -10 0 -5 -9 -10 -20 -10 -11 0 -20 -4 -20 -10 0
-5 -9 -10 -20 -10 -11 0 -20 -4 -20 -10 0 -5 -9 -10 -20 -10 -11 0 -20 -4 -20
-10 0 -5 5 -10 10 -10 6 0 10 -7 10 -16 0 -8 6 -22 14 -30 17 -16 66 -19 66
-4 0 6 14 10 30 10 17 0 30 5 30 10 0 6 14 10 30 10 17 0 30 5 30 10 0 6 30
10 69 10 46 0 71 4 75 13 5 10 7 10 12 0 4 -9 31 -13 85 -13 46 0 79 -4 79
-10 0 -5 9 -10 20 -10 11 0 20 -4 20 -10 0 -5 7 -10 15 -10 20 0 65 -45 65
-65 0 -8 5 -15 10 -15 6 0 10 -30 10 -70 0 -40 -4 -70 -10 -70 -5 0 -10 -9
-10 -20 0 -11 -4 -20 -10 -20 -5 0 -10 -7 -10 -15 0 -17 -164 -185 -181 -185
-6 0 -24 -13 -39 -30 -15 -16 -34 -30 -42 -30 -7 0 -20 -9 -28 -20 -8 -11 -21
-20 -30 -20 -9 0 -22 -9 -30 -20 -8 -11 -21 -20 -30 -20 -9 0 -22 -9 -30 -20
-8 -11 -21 -20 -30 -20 -9 0 -22 -9 -30 -20 -8 -11 -21 -20 -30 -20 -9 0 -22
-9 -30 -20 -8 -11 -21 -20 -30 -20 -9 0 -22 -9 -30 -20 -8 -11 -20 -20 -28
-20 -27 0 -62 -48 -62 -85 l0 -35 480 0 480 0 0 50 0 50 -340 0 c-333 0 -340
0 -340 20 0 13 7 20 18 20 10 0 24 9 32 20 8 11 22 20 32 20 10 0 18 5 18 10
0 6 8 10 18 10 10 0 24 9 32 20 8 11 21 20 30 20 9 0 22 9 30 20 8 11 21 20
28 20 8 0 27 14 42 30 15 17 33 30 40 30 7 0 25 14 40 30 15 17 33 30 39 30
17 0 181 168 181 185 0 8 5 15 10 15 6 0 10 9 10 20 0 11 5 20 10 20 6 0 10
14 10 30 0 17 5 30 10 30 6 0 10 18 10 40 0 22 -4 40 -10 40 -5 0 -10 14 -10
30 0 17 -4 30 -10 30 -5 0 -10 7 -10 15 0 20 -85 105 -105 105 -8 0 -15 5 -15
10 0 6 -9 10 -20 10 -11 0 -20 5 -20 10 0 6 -13 10 -30 10 -16 0 -30 5 -30 10
0 6 -27 10 -60 10 -33 0 -60 4 -60 10 0 6 -37 10 -90 10 -53 0 -90 -4 -90 -10z"/>
<path d="M51910 26720 c0 -6 -27 -10 -60 -10 -33 0 -60 -4 -60 -10 0 -5 -18
-10 -40 -10 -22 0 -40 -4 -40 -10 0 -5 -9 -10 -20 -10 -11 0 -20 -4 -20 -10 0
-5 -9 -10 -20 -10 -11 0 -20 -4 -20 -10 0 -5 -9 -10 -20 -10 -11 0 -20 -4 -20
-10 0 -5 5 -10 10 -10 6 0 10 -7 10 -16 0 -8 6 -22 14 -30 17 -16 66 -19 66
-4 0 6 14 10 30 10 17 0 30 5 30 10 0 6 14 10 30 10 17 0 30 5 30 10 0 6 30
10 69 10 46 0 71 4 75 13 5 10 7 10 12 0 4 -9 31 -13 85 -13 46 0 79 -4 79
-10 0 -5 9 -10 20 -10 11 0 20 -4 20 -10 0 -5 7 -10 15 -10 20 0 65 -45 65
-65 0 -8 5 -15 10 -15 6 0 10 -30 10 -70 0 -40 -4 -70 -10 -70 -5 0 -10 -9
-10 -20 0 -11 -4 -20 -10 -20 -5 0 -10 -7 -10 -15 0 -17 -164 -185 -181 -185
-6 0 -24 -13 -39 -30 -15 -16 -34 -30 -42 -30 -7 0 -20 -9 -28 -20 -8 -11 -21
-20 -30 -20 -9 0 -22 -9 -30 -20 -8 -11 -21 -20 -30 -20 -9 0 -22 -9 -30 -20
-8 -11 -21 -20 -30 -20 -9 0 -22 -9 -30 -20 -8 -11 -21 -20 -30 -20 -9 0 -22
-9 -30 -20 -8 -11 -21 -20 -30 -20 -9 0 -22 -9 -30 -20 -8 -11 -20 -20 -28
-20 -27 0 -62 -48 -62 -85 l0 -35 480 0 480 0 0 50 0 50 -340 0 c-333 0 -340
0 -340 20 0 13 7 20 18 20 10 0 24 9 32 20 8 11 22 20 32 20 10 0 18 5 18 10
0 6 8 10 18 10 10 0 24 9 32 20 8 11 21 20 30 20 9 0 22 9 30 20 8 11 21 20
28 20 8 0 27 14 42 30 15 17 33 30 40 30 7 0 25 14 40 30 15 17 33 30 39 30
17 0 181 168 181 185 0 8 5 15 10 15 6 0 10 9 10 20 0 11 5 20 10 20 6 0 10
14 10 30 0 17 5 30 10 30 6 0 10 18 10 40 0 22 -4 40 -10 40 -5 0 -10 14 -10
30 0 17 -4 30 -10 30 -5 0 -10 7 -10 15 0 20 -85 105 -105 105 -8 0 -15 5 -15
10 0 6 -9 10 -20 10 -11 0 -20 5 -20 10 0 6 -13 10 -30 10 -16 0 -30 5 -30 10
0 6 -27 10 -60 10 -33 0 -60 4 -60 10 0 6 -37 10 -90 10 -53 0 -90 -4 -90 -10z"/>
<path d="M17200 28100 c0 -6 -33 -10 -80 -10 -47 0 -80 -4 -80 -10 0 -5 -22
-10 -50 -10 -27 0 -50 -4 -50 -10 0 -5 -18 -10 -40 -10 -22 0 -40 -4 -40 -10
0 -5 -13 -10 -30 -10 -16 0 -30 -4 -30 -10 0 -5 -13 -10 -30 -10 -16 0 -30 -4
-30 -10 0 -5 -13 -10 -30 -10 -16 0 -30 -4 -30 -10 0 -5 -9 -10 -20 -10 -11 0
-20 -4 -20 -10 0 -5 -9 -10 -20 -10 -11 0 -20 -4 -20 -10 0 -5 -9 -10 -20 -10
-11 0 -20 -4 -20 -10 0 -5 -9 -10 -20 -10 -11 0 -20 -4 -20 -10 0 -5 -8 -10
-18 -10 -10 0 -24 -9 -32 -20 -8 -11 -22 -20 -32 -20 -10 0 -18 -4 -18 -10 0
-5 -7 -10 -16 -10 -9 0 -29 -13 -44 -30 -15 -16 -33 -30 -40 -30 -7 0 -25 -13
-40 -30 -15 -16 -33 -30 -39 -30 -15 0 -201 -186 -201 -201 0 -6 -18 -28 -40
-49 -22 -21 -40 -45 -40 -52 0 -7 -9 -20 -20 -28 -11 -8 -20 -21 -20 -30 0 -9
-9 -22 -20 -30 -11 -8 -20 -22 -20 -32 0 -10 -4 -18 -10 -18 -5 0 -10 -9 -10
-20 0 -11 -4 -20 -10 -20 -5 0 -10 -9 -10 -20 0 -11 -4 -20 -10 -20 -5 0 -10
-9 -10 -20 0 -11 -4 -20 -10 -20 -5 0 -10 -9 -10 -20 0 -11 -4 -20 -10 -20 -5
0 -10 -9 -10 -20 0 -11 -4 -20 -10 -20 -5 0 -10 -9 -10 -20 0 -11 -4 -20 -10
-20 -5 0 -10 -13 -10 -30 0 -16 -4 -30 -10 -30 -5 0 -10 -13 -10 -30 0 -16 -4
-30 -10 -30 -5 0 -10 -18 -10 -40 0 -22 -4 -40 -10 -40 -5 0 -10 -18 -10 -40
0 -22 -4 -40 -10 -40 -6 0 -10 -30 -10 -70 0 -40 -4 -70 -10 -70 -6 0 -10 -73
-10 -200 0 -127 4 -200 10 -200 6 0 10 -30 10 -70 0 -40 4 -70 10 -70 6 0 10
-18 10 -40 0 -22 5 -40 10 -40 6 0 10 -18 10 -40 0 -22 5 -40 10 -40 6 0 10
-13 10 -30 0 -16 5 -30 10 -30 6 0 10 -13 10 -30 0 -16 5 -30 10 -30 6 0 10
-9 10 -20 0 -11 5 -20 10 -20 6 0 10 -9 10 -20 0 -11 5 -20 10 -20 6 0 10 -9
10 -20 0 -11 5 -20 10 -20 6 0 10 -9 10 -20 0 -11 5 -20 10 -20 6 0 10 -9 10
-20 0 -11 5 -20 10 -20 6 0 10 -9 10 -20 0 -11 5 -20 10 -20 6 0 10 -8 10 -18
0 -10 9 -24 20 -32 11 -8 20 -21 20 -30 0 -9 9 -22 20 -30 11 -8 20 -21 20
-28 0 -7 18 -31 40 -52 22 -21 40 -43 40 -49 0 -15 186 -201 201 -201 6 0 24
-13 39 -30 15 -16 33 -30 40 -30 7 0 25 -13 40 -30 15 -16 35 -30 44 -30 9 0
16 -4 16 -10 0 -5 8 -10 18 -10 10 0 24 -9 32 -20 8 -11 22 -20 32 -20 10 0
18 -4 18 -10 0 -5 9 -10 20 -10 11 0 20 -4 20 -10 0 -5 9 -10 20 -10 11 0 20
-4 20 -10 0 -5 9 -10 20 -10 11 0 20 -4 20 -10 0 -5 9 -10 20 -10 11 0 20 -4
20 -10 0 -5 14 -10 30 -10 17 0 30 -4 30 -10 0 -5 14 -10 30 -10 17 0 30 -4
30 -10 0 -5 14 -10 30 -10 17 0 30 -4 30 -10 0 -5 18 -10 40 -10 22 0 40 -4
40 -10 0 -5 23 -10 50 -10 28 0 50 -4 50 -10 0 -6 33 -10 80 -10 47 0 80 -4
80 -10 0 -6 50 -10 130 -10 80 0 130 4 130 10 0 6 37 10 90 10 53 0 90 4 90
10 0 6 18 10 40 10 22 0 40 5 40 10 0 6 18 10 40 10 22 0 40 5 40 10 0 6 18
10 40 10 22 0 40 5 40 10 0 6 9 10 20 10 11 0 20 5 20 10 0 6 14 10 30 10 17
0 30 5 30 10 0 6 9 10 20 10 11 0 20 5 20 10 0 6 9 10 20 10 11 0 20 5 20 10
0 6 9 10 20 10 11 0 20 5 20 10 0 6 9 10 20 10 11 0 20 5 20 10 0 6 9 10 20
10 11 0 20 5 20 10 0 6 8 10 18 10 10 0 24 9 32 20 8 11 21 20 30 20 9 0 22 9
30 20 8 11 22 20 32 20 10 0 18 5 18 10 0 6 6 10 13 10 7 0 19 9 27 20 8 11
20 20 27 20 16 0 263 245 263 261 0 6 14 24 30 39 17 15 30 34 30 42 0 7 9 20
20 28 11 8 20 21 20 30 0 9 9 22 20 30 11 8 20 22 20 32 0 10 5 18 10 18 6 0
10 9 10 20 0 11 5 20 10 20 6 0 10 9 10 20 0 11 5 20 10 20 6 0 10 9 10 20 0
11 5 20 10 20 6 0 10 9 10 20 0 11 5 20 10 20 6 0 10 14 10 30 0 17 5 30 10
30 6 0 10 9 10 20 0 11 5 20 10 20 6 0 10 14 10 30 0 17 5 30 10 30 6 0 10 18
10 40 0 22 5 40 10 40 6 0 10 18 10 40 0 22 5 40 10 40 6 0 10 23 10 50 0 28
5 50 10 50 6 0 10 93 10 260 0 167 -4 260 -10 260 -5 0 -10 23 -10 50 0 28 -4
50 -10 50 -5 0 -10 23 -10 50 0 28 -4 50 -10 50 -5 0 -10 14 -10 30 0 17 -4
30 -10 30 -5 0 -10 14 -10 30 0 17 -4 30 -10 30 -5 0 -10 9 -10 20 0 11 -4 20
-10 20 -5 0 -10 14 -10 30 0 17 -4 30 -10 30 -5 0 -10 9 -10 20 0 11 -4 20
-10 20 -5 0 -10 9 -10 20 0 11 -4 20 -10 20 -5 0 -10 9 -10 20 0 11 -4 20 -10
20 -5 0 -10 9 -10 20 0 11 -4 20 -10 20 -5 0 -10 8 -10 18 0 10 -9 24 -20 32
-11 8 -20 21 -20 30 0 9 -9 22 -20 30 -11 8 -20 21 -20 28 0 8 -13 27 -30 42
-16 15 -30 33 -30 39 0 16 -247 261 -263 261 -7 0 -19 9 -27 20 -8 11 -20 20
-27 20 -7 0 -13 5 -13 10 0 6 -8 10 -18 10 -10 0 -24 9 -32 20 -8 11 -21 20
-30 20 -9 0 -22 9 -30 20 -8 11 -22 20 -32 20 -10 0 -18 5 -18 10 0 6 -9 10
-20 10 -11 0 -20 5 -20 10 0 6 -9 10 -20 10 -11 0 -20 5 -20 10 0 6 -9 10 -20
10 -11 0 -20 5 -20 10 0 6 -9 10 -20 10 -11 0 -20 5 -20 10 0 6 -9 10 -20 10
-11 0 -20 5 -20 10 0 6 -13 10 -30 10 -16 0 -30 5 -30 10 0 6 -9 10 -20 10
-11 0 -20 5 -20 10 0 6 -18 10 -40 10 -22 0 -40 5 -40 10 0 6 -13 10 -30 10
-16 0 -30 5 -30 10 0 6 -22 10 -50 10 -27 0 -50 5 -50 10 0 6 -37 10 -90 10
-53 0 -90 4 -90 10 0 6 -50 10 -130 10 -80 0 -130 -4 -130 -10z m280 -300 c0
-6 27 -10 60 -10 33 0 60 -4 60 -10 0 -5 23 -10 50 -10 28 0 50 -4 50 -10 0
-5 14 -10 30 -10 17 0 30 -4 30 -10 0 -5 14 -10 30 -10 17 0 30 -4 30 -10 0
-5 9 -10 20 -10 11 0 20 -4 20 -10 0 -5 14 -10 30 -10 17 0 30 -4 30 -10 0 -5
9 -10 20 -10 11 0 20 -4 20 -10 0 -5 8 -10 18 -10 10 0 24 -9 32 -20 8 -11 22
-20 32 -20 10 0 18 -4 18 -10 0 -5 8 -10 18 -10 10 0 24 -9 32 -20 8 -11 20
-20 28 -20 7 0 35 -22 62 -50 27 -27 54 -50 60 -50 6 0 29 -18 50 -40 21 -22
41 -40 45 -40 11 0 35 -28 35 -40 0 -6 18 -29 40 -50 22 -21 40 -45 40 -52 0
-7 9 -20 20 -28 11 -8 20 -21 20 -30 0 -9 9 -22 20 -30 11 -8 20 -22 20 -32 0
-10 5 -18 10 -18 6 0 10 -9 10 -20 0 -11 5 -20 10 -20 6 0 10 -9 10 -20 0 -11
5 -20 10 -20 6 0 10 -9 10 -20 0 -11 5 -20 10 -20 6 0 10 -9 10 -20 0 -11 5
-20 10 -20 6 0 10 -13 10 -30 0 -16 5 -30 10 -30 6 0 10 -13 10 -30 0 -16 5
-30 10 -30 6 0 10 -13 10 -30 0 -16 5 -30 10 -30 6 0 10 -22 10 -50 0 -27 5
-50 10 -50 6 0 10 -33 10 -80 0 -47 4 -80 10 -80 6 0 10 -33 10 -80 0 -47 -4
-80 -10 -80 -6 0 -10 -33 -10 -80 0 -47 -4 -80 -10 -80 -5 0 -10 -22 -10 -50
0 -27 -4 -50 -10 -50 -5 0 -10 -13 -10 -30 0 -16 -4 -30 -10 -30 -5 0 -10 -13
-10 -30 0 -16 -4 -30 -10 -30 -5 0 -10 -13 -10 -30 0 -16 -4 -30 -10 -30 -5 0
-10 -9 -10 -20 0 -11 -4 -20 -10 -20 -5 0 -10 -9 -10 -20 0 -11 -4 -20 -10
-20 -5 0 -10 -9 -10 -20 0 -11 -4 -20 -10 -20 -5 0 -10 -9 -10 -20 0 -11 -4
-20 -10 -20 -5 0 -10 -8 -10 -18 0 -10 -9 -24 -20 -32 -11 -8 -20 -21 -20 -30
0 -9 -9 -22 -20 -30 -11 -8 -20 -21 -20 -28 0 -7 -18 -31 -40 -52 -22 -21 -40
-44 -40 -50 0 -12 -24 -40 -35 -40 -4 0 -24 -18 -45 -40 -21 -22 -44 -40 -50
-40 -6 0 -29 -18 -50 -40 -21 -22 -44 -40 -50 -40 -7 0 -25 -13 -40 -30 -15
-16 -35 -30 -44 -30 -9 0 -16 -4 -16 -10 0 -5 -8 -10 -18 -10 -10 0 -24 -9
-32 -20 -8 -11 -22 -20 -32 -20 -10 0 -18 -4 -18 -10 0 -5 -9 -10 -20 -10 -11
0 -20 -4 -20 -10 0 -5 -13 -10 -30 -10 -16 0 -30 -4 -30 -10 0 -5 -9 -10 -20
-10 -11 0 -20 -4 -20 -10 0 -5 -13 -10 -30 -10 -16 0 -30 -4 -30 -10 0 -5 -18
-10 -40 -10 -22 0 -40 -4 -40 -10 0 -5 -18 -10 -40 -10 -22 0 -40 -4 -40 -10
0 -6 -27 -10 -60 -10 -33 0 -60 -4 -60 -10 0 -6 -57 -10 -150 -10 -93 0 -150
4 -150 10 0 6 -27 10 -60 10 -33 0 -60 4 -60 10 0 6 -18 10 -40 10 -22 0 -40
5 -40 10 0 6 -13 10 -30 10 -16 0 -30 5 -30 10 0 6 -13 10 -30 10 -16 0 -30 5
-30 10 0 6 -13 10 -30 10 -16 0 -30 5 -30 10 0 6 -9 10 -20 10 -11 0 -20 5
-20 10 0 6 -9 10 -20 10 -11 0 -20 5 -20 10 0 6 -9 10 -20 10 -11 0 -20 5 -20
10 0 6 -9 10 -20 10 -11 0 -20 5 -20 10 0 6 -8 10 -18 10 -10 0 -24 9 -32 20
-8 11 -21 20 -28 20 -8 0 -27 14 -42 30 -15 17 -33 30 -39 30 -16 0 -261 247
-261 263 0 7 -9 19 -20 27 -11 8 -20 21 -20 30 0 9 -9 22 -20 30 -11 8 -20 21
-20 30 0 9 -9 22 -20 30 -11 8 -20 22 -20 32 0 10 -4 18 -10 18 -5 0 -10 9
-10 20 0 11 -4 20 -10 20 -5 0 -10 14 -10 30 0 17 -4 30 -10 30 -5 0 -10 9
-10 20 0 11 -4 20 -10 20 -5 0 -10 14 -10 30 0 17 -4 30 -10 30 -5 0 -10 14
-10 30 0 17 -4 30 -10 30 -5 0 -10 18 -10 40 0 22 -4 40 -10 40 -5 0 -10 23
-10 50 0 28 -4 50 -10 50 -6 0 -10 73 -10 200 0 127 4 200 10 200 6 0 10 23
10 50 0 28 5 50 10 50 6 0 10 18 10 40 0 22 5 40 10 40 6 0 10 14 10 30 0 17
5 30 10 30 6 0 10 14 10 30 0 17 5 30 10 30 6 0 10 9 10 20 0 11 5 20 10 20 6
0 10 14 10 30 0 17 5 30 10 30 6 0 10 9 10 20 0 11 5 20 10 20 6 0 10 8 10 18
0 10 9 24 20 32 11 8 20 21 20 30 0 9 9 22 20 30 11 8 20 21 20 30 0 9 9 22
20 30 11 8 20 20 20 27 0 17 266 283 283 283 7 0 19 9 27 20 8 11 21 20 30 20
9 0 22 9 30 20 8 11 22 20 32 20 10 0 18 5 18 10 0 6 9 10 20 10 11 0 20 5 20
10 0 6 9 10 20 10 11 0 20 5 20 10 0 6 9 10 20 10 11 0 20 5 20 10 0 6 9 10
20 10 11 0 20 5 20 10 0 6 14 10 30 10 17 0 30 5 30 10 0 6 9 10 20 10 11 0
20 5 20 10 0 6 18 10 40 10 22 0 40 5 40 10 0 6 18 10 40 10 22 0 40 5 40 10
0 6 27 10 60 10 33 0 60 4 60 10 0 6 57 10 150 10 93 0 150 -4 150 -10z"/>
<path d="M17300 27510 l0 -180 30 0 30 0 0 180 0 180 -30 0 -30 0 0 -180z"/>
<path d="M16422 27305 l-22 -25 115 -115 c73 -73 122 -115 136 -115 22 0 49
22 49 39 0 16 -227 241 -242 240 -7 0 -23 -11 -36 -24z"/>
<path d="M18072 27214 l-113 -114 25 -25 c14 -14 30 -25 36 -25 14 0 240 227
240 241 0 6 -6 17 -14 25 -31 31 -59 15 -174 -102z"/>
<path d="M17503 26644 c-123 -123 -223 -228 -223 -234 0 -14 327 -340 340
-340 6 0 22 11 36 25 l25 25 -141 140 c-77 77 -140 144 -140 150 0 6 90 100
200 210 l201 200 -25 25 c-14 14 -31 25 -38 24 -7 0 -113 -101 -235 -225z"/>
<path d="M16040 26410 l0 -40 190 0 190 0 0 40 0 40 -190 0 -190 0 0 -40z"/>
<path d="M18260 26410 l0 -40 185 0 185 0 0 40 0 40 -185 0 -185 0 0 -40z"/>
<path d="M16512 25654 l-113 -114 25 -25 c14 -14 30 -25 36 -25 14 0 240 227
240 241 0 6 -6 17 -14 25 -31 31 -59 15 -174 -102z"/>
<path d="M17982 25745 l-22 -25 115 -115 c73 -73 122 -115 136 -115 22 0 49
22 49 39 0 16 -227 241 -242 240 -7 0 -23 -11 -36 -24z"/>
<path d="M17300 25310 l0 -180 30 0 30 0 0 180 0 180 -30 0 -30 0 0 -180z"/>
<path d="M33660 25660 c0 -7 -1608 -10 -4805 -10 -3197 0 -4805 -3 -4805 -10
0 -5 -9 -10 -20 -10 -11 0 -20 -4 -20 -10 0 -5 -9 -10 -20 -10 -11 0 -20 -4
-20 -10 0 -5 -8 -10 -18 -10 -10 0 -24 -9 -32 -20 -8 -11 -20 -20 -28 -20 -17
0 -82 -65 -82 -82 0 -8 -9 -20 -20 -28 -11 -8 -20 -21 -20 -30 0 -9 -9 -22
-20 -30 -12 -8 -20 -26 -20 -42 0 -15 -4 -28 -10 -28 -5 0 -10 -13 -10 -30 0
-16 -4 -30 -10 -30 -5 0 -10 -22 -10 -50 0 -27 -4 -50 -10 -50 -7 0 -10 -317
-10 -930 0 -511 -4 -930 -8 -930 -4 0 -14 9 -22 20 -8 11 -21 20 -30 20 -9 0
-22 9 -30 20 -8 11 -21 20 -30 20 -9 0 -22 9 -30 20 -8 11 -21 20 -30 20 -9 0
-22 9 -30 20 -8 11 -21 20 -30 20 -9 0 -22 9 -30 20 -8 11 -21 20 -30 20 -9 0
-22 9 -30 20 -8 11 -22 20 -32 20 -10 0 -18 5 -18 10 0 6 -9 10 -20 10 -11 0
-20 5 -20 10 0 6 -8 10 -18 10 -10 0 -24 9 -32 20 -8 11 -22 20 -32 20 -10 0
-18 5 -18 10 0 6 -9 10 -20 10 -11 0 -20 5 -20 10 0 6 -9 10 -20 10 -11 0 -20
5 -20 10 0 6 -9 10 -20 10 -11 0 -20 5 -20 10 0 6 -9 10 -20 10 -11 0 -20 5
-20 10 0 6 -9 10 -20 10 -11 0 -20 5 -20 10 0 6 -13 10 -30 10 -16 0 -30 5
-30 10 0 6 -9 10 -20 10 -11 0 -20 5 -20 10 0 6 -9 10 -20 10 -11 0 -20 5 -20
10 0 6 -13 10 -30 10 -16 0 -30 5 -30 10 0 6 -9 10 -20 10 -11 0 -20 5 -20 10
0 6 -13 10 -30 10 -16 0 -30 5 -30 10 0 6 -13 10 -30 10 -16 0 -30 5 -30 10 0
6 -13 10 -30 10 -16 0 -30 5 -30 10 0 6 -13 10 -30 10 -16 0 -30 5 -30 10 0 6
-18 10 -40 10 -22 0 -40 5 -40 10 0 6 -13 10 -30 10 -16 0 -30 5 -30 10 0 6
-18 10 -40 10 -22 0 -40 5 -40 10 0 6 -18 10 -40 10 -22 0 -40 5 -40 10 0 6
-22 10 -50 10 -27 0 -50 5 -50 10 0 6 -27 10 -60 10 -33 0 -60 4 -60 10 0 6
-27 10 -60 10 -33 0 -60 4 -60 10 0 6 -37 10 -90 10 -53 0 -90 4 -90 10 0 6
-133 10 -380 10 -247 0 -380 -4 -380 -10 0 -6 -37 -10 -90 -10 -53 0 -90 -4
-90 -10 0 -6 -27 -10 -60 -10 -33 0 -60 -4 -60 -10 0 -6 -27 -10 -60 -10 -33
0 -60 -4 -60 -10 0 -5 -18 -10 -40 -10 -22 0 -40 -4 -40 -10 0 -5 -22 -10 -50
-10 -27 0 -50 -4 -50 -10 0 -5 -18 -10 -40 -10 -22 0 -40 -4 -40 -10 0 -5 -13
-10 -30 -10 -16 0 -30 -4 -30 -10 0 -5 -18 -10 -40 -10 -22 0 -40 -4 -40 -10
0 -5 -13 -10 -30 -10 -16 0 -30 -4 -30 -10 0 -5 -13 -10 -30 -10 -16 0 -30 -4
-30 -10 0 -5 -13 -10 -30 -10 -16 0 -30 -4 -30 -10 0 -5 -9 -10 -20 -10 -11 0
-20 -4 -20 -10 0 -5 -13 -10 -30 -10 -16 0 -30 -4 -30 -10 0 -5 -9 -10 -20
-10 -11 0 -20 -4 -20 -10 0 -5 -13 -10 -30 -10 -16 0 -30 -4 -30 -10 0 -5 -9
-10 -20 -10 -11 0 -20 -4 -20 -10 0 -5 -9 -10 -20 -10 -11 0 -20 -4 -20 -10 0
-5 -9 -10 -20 -10 -11 0 -20 -4 -20 -10 0 -5 -13 -10 -30 -10 -16 0 -30 -4
-30 -10 0 -5 -9 -10 -20 -10 -11 0 -20 -4 -20 -10 0 -5 -8 -10 -18 -10 -10 0
-24 -9 -32 -20 -8 -11 -22 -20 -32 -20 -10 0 -18 -4 -18 -10 0 -5 -9 -10 -20
-10 -11 0 -20 -4 -20 -10 0 -5 -9 -10 -20 -10 -11 0 -20 -4 -20 -10 0 -5 -8
-10 -18 -10 -10 0 -24 -9 -32 -20 -8 -11 -22 -20 -32 -20 -10 0 -18 -4 -18
-10 0 -5 -8 -10 -18 -10 -10 0 -24 -9 -32 -20 -8 -11 -21 -20 -30 -20 -9 0
-22 -9 -30 -20 -8 -11 -21 -20 -30 -20 -9 0 -22 -9 -30 -20 -8 -11 -21 -20
-28 -20 -8 0 -27 -13 -42 -30 -15 -16 -33 -30 -40 -30 -7 0 -25 -13 -40 -30
-15 -16 -33 -30 -40 -30 -6 0 -29 -18 -50 -40 -21 -22 -43 -40 -50 -40 -6 0
-55 -45 -110 -100 -55 -55 -104 -100 -110 -100 -15 0 -40 -25 -40 -40 0 -10
-105 -120 -115 -120 -11 0 -75 -69 -75 -80 0 -7 -18 -29 -40 -50 -22 -21 -40
-44 -40 -50 0 -6 -18 -29 -40 -50 -22 -21 -40 -45 -40 -52 0 -7 -9 -20 -20
-28 -11 -8 -20 -21 -20 -30 0 -9 -9 -22 -20 -30 -11 -8 -20 -21 -20 -30 0 -9
-9 -22 -20 -30 -11 -8 -20 -21 -20 -30 0 -9 -9 -22 -20 -30 -11 -8 -20 -22
-20 -32 0 -10 -4 -18 -10 -18 -5 0 -10 -8 -10 -18 0 -10 -9 -24 -20 -32 -11
-8 -20 -22 -20 -32 0 -10 -4 -18 -10 -18 -5 0 -10 -9 -10 -20 0 -11 -4 -20
-10 -20 -5 0 -10 -9 -10 -20 0 -11 -4 -20 -10 -20 -5 0 -10 -9 -10 -20 0 -11
-4 -20 -10 -20 -5 0 -10 -9 -10 -20 0 -11 -4 -20 -10 -20 -5 0 -10 -9 -10 -20
0 -11 -4 -20 -10 -20 -5 0 -10 -9 -10 -20 0 -11 -4 -20 -10 -20 -5 0 -10 -9
-10 -20 0 -11 -4 -20 -10 -20 -5 0 -10 -13 -10 -30 0 -16 -4 -30 -10 -30 -5 0
-10 -9 -10 -20 0 -11 -4 -20 -10 -20 -5 0 -10 -13 -10 -30 0 -16 -4 -30 -10
-30 -5 0 -10 -9 -10 -20 0 -11 -4 -20 -10 -20 -5 0 -10 -13 -10 -30 0 -16 -4
-30 -10 -30 -5 0 -10 -13 -10 -30 0 -16 -4 -30 -10 -30 -5 0 -10 -13 -10 -30
0 -16 -4 -30 -10 -30 -5 0 -10 -18 -10 -40 0 -22 -4 -40 -10 -40 -5 0 -10 -18
-10 -40 0 -22 -4 -40 -10 -40 -5 0 -10 -18 -10 -40 0 -22 -4 -40 -10 -40 -5 0
-10 -22 -10 -50 0 -27 -4 -50 -10 -50 -5 0 -10 -22 -10 -50 0 -27 -4 -50 -10
-50 -6 0 -10 -33 -10 -80 0 -47 -4 -80 -10 -80 -6 0 -10 -127 -10 -360 0 -233
4 -360 10 -360 6 0 10 -33 10 -80 0 -47 4 -80 10 -80 6 0 10 -22 10 -50 0 -27
5 -50 10 -50 6 0 10 -22 10 -50 0 -27 5 -50 10 -50 6 0 10 -18 10 -40 0 -22 5
-40 10 -40 6 0 10 14 10 30 0 17 5 30 10 30 6 0 10 14 10 30 0 17 5 30 10 30
6 0 10 18 10 40 0 22 5 40 10 40 6 0 10 14 10 30 0 17 5 30 10 30 6 0 10 9 10
20 0 11 5 20 10 20 6 0 10 14 10 30 0 17 5 30 10 30 6 0 10 14 10 30 0 17 5
30 10 30 6 0 10 9 10 20 0 11 5 20 10 20 6 0 10 9 10 20 0 11 5 20 10 20 6 0
10 14 10 30 0 17 5 30 10 30 6 0 10 9 10 20 0 11 5 20 10 20 6 0 10 9 10 20 0
11 5 20 10 20 6 0 10 9 10 20 0 11 5 20 10 20 6 0 10 8 10 18 0 10 9 24 20 32
11 8 20 22 20 32 0 10 5 18 10 18 6 0 10 9 10 20 0 11 5 20 10 20 6 0 10 8 10
18 0 10 9 24 20 32 11 8 20 22 20 32 0 10 5 18 10 18 6 0 10 8 10 18 0 10 9
24 20 32 11 8 20 21 20 30 0 9 9 22 20 30 11 8 20 21 20 28 0 8 14 27 30 42
17 15 30 33 30 40 0 7 14 25 30 40 17 15 30 33 30 40 0 6 23 33 50 60 28 27
50 54 50 60 0 11 65 80 75 80 3 0 77 72 165 160 88 88 165 160 171 160 6 0 28
18 49 40 21 22 44 40 50 40 6 0 29 18 50 40 21 22 45 40 52 40 7 0 20 9 28 20
8 11 21 20 30 20 9 0 22 9 30 20 8 11 21 20 30 20 9 0 22 9 30 20 8 11 21 20
30 20 9 0 22 9 30 20 8 11 21 20 30 20 9 0 22 9 30 20 8 11 22 20 32 20 10 0
18 5 18 10 0 6 8 10 18 10 10 0 24 9 32 20 8 11 22 20 32 20 10 0 18 5 18 10
0 6 9 10 20 10 11 0 20 5 20 10 0 6 9 10 20 10 11 0 20 5 20 10 0 6 9 10 20
10 11 0 20 5 20 10 0 6 9 10 20 10 11 0 20 5 20 10 0 6 9 10 20 10 11 0 20 5
20 10 0 6 9 10 20 10 11 0 20 5 20 10 0 6 9 10 20 10 11 0 20 5 20 10 0 6 9
10 20 10 11 0 20 5 20 10 0 6 14 10 30 10 17 0 30 5 30 10 0 6 9 10 20 10 11
0 20 5 20 10 0 6 14 10 30 10 17 0 30 5 30 10 0 6 9 10 20 10 11 0 20 5 20 10
0 6 14 10 30 10 17 0 30 5 30 10 0 6 14 10 30 10 17 0 30 5 30 10 0 6 14 10
30 10 17 0 30 5 30 10 0 6 14 10 30 10 17 0 30 5 30 10 0 6 18 10 40 10 22 0
40 5 40 10 0 6 14 10 30 10 17 0 30 5 30 10 0 6 18 10 40 10 22 0 40 5 40 10
0 6 23 10 50 10 28 0 50 5 50 10 0 6 23 10 50 10 28 0 50 5 50 10 0 6 23 10
50 10 28 0 50 5 50 10 0 6 30 10 70 10 40 0 70 4 70 10 0 6 37 10 90 10 53 0
90 4 90 10 0 6 120 10 340 10 220 0 340 -4 340 -10 0 -6 37 -10 90 -10 53 0
90 -4 90 -10 0 -6 30 -10 70 -10 40 0 70 -4 70 -10 0 -6 27 -10 60 -10 33 0
60 -4 60 -10 0 -5 18 -10 40 -10 22 0 40 -4 40 -10 0 -5 23 -10 50 -10 28 0
50 -4 50 -10 0 -5 18 -10 40 -10 22 0 40 -4 40 -10 0 -5 14 -10 30 -10 17 0
30 -4 30 -10 0 -5 18 -10 40 -10 22 0 40 -4 40 -10 0 -5 14 -10 30 -10 17 0
30 -4 30 -10 0 -5 14 -10 30 -10 17 0 30 -4 30 -10 0 -5 14 -10 30 -10 17 0
30 -4 30 -10 0 -5 14 -10 30 -10 17 0 30 -4 30 -10 0 -5 9 -10 20 -10 11 0 20
-4 20 -10 0 -5 14 -10 30 -10 17 0 30 -4 30 -10 0 -5 9 -10 20 -10 11 0 20 -4
20 -10 0 -5 14 -10 30 -10 17 0 30 -4 30 -10 0 -5 9 -10 20 -10 11 0 20 -4 20
-10 0 -5 9 -10 20 -10 11 0 20 -4 20 -10 0 -5 9 -10 20 -10 11 0 20 -4 20 -10
0 -5 9 -10 20 -10 11 0 20 -4 20 -10 0 -5 9 -10 20 -10 11 0 20 -4 20 -10 0
-5 9 -10 20 -10 11 0 20 -4 20 -10 0 -5 9 -10 20 -10 11 0 20 -4 20 -10 0 -5
9 -10 20 -10 11 0 20 -4 20 -10 0 -5 8 -10 18 -10 10 0 24 -9 32 -20 8 -11 22
-20 32 -20 10 0 18 -4 18 -10 0 -5 8 -10 18 -10 10 0 24 -9 32 -20 8 -11 22
-20 32 -20 10 0 18 -4 18 -10 0 -5 8 -10 18 -10 10 0 24 -9 32 -20 8 -11 21
-20 30 -20 9 0 22 -9 30 -20 8 -11 21 -20 28 -20 8 0 27 -13 42 -30 15 -16 33
-30 40 -30 7 0 25 -13 40 -30 15 -16 33 -30 40 -30 6 0 33 -22 60 -50 27 -27
54 -50 59 -50 14 0 421 -407 421 -421 0 -6 18 -28 40 -49 22 -21 40 -44 40
-50 0 -6 18 -29 40 -50 22 -21 40 -45 40 -52 0 -7 9 -20 20 -28 11 -8 20 -21
20 -30 0 -9 9 -22 20 -30 11 -8 20 -21 20 -30 0 -9 9 -22 20 -30 11 -8 20 -21
20 -30 0 -9 9 -22 20 -30 11 -8 20 -22 20 -32 0 -10 5 -18 10 -18 6 0 10 -8
10 -18 0 -10 9 -24 20 -32 11 -8 20 -22 20 -32 0 -10 5 -18 10 -18 6 0 10 -9
10 -20 0 -11 5 -20 10 -20 6 0 10 -9 10 -20 0 -11 5 -20 10 -20 6 0 10 -9 10
-20 0 -11 5 -20 10 -20 6 0 10 -9 10 -20 0 -11 5 -20 10 -20 6 0 10 -9 10 -20
0 -11 5 -20 10 -20 6 0 10 -9 10 -20 0 -11 5 -20 10 -20 6 0 10 -13 10 -30 0
-16 5 -30 10 -30 6 0 10 -9 10 -20 0 -11 5 -20 10 -20 6 0 10 -13 10 -30 0
-16 5 -30 10 -30 6 0 10 -9 10 -20 0 -11 5 -20 10 -20 6 0 10 -13 10 -30 0
-16 5 -30 10 -30 6 0 10 -13 10 -30 0 -16 5 -30 10 -30 6 0 10 -13 10 -30 0
-16 5 -30 10 -30 6 0 10 -18 10 -40 0 -22 5 -40 10 -40 6 0 10 -13 10 -30 0
-16 5 -30 10 -30 6 0 10 -18 10 -40 0 -22 5 -40 10 -40 6 0 10 9 10 20 0 11 5
20 10 20 6 0 10 23 10 50 0 28 5 50 10 50 6 0 10 18 10 40 0 22 5 40 10 40 6
0 10 27 10 60 0 33 4 60 10 60 6 0 10 30 10 70 0 40 4 70 10 70 6 0 10 43 10
110 0 67 4 110 10 110 6 0 10 18 10 40 l0 40 970 0 c640 0 970 3 970 10 0 6 7
10 15 10 9 0 27 11 40 25 23 22 25 31 25 125 0 94 -2 103 -25 125 l-24 25
-981 0 c-837 0 -984 2 -996 14 -10 10 -14 38 -14 90 0 44 -4 76 -10 76 -6 0
-10 30 -10 70 l0 70 1506 0 c1602 0 1534 -2 1534 44 0 9 5 16 10 16 6 0 10 38
10 95 l0 96 -35 34 -34 35 -1536 0 c-1528 0 -1535 0 -1535 20 0 11 -4 20 -10
20 -5 0 -10 18 -10 40 0 22 -4 40 -10 40 -5 0 -10 14 -10 30 0 17 -4 30 -10
30 -5 0 -10 14 -10 30 0 17 -4 30 -10 30 -5 0 -10 14 -10 30 0 17 -4 30 -10
30 -5 0 -10 9 -10 20 0 11 -4 20 -10 20 -5 0 -10 14 -10 30 0 17 -4 30 -10 30
-5 0 -10 9 -10 20 0 11 -4 20 -10 20 -5 0 -10 9 -10 20 0 11 -4 20 -10 20 -5
0 -10 14 -10 30 0 17 -4 30 -10 30 -5 0 -10 9 -10 20 0 11 -4 20 -10 20 -5 0
-10 9 -10 20 0 11 -4 20 -10 20 -5 0 -10 9 -10 20 0 11 -4 20 -10 20 -5 0 -10
9 -10 20 0 11 -4 20 -10 20 -7 0 -10 433 -10 1280 l0 1280 1920 0 c1273 0
1920 -3 1920 -10 0 -7 1882 -10 5625 -10 5618 0 5625 0 5625 -20 0 -11 5 -20
10 -20 7 0 10 -1333 10 -3980 l0 -3980 -7275 0 -7275 0 0 50 c0 28 -4 50 -10
50 -6 0 -10 27 -10 60 0 33 -4 60 -10 60 -5 0 -10 23 -10 50 0 28 -4 50 -10
50 -6 0 -10 27 -10 60 0 33 -4 60 -10 60 -6 0 -10 27 -10 60 0 33 -4 60 -10
60 -5 0 -10 23 -10 50 0 28 -4 50 -10 50 -6 0 -10 27 -10 60 0 33 -4 60 -10
60 -6 0 -10 27 -10 60 l0 60 1396 0 c1517 0 1424 -4 1424 54 0 14 5 26 10 26
6 0 10 40 10 100 0 60 -4 100 -10 100 -5 0 -10 7 -10 16 0 20 -24 44 -44 44
-9 0 -16 5 -16 10 0 7 -480 10 -1420 10 l-1420 0 0 50 c0 28 -4 50 -10 50 -6
0 -10 27 -10 60 0 33 -4 60 -10 60 -5 0 -10 23 -10 50 0 28 -4 50 -10 50 -6 0
-10 27 -10 60 0 33 -4 60 -10 60 -6 0 -10 27 -10 60 0 33 -4 60 -10 60 -6 0
-10 27 -10 60 0 33 -4 60 -10 60 -5 0 -10 23 -10 50 0 28 -4 50 -10 50 -6 0
-10 27 -10 60 0 33 -4 60 -10 60 -6 0 -10 27 -10 60 0 33 -4 60 -10 60 -6 0
-10 27 -10 60 0 33 -4 60 -10 60 -6 0 -10 27 -10 60 0 33 4 60 10 60 6 0 10 9
10 20 0 11 -4 20 -10 20 -5 0 -10 18 -10 40 0 22 -4 40 -10 40 -5 0 -10 14
-10 30 0 17 -4 30 -10 30 -5 0 -10 14 -10 30 0 17 -4 30 -10 30 -5 0 -10 14
-10 30 0 17 -4 30 -10 30 -5 0 -10 9 -10 20 0 11 -4 20 -10 20 -5 0 -10 9 -10
20 0 11 -4 20 -10 20 -5 0 -10 14 -10 30 0 17 -4 30 -10 30 -5 0 -10 9 -10 20
0 11 -4 20 -10 20 -5 0 -10 9 -10 20 0 11 -4 20 -10 20 -5 0 -10 9 -10 20 0
11 -4 20 -10 20 -5 0 -10 9 -10 20 0 11 -4 20 -10 20 -5 0 -10 8 -10 18 0 10
-9 24 -20 32 -11 8 -20 22 -20 32 0 10 -4 18 -10 18 -5 0 -10 8 -10 18 0 10
-9 24 -20 32 -11 8 -20 21 -20 30 0 9 -9 22 -20 30 -11 8 -20 21 -20 30 0 9
-9 22 -20 30 -11 8 -20 21 -20 28 0 8 -13 27 -30 42 -16 15 -30 33 -30 40 0 6
-18 29 -40 50 -22 21 -40 43 -40 49 0 14 -346 361 -361 361 -5 0 -32 23 -59
50 -27 28 -54 50 -60 50 -7 0 -25 14 -40 30 -15 17 -34 30 -42 30 -7 0 -20 9
-28 20 -8 11 -21 20 -28 20 -8 0 -27 14 -42 30 -15 17 -35 30 -44 30 -9 0 -16
5 -16 10 0 6 -8 10 -18 10 -10 0 -24 9 -32 20 -8 11 -21 20 -30 20 -9 0 -22 9
-30 20 -8 11 -22 20 -32 20 -10 0 -18 5 -18 10 0 6 -9 10 -20 10 -11 0 -20 5
-20 10 0 6 -8 10 -18 10 -10 0 -24 9 -32 20 -8 11 -22 20 -32 20 -10 0 -18 5
-18 10 0 6 -9 10 -20 10 -11 0 -20 5 -20 10 0 6 -9 10 -20 10 -11 0 -20 5 -20
10 0 6 -9 10 -20 10 -11 0 -20 5 -20 10 0 6 -9 10 -20 10 -11 0 -20 5 -20 10
0 6 -13 10 -30 10 -16 0 -30 5 -30 10 0 6 -9 10 -20 10 -11 0 -20 5 -20 10 0
6 -9 10 -20 10 -11 0 -20 5 -20 10 0 6 -9 10 -20 10 -11 0 -20 5 -20 10 0 6
-13 10 -30 10 -16 0 -30 5 -30 10 0 6 -13 10 -30 10 -16 0 -30 5 -30 10 0 6
-9 10 -20 10 -11 0 -20 5 -20 10 0 6 -13 10 -30 10 -16 0 -30 5 -30 10 0 6
-13 10 -30 10 -16 0 -30 5 -30 10 0 6 -13 10 -30 10 -16 0 -30 5 -30 10 0 6
-18 10 -40 10 -22 0 -40 5 -40 10 0 6 -13 10 -30 10 -16 0 -30 5 -30 10 0 6
-18 10 -40 10 -22 0 -40 5 -40 10 0 6 -18 10 -40 10 -22 0 -40 5 -40 10 0 6
-22 10 -50 10 -27 0 -50 5 -50 10 0 6 -22 10 -50 10 -27 0 -50 5 -50 10 0 6
-22 10 -50 10 -27 0 -50 5 -50 10 0 6 -30 10 -70 10 -40 0 -70 4 -70 10 0 6
-40 10 -100 10 -60 0 -100 4 -100 10 0 6 -137 10 -390 10 -253 0 -390 -4 -390
-10 0 -6 -40 -10 -100 -10 -60 0 -100 -4 -100 -10 0 -6 -30 -10 -70 -10 -40 0
-70 -4 -70 -10 0 -6 -27 -10 -60 -10 -33 0 -60 -4 -60 -10 0 -5 -22 -10 -50
-10 -27 0 -50 -4 -50 -10 0 -5 -22 -10 -50 -10 -27 0 -50 -4 -50 -10 0 -5 -18
-10 -40 -10 -22 0 -40 -4 -40 -10 0 -5 -18 -10 -40 -10 -22 0 -40 -4 -40 -10
0 -5 -18 -10 -40 -10 -22 0 -40 -4 -40 -10 0 -5 -13 -10 -30 -10 -16 0 -30 -4
-30 -10 0 -5 -13 -10 -30 -10 -16 0 -30 -4 -30 -10 0 -5 -13 -10 -30 -10 -16
0 -30 -4 -30 -10 0 -5 -13 -10 -30 -10 -16 0 -30 -4 -30 -10 0 -5 -13 -10 -30
-10 -16 0 -30 -4 -30 -10 0 -5 -9 -10 -20 -10 -11 0 -20 -4 -20 -10 0 -5 -13
-10 -30 -10 -16 0 -30 -4 -30 -10 0 -5 -9 -10 -20 -10 -11 0 -20 -4 -20 -10 0
-5 -13 -10 -30 -10 -16 0 -30 -4 -30 -10 0 -5 -9 -10 -20 -10 -11 0 -20 -4
-20 -10 0 -5 -9 -10 -20 -10 -11 0 -20 -4 -20 -10 0 -5 -9 -10 -20 -10 -11 0
-20 -4 -20 -10 0 -5 -9 -10 -20 -10 -11 0 -20 -4 -20 -10 0 -5 -9 -10 -20 -10
-11 0 -20 -4 -20 -10 0 -5 -9 -10 -20 -10 -11 0 -20 -4 -20 -10 0 -5 -8 -10
-18 -10 -10 0 -24 -9 -32 -20 -8 -11 -22 -20 -32 -20 -10 0 -18 -4 -18 -10 0
-5 -9 -10 -20 -10 -11 0 -20 -4 -20 -10 0 -5 -8 -10 -18 -10 -10 0 -24 -9 -32
-20 -8 -11 -21 -20 -30 -20 -9 0 -22 -9 -30 -20 -8 -11 -21 -20 -30 -20 -9 0
-22 -9 -30 -20 -8 -11 -21 -20 -30 -20 -9 0 -22 -9 -30 -20 -8 -11 -21 -20
-28 -20 -8 0 -27 -13 -42 -30 -15 -16 -33 -30 -40 -30 -6 0 -29 -18 -50 -40
-21 -22 -43 -40 -49 -40 -7 0 -70 -58 -141 -130 -71 -71 -132 -130 -135 -130
-10 0 -115 -110 -115 -121 0 -6 -18 -28 -40 -49 -22 -21 -40 -44 -40 -50 0 -7
-13 -25 -30 -40 -16 -15 -30 -34 -30 -42 0 -7 -9 -20 -20 -28 -11 -8 -20 -21
-20 -30 0 -9 -9 -22 -20 -30 -11 -8 -20 -21 -20 -30 0 -9 -9 -22 -20 -30 -11
-8 -20 -22 -20 -32 0 -10 -4 -18 -10 -18 -5 0 -10 -9 -10 -20 0 -11 -4 -20
-10 -20 -5 0 -10 -8 -10 -18 0 -10 -9 -24 -20 -32 -11 -8 -20 -22 -20 -32 0
-10 -4 -18 -10 -18 -5 0 -10 -9 -10 -20 0 -11 -4 -20 -10 -20 -5 0 -10 -9 -10
-20 0 -11 -4 -20 -10 -20 -5 0 -10 -9 -10 -20 0 -11 -4 -20 -10 -20 -5 0 -10
-13 -10 -30 0 -16 -4 -30 -10 -30 -5 0 -10 -9 -10 -20 0 -11 -4 -20 -10 -20
-5 0 -10 -9 -10 -20 0 -11 -4 -20 -10 -20 -5 0 -10 -13 -10 -30 0 -16 -4 -30
-10 -30 -5 0 -10 -13 -10 -30 0 -16 -4 -30 -10 -30 -5 0 -10 -13 -10 -30 0
-23 -4 -30 -20 -30 -13 0 -20 -7 -20 -20 0 -11 -4 -20 -10 -20 -6 0 -10 -27
-10 -60 0 -33 -4 -60 -10 -60 -6 0 -10 -27 -10 -60 0 -33 -4 -60 -10 -60 -6 0
-10 -27 -10 -60 0 -33 -4 -60 -10 -60 -5 0 -10 -22 -10 -50 0 -27 -4 -50 -10
-50 -6 0 -10 -27 -10 -60 0 -33 -4 -60 -10 -60 -6 0 -10 -27 -10 -60 0 -33 -4
-60 -10 -60 -5 0 -10 -22 -10 -50 0 -27 -4 -50 -10 -50 -6 0 -10 -27 -10 -60
0 -33 -4 -60 -10 -60 -6 0 -10 -27 -10 -60 0 -33 -4 -60 -10 -60 -5 0 -10 -22
-10 -50 0 -27 -4 -50 -10 -50 -6 0 -10 -27 -10 -60 0 -33 -4 -60 -10 -60 -6 0
-10 -27 -10 -60 0 -33 -4 -60 -10 -60 -5 0 -10 -22 -10 -50 0 -27 -4 -50 -10
-50 -6 0 -10 -27 -10 -60 0 -33 -4 -60 -10 -60 -6 0 -10 -27 -10 -60 0 -33 -4
-60 -10 -60 -5 0 -10 -22 -10 -50 0 -27 -4 -50 -10 -50 -6 0 -10 -27 -10 -60
0 -33 -4 -60 -10 -60 -6 0 -10 -27 -10 -60 0 -33 -4 -60 -10 -60 -5 0 -10 -22
-10 -50 0 -27 -4 -50 -10 -50 -6 0 -10 -27 -10 -60 0 -33 -4 -60 -10 -60 -6 0
-10 -27 -10 -60 0 -33 -4 -60 -10 -60 -5 0 -10 -22 -10 -50 0 -27 -4 -50 -10
-50 -6 0 -10 -27 -10 -60 0 -33 -4 -60 -10 -60 -6 0 -10 -27 -10 -60 0 -33 -4
-60 -10 -60 -5 0 -10 -22 -10 -50 0 -27 -4 -50 -10 -50 -6 0 -10 -27 -10 -60
0 -33 -4 -60 -10 -60 -6 0 -10 -27 -10 -60 0 -33 -4 -60 -10 -60 -5 0 -10 -22
-10 -50 0 -27 -4 -50 -10 -50 -6 0 -10 -27 -10 -60 0 -33 -4 -60 -10 -60 -6 0
-10 -27 -10 -60 0 -33 -4 -60 -10 -60 -5 0 -10 -22 -10 -50 0 -27 -4 -50 -10
-50 -6 0 -10 -27 -10 -60 0 -33 -4 -60 -10 -60 -6 0 -10 -27 -10 -60 0 -33 -4
-60 -10 -60 -5 0 -10 -22 -10 -50 0 -27 -4 -50 -10 -50 -6 0 -10 -27 -10 -60
0 -33 -4 -60 -10 -60 -6 0 -10 -27 -10 -60 0 -33 -4 -60 -10 -60 -5 0 -10 -22
-10 -50 0 -27 -4 -50 -10 -50 -6 0 -10 -27 -10 -60 0 -33 -4 -60 -10 -60 -6 0
-10 -27 -10 -60 0 -33 -4 -60 -10 -60 -5 0 -10 -22 -10 -50 0 -27 -4 -50 -10
-50 -6 0 -10 -27 -10 -60 0 -33 -4 -60 -10 -60 -6 0 -10 -27 -10 -60 0 -33 -4
-60 -10 -60 -5 0 -10 -22 -10 -50 0 -27 -4 -50 -10 -50 -14 0 -12 -38 3 -43 8
-3 5 -11 -10 -24 -13 -11 -23 -26 -23 -32 0 -7 -27 -39 -60 -71 -33 -32 -60
-64 -60 -70 0 -6 -22 -33 -50 -60 -27 -27 -50 -54 -50 -60 0 -6 -27 -38 -60
-70 -33 -32 -60 -64 -60 -70 0 -6 -27 -38 -60 -70 -33 -32 -60 -64 -60 -70 0
-6 -27 -38 -60 -70 -33 -32 -60 -64 -60 -70 0 -6 -27 -38 -60 -70 -33 -32 -60
-64 -60 -70 0 -6 -27 -38 -60 -70 -33 -32 -60 -64 -60 -70 0 -6 -22 -33 -50
-60 -27 -27 -50 -54 -50 -60 0 -6 -27 -38 -60 -70 -33 -32 -60 -64 -60 -70 0
-6 -27 -38 -60 -70 -33 -32 -60 -64 -60 -70 0 -6 -18 -29 -40 -50 -22 -21 -40
-46 -40 -54 0 -9 -4 -16 -10 -16 -5 0 -10 -9 -10 -20 0 -11 -4 -20 -10 -20 -5
0 -10 -9 -10 -20 0 -11 -4 -20 -10 -20 -5 0 -10 -13 -10 -30 0 -16 -4 -30 -10
-30 -6 0 -10 -43 -10 -110 0 -67 4 -110 10 -110 6 0 10 -18 10 -40 0 -22 5
-40 10 -40 6 0 10 -9 10 -20 0 -11 5 -20 10 -20 6 0 10 -8 10 -18 0 -10 9 -24
20 -32 11 -8 20 -20 20 -27 0 -16 85 -103 100 -103 6 0 38 -27 70 -60 32 -33
64 -60 70 -60 6 0 29 -18 50 -40 21 -22 46 -40 54 -40 9 0 16 -4 16 -10 0 -5
9 -10 20 -10 11 0 20 -4 20 -10 0 -5 14 -10 30 -10 17 0 30 -4 30 -10 0 -5 14
-10 30 -10 17 0 30 -4 30 -10 0 -6 33 -10 80 -10 47 0 80 4 80 10 0 6 14 10
30 10 l30 0 0 330 c0 213 4 330 10 330 6 0 10 37 10 90 0 53 4 90 10 90 6 0
10 23 10 50 0 28 5 50 10 50 6 0 10 18 10 40 0 22 5 40 10 40 6 0 10 14 10 30
0 17 5 30 10 30 6 0 10 9 10 20 0 11 5 20 10 20 6 0 10 14 10 30 0 17 5 30 10
30 6 0 10 9 10 20 0 11 5 20 10 20 6 0 10 9 10 20 0 11 5 20 10 20 6 0 10 8
10 18 0 10 9 24 20 32 11 8 20 21 20 30 0 9 9 22 20 30 11 8 20 21 20 28 0 8
14 27 30 42 17 15 30 33 30 39 0 15 186 201 201 201 6 0 24 14 39 30 15 17 34
30 42 30 7 0 20 9 28 20 8 11 21 20 30 20 9 0 22 9 30 20 8 11 22 20 32 20 10
0 18 5 18 10 0 6 9 10 20 10 11 0 20 5 20 10 0 6 9 10 20 10 11 0 20 5 20 10
0 6 9 10 20 10 11 0 20 5 20 10 0 6 14 10 30 10 17 0 30 5 30 10 0 6 14 10 30
10 17 0 30 5 30 10 0 6 14 10 30 10 17 0 30 5 30 10 0 6 23 10 50 10 28 0 50
5 50 10 0 6 30 10 70 10 40 0 70 4 70 10 0 7 1142 10 3405 10 2263 0 3405 -3
3405 -10 0 -6 33 -10 80 -10 47 0 80 -4 80 -10 0 -5 18 -10 40 -10 22 0 40 -4
40 -10 0 -5 18 -10 40 -10 22 0 40 -4 40 -10 0 -5 9 -10 20 -10 11 0 20 -4 20
-10 0 -5 14 -10 30 -10 17 0 30 -4 30 -10 0 -5 9 -10 20 -10 11 0 20 -4 20
-10 0 -5 9 -10 20 -10 11 0 20 -4 20 -10 0 -5 9 -10 20 -10 11 0 20 -4 20 -10
0 -5 9 -10 20 -10 11 0 20 -4 20 -10 0 -5 8 -10 18 -10 10 0 24 -9 32 -20 8
-11 21 -20 30 -20 9 0 22 -9 30 -20 8 -11 20 -20 27 -20 17 0 283 -266 283
-283 0 -7 9 -19 20 -27 11 -8 20 -21 20 -30 0 -9 9 -22 20 -30 11 -8 20 -20
20 -28 0 -17 45 -62 62 -62 8 0 20 -9 28 -20 8 -11 22 -20 32 -20 10 0 18 -4
18 -10 0 -5 9 -10 20 -10 11 0 20 -4 20 -10 0 -5 8 -10 18 -10 10 0 24 -9 32
-20 8 -11 22 -20 32 -20 10 0 18 -4 18 -10 0 -5 9 -10 20 -10 11 0 20 -4 20
-10 0 -5 8 -10 18 -10 10 0 24 -9 32 -20 8 -11 22 -20 32 -20 10 0 18 -4 18
-10 0 -5 8 -10 18 -10 10 0 24 -9 32 -20 8 -11 22 -20 32 -20 10 0 18 -4 18
-10 0 -5 9 -10 20 -10 11 0 20 -4 20 -10 0 -5 8 -10 18 -10 10 0 24 -9 32 -20
8 -11 22 -20 32 -20 10 0 18 -4 18 -10 0 -5 9 -10 20 -10 11 0 20 -4 20 -10 0
-5 8 -10 18 -10 10 0 24 -9 32 -20 8 -11 22 -20 32 -20 10 0 18 -4 18 -10 0
-5 14 -10 30 -10 17 0 30 -4 30 -10 0 -5 23 -10 50 -10 28 0 50 -4 50 -10 0
-6 53 -10 140 -10 87 0 140 -4 140 -10 0 -5 23 -10 50 -10 28 0 50 -4 50 -10
0 -6 27 -10 60 -10 33 0 60 -4 60 -10 0 -6 27 -10 60 -10 33 0 60 -4 60 -10 0
-6 27 -10 60 -10 33 0 60 -4 60 -10 0 -6 27 -10 60 -10 33 0 60 -4 60 -10 0
-6 27 -10 60 -10 33 0 60 -4 60 -10 0 -6 27 -10 60 -10 33 0 60 -4 60 -10 0
-6 27 -10 60 -10 33 0 60 -4 60 -10 0 -6 27 -10 60 -10 33 0 60 -4 60 -10 0
-6 27 -10 60 -10 33 0 60 -4 60 -10 0 -6 27 -10 60 -10 33 0 60 -4 60 -10 0
-6 27 -10 60 -10 33 0 60 -4 60 -10 0 -6 50 -10 130 -10 80 0 130 4 130 10 0
6 14 10 30 10 17 0 30 5 30 10 0 6 9 10 20 10 11 0 20 5 20 10 0 6 9 10 20 10
11 0 20 5 20 10 0 6 7 10 15 10 19 0 125 104 125 123 0 7 9 19 20 27 11 8 20
22 20 32 0 10 5 18 10 18 6 0 10 9 10 20 0 11 5 20 10 20 6 0 10 18 10 40 0
22 5 40 10 40 6 0 10 27 10 60 0 33 4 60 10 60 6 0 10 37 10 90 0 53 -4 90
-10 90 -5 0 -10 18 -10 40 0 22 -4 40 -10 40 -5 0 -10 14 -10 30 0 17 -4 30
-10 30 -5 0 -10 8 -10 18 0 10 -9 24 -20 32 -11 8 -20 20 -20 27 0 17 -86 103
-103 103 -7 0 -19 9 -27 20 -8 11 -22 20 -32 20 -10 0 -18 5 -18 10 0 6 -9 10
-20 10 -11 0 -20 5 -20 10 0 6 -18 10 -40 10 -22 0 -40 5 -40 10 0 6 -27 10
-60 10 -33 0 -60 4 -60 10 0 6 -27 10 -60 10 -33 0 -60 4 -60 10 0 6 -27 10
-60 10 -33 0 -60 4 -60 10 0 6 -27 10 -60 10 -33 0 -60 4 -60 10 0 6 -27 10
-60 10 -33 0 -60 4 -60 10 0 6 -27 10 -60 10 -33 0 -60 4 -60 10 0 6 -27 10
-60 10 -33 0 -60 4 -60 10 0 6 -22 10 -50 10 -27 0 -50 5 -50 10 0 6 -30 10
-70 10 -40 0 -70 4 -70 10 0 6 -27 10 -60 10 -33 0 -60 4 -60 10 0 6 -27 10
-60 10 -33 0 -60 4 -60 10 0 6 -22 10 -50 10 -27 0 -50 5 -50 10 0 6 -27 10
-60 10 -33 0 -60 4 -60 10 0 6 -27 10 -60 10 -33 0 -60 4 -60 10 0 6 -22 10
-50 10 -27 0 -50 5 -50 10 0 6 -13 10 -28 10 -16 0 -34 8 -42 20 -8 11 -22 20
-32 20 -10 0 -18 5 -18 10 0 6 -9 10 -20 10 -11 0 -20 5 -20 10 0 6 -8 10 -18
10 -10 0 -24 9 -32 20 -8 11 -22 20 -32 20 -10 0 -18 5 -18 10 0 6 -9 10 -20
10 -11 0 -20 5 -20 10 0 6 -8 10 -18 10 -10 0 -24 9 -32 20 -8 11 -22 20 -32
20 -10 0 -18 5 -18 10 0 6 -9 10 -20 10 -11 0 -20 5 -20 10 0 6 -8 10 -18 10
-10 0 -24 9 -32 20 -8 11 -22 20 -32 20 -10 0 -18 5 -18 10 0 6 -8 10 -18 10
-10 0 -24 9 -32 20 -8 11 -22 20 -32 20 -10 0 -18 5 -18 10 0 6 -9 10 -20 10
-11 0 -20 5 -20 10 0 6 -8 10 -18 10 -10 0 -24 9 -32 20 -8 11 -22 20 -32 20
-10 0 -18 5 -18 10 0 6 -9 10 -20 10 -11 0 -20 5 -20 10 0 6 -8 10 -18 10 -10
0 -24 9 -32 20 -8 11 -22 20 -32 20 -10 0 -18 5 -18 10 0 6 -9 10 -20 10 -11
0 -20 5 -20 10 0 6 -9 10 -20 10 -16 0 -20 7 -20 30 0 17 -4 30 -10 30 -6 0
-10 27 -10 60 0 33 -4 60 -10 60 -5 0 -10 23 -10 50 0 28 -4 50 -10 50 -6 0
-10 27 -10 60 0 33 -4 60 -10 60 -6 0 -10 27 -10 60 0 33 -4 60 -10 60 -6 0
-10 27 -10 60 0 33 -4 60 -10 60 -5 0 -10 23 -10 50 0 28 -4 50 -10 50 -6 0
-10 27 -10 60 0 33 -4 60 -10 60 -6 0 -10 27 -10 60 0 33 -4 60 -10 60 -6 0
-10 27 -10 60 0 33 -4 60 -10 60 -5 0 -10 23 -10 50 0 28 -4 50 -10 50 -5 0
-10 18 -10 40 l0 40 7635 0 7635 0 0 4780 c0 3180 -3 4780 -10 4780 -5 0 -10
14 -10 30 0 17 -4 30 -10 30 -5 0 -10 14 -10 30 0 17 -4 30 -10 30 -5 0 -10 8
-10 18 0 10 -9 24 -20 32 -11 8 -20 20 -20 27 0 19 -146 163 -165 163 -8 0
-15 5 -15 10 0 6 -9 10 -20 10 -11 0 -20 5 -20 10 0 6 -13 10 -30 10 -16 0
-30 5 -30 10 0 7 -1007 10 -3000 10 -1993 0 -3000 3 -3000 10 0 6 -113 10
-320 10 -207 0 -320 -4 -320 -10z"/>
<path d="M45860 25320 c0 -6 -40 -10 -100 -10 -60 0 -100 -4 -100 -10 0 -6
-40 -10 -100 -10 -60 0 -100 -4 -100 -10 0 -6 -43 -10 -110 -10 -67 0 -110 -4
-110 -10 0 -6 -40 -10 -100 -10 -60 0 -100 -4 -100 -10 0 -6 -40 -10 -100 -10
-60 0 -100 -4 -100 -10 0 -6 -40 -10 -100 -10 -60 0 -100 -4 -100 -10 0 -6
-43 -10 -110 -10 -67 0 -110 -4 -110 -10 0 -6 -40 -10 -100 -10 -60 0 -100 -4
-100 -10 0 -6 -40 -10 -100 -10 -60 0 -100 -4 -100 -10 0 -6 -40 -10 -100 -10
-60 0 -100 -4 -100 -10 0 -6 -43 -10 -110 -10 -67 0 -110 -4 -110 -10 0 -6
-40 -10 -100 -10 -60 0 -100 -4 -100 -10 0 -6 -40 -10 -100 -10 -60 0 -100 -4
-100 -10 0 -6 -40 -10 -100 -10 -60 0 -100 -4 -100 -10 0 -6 -43 -10 -110 -10
-67 0 -110 -4 -110 -10 0 -6 -40 -10 -100 -10 -60 0 -100 -4 -100 -10 0 -6
-40 -10 -100 -10 -60 0 -100 -4 -100 -10 0 -6 -40 -10 -100 -10 -60 0 -100 -4
-100 -10 0 -6 -43 -10 -110 -10 -99 0 -110 -2 -110 -18 0 -10 9 -24 20 -32 11
-8 20 -21 20 -30 0 -9 9 -22 20 -30 11 -8 20 -21 20 -28 0 -8 14 -27 30 -42
17 -15 30 -34 30 -42 0 -7 9 -20 20 -28 11 -8 20 -21 20 -28 0 -8 14 -27 30
-42 17 -15 30 -33 30 -40 0 -7 14 -25 30 -40 17 -15 30 -34 30 -42 0 -7 9 -20
20 -28 11 -8 20 -21 20 -30 0 -9 9 -22 20 -30 11 -8 20 -21 20 -28 0 -8 14
-27 30 -42 17 -15 30 -33 30 -40 0 -7 14 -25 30 -40 17 -15 30 -34 30 -42 0
-7 9 -20 20 -28 11 -8 20 -21 20 -28 0 -8 14 -27 30 -42 17 -15 30 -34 30 -42
0 -7 9 -20 20 -28 11 -8 20 -21 20 -28 0 -8 14 -27 30 -42 17 -15 30 -34 30
-42 0 -7 9 -20 20 -28 11 -8 20 -21 20 -28 0 -8 14 -27 30 -42 17 -15 30 -34
30 -42 0 -7 9 -20 20 -28 11 -8 20 -21 20 -28 0 -8 14 -27 30 -42 17 -15 30
-34 30 -42 0 -7 9 -20 20 -28 11 -8 20 -21 20 -28 0 -8 14 -27 30 -42 17 -15
30 -34 30 -42 0 -7 9 -20 20 -28 11 -8 20 -21 20 -28 0 -8 14 -27 30 -42 17
-15 30 -33 30 -40 0 -7 14 -25 30 -40 17 -15 30 -34 30 -42 0 -7 9 -20 20 -28
11 -8 20 -21 20 -28 0 -8 14 -27 30 -42 17 -15 30 -34 30 -42 0 -7 9 -20 20
-28 11 -8 20 -21 20 -28 0 -8 14 -27 30 -42 17 -15 30 -34 30 -42 0 -7 9 -20
20 -28 11 -8 20 -21 20 -28 0 -8 14 -27 30 -42 17 -15 30 -33 30 -40 0 -7 14
-25 30 -40 17 -15 30 -34 30 -42 0 -7 9 -20 20 -28 11 -8 20 -21 20 -28 0 -8
14 -27 30 -42 17 -15 30 -34 30 -42 0 -7 9 -20 20 -28 11 -8 20 -21 20 -28 0
-8 14 -27 30 -42 17 -15 30 -34 30 -42 0 -7 9 -20 20 -28 11 -8 20 -21 20 -28
0 -8 14 -27 30 -42 17 -15 30 -34 30 -42 0 -7 9 -20 20 -28 11 -8 20 -21 20
-28 0 -8 14 -27 30 -42 17 -15 30 -34 30 -42 0 -7 9 -20 20 -28 11 -8 20 -21
20 -28 0 -8 14 -27 30 -42 17 -15 30 -34 30 -42 0 -7 9 -20 20 -28 11 -8 20
-21 20 -28 0 -8 14 -27 30 -42 17 -15 30 -34 30 -42 0 -7 9 -20 20 -28 11 -8
20 -21 20 -28 0 -8 14 -27 30 -42 17 -15 30 -34 30 -42 0 -7 9 -20 20 -28 11
-8 20 -21 20 -28 0 -8 14 -27 30 -42 17 -15 30 -33 30 -40 0 -7 14 -25 30 -40
17 -15 30 -34 30 -42 0 -7 9 -20 20 -28 11 -8 20 -21 20 -28 0 -8 14 -27 30
-42 17 -15 30 -34 30 -42 0 -7 9 -20 20 -28 11 -8 20 -21 20 -28 0 -8 14 -27
30 -42 17 -15 30 -34 30 -42 0 -7 9 -20 20 -28 11 -8 20 -21 20 -28 0 -8 14
-27 30 -42 17 -15 30 -35 30 -44 0 -9 3 -16 6 -16 11 0 34 29 34 44 0 9 5 16
10 16 6 0 10 8 10 18 0 10 9 24 20 32 11 8 20 22 20 32 0 10 5 18 10 18 6 0
10 9 10 20 0 11 5 20 10 20 6 0 10 8 10 18 0 10 9 24 20 32 11 8 20 22 20 32
0 10 5 18 10 18 6 0 10 9 10 20 0 11 5 20 10 20 6 0 10 8 10 18 0 10 9 24 20
32 11 8 20 22 20 32 0 10 5 18 10 18 6 0 10 8 10 18 0 10 9 24 20 32 11 8 20
22 20 32 0 10 5 18 10 18 6 0 10 9 10 20 0 11 5 20 10 20 6 0 10 8 10 18 0 10
9 24 20 32 11 8 20 22 20 32 0 10 5 18 10 18 6 0 10 8 10 18 0 10 9 24 20 32
11 8 20 22 20 32 0 10 5 18 10 18 6 0 10 9 10 20 0 11 5 20 10 20 6 0 10 8 10
18 0 10 9 24 20 32 11 8 20 22 20 32 0 10 5 18 10 18 6 0 10 8 10 18 0 10 9
24 20 32 11 8 20 22 20 32 0 10 5 18 10 18 6 0 10 9 10 20 0 11 5 20 10 20 6
0 10 8 10 18 0 10 9 24 20 32 11 8 20 22 20 32 0 10 5 18 10 18 6 0 10 9 10
20 0 11 5 20 10 20 6 0 10 8 10 18 0 10 9 24 20 32 11 8 20 22 20 32 0 10 5
18 10 18 6 0 10 8 10 18 0 10 9 24 20 32 11 8 20 22 20 32 0 10 5 18 10 18 6
0 10 9 10 20 0 11 5 20 10 20 6 0 10 8 10 18 0 10 9 24 20 32 11 8 20 22 20
32 0 10 5 18 10 18 6 0 10 8 10 18 0 10 9 24 20 32 11 8 20 22 20 32 0 10 5
18 10 18 6 0 10 9 10 20 0 11 5 20 10 20 6 0 10 8 10 18 0 10 9 24 20 32 11 8
20 22 20 32 0 10 5 18 10 18 6 0 10 8 10 18 0 10 9 24 20 32 11 8 20 22 20 32
0 10 5 18 10 18 6 0 10 9 10 20 0 11 5 20 10 20 6 0 10 8 10 18 0 10 9 24 20
32 11 8 20 22 20 32 0 10 5 18 10 18 6 0 10 9 10 20 0 11 5 20 10 20 6 0 10 8
10 18 0 10 9 24 20 32 11 8 20 22 20 32 0 10 5 18 10 18 6 0 10 8 10 18 0 10
9 24 20 32 11 8 20 20 20 28 0 7 7 20 15 28 13 14 17 14 30 0 8 -8 15 -22 15
-30 0 -9 5 -16 10 -16 6 0 10 -8 10 -18 0 -10 9 -24 20 -32 11 -8 20 -21 20
-30 0 -9 9 -22 20 -30 11 -8 20 -21 20 -30 0 -9 9 -22 20 -30 11 -8 20 -21 20
-30 0 -9 9 -22 20 -30 11 -8 20 -21 20 -30 0 -9 9 -22 20 -30 11 -8 20 -22 20
-32 0 -10 5 -18 10 -18 6 0 10 -8 10 -18 0 -10 9 -24 20 -32 11 -8 20 -21 20
-30 0 -9 9 -22 20 -30 11 -8 20 -21 20 -30 0 -9 9 -22 20 -30 11 -8 20 -21 20
-30 0 -9 9 -22 20 -30 11 -8 20 -22 20 -32 0 -10 5 -18 10 -18 6 0 10 -8 10
-18 0 -10 9 -24 20 -32 11 -8 20 -21 20 -30 0 -9 9 -22 20 -30 11 -8 20 -21
20 -30 0 -9 9 -22 20 -30 11 -8 20 -21 20 -30 0 -9 9 -22 20 -30 11 -8 20 -21
20 -30 0 -9 9 -22 20 -30 11 -8 20 -22 20 -32 0 -10 5 -18 10 -18 6 0 10 -8
10 -18 0 -10 9 -24 20 -32 11 -8 20 -21 20 -30 0 -9 9 -22 20 -30 11 -8 20
-21 20 -30 0 -9 9 -22 20 -30 11 -8 20 -21 20 -30 0 -9 9 -22 20 -30 11 -8 20
-22 20 -32 0 -10 5 -18 10 -18 6 0 10 -8 10 -18 0 -10 9 -24 20 -32 11 -8 20
-21 20 -30 0 -9 9 -22 20 -30 11 -8 20 -21 20 -30 0 -9 9 -22 20 -30 11 -8 20
-21 20 -30 0 -9 9 -22 20 -30 11 -8 20 -21 20 -30 0 -9 9 -22 20 -30 11 -8 20
-22 20 -32 0 -10 5 -18 10 -18 6 0 10 -8 10 -18 0 -10 9 -24 20 -32 11 -8 20
-21 20 -30 0 -9 9 -22 20 -30 11 -8 20 -21 20 -30 0 -9 9 -22 20 -30 11 -8 20
-21 20 -30 0 -9 9 -22 20 -30 11 -8 20 -22 20 -32 0 -10 5 -18 10 -18 6 0 10
-8 10 -18 0 -10 9 -24 20 -32 11 -8 20 -21 20 -30 0 -9 9 -22 20 -30 11 -8 20
-22 20 -32 0 -10 5 -18 11 -18 15 0 39 -26 39 -42 0 -8 9 -20 20 -28 11 -8 20
-21 20 -30 0 -9 9 -22 20 -30 11 -8 20 -22 20 -32 0 -10 5 -18 10 -18 6 0 10
-8 10 -18 0 -10 9 -24 20 -32 11 -8 20 -21 20 -30 0 -9 9 -22 20 -30 11 -8 20
-21 20 -30 0 -9 9 -22 20 -30 11 -8 20 -21 20 -30 0 -9 9 -22 20 -30 11 -8 20
-21 20 -30 0 -9 9 -22 20 -30 11 -8 20 -22 20 -32 0 -10 5 -18 10 -18 6 0 10
-8 10 -18 0 -10 9 -24 20 -32 11 -8 20 -21 20 -30 0 -9 9 -22 20 -30 11 -8 20
-21 20 -30 0 -9 9 -22 20 -30 11 -8 20 -21 20 -30 0 -9 9 -22 20 -30 11 -8 20
-22 20 -32 0 -10 5 -18 10 -18 6 0 10 -8 10 -18 0 -10 9 -24 20 -32 11 -8 20
-21 20 -30 0 -9 9 -22 20 -30 11 -8 20 -21 20 -30 0 -9 9 -22 20 -30 11 -8 20
-21 20 -30 0 -9 9 -22 20 -30 11 -8 20 -21 20 -30 0 -9 9 -22 20 -30 11 -8 20
-22 20 -32 0 -10 5 -18 10 -18 6 0 10 -8 10 -18 0 -10 9 -24 20 -32 11 -8 20
-21 20 -30 0 -9 9 -22 20 -30 11 -8 20 -21 20 -30 0 -9 9 -22 20 -30 11 -8 20
-21 20 -30 0 -9 9 -22 20 -30 11 -8 20 -22 20 -32 0 -10 5 -18 10 -18 6 0 10
-8 10 -18 0 -10 9 -24 20 -32 11 -8 20 -21 20 -30 0 -9 9 -22 20 -30 11 -8 20
-21 20 -30 0 -9 9 -22 20 -30 11 -8 20 -21 20 -30 0 -9 9 -22 20 -30 11 -8 20
-21 20 -30 0 -9 9 -22 20 -30 11 -8 20 -22 20 -32 0 -10 5 -18 10 -18 6 0 10
-8 10 -18 0 -10 9 -24 20 -32 11 -8 20 -21 20 -30 0 -9 9 -22 20 -30 11 -8 20
-21 20 -30 0 -9 9 -22 20 -30 11 -8 20 -18 20 -22 0 -4 -94 -8 -210 -8 l-210
0 0 -120 0 -120 40 0 c32 0 40 -4 40 -18 0 -10 -9 -24 -20 -32 -11 -8 -20 -22
-20 -32 0 -10 -4 -18 -10 -18 -5 0 -10 -9 -10 -20 0 -11 -4 -20 -10 -20 -5 0
-10 -8 -10 -18 0 -10 -9 -24 -20 -32 -11 -8 -20 -22 -20 -32 0 -10 -4 -18 -10
-18 -5 0 -10 -8 -10 -18 0 -10 -9 -24 -20 -32 -11 -8 -20 -22 -20 -32 0 -10
-4 -18 -10 -18 -5 0 -10 -9 -10 -20 0 -11 -4 -20 -10 -20 -5 0 -10 -8 -10 -18
0 -10 -9 -24 -20 -32 -11 -8 -20 -22 -20 -32 0 -10 -4 -18 -10 -18 -5 0 -10
-8 -10 -18 0 -10 -9 -24 -20 -32 -11 -8 -20 -22 -20 -32 0 -10 -4 -18 -10 -18
-5 0 -10 -9 -10 -20 0 -11 -4 -20 -10 -20 -5 0 -10 -8 -10 -18 0 -10 -9 -24
-20 -32 -11 -8 -20 -22 -20 -32 0 -10 -4 -18 -10 -18 -5 0 -10 -8 -10 -18 0
-10 -9 -24 -20 -32 -11 -8 -20 -22 -20 -32 0 -10 -4 -18 -10 -18 -5 0 -10 -9
-10 -20 0 -11 -4 -20 -10 -20 -5 0 -10 -8 -10 -18 0 -10 -9 -24 -20 -32 -11
-8 -20 -22 -20 -32 0 -10 -4 -18 -10 -18 -5 0 -10 -8 -10 -18 0 -10 -9 -24
-20 -32 -11 -8 -20 -22 -20 -32 0 -10 -4 -18 -10 -18 -5 0 -10 -9 -10 -20 0
-11 -4 -20 -10 -20 -5 0 -10 -8 -10 -18 0 -10 -9 -24 -20 -32 -11 -8 -20 -22
-20 -32 0 -10 -4 -18 -10 -18 -5 0 -10 -8 -10 -18 0 -10 -9 -24 -20 -32 -11
-8 -20 -22 -20 -32 0 -10 -4 -18 -10 -18 -5 0 -10 -8 -10 -18 0 -10 -9 -24
-20 -32 -11 -8 -20 -22 -20 -32 0 -10 -4 -18 -10 -18 -5 0 -10 -9 -10 -20 0
-11 -4 -20 -10 -20 -5 0 -10 -8 -10 -18 0 -10 -9 -24 -20 -32 -11 -8 -20 -22
-20 -32 0 -10 -4 -18 -10 -18 -5 0 -10 -7 -10 -16 0 -18 -23 -44 -39 -44 -6 0
-11 -9 -11 -20 0 -11 -4 -20 -10 -20 -5 0 -10 -9 -10 -20 0 -11 -4 -20 -10
-20 -5 0 -10 -8 -10 -18 0 -10 -9 -24 -20 -32 -11 -8 -20 -22 -20 -32 0 -10
-4 -18 -10 -18 -5 0 -10 -8 -10 -18 0 -10 -9 -24 -20 -32 -11 -8 -20 -22 -20
-32 0 -10 -4 -18 -10 -18 -5 0 -10 -9 -10 -20 0 -11 -4 -20 -10 -20 -5 0 -10
-8 -10 -18 0 -10 -9 -24 -20 -32 -11 -8 -20 -22 -20 -32 0 -10 -4 -18 -10 -18
-5 0 -10 -8 -10 -18 0 -10 -9 -24 -20 -32 -11 -8 -20 -22 -20 -32 0 -10 -4
-18 -10 -18 -5 0 -10 -9 -10 -20 0 -11 -4 -20 -10 -20 -5 0 -10 -8 -10 -18 0
-10 -9 -24 -20 -32 -11 -8 -20 -22 -20 -32 0 -10 -4 -18 -10 -18 -5 0 -10 -8
-10 -18 0 -10 -9 -24 -20 -32 -11 -8 -20 -22 -20 -32 0 -10 -4 -18 -10 -18 -5
0 -10 -9 -10 -20 0 -11 -4 -20 -10 -20 -5 0 -10 -8 -10 -18 0 -10 -9 -24 -20
-32 -11 -8 -20 -22 -20 -32 0 -10 -4 -18 -10 -18 -5 0 -10 -8 -10 -18 0 -10
-9 -24 -20 -32 -11 -8 -20 -22 -20 -32 0 -10 -4 -18 -10 -18 -5 0 -10 -9 -10
-20 0 -11 -4 -20 -10 -20 -5 0 -10 -8 -10 -18 0 -10 -9 -24 -20 -32 -11 -8
-20 -22 -20 -32 0 -10 -4 -18 -10 -18 -5 0 -10 -8 -10 -18 0 -10 -9 -24 -20
-32 -11 -8 -20 -22 -20 -32 0 -10 -4 -18 -10 -18 -5 0 -10 -8 -10 -18 0 -10
-9 -24 -20 -32 -11 -8 -20 -22 -20 -32 0 -10 -4 -18 -10 -18 -5 0 -10 -9 -10
-20 0 -11 -4 -20 -10 -20 -5 0 -10 -8 -10 -18 0 -10 -9 -24 -20 -32 -11 -8
-20 -22 -20 -32 0 -10 -4 -18 -10 -18 -5 0 -10 -8 -10 -18 0 -10 -9 -24 -20
-32 -11 -8 -20 -22 -20 -32 0 -10 -4 -18 -10 -18 -5 0 -10 -9 -10 -20 0 -11
-4 -20 -10 -20 -5 0 -10 -8 -10 -18 0 -10 -9 -24 -20 -32 -11 -8 -20 -22 -20
-32 0 -10 -4 -18 -10 -18 -5 0 -10 -8 -10 -18 0 -10 -9 -24 -20 -32 -11 -8
-20 -22 -20 -32 0 -10 -4 -18 -10 -18 -5 0 -10 -9 -10 -20 0 -11 -4 -20 -10
-20 -5 0 -10 -8 -10 -18 0 -10 -9 -24 -20 -32 -11 -8 -20 -22 -20 -32 0 -10
-4 -18 -10 -18 -5 0 -10 -8 -10 -18 0 -10 -9 -24 -20 -32 -11 -8 -20 -22 -20
-32 0 -10 -4 -18 -10 -18 -5 0 -10 -9 -10 -20 0 -11 -4 -20 -10 -20 -5 0 -10
-8 -10 -18 0 -10 -9 -24 -20 -32 -11 -8 -20 -22 -20 -32 0 -10 -4 -18 -10 -18
-5 0 -10 -8 -10 -18 0 -10 -9 -24 -20 -32 -11 -8 -20 -22 -20 -32 0 -10 -4
-18 -10 -18 -5 0 -10 -9 -10 -20 0 -11 -4 -20 -10 -20 -5 0 -10 -8 -10 -18 0
-10 -9 -24 -20 -32 -11 -8 -20 -22 -20 -32 0 -10 -4 -18 -10 -18 -5 0 -10 -8
-10 -18 0 -10 -9 -24 -20 -32 -11 -8 -20 -22 -20 -32 0 -10 -4 -18 -10 -18 -5
0 -10 -8 -10 -18 0 -10 -9 -24 -20 -32 -11 -8 -20 -22 -20 -32 0 -10 -4 -18
-10 -18 -5 0 -10 -9 -10 -20 0 -11 -4 -20 -10 -20 -5 0 -10 -8 -10 -18 0 -10
-9 -24 -20 -32 -11 -8 -20 -22 -20 -32 0 -10 -4 -18 -10 -18 -5 0 -10 -8 -10
-18 0 -10 -9 -24 -20 -32 -11 -8 -20 -22 -20 -32 0 -10 -4 -18 -10 -18 -5 0
-10 -9 -10 -20 0 -11 -4 -20 -10 -20 -5 0 -10 -8 -10 -18 0 -10 -9 -24 -20
-32 -11 -8 -20 -22 -20 -32 0 -10 -4 -18 -10 -18 -5 0 -10 -8 -10 -18 0 -10
-9 -24 -20 -32 -11 -8 -20 -22 -20 -32 0 -10 -4 -18 -10 -18 -5 0 -10 -9 -10
-20 0 -11 -4 -20 -10 -20 -5 0 -10 -8 -10 -18 0 -10 -9 -24 -20 -32 -11 -8
-20 -22 -20 -32 0 -10 -4 -18 -10 -18 -5 0 -10 -7 -10 -16 0 -28 -27 -44 -74
-44 l-46 0 0 -120 0 -120 180 0 180 0 0 -256 c0 -208 -3 -258 -14 -270 -10
-10 -38 -14 -90 -14 -44 0 -76 -4 -76 -10 0 -5 -22 -10 -50 -10 -27 0 -50 -4
-50 -10 0 -5 -22 -10 -50 -10 -27 0 -50 -4 -50 -10 0 -5 -13 -10 -30 -10 -16
0 -30 -4 -30 -10 0 -5 -18 -10 -40 -10 -22 0 -40 -4 -40 -10 0 -5 -13 -10 -30
-10 -16 0 -30 -4 -30 -10 0 -5 -13 -10 -30 -10 -16 0 -30 -4 -30 -10 0 -5 -9
-10 -20 -10 -11 0 -20 -4 -20 -10 0 -5 -13 -10 -30 -10 -16 0 -30 -4 -30 -10
0 -5 -9 -10 -20 -10 -11 0 -20 -4 -20 -10 0 -5 -9 -10 -20 -10 -11 0 -20 -4
-20 -10 0 -5 -9 -10 -20 -10 -11 0 -20 -4 -20 -10 0 -5 -9 -10 -20 -10 -11 0
-20 -4 -20 -10 0 -5 -9 -10 -20 -10 -11 0 -20 -4 -20 -10 0 -5 -8 -10 -18 -10
-10 0 -24 -9 -32 -20 -8 -11 -22 -20 -32 -20 -10 0 -18 -4 -18 -10 0 -5 -8
-10 -18 -10 -10 0 -24 -9 -32 -20 -8 -11 -21 -20 -28 -20 -8 0 -27 -13 -42
-30 -15 -16 -33 -30 -40 -30 -6 0 -33 -22 -60 -50 -27 -27 -54 -50 -60 -50
-14 0 -100 -86 -100 -100 0 -6 -22 -33 -50 -60 -27 -27 -50 -55 -50 -62 0 -8
-9 -20 -20 -28 -11 -8 -20 -21 -20 -30 0 -9 -9 -22 -20 -30 -11 -8 -20 -22
-20 -32 0 -10 -4 -18 -10 -18 -5 0 -10 -9 -10 -20 0 -11 -4 -20 -10 -20 -5 0
-10 -9 -10 -20 0 -11 -4 -20 -10 -20 -5 0 -10 -9 -10 -20 0 -11 -4 -20 -10
-20 -5 0 -10 -9 -10 -20 0 -11 -4 -20 -10 -20 -5 0 -10 -9 -10 -20 0 -11 -4
-20 -10 -20 -5 0 -10 -13 -10 -30 0 -16 -4 -30 -10 -30 -5 0 -10 -18 -10 -40
0 -22 -4 -40 -10 -40 -5 0 -10 -18 -10 -40 0 -22 -4 -40 -10 -40 -6 0 -10 -40
-10 -100 l0 -100 2015 0 c1337 0 2015 3 2015 10 0 6 23 10 50 10 l50 0 0 80
c0 47 -4 80 -10 80 -6 0 -10 27 -10 60 0 33 -4 60 -10 60 -5 0 -10 18 -10 40
0 22 -4 40 -10 40 -5 0 -10 14 -10 30 0 17 -4 30 -10 30 -5 0 -10 9 -10 20 0
11 -4 20 -10 20 -5 0 -10 14 -10 30 0 17 -4 30 -10 30 -5 0 -10 9 -10 20 0 11
-4 20 -10 20 -5 0 -10 8 -10 18 0 10 -9 24 -20 32 -11 8 -20 21 -20 30 0 9 -9
22 -20 30 -11 8 -20 21 -20 30 0 9 -9 22 -20 30 -11 8 -20 20 -20 28 0 7 -22
35 -50 62 -27 27 -50 54 -50 60 0 14 -46 60 -60 60 -6 0 -38 27 -70 60 -32 33
-65 60 -72 60 -8 0 -20 9 -28 20 -8 11 -21 20 -30 20 -9 0 -22 9 -30 20 -8 11
-24 20 -35 20 -11 0 -27 9 -35 20 -8 11 -22 20 -32 20 -10 0 -18 5 -18 10 0 6
-8 10 -18 10 -10 0 -24 9 -32 20 -8 11 -22 20 -32 20 -10 0 -18 5 -18 10 0 6
-9 10 -20 10 -11 0 -20 5 -20 10 0 6 -9 10 -20 10 -11 0 -20 5 -20 10 0 6 -13
10 -30 10 -16 0 -30 5 -30 10 0 6 -9 10 -20 10 -11 0 -20 5 -20 10 0 6 -13 10
-30 10 -16 0 -30 5 -30 10 0 6 -9 10 -20 10 -11 0 -20 5 -20 10 0 6 -13 10
-30 10 -16 0 -30 5 -30 10 0 6 -18 10 -40 10 -22 0 -40 5 -40 10 0 6 -13 10
-30 10 -16 0 -30 5 -30 10 0 6 -18 10 -40 10 -22 0 -40 5 -40 10 0 6 -22 10
-50 10 -27 0 -50 5 -50 10 0 6 -27 10 -60 10 -33 0 -60 4 -60 10 0 6 -33 10
-80 10 -47 0 -80 4 -80 10 0 6 -43 10 -110 10 l-110 0 0 260 0 260 40 0 c22 0
40 -4 40 -10 0 -5 14 -10 30 -10 17 0 30 -4 30 -10 0 -18 35 -11 50 10 13 18
26 20 112 20 l98 0 0 120 c0 113 -1 120 -20 120 -13 0 -20 7 -20 20 0 11 5 20
10 20 6 0 10 9 10 20 0 11 5 20 10 20 6 0 10 8 10 18 0 10 9 24 20 32 11 8 20
22 20 32 0 10 5 18 10 18 6 0 10 9 10 20 0 11 5 20 10 20 6 0 10 8 10 18 0 10
9 24 20 32 11 8 20 22 20 32 0 10 5 18 10 18 6 0 10 8 10 18 0 10 9 24 20 32
11 8 20 22 20 32 0 10 5 18 10 18 6 0 10 9 10 20 0 11 5 20 10 20 6 0 10 8 10
18 0 10 9 24 20 32 11 8 20 22 20 32 0 10 5 18 10 18 6 0 10 8 10 18 0 10 9
24 20 32 11 8 20 22 20 32 0 10 5 18 10 18 6 0 10 9 10 20 0 11 5 20 10 20 6
0 10 8 10 18 0 10 9 24 20 32 11 8 20 22 20 32 0 10 5 18 10 18 6 0 10 8 10
18 0 10 9 24 20 32 11 8 20 22 20 32 0 10 5 18 10 18 6 0 10 9 10 20 0 11 5
20 10 20 6 0 10 8 10 18 0 10 9 24 20 32 11 8 20 22 20 32 0 10 5 18 10 18 6
0 10 8 10 18 0 10 9 24 20 32 11 8 20 22 20 32 0 10 5 18 10 18 6 0 10 9 10
20 0 11 5 20 10 20 6 0 10 8 10 18 0 10 9 24 20 32 11 8 20 22 20 32 0 10 5
18 10 18 6 0 10 8 10 18 0 10 9 24 20 32 11 8 20 22 20 32 0 10 5 18 10 18 6
0 10 8 10 18 0 10 9 24 20 32 11 8 20 22 20 32 0 10 5 18 10 18 6 0 10 9 10
20 0 11 5 20 10 20 6 0 10 8 10 18 0 10 9 24 20 32 11 8 20 22 20 32 0 10 5
18 10 18 6 0 10 8 10 18 0 10 9 24 20 32 11 8 20 22 20 32 0 10 7 18 15 18 8
0 15 9 15 20 0 11 5 20 10 20 6 0 10 8 10 18 0 10 9 24 20 32 11 8 20 22 20
32 0 10 5 18 10 18 6 0 10 8 10 18 0 10 9 24 20 32 11 8 20 22 20 32 0 10 5
18 10 18 6 0 10 9 10 20 0 11 5 20 10 20 6 0 10 8 10 18 0 10 9 24 20 32 11 8
20 22 20 32 0 10 5 18 10 18 6 0 10 8 10 18 0 10 9 24 20 32 11 8 20 22 20 32
0 10 5 18 10 18 6 0 10 9 10 20 0 11 5 20 10 20 6 0 10 8 10 18 0 10 9 24 20
32 11 8 20 22 20 32 0 10 5 18 10 18 6 0 10 8 10 18 0 10 9 24 20 32 11 8 20
22 20 32 0 10 5 18 10 18 6 0 10 9 10 20 0 11 5 20 10 20 6 0 10 8 10 18 0 10
9 24 20 32 11 8 20 22 20 32 0 10 5 18 10 18 6 0 10 8 10 18 0 10 9 24 20 32
11 8 20 22 20 32 0 10 5 18 10 18 6 0 10 9 10 20 0 11 5 20 10 20 6 0 10 8 10
18 0 10 9 24 20 32 11 8 20 22 20 32 0 10 5 18 10 18 6 0 10 8 10 18 0 10 9
24 20 32 11 8 20 22 20 32 0 10 5 18 10 18 6 0 10 8 10 18 0 10 9 24 20 32 11
8 20 22 20 32 0 10 5 18 10 18 6 0 10 9 10 20 0 11 5 20 10 20 6 0 10 8 10 18
0 10 9 24 20 32 11 8 20 22 20 32 0 10 5 18 10 18 6 0 10 8 10 18 0 10 9 24
20 32 11 8 20 22 20 32 0 10 5 18 10 18 6 0 10 9 10 20 0 11 5 20 10 20 6 0
10 8 10 18 0 10 9 24 20 32 11 8 20 22 20 32 0 10 5 18 10 18 6 0 10 8 10 18
0 10 9 24 20 32 11 8 20 22 20 32 0 10 5 18 10 18 6 0 10 9 10 20 0 11 5 20
10 20 6 0 10 8 10 18 0 10 9 24 20 32 11 8 20 22 20 32 0 10 5 18 10 18 6 0
10 8 10 18 0 10 9 24 20 32 11 8 20 22 20 32 0 10 5 18 10 18 6 0 10 9 10 20
0 11 5 20 10 20 6 0 10 8 10 18 0 10 9 24 20 32 11 8 20 22 20 32 0 10 5 18
10 18 6 0 10 8 10 18 0 10 9 24 20 32 11 8 20 22 20 32 0 10 5 18 10 18 6 0
10 9 10 20 0 11 5 20 10 20 6 0 10 8 10 18 0 10 9 24 20 32 11 8 20 22 20 32
0 10 5 18 10 18 6 0 10 8 10 18 0 10 9 24 20 32 11 8 20 22 20 32 0 10 5 18
10 18 6 0 10 8 10 18 0 10 9 24 20 32 11 8 20 22 20 32 0 10 5 18 10 18 6 0
10 9 10 20 0 11 5 20 10 20 6 0 10 8 10 18 0 10 9 24 20 32 11 8 20 22 20 32
0 10 5 18 10 18 6 0 10 8 10 18 0 10 9 24 20 32 11 8 20 22 20 32 0 10 5 18
10 18 6 0 10 9 10 20 0 11 5 20 10 20 6 0 10 8 10 18 0 10 9 24 20 32 11 8 20
22 20 32 0 10 5 18 10 18 6 0 10 8 10 18 0 10 9 24 20 32 11 8 20 22 20 32 0
10 5 18 10 18 6 0 10 9 10 20 0 11 5 20 10 20 6 0 10 9 10 20 0 11 5 20 10 20
6 0 10 53 10 140 l0 140 -160 0 c-100 0 -160 4 -160 10 0 6 7 10 16 10 22 0
53 32 36 38 -6 2 -12 11 -12 21 0 9 -9 23 -20 31 -11 8 -20 21 -20 30 0 9 -9
22 -20 30 -11 8 -20 21 -20 30 0 9 -9 22 -20 30 -11 8 -20 21 -20 30 0 9 -9
22 -20 30 -11 8 -20 22 -20 32 0 10 -4 18 -10 18 -5 0 -10 8 -10 18 0 10 -9
24 -20 32 -11 8 -20 21 -20 30 0 9 -9 22 -20 30 -11 8 -20 21 -20 30 0 9 -9
22 -20 30 -11 8 -20 21 -20 30 0 9 -9 22 -20 30 -11 8 -20 21 -20 30 0 9 -9
22 -20 30 -11 8 -20 22 -20 32 0 10 -4 18 -10 18 -5 0 -10 8 -10 18 0 10 -9
24 -20 32 -11 8 -20 21 -20 30 0 9 -9 22 -20 30 -11 8 -20 21 -20 30 0 9 -9
22 -20 30 -11 8 -20 21 -20 30 0 9 -9 22 -20 30 -11 8 -20 22 -20 32 0 10 -4
18 -10 18 -5 0 -10 8 -10 18 0 10 -9 24 -20 32 -11 8 -20 21 -20 30 0 9 -9 22
-20 30 -11 8 -20 21 -20 30 0 9 -9 22 -20 30 -11 8 -20 21 -20 30 0 9 -9 22
-20 30 -11 8 -20 21 -20 30 0 9 -9 22 -20 30 -11 8 -20 22 -20 32 0 10 -4 18
-10 18 -5 0 -10 8 -10 18 0 10 -9 24 -20 32 -11 8 -20 21 -20 30 0 9 -9 22
-20 30 -11 8 -20 21 -20 30 0 9 -9 22 -20 30 -11 8 -20 21 -20 30 0 9 -9 22
-20 30 -11 8 -20 22 -20 32 0 10 -4 18 -10 18 -5 0 -10 8 -10 18 0 10 -9 24
-20 32 -11 8 -20 21 -20 30 0 9 -9 22 -20 30 -11 8 -20 21 -20 30 0 9 -9 22
-20 30 -11 8 -20 21 -20 30 0 9 -9 22 -20 30 -11 8 -20 21 -20 30 0 9 -9 22
-20 30 -11 8 -20 22 -20 32 0 10 -4 18 -10 18 -5 0 -10 8 -10 18 0 10 -9 24
-20 32 -11 8 -20 21 -20 30 0 9 -9 22 -20 30 -11 8 -20 21 -20 30 0 9 -9 22
-20 30 -11 8 -20 21 -20 30 0 9 -9 22 -20 30 -11 8 -20 22 -20 32 0 10 -4 18
-10 18 -5 0 -10 8 -10 18 0 10 -9 24 -20 32 -11 8 -20 21 -20 30 0 9 -9 22
-20 30 -11 8 -20 21 -20 30 0 9 -9 22 -20 30 -11 8 -20 21 -20 30 0 9 -9 22
-20 30 -11 8 -20 20 -20 28 0 16 -24 42 -39 42 -6 0 -11 9 -11 20 0 11 -4 20
-10 20 -5 0 -10 8 -10 18 0 10 -9 24 -20 32 -11 8 -20 21 -20 30 0 9 -9 22
-20 30 -11 8 -20 21 -20 30 0 9 -9 22 -20 30 -11 8 -20 21 -20 30 0 9 -9 22
-20 30 -11 8 -20 22 -20 32 0 10 -4 18 -10 18 -5 0 -10 8 -10 18 0 10 -9 24
-20 32 -11 8 -20 21 -20 30 0 9 -9 22 -20 30 -11 8 -20 21 -20 30 0 9 -9 22
-20 30 -11 8 -20 21 -20 30 0 9 -9 22 -20 30 -11 8 -20 21 -20 30 0 9 -9 22
-20 30 -11 8 -20 22 -20 32 0 10 -4 18 -10 18 -5 0 -10 8 -10 18 0 10 -9 24
-20 32 -11 8 -20 21 -20 30 0 9 -9 22 -20 30 -11 8 -20 21 -20 30 0 9 -9 22
-20 30 -11 8 -20 21 -20 30 0 9 -9 22 -20 30 -11 8 -20 21 -20 30 0 9 -9 22
-20 30 -11 8 -20 22 -20 32 0 10 -4 18 -10 18 -5 0 -10 8 -10 18 0 10 -9 24
-20 32 -11 8 -20 21 -20 30 0 9 -9 22 -20 30 -11 8 -20 21 -20 30 0 9 -9 22
-20 30 -11 8 -20 21 -20 30 0 9 -9 22 -20 30 -11 8 -20 22 -20 32 0 10 -4 18
-10 18 -5 0 -10 8 -10 18 0 10 -9 24 -20 32 -11 8 -20 21 -20 30 0 9 -9 22
-20 30 -11 8 -20 21 -20 30 0 9 -9 22 -20 30 -11 8 -20 21 -20 30 0 9 -9 22
-20 30 -11 8 -20 21 -20 30 0 9 -9 22 -20 30 -11 8 -20 22 -20 32 0 10 -4 18
-10 18 -5 0 -10 8 -10 18 0 10 -9 24 -20 32 -11 8 -20 21 -20 30 0 9 -9 22
-20 30 -11 8 -20 21 -20 30 0 9 -9 22 -20 30 -21 15 -28 70 -10 70 6 0 10 9
10 20 0 11 5 20 10 20 6 0 10 9 10 20 0 11 5 20 10 20 6 0 10 8 10 18 0 10 9
24 20 32 11 8 20 22 20 32 0 10 5 18 10 18 6 0 10 8 10 18 0 10 9 24 20 32 11
8 20 22 20 32 0 10 5 18 10 18 6 0 10 9 10 20 0 11 5 20 10 20 6 0 10 8 10 18
0 10 9 24 20 32 11 8 20 22 20 32 0 10 5 18 10 18 6 0 10 8 10 18 0 10 9 24
20 32 11 8 20 22 20 32 0 10 5 18 10 18 6 0 10 9 10 20 0 11 5 20 10 20 6 0
10 17 10 38 0 26 -6 42 -20 52 -11 8 -20 21 -20 30 0 9 -9 22 -20 30 -11 8
-20 21 -20 30 0 9 -9 22 -20 30 -11 8 -20 22 -20 32 0 10 -4 18 -10 18 -5 0
-10 8 -10 18 0 10 -9 24 -20 32 -11 8 -20 21 -20 30 0 9 -9 22 -20 30 -11 8
-20 21 -20 30 0 9 -9 22 -20 30 -11 8 -20 21 -20 30 0 9 -9 22 -20 30 -11 8
-20 22 -20 32 0 10 -4 18 -10 18 -5 0 -10 8 -10 18 0 10 -9 24 -20 32 -11 8
-20 21 -20 30 0 9 -9 22 -20 30 -11 8 -20 21 -20 30 0 9 -9 22 -20 30 -11 8
-20 21 -20 30 0 9 -9 22 -20 30 -11 8 -20 22 -20 32 0 10 -4 18 -10 18 -5 0
-10 8 -10 18 0 10 -9 24 -20 32 -11 8 -20 21 -20 30 0 9 -9 22 -20 30 -11 8
-20 20 -20 28 0 7 -6 20 -14 28 -17 16 -46 19 -46 4z m2990 -6170 c0 -11 -4
-20 -10 -20 -5 0 -10 -9 -10 -20 0 -11 -4 -20 -10 -20 -5 0 -10 -8 -10 -18 0
-10 -9 -24 -20 -32 -11 -8 -20 -22 -20 -32 0 -10 -4 -18 -10 -18 -5 0 -10 -9
-10 -20 0 -11 -4 -20 -10 -20 -5 0 -10 -8 -10 -18 0 -10 -9 -24 -20 -32 -11
-8 -20 -22 -20 -32 0 -10 -4 -18 -10 -18 -5 0 -10 -8 -10 -18 0 -10 -9 -24
-20 -32 -11 -8 -20 -22 -20 -32 0 -10 -4 -18 -10 -18 -5 0 -10 -8 -10 -18 0
-10 -9 -24 -20 -32 -11 -8 -20 -22 -20 -32 0 -10 -4 -18 -10 -18 -5 0 -10 -9
-10 -20 0 -11 -4 -20 -10 -20 -5 0 -10 -8 -10 -18 0 -10 -9 -24 -20 -32 -11
-8 -20 -22 -20 -32 0 -10 -4 -18 -10 -18 -5 0 -10 -8 -10 -18 0 -10 -9 -24
-20 -32 -11 -8 -20 -22 -20 -32 0 -10 -4 -18 -10 -18 -5 0 -10 -9 -10 -20 0
-11 -4 -20 -10 -20 -5 0 -10 -8 -10 -18 0 -10 -9 -24 -20 -32 -11 -8 -20 -22
-20 -32 0 -10 -4 -18 -10 -18 -5 0 -10 -8 -10 -18 0 -10 -9 -24 -20 -32 -11
-8 -20 -22 -20 -32 0 -10 -4 -18 -10 -18 -5 0 -10 -9 -10 -20 0 -11 -4 -20
-10 -20 -5 0 -10 -8 -10 -18 0 -10 -9 -24 -20 -32 -11 -8 -20 -22 -20 -32 0
-10 -4 -18 -10 -18 -5 0 -10 -8 -10 -18 0 -10 -9 -24 -20 -32 -11 -8 -20 -22
-20 -32 0 -10 -4 -18 -10 -18 -5 0 -10 -9 -10 -20 0 -11 -4 -20 -10 -20 -5 0
-10 -8 -10 -18 0 -10 -9 -24 -20 -32 -11 -8 -20 -22 -20 -32 0 -10 -4 -18 -10
-18 -5 0 -10 -8 -10 -18 0 -10 -9 -24 -20 -32 -11 -8 -20 -22 -20 -32 0 -10
-4 -18 -10 -18 -5 0 -10 -9 -10 -20 0 -11 -4 -20 -10 -20 -5 0 -10 -8 -10 -18
0 -10 -9 -24 -20 -32 -11 -8 -20 -22 -20 -32 0 -10 -4 -18 -10 -18 -5 0 -10
-8 -10 -18 0 -10 -9 -24 -20 -32 -11 -8 -20 -22 -20 -32 0 -10 -4 -18 -10 -18
-5 0 -10 -9 -10 -20 0 -11 -4 -20 -10 -20 -5 0 -10 -8 -10 -18 0 -10 -9 -24
-20 -32 -11 -8 -20 -22 -20 -32 0 -10 -4 -18 -10 -18 -5 0 -10 -8 -10 -18 0
-10 -9 -24 -20 -32 -11 -8 -20 -22 -20 -32 0 -10 -4 -18 -10 -18 -5 0 -10 -8
-10 -18 0 -10 -9 -24 -20 -32 -11 -8 -20 -22 -20 -32 0 -10 -4 -18 -10 -18 -5
0 -10 -9 -10 -20 0 -11 -4 -20 -10 -20 -5 0 -10 -8 -10 -18 0 -10 -9 -24 -20
-32 -11 -8 -20 -22 -20 -32 0 -10 -4 -18 -10 -18 -5 0 -10 -8 -10 -18 0 -10
-9 -24 -20 -32 -11 -8 -20 -22 -20 -32 0 -10 -4 -18 -10 -18 -5 0 -10 -9 -10
-20 0 -11 -4 -20 -10 -20 -5 0 -10 -8 -10 -18 0 -10 -9 -24 -20 -32 -11 -8
-20 -22 -20 -32 0 -10 -4 -18 -10 -18 -5 0 -10 -8 -10 -18 0 -10 -9 -24 -20
-32 -11 -8 -20 -22 -20 -32 0 -10 -4 -18 -10 -18 -5 0 -10 -9 -10 -20 0 -11
-4 -20 -10 -20 -5 0 -10 -9 -10 -20 0 -11 -5 -20 -11 -20 -16 0 -39 -26 -39
-44 0 -9 -4 -16 -10 -16 -5 0 -10 -8 -10 -18 0 -10 -9 -24 -20 -32 -11 -8 -20
-22 -20 -32 0 -10 -4 -18 -10 -18 -5 0 -10 -9 -10 -20 0 -11 -4 -20 -10 -20
-5 0 -10 -8 -10 -18 0 -10 -9 -24 -20 -32 -11 -8 -20 -22 -20 -32 0 -10 -4
-18 -10 -18 -5 0 -10 -8 -10 -18 0 -10 -9 -24 -20 -32 -11 -8 -20 -22 -20 -32
0 -10 -4 -18 -10 -18 -5 0 -10 -9 -10 -20 0 -11 -4 -20 -10 -20 -5 0 -10 -8
-10 -18 0 -10 -9 -24 -20 -32 -11 -8 -20 -22 -20 -32 0 -10 -4 -18 -10 -18 -5
0 -10 -8 -10 -18 0 -10 -9 -24 -20 -32 -11 -8 -20 -22 -20 -32 0 -10 -4 -18
-10 -18 -5 0 -10 -8 -10 -18 0 -10 -9 -24 -20 -32 -11 -8 -20 -22 -20 -32 0
-10 -4 -18 -10 -18 -5 0 -10 -9 -10 -20 0 -11 -4 -20 -10 -20 -5 0 -10 -8 -10
-18 0 -10 -9 -24 -20 -32 -11 -8 -20 -22 -20 -32 0 -10 -4 -18 -10 -18 -5 0
-10 -8 -10 -18 0 -10 -9 -24 -20 -32 -11 -8 -20 -22 -20 -32 0 -10 -4 -18 -10
-18 -5 0 -10 -9 -10 -20 0 -11 -4 -20 -10 -20 -5 0 -10 -8 -10 -18 0 -10 -9
-24 -20 -32 -11 -8 -20 -22 -20 -32 0 -10 -4 -18 -10 -18 -5 0 -10 -8 -10 -18
0 -10 -9 -24 -20 -32 -11 -8 -20 -22 -20 -32 0 -10 -4 -18 -10 -18 -5 0 -10
-9 -10 -20 0 -11 -4 -20 -10 -20 -5 0 -10 -8 -10 -18 0 -10 -9 -24 -20 -32
-11 -8 -20 -22 -20 -32 0 -10 -4 -18 -10 -18 -5 0 -10 -8 -10 -18 0 -10 -9
-24 -20 -32 -11 -8 -20 -22 -20 -32 0 -10 -4 -18 -10 -18 -5 0 -10 -9 -10 -20
0 -11 -4 -20 -10 -20 -5 0 -10 -8 -10 -18 0 -10 -9 -24 -20 -32 -11 -8 -20
-22 -20 -32 0 -10 -4 -18 -10 -18 -5 0 -10 -8 -10 -18 0 -10 -9 -24 -20 -32
-11 -8 -20 -22 -20 -32 0 -10 -4 -18 -10 -18 -5 0 -10 -9 -10 -20 0 -11 -4
-20 -10 -20 -5 0 -10 -8 -10 -18 0 -10 -9 -24 -20 -32 -11 -8 -20 -22 -20 -32
0 -10 -4 -18 -10 -18 -5 0 -10 -8 -10 -18 0 -10 -9 -24 -20 -32 -11 -8 -20
-22 -20 -32 0 -10 -4 -18 -10 -18 -5 0 -10 -8 -10 -18 0 -10 -9 -24 -20 -32
-11 -8 -20 -22 -20 -32 0 -10 -4 -18 -10 -18 -5 0 -10 -9 -10 -20 0 -11 -4
-20 -10 -20 -5 0 -10 -8 -10 -18 0 -10 -9 -24 -20 -32 -11 -8 -20 -22 -20 -32
0 -10 -4 -18 -10 -18 -5 0 -10 -8 -10 -18 0 -10 -9 -24 -20 -32 -11 -8 -20
-20 -20 -28 0 -34 -27 -42 -134 -42 l-106 0 0 30 c0 17 5 30 10 30 6 0 10 8
10 18 0 10 9 24 20 32 11 8 20 22 20 32 0 10 5 18 10 18 6 0 10 8 10 18 0 10
9 24 20 32 11 8 20 22 20 32 0 10 5 18 10 18 6 0 10 9 10 20 0 11 5 20 10 20
6 0 10 8 10 18 0 10 9 24 20 32 11 8 20 22 20 32 0 10 5 18 10 18 6 0 10 8 10
18 0 10 9 24 20 32 11 8 20 22 20 32 0 10 5 18 10 18 6 0 10 8 10 18 0 10 9
24 20 32 11 8 20 22 20 32 0 10 5 18 10 18 6 0 10 9 10 20 0 11 5 20 10 20 6
0 10 8 10 18 0 10 9 24 20 32 11 8 20 22 20 32 0 10 5 18 10 18 6 0 10 8 10
18 0 10 9 24 20 32 11 8 20 22 20 32 0 10 5 18 10 18 6 0 10 9 10 20 0 11 5
20 10 20 6 0 10 8 10 18 0 10 9 24 20 32 11 8 20 22 20 32 0 10 5 18 10 18 6
0 10 8 10 18 0 10 9 24 20 32 11 8 20 22 20 32 0 10 5 18 10 18 6 0 10 9 10
20 0 11 5 20 10 20 6 0 10 8 10 18 0 10 9 24 20 32 11 8 20 22 20 32 0 10 5
18 10 18 6 0 10 8 10 18 0 10 9 24 20 32 11 8 20 22 20 32 0 10 5 18 10 18 6
0 10 9 10 20 0 11 5 20 10 20 6 0 10 8 10 18 0 10 9 24 20 32 11 8 20 22 20
32 0 10 5 18 10 18 6 0 10 8 10 18 0 10 9 24 20 32 11 8 20 22 20 32 0 10 5
18 10 18 6 0 10 9 10 20 0 11 5 20 10 20 6 0 10 8 10 18 0 10 9 24 20 32 11 8
20 22 20 32 0 10 5 18 10 18 6 0 10 8 10 18 0 10 9 24 20 32 11 8 20 22 20 32
0 10 5 18 10 18 6 0 10 9 10 20 0 11 5 20 10 20 6 0 10 8 10 18 0 10 9 24 20
32 11 8 20 22 20 32 0 10 5 18 10 18 6 0 10 8 10 18 0 10 9 24 20 32 11 8 20
22 20 32 0 10 5 18 10 18 6 0 10 8 10 18 0 10 9 24 20 32 11 8 20 22 20 32 0
10 5 18 10 18 6 0 10 9 10 20 0 11 5 20 10 20 6 0 10 8 10 18 0 10 9 24 20 32
11 8 20 22 20 32 0 10 5 18 10 18 6 0 10 8 10 18 0 10 9 24 20 32 11 8 20 22
20 32 0 10 5 18 10 18 6 0 10 9 10 20 0 11 5 20 10 20 6 0 10 8 10 18 0 10 9
24 20 32 11 8 20 22 20 32 0 10 5 18 10 18 6 0 10 8 10 18 0 10 9 24 20 32 11
8 20 22 20 32 0 10 5 18 10 18 6 0 10 9 10 20 0 11 5 20 10 20 6 0 10 7 10 16
0 18 23 44 39 44 6 0 11 9 11 20 0 11 5 20 10 20 6 0 10 8 10 18 0 10 9 24 20
32 11 8 20 22 20 32 0 10 5 18 10 18 6 0 10 9 10 20 0 11 5 20 10 20 6 0 10 8
10 18 0 10 9 24 20 32 11 8 20 22 20 32 0 10 5 18 10 18 6 0 10 8 10 18 0 10
9 24 20 32 11 8 20 22 20 32 0 10 5 18 10 18 6 0 10 9 10 20 0 11 5 20 10 20
6 0 10 8 10 18 0 10 9 24 20 32 11 8 20 22 20 32 0 10 5 18 10 18 6 0 10 8 10
18 0 10 9 24 20 32 11 8 20 22 20 32 0 10 5 18 10 18 6 0 10 8 10 18 0 10 9
24 20 32 11 8 20 22 20 32 0 10 5 18 10 18 6 0 10 9 10 20 0 11 5 20 10 20 6
0 10 8 10 18 0 10 9 24 20 32 11 8 20 22 20 32 0 10 5 18 10 18 6 0 10 8 10
18 0 10 9 24 20 32 11 8 20 22 20 32 0 10 5 18 10 18 6 0 10 9 10 20 0 11 5
20 10 20 6 0 10 8 10 18 0 10 9 24 20 32 11 8 20 22 20 32 0 10 5 18 10 18 6
0 10 8 10 18 0 10 9 24 20 32 11 8 20 22 20 32 0 10 5 18 10 18 6 0 10 9 10
20 0 11 5 20 10 20 6 0 10 8 10 18 0 10 9 24 20 32 11 8 20 22 20 32 0 10 5
18 10 18 6 0 10 8 10 18 0 10 9 24 20 32 11 8 20 22 20 32 0 10 5 18 10 18 6
0 10 9 10 20 0 11 5 20 10 20 6 0 10 8 10 18 0 10 9 24 20 32 11 8 20 22 20
32 0 10 5 18 10 18 6 0 10 8 10 18 0 10 9 24 20 32 11 8 20 22 20 32 0 10 5
18 10 18 6 0 10 9 10 20 0 11 5 20 10 20 6 0 10 8 10 18 0 10 9 24 20 32 11 8
20 22 20 32 0 10 5 18 10 18 6 0 10 8 10 18 0 10 9 24 20 32 11 8 20 22 20 32
0 10 5 18 10 18 6 0 10 8 10 18 0 10 9 24 20 32 11 8 20 22 20 32 0 10 5 18
10 18 6 0 10 9 10 20 0 11 5 20 10 20 6 0 10 8 10 18 0 10 9 24 20 32 11 8 20
20 20 28 0 7 10 24 23 37 20 22 29 24 130 24 101 1 107 0 107 -19z"/>
<path d="M24930 24360 c0 -5 -7 -10 -15 -10 -9 0 -27 -11 -40 -25 -23 -22 -25
-31 -25 -125 0 -94 2 -103 25 -125 l24 -25 406 0 c263 0 405 3 405 10 0 6 -9
10 -20 10 -11 0 -20 5 -20 10 0 6 -9 10 -20 10 -11 0 -20 5 -20 10 0 6 -9 10
-20 10 -11 0 -20 5 -20 10 0 6 -8 10 -18 10 -10 0 -24 9 -32 20 -8 11 -22 20
-32 20 -10 0 -18 5 -18 10 0 6 -9 10 -20 10 -11 0 -20 5 -20 10 0 6 -9 10 -20
10 -11 0 -20 5 -20 10 0 6 -9 10 -20 10 -11 0 -20 5 -20 10 0 6 -9 10 -20 10
-11 0 -20 5 -20 10 0 6 -9 10 -20 10 -11 0 -20 5 -20 10 0 6 -9 10 -20 10 -11
0 -20 5 -20 10 0 6 -8 10 -18 10 -10 0 -24 9 -32 20 -8 11 -22 20 -32 20 -10
0 -18 5 -18 10 0 6 -43 10 -110 10 -67 0 -110 -4 -110 -10z"/>
<path d="M25423 23595 c-7 -8 -13 -21 -13 -30 0 -8 -4 -15 -10 -15 -6 0 -10
-40 -10 -100 0 -60 4 -100 10 -100 6 0 10 -9 10 -20 0 -13 7 -20 20 -20 11 0
20 -4 20 -10 0 -7 290 -10 850 -10 560 0 850 3 850 10 0 6 -9 10 -20 10 -11 0
-20 5 -20 10 0 6 -9 10 -20 10 -11 0 -20 5 -20 10 0 6 -9 10 -20 10 -11 0 -20
5 -20 10 0 6 -9 10 -20 10 -11 0 -20 5 -20 10 0 6 -9 10 -20 10 -11 0 -20 5
-20 10 0 6 -9 10 -20 10 -11 0 -20 5 -20 10 0 6 -8 10 -18 10 -10 0 -24 9 -32
20 -8 11 -22 20 -32 20 -10 0 -18 5 -18 10 0 6 -9 10 -20 10 -11 0 -20 5 -20
10 0 6 -9 10 -20 10 -11 0 -20 5 -20 10 0 6 -9 10 -20 10 -11 0 -20 5 -20 10
0 6 -9 10 -20 10 -11 0 -20 5 -20 10 0 6 -9 10 -20 10 -11 0 -20 5 -20 10 0 6
-9 10 -20 10 -11 0 -20 5 -20 10 0 7 -196 10 -567 10 -478 -1 -570 -3 -580
-15z"/>
<path d="M25470 22820 c0 -5 -7 -10 -15 -10 -9 0 -27 -11 -40 -25 -22 -22 -25
-32 -25 -105 0 -73 3 -83 25 -105 l24 -25 571 0 571 0 24 25 c22 22 25 32 25
105 0 73 -3 83 -25 105 -13 14 -31 25 -40 25 -8 0 -15 5 -15 10 0 7 -187 10
-540 10 -353 0 -540 -3 -540 -10z"/>
<path d="M25413 22125 c-21 -22 -23 -34 -23 -130 0 -63 4 -105 10 -105 6 0 10
-9 10 -20 0 -13 7 -20 20 -20 11 0 20 -4 20 -10 0 -7 277 -10 810 -10 533 0
810 3 810 10 0 6 9 10 20 10 13 0 20 7 20 20 0 11 5 20 10 20 6 0 10 42 10
105 0 99 -2 107 -25 130 l-24 25 -823 -1 -823 0 -22 -24z"/>
<path d="M27570 22140 c0 -5 -9 -10 -20 -10 -13 0 -20 -7 -20 -20 0 -11 -4
-20 -10 -20 -6 0 -10 -38 -10 -95 l0 -96 35 -34 34 -35 346 0 c223 0 345 4
345 10 0 6 7 10 16 10 36 0 44 25 44 140 0 104 -1 112 -25 135 l-24 25 -356 0
c-230 0 -355 -4 -355 -10z"/>
<path d="M25333 20245 c-21 -22 -23 -34 -23 -125 l0 -101 35 -34 34 -35 506 0
c330 0 505 3 505 10 0 6 7 10 16 10 20 0 44 24 44 44 0 9 5 16 10 16 6 0 10
37 10 90 0 53 -4 90 -10 90 -5 0 -10 7 -10 16 0 44 1 44 -562 43 l-533 0 -22
-24z"/>
<path d="M26873 20245 c-21 -22 -23 -34 -23 -125 0 -94 2 -103 25 -125 13 -14
31 -25 40 -25 8 0 15 -4 15 -10 0 -7 230 -10 670 -10 440 0 670 3 670 10 0 6
7 10 16 10 36 0 44 25 44 144 0 71 -4 116 -10 116 -5 0 -10 9 -10 20 0 20 -6
20 -707 19 l-708 0 -22 -24z"/>
<path d="M25333 19625 c-21 -22 -23 -34 -23 -130 0 -63 4 -105 10 -105 6 0 10
-9 10 -20 0 -13 7 -20 20 -20 11 0 20 -4 20 -10 0 -7 407 -10 1200 -10 793 0
1200 3 1200 10 0 6 7 10 16 10 36 0 44 25 44 140 0 104 -1 112 -25 135 l-24
25 -1213 -1 -1213 0 -22 -24z"/>
<path d="M25370 18980 c0 -5 -9 -10 -20 -10 -13 0 -20 -7 -20 -20 0 -11 -4
-20 -10 -20 -6 0 -10 -42 -10 -105 0 -99 2 -107 25 -130 l24 -25 276 0 c177 0
275 4 275 10 0 6 9 10 20 10 13 0 20 7 20 20 0 11 5 20 10 20 6 0 10 37 10 90
0 53 -4 90 -10 90 -5 0 -10 7 -10 15 0 9 -11 27 -25 40 l-24 25 -266 0 c-170
0 -265 -4 -265 -10z"/>
<path d="M26450 18980 c0 -5 -9 -10 -20 -10 -13 0 -20 -7 -20 -20 0 -11 -4
-20 -10 -20 -6 0 -10 -42 -10 -105 0 -99 2 -107 25 -130 l24 -25 921 0 921 0
24 25 c24 23 25 31 25 135 0 115 -8 140 -44 140 -9 0 -16 5 -16 10 0 7 -310
10 -910 10 -600 0 -910 -3 -910 -10z"/>
<path d="M4100 18600 c0 -5 -9 -10 -20 -10 -11 0 -20 -4 -20 -10 0 -5 -7 -10
-15 -10 -20 0 -125 -105 -125 -125 0 -8 -4 -15 -10 -15 -5 0 -10 -13 -10 -30
0 -16 -4 -30 -10 -30 -7 0 -10 -930 -10 -2770 0 -1840 3 -2770 10 -2770 6 0
10 -9 10 -20 0 -11 5 -20 10 -20 6 0 10 -9 10 -20 0 -11 5 -20 10 -20 6 0 10
-7 10 -15 0 -19 44 -65 62 -65 8 0 20 -9 28 -20 8 -11 22 -20 32 -20 10 0 18
-4 18 -10 0 -7 683 -10 2030 -10 1347 0 2030 -3 2030 -10 0 -7 403 -10 1190
-10 787 0 1190 3 1190 10 0 7 683 10 2030 10 1347 0 2030 3 2030 10 0 6 9 10
20 10 11 0 20 5 20 10 0 6 7 10 15 10 20 0 105 85 105 105 0 8 5 15 10 15 6 0
10 9 10 20 0 11 5 20 10 20 6 0 10 18 10 40 0 22 5 40 10 40 7 0 10 913 10
2720 0 1807 -3 2720 -10 2720 -5 0 -10 18 -10 40 0 22 -4 40 -10 40 -5 0 -10
8 -10 18 0 10 -9 24 -20 32 -11 8 -20 20 -20 28 0 17 -45 62 -62 62 -8 0 -20
9 -28 20 -8 12 -26 20 -42 20 -15 0 -28 5 -28 10 0 7 -1750 10 -5230 10 -3480
0 -5230 -3 -5230 -10z m10080 -2970 l0 -2420 -4836 0 c-4177 0 -4837 2 -4850
14 -12 13 -14 349 -14 2420 l0 2406 4850 0 4850 0 0 -2420z"/>
<path d="M12540 17200 l0 -450 460 0 460 0 0 450 0 450 -460 0 -460 0 0 -450z"/>
<path d="M12540 15120 l0 -470 460 0 460 0 0 470 0 470 -460 0 -460 0 0 -470z"/>
<path d="M25370 18440 c0 -5 -9 -10 -20 -10 -13 0 -20 -7 -20 -20 0 -11 -4
-20 -10 -20 -6 0 -10 -42 -10 -105 0 -99 2 -107 25 -130 l24 -25 981 0 981 0
24 25 c24 23 25 31 25 135 0 115 -8 140 -44 140 -9 0 -16 5 -16 10 0 7 -330
10 -970 10 -640 0 -970 -3 -970 -10z"/>
<path d="M27670 18440 c0 -5 -7 -10 -16 -10 -20 0 -44 -24 -44 -44 0 -9 -4
-16 -10 -16 -6 0 -10 -33 -10 -80 0 -47 4 -80 10 -80 6 0 10 -13 10 -30 0 -23
4 -30 20 -30 11 0 20 -4 20 -10 0 -6 98 -10 275 -10 l276 0 24 25 c24 23 25
31 25 135 0 115 -8 140 -44 140 -9 0 -16 5 -16 10 0 6 -93 10 -260 10 -167 0
-260 -4 -260 -10z"/>
<path d="M4520 10470 l0 -400 5890 0 5890 0 0 400 0 400 -5890 0 -5890 0 0
-400z"/>
<path d="M25670 10470 l0 -400 2240 0 c1487 0 2240 -3 2240 -10 0 -5 -4 -10
-10 -10 -7 0 -10 -263 -10 -770 0 -507 3 -770 10 -770 6 0 10 -7 10 -15 0 -18
44 -65 60 -65 12 0 40 -24 40 -34 0 -3 -13 -6 -28 -6 -16 0 -34 -8 -42 -20 -8
-11 -20 -20 -28 -20 -17 0 -42 -25 -42 -42 0 -8 -9 -20 -20 -28 -12 -8 -20
-26 -20 -42 0 -15 -4 -28 -10 -28 -7 0 -10 -160 -10 -460 0 -300 3 -460 10
-460 6 0 10 -13 10 -30 0 -16 5 -30 10 -30 6 0 10 -9 10 -20 0 -11 5 -20 10
-20 6 0 10 -4 10 -10 0 -5 -13 -10 -30 -10 -16 0 -30 -4 -30 -10 0 -5 -9 -10
-20 -10 -11 0 -20 -4 -20 -10 0 -5 -9 -10 -20 -10 -11 0 -20 -4 -20 -10 0 -5
-8 -10 -18 -10 -10 0 -24 -9 -32 -20 -8 -11 -20 -20 -27 -20 -17 0 -123 -106
-123 -123 0 -7 -9 -19 -20 -27 -11 -8 -20 -22 -20 -32 0 -10 -4 -18 -10 -18
-5 0 -10 -9 -10 -20 0 -11 -4 -20 -10 -20 -5 0 -10 -9 -10 -20 0 -11 -4 -20
-10 -20 -5 0 -10 -13 -10 -30 0 -16 -4 -30 -10 -30 -5 0 -10 -22 -10 -50 0
-27 -4 -50 -10 -50 -6 0 -10 -33 -10 -80 0 -47 4 -80 10 -80 6 0 10 -22 10
-50 0 -27 5 -50 10 -50 6 0 10 -13 10 -30 0 -16 5 -30 10 -30 6 0 10 -9 10
-20 0 -11 5 -20 10 -20 6 0 10 -8 10 -18 0 -10 9 -24 20 -32 11 -8 20 -20 20
-27 0 -19 166 -183 185 -183 8 0 15 -4 15 -10 0 -5 9 -10 20 -10 11 0 20 -4
20 -10 0 -5 9 -10 20 -10 11 0 20 -4 20 -10 0 -5 14 -10 30 -10 17 0 30 -4 30
-10 0 -5 18 -10 40 -10 22 0 40 -4 40 -10 0 -6 43 -10 110 -10 67 0 110 4 110
10 0 6 18 10 40 10 22 0 40 5 40 10 0 6 14 10 30 10 17 0 30 5 30 10 0 6 9 10
20 10 11 0 20 5 20 10 0 6 9 10 20 10 11 0 20 5 20 10 0 6 7 10 15 10 20 0
205 185 205 205 0 8 5 15 10 15 6 0 10 9 10 20 0 11 5 20 10 20 6 0 10 9 10
20 0 11 5 20 10 20 6 0 10 14 10 30 0 17 5 30 10 30 6 0 10 23 10 50 0 28 5
50 10 50 6 0 10 37 10 90 0 53 -4 90 -10 90 -5 0 -10 23 -10 50 0 28 -4 50
-10 50 -5 0 -10 9 -10 20 0 11 -4 20 -10 20 -5 0 -10 14 -10 30 0 17 -4 30
-10 30 -5 0 -10 8 -10 18 0 10 -9 24 -20 32 -11 8 -20 20 -20 27 0 19 -146
163 -165 163 -8 0 -15 5 -15 10 0 6 -9 10 -20 10 -11 0 -20 5 -20 10 0 6 -7
10 -16 10 -19 0 -44 24 -44 42 0 8 9 20 20 28 12 8 20 26 20 42 0 15 5 28 10
28 7 0 10 167 10 480 0 313 -3 480 -10 480 -5 0 -10 9 -10 20 0 11 -4 20 -10
20 -5 0 -10 7 -10 15 0 20 -65 85 -85 85 -8 0 -15 5 -15 10 0 6 -7 10 -16 10
-8 0 -22 7 -30 15 -14 13 -11 19 25 54 l41 39 0 776 c0 511 -3 776 -10 776 -5
0 -10 5 -10 10 0 7 350 10 1030 10 680 0 1030 -3 1030 -10 0 -5 -4 -10 -10
-10 -5 0 -10 -9 -10 -20 0 -11 -4 -20 -10 -20 -5 0 -10 -13 -10 -30 0 -16 -4
-30 -10 -30 -7 0 -10 -247 -10 -720 0 -473 3 -720 10 -720 6 0 10 -12 10 -26
0 -17 16 -41 50 -74 28 -27 50 -51 50 -54 0 -3 -9 -6 -20 -6 -11 0 -20 -4 -20
-10 0 -5 -7 -10 -15 -10 -20 0 -85 -65 -85 -85 0 -8 -4 -15 -10 -15 -5 0 -10
-9 -10 -20 0 -11 -4 -20 -10 -20 -7 0 -10 -170 -10 -490 0 -320 3 -490 10
-490 6 0 10 -9 10 -20 0 -11 5 -20 10 -20 6 0 10 -9 10 -20 0 -13 -7 -20 -20
-20 -11 0 -20 -4 -20 -10 0 -5 -9 -10 -20 -10 -11 0 -20 -4 -20 -10 0 -5 -9
-10 -20 -10 -11 0 -20 -4 -20 -10 0 -5 -9 -10 -20 -10 -11 0 -20 -4 -20 -10 0
-5 -7 -10 -15 -10 -19 0 -165 -144 -165 -163 0 -7 -9 -19 -20 -27 -11 -8 -20
-22 -20 -32 0 -10 -4 -18 -10 -18 -5 0 -10 -9 -10 -20 0 -11 -4 -20 -10 -20
-5 0 -10 -13 -10 -30 0 -16 -4 -30 -10 -30 -5 0 -10 -18 -10 -40 0 -22 -4 -40
-10 -40 -6 0 -10 -47 -10 -120 0 -73 4 -120 10 -120 6 0 10 -18 10 -40 0 -22
5 -40 10 -40 6 0 10 -9 10 -20 0 -11 5 -20 10 -20 6 0 10 -13 10 -28 0 -16 8
-34 20 -42 11 -8 20 -21 20 -30 0 -9 9 -22 20 -30 11 -8 20 -20 20 -27 0 -17
86 -103 103 -103 7 0 19 -9 27 -20 8 -11 21 -20 30 -20 9 0 22 -9 30 -20 8
-12 26 -20 42 -20 15 0 28 -4 28 -10 0 -5 9 -10 20 -10 11 0 20 -4 20 -10 0
-5 18 -10 40 -10 22 0 40 -4 40 -10 0 -6 47 -10 120 -10 73 0 120 4 120 10 0
6 18 10 40 10 22 0 40 5 40 10 0 6 16 10 35 10 19 0 35 5 35 10 0 6 9 10 20
10 11 0 20 5 20 10 0 6 8 10 18 10 10 0 24 9 32 20 8 11 20 20 27 20 19 0 163
146 163 165 0 8 5 15 10 15 6 0 10 9 10 20 0 11 5 20 10 20 6 0 10 9 10 20 0
11 5 20 10 20 6 0 10 9 10 20 0 11 5 20 10 20 6 0 10 14 10 30 0 17 5 30 10
30 6 0 10 60 10 160 0 100 -4 160 -10 160 -5 0 -10 14 -10 30 0 17 -4 30 -10
30 -5 0 -10 14 -10 30 0 17 -4 30 -10 30 -5 0 -10 9 -10 20 0 11 -4 20 -10 20
-5 0 -10 7 -10 16 0 9 -13 29 -30 44 -16 15 -30 33 -30 39 0 15 -66 81 -81 81
-6 0 -24 14 -39 30 -15 17 -35 30 -44 30 -9 0 -16 5 -16 10 0 6 -9 10 -20 10
-11 0 -20 5 -20 10 0 6 -9 10 -20 10 -11 0 -20 4 -20 8 0 4 9 14 20 22 11 8
20 22 20 32 0 10 5 18 10 18 6 0 10 9 10 20 0 11 5 20 10 20 7 0 10 163 10
470 0 307 -3 470 -10 470 -5 0 -10 9 -10 20 0 11 -4 20 -10 20 -5 0 -10 8 -10
18 0 10 -9 24 -20 32 -11 8 -20 22 -20 32 0 12 -8 18 -23 18 -12 0 -29 9 -37
20 -8 12 -26 20 -42 20 -37 0 -36 24 2 60 17 15 30 35 30 44 0 9 5 16 10 16 7
0 10 260 10 760 0 500 -3 760 -10 760 -5 0 -10 8 -10 18 0 10 -9 24 -20 32
-11 8 -20 18 -20 22 0 4 2689 8 5975 8 3977 0 5975 3 5975 10 0 6 9 10 20 10
18 0 20 -7 20 -70 0 -40 -4 -70 -10 -70 -6 0 -10 -30 -10 -70 0 -40 -4 -70
-10 -70 -6 0 -10 -27 -10 -60 0 -33 -4 -60 -10 -60 -6 0 -10 -30 -10 -70 0
-40 -4 -70 -10 -70 -6 0 -10 -27 -10 -60 0 -33 -4 -60 -10 -60 -6 0 -10 -27
-10 -60 0 -33 -4 -60 -10 -60 -5 0 -10 -22 -10 -50 0 -27 -4 -50 -10 -50 -6 0
-10 -27 -10 -60 0 -33 -4 -60 -10 -60 -6 0 -10 -27 -10 -60 0 -33 -4 -60 -10
-60 -5 0 -10 -22 -10 -50 0 -27 -4 -50 -10 -50 -5 0 -10 -22 -10 -50 0 -27 -4
-50 -10 -50 -5 0 -10 -22 -10 -50 0 -27 -4 -50 -10 -50 -5 0 -10 -22 -10 -50
0 -27 -4 -50 -10 -50 -5 0 -10 -22 -10 -50 0 -27 -4 -50 -10 -50 -5 0 -10 -22
-10 -50 0 -27 -4 -50 -10 -50 -5 0 -10 -22 -10 -50 0 -27 -4 -50 -10 -50 -5 0
-10 -18 -10 -40 0 -22 -4 -40 -10 -40 -5 0 -10 -22 -10 -50 0 -27 -4 -50 -10
-50 -5 0 -10 -18 -10 -40 0 -22 -4 -40 -10 -40 -5 0 -10 -22 -10 -50 0 -27 -4
-50 -10 -50 -5 0 -10 -18 -10 -40 0 -22 -4 -40 -10 -40 -5 0 -10 -18 -10 -40
0 -22 -4 -40 -10 -40 -5 0 -10 -18 -10 -40 0 -22 -4 -40 -10 -40 -5 0 -10 -18
-10 -40 0 -22 -4 -40 -10 -40 -5 0 -10 -18 -10 -40 0 -22 -4 -40 -10 -40 -5 0
-10 -18 -10 -40 0 -22 -4 -40 -10 -40 -5 0 -10 -18 -10 -40 0 -22 -4 -40 -10
-40 -5 0 -10 -18 -10 -40 0 -22 -4 -40 -10 -40 -5 0 -10 -18 -10 -40 0 -22 -4
-40 -10 -40 -5 0 -10 -18 -10 -40 0 -22 -4 -40 -10 -40 -5 0 -10 -13 -10 -30
0 -16 -4 -30 -10 -30 -5 0 -10 -18 -10 -40 0 -22 -4 -40 -10 -40 -5 0 -10 -18
-10 -40 0 -22 -4 -40 -10 -40 -5 0 -10 -13 -10 -30 0 -16 -4 -30 -10 -30 -5 0
-10 -18 -10 -40 0 -22 -4 -40 -10 -40 -5 0 -10 -18 -10 -40 0 -22 -4 -40 -10
-40 -5 0 -10 -13 -10 -30 0 -16 -4 -30 -10 -30 -5 0 -10 -18 -10 -40 0 -22 -4
-40 -10 -40 -5 0 -10 -18 -10 -40 0 -22 -4 -40 -10 -40 -5 0 -10 -13 -10 -30
0 -16 -4 -30 -10 -30 -5 0 -10 -13 -10 -30 0 -16 -4 -30 -10 -30 -5 0 -10 -18
-10 -40 0 -22 -4 -40 -10 -40 -5 0 -10 -13 -10 -30 0 -16 -4 -30 -10 -30 -5 0
-10 -13 -10 -30 0 -16 -4 -30 -10 -30 -5 0 -10 -18 -10 -40 0 -22 -4 -40 -10
-40 -5 0 -10 -13 -10 -30 0 -16 -4 -30 -10 -30 -5 0 -10 -13 -10 -30 0 -16 -4
-30 -10 -30 -5 0 -10 -18 -10 -40 0 -22 -4 -40 -10 -40 -5 0 -10 -18 -10 -40
0 -22 -4 -40 -10 -40 -5 0 -10 -13 -10 -30 0 -16 -4 -30 -10 -30 -5 0 -10 -18
-10 -40 0 -22 -4 -40 -10 -40 -5 0 -10 -13 -10 -30 0 -16 -4 -30 -10 -30 -5 0
-10 -13 -10 -30 0 -16 -4 -30 -10 -30 -5 0 -10 -18 -10 -40 0 -22 -4 -40 -10
-40 -5 0 -10 -9 -10 -20 0 -11 -4 -20 -10 -20 -5 0 -10 -13 -10 -30 0 -16 -4
-30 -10 -30 -5 0 -10 -9 -10 -20 0 -11 -4 -20 -10 -20 -5 0 -10 -13 -10 -30 0
-16 -4 -30 -10 -30 -5 0 -10 -9 -10 -20 0 -11 -4 -20 -10 -20 -5 0 -10 -9 -10
-20 0 -11 -4 -20 -10 -20 -5 0 -10 -8 -10 -18 0 -10 -9 -24 -20 -32 -11 -8
-20 -21 -20 -30 0 -9 -9 -22 -20 -30 -11 -8 -20 -21 -20 -30 0 -9 -9 -22 -20
-30 -11 -8 -20 -21 -20 -28 0 -8 -13 -27 -30 -42 -16 -15 -30 -33 -30 -40 0
-6 -22 -33 -50 -60 -27 -27 -50 -54 -50 -60 0 -14 -86 -100 -101 -100 -6 0
-24 -13 -39 -30 -15 -16 -35 -30 -44 -30 -9 0 -16 -4 -16 -10 0 -5 -9 -10 -20
-10 -11 0 -20 -4 -20 -10 0 -5 -9 -10 -20 -10 -11 0 -20 -4 -20 -10 0 -5 -9
-10 -20 -10 -11 0 -20 -4 -20 -10 0 -5 -13 -10 -30 -10 -16 0 -30 -4 -30 -10
0 -5 -9 -10 -20 -10 -11 0 -20 -4 -20 -10 0 -5 -13 -10 -30 -10 -16 0 -30 -4
-30 -10 0 -5 -13 -10 -30 -10 -16 0 -30 -4 -30 -10 0 -5 -13 -10 -30 -10 -16
0 -30 -4 -30 -10 0 -5 -18 -10 -40 -10 -22 0 -40 -4 -40 -10 0 -5 -18 -10 -40
-10 -22 0 -40 -4 -40 -10 0 -6 -30 -10 -70 -10 -40 0 -70 -4 -70 -10 0 -6
-100 -10 -280 -10 -180 0 -280 4 -280 10 0 6 -27 10 -60 10 -33 0 -60 4 -60
10 0 6 -22 10 -50 10 -27 0 -50 5 -50 10 0 6 -13 10 -30 10 -16 0 -30 5 -30
10 0 6 -18 10 -40 10 -22 0 -40 5 -40 10 0 6 -9 10 -20 10 -11 0 -20 5 -20 10
0 6 -13 10 -30 10 -16 0 -30 5 -30 10 0 6 -9 10 -20 10 -11 0 -20 5 -20 10 0
6 -9 10 -20 10 -11 0 -20 5 -20 10 0 6 -9 10 -20 10 -11 0 -20 5 -20 10 0 6
-9 10 -20 10 -11 0 -20 5 -20 10 0 6 -8 10 -18 10 -10 0 -24 9 -32 20 -8 11
-21 20 -30 20 -9 0 -22 9 -30 20 -8 11 -20 20 -27 20 -16 0 -203 185 -203 201
0 6 -13 24 -30 39 -16 15 -30 34 -30 42 0 7 -9 20 -20 28 -11 8 -20 22 -20 32
0 10 -4 18 -10 18 -5 0 -10 8 -10 18 0 10 -9 24 -20 32 -11 8 -20 22 -20 32 0
10 -4 18 -10 18 -5 0 -10 9 -10 20 0 11 -4 20 -10 20 -5 0 -10 9 -10 20 0 11
-4 20 -10 20 -5 0 -10 9 -10 20 0 11 -4 20 -10 20 -5 0 -10 9 -10 20 0 11 -4
20 -10 20 -5 0 -10 14 -10 30 0 17 -4 30 -10 30 -5 0 -10 9 -10 20 0 11 -4 20
-10 20 -5 0 -10 14 -10 30 0 17 -4 30 -10 30 -5 0 -10 14 -10 30 0 17 -4 30
-10 30 -5 0 -10 18 -10 40 0 22 -4 40 -10 40 -5 0 -10 14 -10 30 0 17 -4 30
-10 30 -5 0 -10 18 -10 40 0 22 -4 40 -10 40 -5 0 -10 23 -10 50 0 28 -4 50
-10 50 -5 0 -10 18 -10 40 0 22 -4 40 -10 40 -5 0 -10 23 -10 50 0 28 -4 50
-10 50 -5 0 -10 23 -10 50 0 28 -4 50 -10 50 -5 0 -10 18 -10 40 0 22 -4 40
-10 40 -5 0 -10 18 -10 40 0 22 -4 40 -10 40 -5 0 -10 14 -10 30 0 17 -4 30
-10 30 -5 0 -10 14 -10 30 0 17 -4 30 -10 30 -5 0 -10 14 -10 30 0 17 -4 30
-10 30 -5 0 -10 9 -10 20 0 11 -4 20 -10 20 -5 0 -10 14 -10 30 0 17 -4 30
-10 30 -5 0 -10 14 -10 30 0 17 -4 30 -10 30 -5 0 -10 14 -10 30 0 17 -4 30
-10 30 -5 0 -10 9 -10 20 0 11 -4 20 -10 20 -5 0 -10 14 -10 30 0 17 -4 30
-10 30 -5 0 -10 14 -10 30 0 17 -4 30 -10 30 -5 0 -10 14 -10 30 0 17 -4 30
-10 30 -5 0 -10 14 -10 30 0 17 -4 30 -10 30 -5 0 -10 14 -10 30 0 17 -4 30
-10 30 -5 0 -10 18 -10 40 0 22 -4 40 -10 40 -5 0 -10 18 -10 40 0 22 -4 40
-10 40 -5 0 -10 14 -10 30 0 17 -4 30 -10 30 -5 0 -10 14 -10 30 0 17 -4 30
-10 30 -5 0 -10 9 -10 20 0 11 -4 20 -10 20 -5 0 -10 9 -10 20 0 11 -4 20 -10
20 -5 0 -10 9 -10 20 0 11 -4 20 -10 20 -5 0 -10 9 -10 20 0 11 -4 20 -10 20
-5 0 -10 8 -10 18 0 10 -9 24 -20 32 -11 8 -20 22 -20 32 0 10 -4 18 -10 18
-5 0 -10 9 -10 20 0 11 -4 20 -10 20 -5 0 -10 8 -10 18 0 10 -9 24 -20 32 -11
8 -20 22 -20 32 0 10 -4 18 -10 18 -5 0 -10 9 -10 20 0 11 -4 20 -10 20 -5 0
-10 9 -10 20 0 11 -4 20 -10 20 -5 0 -10 9 -10 20 0 11 -4 20 -10 20 -5 0 -10
9 -10 20 0 11 -4 20 -10 20 -5 0 -10 9 -10 20 0 11 -4 20 -10 20 -5 0 -10 9
-10 20 0 11 -4 20 -10 20 -5 0 -10 9 -10 20 0 11 -4 20 -10 20 -5 0 -10 8 -10
18 0 10 -9 24 -20 32 -11 8 -20 20 -20 27 0 17 -166 183 -183 183 -7 0 -19 9
-27 20 -8 11 -21 20 -30 20 -9 0 -22 9 -30 20 -8 12 -26 20 -42 20 -15 0 -28
5 -28 10 0 6 -18 10 -40 10 -22 0 -40 5 -40 10 0 6 -22 10 -50 10 -27 0 -50 5
-50 10 0 6 -27 10 -60 10 -33 0 -60 -4 -60 -10 0 -5 -13 -10 -30 -10 -16 0
-30 -4 -30 -10 0 -5 -13 -10 -30 -10 -16 0 -30 -4 -30 -10 0 -5 -18 -10 -40
-10 -22 0 -40 -4 -40 -10 0 -5 -13 -10 -30 -10 -16 0 -30 -4 -30 -10 0 -5 -13
-10 -30 -10 -16 0 -30 -4 -30 -10 0 -5 -7 -10 -16 -10 -23 0 -44 -25 -44 -54
0 -14 -4 -26 -10 -26 -5 0 -10 5 -10 10 0 6 -37 10 -90 10 -53 0 -90 -4 -90
-10 0 -5 -9 -10 -20 -10 -11 0 -20 -4 -20 -10 0 -5 -7 -10 -15 -10 -20 0 -645
-625 -645 -645 0 -8 -4 -15 -10 -15 -5 0 -10 -9 -10 -20 0 -11 -4 -20 -10 -20
-15 0 -13 -177 3 -183 7 -2 8 -8 3 -13 -5 -5 -11 -4 -13 4 -3 6 -18 12 -34 12
-16 0 -29 5 -29 10 0 6 -22 10 -50 10 -27 0 -50 5 -50 10 0 6 -33 10 -80 10
-47 0 -80 -4 -80 -10 0 -5 -22 -10 -50 -10 -27 0 -50 -4 -50 -10 0 -5 -13 -10
-30 -10 -16 0 -30 -4 -30 -10 0 -5 -9 -10 -20 -10 -11 0 -20 -4 -20 -10 0 -5
-9 -10 -20 -10 -11 0 -20 -4 -20 -10 0 -5 -8 -10 -18 -10 -10 0 -24 -9 -32
-20 -8 -11 -20 -20 -27 -20 -17 0 -123 -106 -123 -123 0 -7 -9 -19 -20 -27
-11 -8 -20 -22 -20 -32 0 -10 -4 -18 -10 -18 -5 0 -10 -9 -10 -20 0 -11 -4
-20 -10 -20 -5 0 -10 -9 -10 -20 0 -11 -4 -20 -10 -20 -5 0 -10 -13 -10 -30 0
-16 -4 -30 -10 -30 -6 0 -10 -27 -10 -60 0 -33 -4 -60 -10 -60 -5 0 -10 -22
-10 -50 0 -27 5 -50 10 -50 6 0 10 -27 10 -60 0 -33 4 -60 10 -60 6 0 10 -13
10 -30 0 -16 5 -30 10 -30 6 0 10 -9 10 -20 0 -11 5 -20 10 -20 6 0 10 -9 10
-20 0 -11 5 -20 10 -20 6 0 10 -9 10 -20 0 -11 5 -20 10 -20 6 0 10 -7 10 -15
0 -19 144 -165 163 -165 7 0 19 -9 27 -20 8 -11 22 -20 32 -20 10 0 18 -4 18
-10 0 -5 14 -10 30 -10 17 0 30 -4 30 -10 0 -5 9 -10 20 -10 11 0 20 -4 20
-10 0 -5 23 -10 50 -10 28 0 50 -4 50 -10 0 -6 37 -10 90 -10 53 0 90 4 90 10
0 6 23 10 50 10 28 0 50 5 50 10 0 6 14 10 30 10 17 0 30 5 30 10 0 6 9 10 20
10 11 0 20 5 20 10 0 6 9 10 20 10 11 0 20 5 20 10 0 6 7 10 15 10 20 0 205
185 205 205 0 8 5 15 10 15 6 0 10 9 10 20 0 11 5 20 10 20 6 0 10 9 10 20 0
11 5 20 10 20 6 0 10 14 10 30 0 17 5 30 10 30 6 0 10 18 10 40 0 22 5 40 10
40 6 0 10 43 10 110 0 67 -4 110 -10 110 -5 0 -10 18 -10 40 0 22 -4 40 -10
40 -5 0 -10 14 -10 30 0 17 -4 30 -10 30 -5 0 -10 9 -10 20 0 11 -4 20 -10 20
-5 0 -10 9 -10 20 0 11 -4 20 -10 20 -5 0 -10 7 -10 16 0 9 -13 29 -30 44 -16
15 -30 31 -30 34 0 3 27 6 60 6 33 0 60 4 60 10 0 6 9 10 20 10 11 0 20 5 20
10 0 6 7 10 15 10 18 0 605 585 605 603 0 7 9 19 20 27 11 8 20 22 20 32 0 10
5 18 10 18 6 0 10 14 10 30 0 17 5 30 10 30 6 0 10 23 10 50 0 28 -4 50 -10
50 -5 0 -10 5 -10 10 0 6 33 10 80 10 47 0 80 4 80 10 0 6 37 10 90 10 53 0
90 -4 90 -10 0 -5 14 -10 30 -10 17 0 30 -4 30 -10 0 -5 13 -10 28 -10 16 0
34 -8 42 -20 8 -11 20 -20 27 -20 17 0 163 -146 163 -163 0 -7 9 -19 20 -27
11 -8 20 -21 20 -30 0 -9 9 -22 20 -30 11 -8 20 -22 20 -32 0 -10 5 -18 10
-18 6 0 10 -9 10 -20 0 -11 5 -20 10 -20 6 0 10 -9 10 -20 0 -11 5 -20 10 -20
6 0 10 -8 10 -18 0 -10 9 -24 20 -32 11 -8 20 -22 20 -32 0 -10 5 -18 10 -18
6 0 10 -9 10 -20 0 -11 5 -20 10 -20 6 0 10 -9 10 -20 0 -11 5 -20 10 -20 6 0
10 -9 10 -20 0 -11 5 -20 10 -20 6 0 10 -9 10 -20 0 -11 5 -20 10 -20 6 0 10
-9 10 -20 0 -11 5 -20 10 -20 6 0 10 -8 10 -18 0 -10 9 -24 20 -32 11 -8 20
-22 20 -32 0 -10 5 -18 10 -18 6 0 10 -9 10 -20 0 -11 5 -20 10 -20 6 0 10 -8
10 -18 0 -10 9 -24 20 -32 12 -8 20 -26 20 -42 0 -15 5 -28 10 -28 6 0 10 -9
10 -20 0 -11 5 -20 10 -20 6 0 10 -13 10 -30 0 -16 5 -30 10 -30 6 0 10 -13
10 -30 0 -16 5 -30 10 -30 6 0 10 -18 10 -40 0 -22 5 -40 10 -40 6 0 10 -18
10 -40 0 -22 5 -40 10 -40 6 0 10 -18 10 -40 0 -22 5 -40 10 -40 6 0 10 -13
10 -30 0 -16 5 -30 10 -30 6 0 10 -13 10 -30 0 -16 5 -30 10 -30 6 0 10 -13
10 -30 0 -16 5 -30 10 -30 6 0 10 -13 10 -30 0 -16 5 -30 10 -30 6 0 10 -18
10 -40 0 -22 5 -40 10 -40 6 0 10 -13 10 -30 0 -16 5 -30 10 -30 6 0 10 -18
10 -40 0 -22 5 -40 10 -40 6 0 10 -18 10 -40 0 -22 5 -40 10 -40 6 0 10 -18
10 -40 0 -22 5 -40 10 -40 6 0 10 -18 10 -40 0 -22 5 -40 10 -40 6 0 10 -22
10 -50 0 -27 5 -50 10 -50 6 0 10 -18 10 -40 0 -22 5 -40 10 -40 6 0 10 -22
10 -50 0 -27 5 -50 10 -50 6 0 10 -18 10 -40 0 -22 5 -40 10 -40 6 0 10 -13
10 -30 0 -16 5 -30 10 -30 6 0 10 -13 10 -30 0 -16 5 -30 10 -30 6 0 10 -13
10 -30 0 -16 5 -30 10 -30 6 0 10 -13 10 -30 0 -16 5 -30 10 -30 6 0 10 -9 10
-20 0 -11 5 -20 10 -20 6 0 10 -9 10 -20 0 -11 5 -20 10 -20 6 0 10 -9 10 -20
0 -11 5 -20 10 -20 6 0 10 -9 10 -20 0 -11 5 -20 10 -20 6 0 10 -9 10 -20 0
-11 5 -20 10 -20 6 0 10 -9 10 -20 0 -11 5 -20 10 -20 6 0 10 -8 10 -18 0 -10
9 -24 20 -32 11 -8 20 -21 20 -30 0 -9 9 -22 20 -30 11 -8 20 -21 20 -30 0 -9
9 -22 20 -30 11 -8 20 -20 20 -28 0 -7 23 -35 50 -62 27 -27 50 -54 50 -59 0
-15 247 -261 261 -261 6 0 24 -13 39 -30 15 -16 34 -30 42 -30 7 0 20 -9 28
-20 8 -11 22 -20 32 -20 10 0 18 -4 18 -10 0 -5 8 -10 18 -10 10 0 24 -9 32
-20 8 -11 22 -20 32 -20 10 0 18 -4 18 -10 0 -5 9 -10 20 -10 11 0 20 -4 20
-10 0 -5 14 -10 30 -10 17 0 30 -4 30 -10 0 -5 9 -10 20 -10 11 0 20 -4 20
-10 0 -5 14 -10 30 -10 17 0 30 -4 30 -10 0 -5 9 -10 20 -10 11 0 20 -4 20
-10 0 -5 18 -10 40 -10 22 0 40 -4 40 -10 0 -5 14 -10 30 -10 17 0 30 -4 30
-10 0 -5 18 -10 40 -10 22 0 40 -4 40 -10 0 -6 27 -10 60 -10 33 0 60 -4 60
-10 0 -6 33 -10 80 -10 47 0 80 -4 80 -10 0 -6 77 -10 210 -10 133 0 210 4
210 10 0 6 33 10 80 10 47 0 80 4 80 10 0 6 27 10 60 10 33 0 60 4 60 10 0 6
18 10 40 10 22 0 40 5 40 10 0 6 18 10 40 10 22 0 40 5 40 10 0 6 14 10 30 10
17 0 30 5 30 10 0 6 14 10 30 10 17 0 30 5 30 10 0 6 14 10 30 10 17 0 30 5
30 10 0 6 9 10 20 10 11 0 20 5 20 10 0 6 14 10 30 10 17 0 30 5 30 10 0 6 9
10 20 10 11 0 20 5 20 10 0 6 9 10 20 10 11 0 20 5 20 10 0 6 8 10 18 10 10 0
24 9 32 20 8 11 22 20 32 20 10 0 18 5 18 10 0 6 8 10 18 10 10 0 24 9 32 20
8 11 21 20 28 20 7 0 31 18 52 40 21 22 43 40 49 40 15 0 121 106 121 121 0 6
18 28 40 49 22 21 40 44 40 50 0 7 14 25 30 40 17 15 30 34 30 42 0 7 9 20 20
28 11 8 20 21 20 30 0 9 9 22 20 30 11 8 20 22 20 32 0 10 5 18 10 18 6 0 10
9 10 20 0 11 5 20 10 20 6 0 10 8 10 18 0 10 9 24 20 32 11 8 20 22 20 32 0
10 5 18 10 18 6 0 10 9 10 20 0 11 5 20 10 20 6 0 10 9 10 20 0 11 5 20 10 20
6 0 10 9 10 20 0 11 5 20 10 20 6 0 10 14 10 30 0 17 5 30 10 30 6 0 10 9 10
20 0 11 5 20 10 20 6 0 10 9 10 20 0 11 5 20 10 20 6 0 10 14 10 30 0 17 5 30
10 30 6 0 10 9 10 20 0 11 5 20 10 20 6 0 10 18 10 40 0 22 5 40 10 40 6 0 10
14 10 30 0 17 5 30 10 30 6 0 10 18 10 40 0 22 5 40 10 40 6 0 10 18 10 40 0
22 5 40 10 40 6 0 10 23 10 50 0 28 5 50 10 50 6 0 10 23 10 50 0 28 5 50 10
50 6 0 10 18 10 40 0 22 5 40 10 40 6 0 10 18 10 40 0 22 5 40 10 40 6 0 10
18 10 40 0 22 5 40 10 40 6 0 10 18 10 40 0 22 5 40 10 40 6 0 10 14 10 30 0
17 5 30 10 30 6 0 10 18 10 40 0 22 5 40 10 40 6 0 10 14 10 30 0 17 5 30 10
30 6 0 10 14 10 30 0 17 5 30 10 30 6 0 10 14 10 30 0 17 5 30 10 30 6 0 10
14 10 30 0 17 5 30 10 30 6 0 10 18 10 40 0 22 5 40 10 40 6 0 10 14 10 30 0
17 5 30 10 30 6 0 10 14 10 30 0 17 5 30 10 30 6 0 10 14 10 30 0 17 5 30 10
30 6 0 10 14 10 30 0 17 5 30 10 30 6 0 10 18 10 40 0 22 5 40 10 40 6 0 10
14 10 30 0 17 5 30 10 30 6 0 10 14 10 30 0 17 5 30 10 30 6 0 10 18 10 40 0
22 5 40 10 40 6 0 10 14 10 30 0 17 5 30 10 30 6 0 10 18 10 40 0 22 5 40 10
40 6 0 10 14 10 30 0 17 5 30 10 30 6 0 10 18 10 40 0 22 5 40 10 40 6 0 10
18 10 40 0 22 5 40 10 40 6 0 10 14 10 30 0 17 5 30 10 30 6 0 10 18 10 40 0
22 5 40 10 40 6 0 10 18 10 40 0 22 5 40 10 40 6 0 10 18 10 40 0 22 5 40 10
40 6 0 10 18 10 40 0 22 5 40 10 40 6 0 10 18 10 40 0 22 5 40 10 40 6 0 10
18 10 40 0 22 5 40 10 40 6 0 10 23 10 50 0 28 5 50 10 50 6 0 10 18 10 40 0
22 5 40 10 40 6 0 10 23 10 50 0 28 5 50 10 50 6 0 10 18 10 40 0 22 5 40 10
40 6 0 10 23 10 50 0 28 5 50 10 50 6 0 10 18 10 40 0 22 5 40 10 40 6 0 10
23 10 50 0 28 5 50 10 50 6 0 10 23 10 50 0 28 5 50 10 50 6 0 10 18 10 40 0
22 5 40 10 40 6 0 10 18 10 40 0 22 5 40 10 40 6 0 10 18 10 40 0 22 5 40 10
40 6 0 10 18 10 40 0 22 5 40 10 40 6 0 10 18 10 40 0 22 5 40 10 40 6 0 10
23 10 50 0 28 5 50 10 50 6 0 10 18 10 40 0 22 5 40 10 40 6 0 10 23 10 50 0
28 5 50 10 50 6 0 10 27 10 60 0 33 4 60 10 60 6 0 10 37 10 90 0 53 4 90 10
90 6 0 10 43 10 110 l0 110 1155 0 1155 0 0 400 0 400 -10860 0 -10860 0 0
-400z"/>
<path d="M34340 6820 c0 -5 -13 -10 -30 -10 -16 0 -30 -4 -30 -10 0 -5 -7 -10
-15 -10 -20 0 -85 -65 -85 -85 0 -8 -4 -15 -10 -15 -5 0 -10 -13 -10 -30 0
-16 -4 -30 -10 -30 -6 0 -10 -27 -10 -60 0 -33 4 -60 10 -60 6 0 10 -11 10
-25 0 -28 99 -135 125 -135 8 0 15 -4 15 -10 0 -5 14 -10 30 -10 17 0 30 -4
30 -10 0 -6 27 -10 60 -10 33 0 60 4 60 10 0 6 14 10 30 10 17 0 30 5 30 10 0
6 7 10 15 10 20 0 105 85 105 105 0 8 5 15 10 15 6 0 10 18 10 40 0 22 5 40
10 40 6 0 10 14 10 30 0 17 -4 30 -10 30 -5 0 -10 14 -10 30 0 17 -4 30 -10
30 -5 0 -10 7 -10 15 0 26 -107 125 -135 125 -14 0 -25 5 -25 10 0 6 -33 10
-80 10 -47 0 -80 -4 -80 -10z"/>
<path d="M35040 6780 c0 -5 -9 -10 -20 -10 -11 0 -20 -4 -20 -10 0 -5 -7 -10
-15 -10 -20 0 -65 -45 -65 -65 0 -8 -4 -15 -10 -15 -5 0 -10 -9 -10 -20 0 -11
-4 -20 -10 -20 -6 0 -10 -30 -10 -70 0 -40 4 -70 10 -70 6 0 10 -11 10 -25 0
-29 79 -115 105 -115 8 0 15 -4 15 -10 0 -5 14 -10 30 -10 17 0 30 -4 30 -10
0 -6 27 -10 60 -10 33 0 60 4 60 10 0 6 9 10 20 10 11 0 20 5 20 10 0 6 7 10
15 10 20 0 105 85 105 105 0 8 5 15 10 15 6 0 10 18 10 39 0 22 6 42 13 45 10
5 10 7 0 12 -7 3 -13 23 -13 45 0 21 -4 39 -10 39 -5 0 -10 7 -10 15 0 20 -85
105 -105 105 -8 0 -15 5 -15 10 0 6 -40 10 -100 10 -60 0 -100 -4 -100 -10z"/>
<path d="M18530 4490 c0 -33 4 -60 10 -60 6 0 10 -43 10 -110 0 -67 4 -110 10
-110 6 0 10 -43 10 -110 0 -67 4 -110 10 -110 6 0 10 -43 10 -110 0 -67 4
-110 10 -110 6 0 10 -40 10 -100 0 -60 4 -100 10 -100 6 0 10 -43 10 -110 0
-67 4 -110 10 -110 6 0 10 -43 10 -110 0 -67 4 -110 10 -110 6 0 10 -40 10
-100 0 -60 4 -100 10 -100 6 0 10 -43 10 -110 0 -67 4 -110 10 -110 6 0 10
-43 10 -110 0 -67 4 -110 10 -110 6 0 10 -43 10 -110 0 -67 4 -110 10 -110 6
0 10 -40 10 -100 0 -60 4 -100 10 -100 6 0 10 -43 10 -110 0 -67 4 -110 10
-110 6 0 10 -43 10 -110 0 -67 4 -110 10 -110 6 0 10 -43 10 -110 0 -67 4
-110 10 -110 6 0 10 -40 10 -100 0 -60 4 -100 10 -100 6 0 10 -43 10 -110 0
-67 4 -110 10 -110 6 0 10 -32 10 -76 l0 -75 -50 -49 c-27 -27 -50 -55 -50
-62 0 -8 -9 -20 -20 -28 -11 -8 -20 -22 -20 -32 0 -10 -4 -18 -10 -18 -5 0
-10 -13 -10 -30 0 -16 -4 -30 -10 -30 -5 0 -10 -18 -10 -40 0 -22 -4 -40 -10
-40 -6 0 -10 -33 -10 -80 0 -47 4 -80 10 -80 6 0 10 -18 10 -40 0 -22 5 -40
10 -40 6 0 10 -13 10 -30 0 -16 5 -30 10 -30 6 0 10 -8 10 -18 0 -10 9 -24 20
-32 11 -8 20 -20 20 -27 0 -8 26 -39 57 -71 l58 -57 431 -3 432 -3 71 70 c39
39 71 77 71 86 0 8 5 15 10 15 6 0 10 9 10 20 0 11 5 20 10 20 6 0 10 9 10 20
0 11 5 20 10 20 6 0 10 18 10 40 0 22 5 40 10 40 6 0 10 43 10 110 0 67 -4
110 -10 110 -5 0 -10 14 -10 30 0 17 -4 30 -10 30 -5 0 -10 9 -10 20 0 11 -4
20 -10 20 -5 0 -10 9 -10 20 0 11 -4 20 -10 20 -5 0 -10 7 -10 16 0 8 -18 33
-40 54 l-40 38 0 116 c0 71 4 116 10 116 6 0 10 43 10 110 0 67 4 110 10 110
6 0 10 40 10 100 0 60 4 100 10 100 6 0 10 43 10 110 0 67 4 110 10 110 6 0
10 43 10 110 0 67 4 110 10 110 6 0 10 43 10 110 0 67 4 110 10 110 6 0 10 40
10 100 0 60 4 100 10 100 6 0 10 43 10 110 0 67 4 110 10 110 6 0 10 43 10
110 0 67 4 110 10 110 6 0 10 43 10 110 0 67 4 110 10 110 6 0 10 40 10 100 0
60 4 100 10 100 6 0 10 43 10 110 0 67 4 110 10 110 6 0 10 43 10 110 0 67 4
110 10 110 6 0 10 43 10 110 0 67 4 110 10 110 6 0 10 40 10 100 0 60 4 100
10 100 6 0 10 43 10 110 0 67 4 110 10 110 6 0 10 43 10 110 0 67 4 110 10
110 6 0 10 18 10 40 l0 40 -810 0 -810 0 0 -60z"/>
<path d="M21950 4450 c0 -60 4 -100 10 -100 6 0 10 -43 10 -110 0 -67 4 -110
10 -110 6 0 10 -43 10 -110 0 -67 4 -110 10 -110 6 0 10 -40 10 -100 0 -60 4
-100 10 -100 6 0 10 -43 10 -110 0 -67 4 -110 10 -110 6 0 10 -43 10 -110 0
-67 4 -110 10 -110 6 0 10 -43 10 -110 0 -67 4 -110 10 -110 6 0 10 -40 10
-100 0 -60 4 -100 10 -100 6 0 10 -43 10 -110 0 -67 4 -110 10 -110 6 0 10
-43 10 -110 0 -67 4 -110 10 -110 6 0 10 -43 10 -110 0 -67 4 -110 10 -110 6
0 10 -40 10 -100 0 -60 4 -100 10 -100 6 0 10 -43 10 -110 0 -67 4 -110 10
-110 6 0 10 -43 10 -110 0 -67 4 -110 10 -110 6 0 10 -40 10 -100 0 -60 4
-100 10 -100 6 0 10 -43 10 -110 0 -67 4 -110 10 -110 6 0 10 -43 10 -110 0
-67 4 -110 10 -110 6 0 10 -16 10 -36 0 -29 -8 -44 -50 -84 -27 -27 -50 -55
-50 -62 0 -8 -9 -20 -20 -28 -11 -8 -20 -22 -20 -32 0 -10 -4 -18 -10 -18 -5
0 -10 -9 -10 -20 0 -11 -4 -20 -10 -20 -5 0 -10 -18 -10 -40 0 -22 -4 -40 -10
-40 -6 0 -10 -40 -10 -100 0 -60 4 -100 10 -100 6 0 10 -13 10 -30 0 -16 5
-30 10 -30 6 0 10 -13 10 -30 0 -16 5 -30 10 -30 6 0 10 -8 10 -18 0 -10 9
-24 20 -32 11 -8 20 -20 20 -28 0 -7 27 -40 61 -73 l60 -59 429 0 429 0 60 59
c34 33 61 66 61 73 0 8 9 20 20 28 11 8 20 22 20 32 0 10 5 18 10 18 6 0 10
14 10 30 0 17 5 30 10 30 6 0 10 14 10 30 0 17 5 30 10 30 6 0 10 40 10 100 0
60 -4 100 -10 100 -5 0 -10 14 -10 30 0 17 -4 30 -10 30 -5 0 -10 14 -10 30 0
17 -4 30 -10 30 -5 0 -10 8 -10 18 0 10 -9 24 -20 32 -11 8 -20 21 -20 28 0 8
-13 27 -30 42 -30 28 -30 28 -30 144 0 71 4 116 10 116 6 0 10 40 10 100 0 60
4 100 10 100 6 0 10 43 10 110 0 67 4 110 10 110 6 0 10 43 10 110 0 67 4 110
10 110 6 0 10 43 10 110 0 67 4 110 10 110 6 0 10 40 10 100 0 60 4 100 10
100 6 0 10 43 10 110 0 67 4 110 10 110 6 0 10 43 10 110 0 67 4 110 10 110 6
0 10 43 10 110 0 67 4 110 10 110 6 0 10 40 10 100 0 60 4 100 10 100 6 0 10
43 10 110 0 67 4 110 10 110 6 0 10 43 10 110 0 67 4 110 10 110 6 0 10 43 10
110 0 67 4 110 10 110 6 0 10 40 10 100 0 60 4 100 10 100 6 0 10 43 10 110 0
67 4 110 10 110 6 0 10 43 10 110 0 67 4 110 10 110 6 0 10 40 10 100 0 60 4
100 10 100 6 0 10 23 10 50 l0 50 -810 0 -810 0 0 -100z"/>
</g>
</svg>
