<?xml version="1.0" encoding="utf-8"?>
<!-- Generator: Adobe Illustrator 21.0.0, SVG Export Plug-In . SVG Version: 6.00 Build 0)  -->
<svg version="1.1" id="Capa_1" xmlns="http://www.w3.org/2000/svg" xmlns:xlink="http://www.w3.org/1999/xlink" x="0px" y="0px"
	 viewBox="0 0 300 300" style="enable-background:new 0 0 300 300;" xml:space="preserve">
<style type="text/css">
	.st0{fill:#EF596F;}
	.st1{opacity:0.28;fill:url(#SVGID_1_);}
	.st2{fill:#353819;}
	.st3{fill:#FAC9B5;}
	.st4{fill:#1C130A;}
	.st5{fill:#C1938A;}
	.st6{fill:none;stroke:#FFFFFF;stroke-width:0.5;stroke-miterlimit:10;}
	.st7{fill:none;stroke:#464747;stroke-width:0.5;stroke-miterlimit:10;}
	.st8{fill:none;}
	.st9{fill:#1E1E1D;}
	.st10{fill:#2D2117;}
	.st11{fill:#A16E89;}
	.st12{fill:#511D39;}
	.st13{opacity:0.39;}
	.st14{fill:#702A4D;}
	.st15{fill:#FAC9B5;stroke:#A37D76;stroke-miterlimit:10;}
	.st16{fill:#FFFFFF;}
	.st17{fill:#423411;}
	.st18{fill:#CD9C8B;}
	.st19{fill:#FFFFFF;stroke:#FFFFFF;stroke-width:0.5;stroke-miterlimit:10;}
	.st20{fill:#544232;}
	.st21{fill:none;stroke:#544232;stroke-width:0.25;stroke-miterlimit:10;}
	.st22{fill:url(#SVGID_2_);}
	.st23{fill:url(#SVGID_3_);}
	.st24{opacity:0.28;fill:url(#SVGID_4_);}
</style>
<path class="st0" d="M288,95.2C265.2,43.4,212.5,7,151,7C68.7,7,2,72.1,2,152.5S68.7,298,151,298c1,0,2,0,3,0l2-283
	C155.9,3.7,243.1,59.8,288,95.2z"/>
<path class="st0" d="M300,152.5c0-20.3-4.3-39.7-12-57.3C243.1,59.8,155.9,3.7,156,15l-2,283C234.9,296.4,300,231.9,300,152.5z"/>
<linearGradient id="SVGID_1_" gradientUnits="userSpaceOnUse" x1="174.608" y1="-22.8921" x2="196.4828" y2="77.475">
	<stop  offset="0" style="stop-color:#FFFFFF"/>
	<stop  offset="1.957105e-04" style="stop-color:#F6F6F6"/>
	<stop  offset="1.264286e-03" style="stop-color:#C8C8C8"/>
	<stop  offset="2.468570e-03" style="stop-color:#9D9D9D"/>
	<stop  offset="3.762894e-03" style="stop-color:#777777"/>
	<stop  offset="5.171730e-03" style="stop-color:#575757"/>
	<stop  offset="6.728693e-03" style="stop-color:#3B3B3B"/>
	<stop  offset="8.486005e-03" style="stop-color:#252525"/>
	<stop  offset="1.053891e-02" style="stop-color:#141414"/>
	<stop  offset="1.307624e-02" style="stop-color:#090909"/>
	<stop  offset="1.663635e-02" style="stop-color:#020202"/>
	<stop  offset="2.651815e-02" style="stop-color:#000000"/>
</linearGradient>
<path class="st1" d="M300,152.5c0-20.3-4.3-39.7-12-57.3C243.1,59.8,155.9,3.7,156,15l-2,283C234.9,296.4,300,231.9,300,152.5z"/>
<path class="st2" d="M62.4,270.3c0,0,0.1,0.1,0.3,0.2c-0.1-0.5-0.2-1-0.3-1.5V270.3z"/>
<path class="st2" d="M161.5,176.6l49.1-1.1c-1.4-0.2-2.9-0.3-4.3-0.2l-48.3,1.1l3.5,0.1V176.6z"/>
<path class="st2" d="M245.5,272.3V271c-0.1,0.5-0.2,1-0.3,1.5C245.4,272.3,245.5,272.3,245.5,272.3z"/>
<path class="st2" d="M154.4,176.4l3.5-0.1l-48.3-1.1c-1.5,0-2.9,0.1-4.3,0.2l49.1,1.1V176.4z"/>
<path class="st2" d="M245.7,218.6c0,0,0,0.5-0.2,0.1l-5.5-22.4c-1.1-3.9-10.5-11.5-14.4-14l-5.4-3.4c-2.8-1.8-6.1-2.9-9.6-3.4
	l-49.1,1.2v-0.2l-3.5-0.1l-3.5,0.1v0.2l-49.1-1.2c-3.5,0.5-6.8,1.6-9.6,3.4l-5.4,3.4c-3.9,2.4-13.3,10.1-14.4,14l-5.5,22.4
	c-0.1,0.4-0.2-0.1-0.2-0.1c0,0,0.2,1.9,0.2,15.8v40.2C93.5,290,121.2,299,151,299c36,0,69-13.1,94.5-34.9v-29.7
	C245.5,220.5,245.7,218.6,245.7,218.6z"/>
<path class="st3" d="M134.2,159.2l-1,12.1c0.3,0.5-1.5,1.6-1.2,2.1l15.4,21.4c2.1,3.5,3.8,7.1,5,10.9c4.2,13.1,6.4-1.7,8.1-5
	l15.2-30.1v-11.8"/>
<path class="st4" d="M172.3,158.7l2.1,14.7c-0.2,1.8-0.5,3.5-1,5.2l-0.1,1.5c-0.8,9.8,0.4,19.6,2.4,29.3c0,0,0,0.1,0,0.1l0,0.2
	c0,2.4,0.7,4.7,1.7,6.8c2.9,6.4-8.1,30-4,36.8c10.2,16.6-8.6,38.3-8.6,38.3L188,293c-5.3,2.4,25.4-4.7,38-15l1-8.7v0
	c3-4.1,4.4-9.1,3.9-14.2l-0.7-6.3c-0.1-1.3-0.2-2.5-0.2-3.8v-15.8v-11l-2-15.3l-6.3-14.7h0c-2.1-6.8-1.3-14.2,2.3-20.3l0.4-0.7
	l1.5-6c1.4-5.7,1.7-11.7,0.8-17.6l-0.9-5.8l-3-12.3l-4.3-12.5v0c-2.4-7.3-3.1-15.1-2-22.8v0c0-0.2,0-0.4,0-0.6l-0.5-4.1
	c-0.6-5.1-1.5-10.1-2.9-15l0,0c-1.7-6.2-4-12.2-6.8-18l0,0c-1-2-2-3.9-3.1-5.8l-1.5-2.6c-2.4-4.2-5.2-8.1-8.3-11.7l0,0
	c-2.4-2.8-4.9-5.3-7.7-7.7l0,0c-3.3-2.7-7.3-4.2-11.6-4.2h0c-0.4,0-0.7-0.1-1.1-0.3l-5.7-3.3c-5.4-3.1-11.5-4.8-17.7-4.8h0
	c-7.2,0-14.3,1.2-21.1,3.5l0,0c-4.8,1.6-9.3,4.1-13.2,7.2l0,0c-5.6,4.4-10.5,9.6-14.4,15.5l-9.4,14.1L88.5,59
	c-3.6,8.2-6.3,16.7-8,25.5l-0.6,3.1c-1.1,5.7-1.6,11.6-1.6,17.4v12.5c0,4.9,0.5,9.8,1.4,14.7l0,0c1.1,5.5,0.6,11.2-1.4,16.4v0h0
	c-1.1,4.2-1.1,8.5-0.1,12.7l0.7,3l7.3,10.7l0,0c4.9,4.9,7.5,11.6,7.3,18.5L93,210l1.3,14l-0.3,5c-0.2,3.6-0.1,7.1,0.2,10.7l0.3,2.5
	c0.5,4.7,1.9,9.3,4.1,13.4v0h0c1.5,7,1.2,14.3-0.9,21.1l-0.4,1.2h0c-1.5,7,3.8,13.7,11,13.7h45.8l-2.7-22l-7.1-22.3l-3.2-12
	c-1-3.7-1.3-7.6-0.9-11.4v0c1.1-10.4-0.2-21-3.9-30.8l-1.7-4.4l-1.8-13.8l-0.1-7.6l1.3-8.2"/>
<g>
	<path class="st3" d="M199.2,106.2l-0.3,3.6l-0.6,4.3l-0.9,5.5l-0.8,5l-1.1,4.3l-1.5,3.4l-1.4,3.1l-2,3.9l-2.4,3.5l-2.3,3.1
		l-2.3,2.5l-2.4,2.8l-2.9,2.9l-2.1,1.9l-4.1,2.8l-3.3,2.4l-2.9,1.8l-3.8,1.6l-4.1,1.3h-1.9h-4.3h-3.3l-3.6-0.8l-3.8-1.3l-4-2.3
		l-3.4-2.3l-3.5-2.2l-4.7-3.2l-2.5-2.3l-3.8-4l-3.3-4.5L113,138l-2.8-6.1l-2.1-6l-1.5-6.3l-1.5-5.3l-0.8-4.3l-0.8-4.5l0.3-12.6"/>
	<path class="st5" d="M199.2,106.2l-0.2,2.3c0,0.8-0.1,1.5-0.2,2.3c-0.2,1.5-0.4,3.1-0.7,4.6c-0.5,3-0.9,6.1-1.4,9.1l0,0l-1.1,4.3
		l0,0l0,0l-2.3,5.2l-0.6,1.3l-0.7,1.3l-1.3,2.6l0,0l0,0l-2.3,3.3l-2.4,3.3l0,0l0,0l-2.3,2.6l-2.3,2.7l0,0l0,0l-2.4,2.4
		c-0.8,0.8-1.7,1.5-2.6,2.3l0,0l0,0l-3.7,2.5c-0.6,0.4-1.2,0.9-1.8,1.3l-1.8,1.3l0,0l0,0l-2.9,1.8l0,0l0,0l-3.7,1.6l0,0l0,0
		l-4.1,1.3l0,0l0,0l-9.4,0l0,0l0,0l-3.6-0.7l0,0l0,0l-3.7-1.3l0,0l0,0l-4-2.3l0,0l0,0l-2.9-1.9c-1-0.6-1.9-1.2-2.9-1.8
		c-1.9-1.2-3.8-2.6-5.7-3.8l0,0l0,0l-1.6-1.5c-0.6-0.5-1.1-1-1.6-1.6l-3.1-3.2l0,0l0,0l-3.4-4.6l-3.3-4.7l0,0l0,0l-2.7-6.1l0,0l0,0
		l-2.1-6l0,0l-1.4-5.9c-0.2-1-0.5-1.9-0.8-2.9l-0.8-2.9l0,0c-0.6-2.9-1.1-5.9-1.7-8.8l0,0l0.3-12.6l-0.3,12.6l0,0
		c0.5,2.9,1.1,5.9,1.7,8.8l0,0l0.8,2.9c0.3,1,0.6,1.9,0.8,2.9l1.4,5.9l0,0l2.1,6l0,0l2.8,6.1l0,0l3.3,4.7l3.4,4.6l0,0l3.1,3.2
		c0.5,0.5,1,1.1,1.6,1.6l1.6,1.5l0,0c1.9,1.3,3.8,2.6,5.7,3.8c1,0.6,2,1.2,2.9,1.8l2.9,1.9l0,0l4,2.2l0,0l3.8,1.2l0,0l3.6,0.8l0,0
		l9.4,0l0,0l4.1-1.2l0,0l3.8-1.6l0,0l2.9-1.7l0,0l1.8-1.3c0.6-0.4,1.2-0.9,1.8-1.3l3.7-2.5l0,0c0.9-0.8,1.8-1.5,2.6-2.3l2.4-2.4l0,0
		l2.3-2.6l2.3-2.6l0,0l2.4-3.3l2.3-3.3l0,0l1.3-2.5l0.7-1.3l0.6-1.3l2.3-5.2l0,0l1.1-4.2l0,0c0.5-3,0.9-6.1,1.4-9.1
		c0.3-1.5,0.5-3,0.7-4.6c0.1-0.8,0.2-1.5,0.3-2.3L199.2,106.2z"/>
</g>
<path class="st3" d="M199,106.4l0.1-12.2v-6.5v-5.2c0-2.4-0.3-4.7-1-6.9l-1.2-4l0,0c-0.7-2.4-2-4.7-3.8-6.5l-1.4-1.5
	c-1.3-1.4-2.4-3-3.1-4.8c-1.1-2.7-2.1-5.7-4-7.4l-3.2-2.9c-1.5-1.4-3.6-1.9-5.6-1.5l-2.7,0.6c-0.2,0.1-0.5,0.1-0.7,0.2l-9.2,3.2
	c-1.4,0.5-2.8,0.9-4.2,1.2l-13,2.8c-0.1,0-0.3,0.1-0.4,0.1l-8.4,2.4c-1.7,0.5-3.3,1.1-4.9,1.9l-4.1,2.1c-2,1-3.9,2.2-5.6,3.6
	l-5.7,4.4c-2.5,2-4.6,4.4-6.2,7.3l-4.5,8.1c-0.2,0.4-0.4,0.8-0.5,1.3l-2,6.9"/>
<g>
	<path class="st7" d="M101.8,95.6l3.5,0c0.8,0,1.5-0.6,1.7-1.4l0,0c0.1-0.4,0.4-0.8,0.7-1l0,0c0.9-0.7,2-1.1,3.2-1.2l12.8-1.5
		c0.1,0,0.1,0,0.2,0l7-0.6l13,0.5c0.1,0,0.2,0,0.3,0l0.8,0.1c1.9,0.3,3.7,2.2,4.5,3.7l-0.7-1.6"/>
	<path class="st7" d="M148.7,92.7l14.3,0l0,1.4l-13.6,0.2l0,3.1l0,0.4c0,2.3-0.6,4.5-1.8,6.4l0,0c-0.2,0.4-0.5,0.7-0.7,1v0
		c-1.7,1.9-3.9,3.3-6.3,4l-1.9,0.5c-0.6,0.2-1.2,0.3-1.8,0.4l-8.1,1.5c-0.4,0.1-0.4,0.1-0.8,0.1l-11,0.1l-1.5,0
		c-1.9,0-3.7-0.8-5-2.2v0c-0.9-0.9-1.5-2.1-1.7-3.3l-0.9-4.6c-0.1-0.2-0.1-0.5-0.1-0.8l-0.6-6.7"/>
	<path class="st7" d="M163,92.6l0.6-1.8c0.1-0.3,0.3-0.6,0.6-0.8h0c1.3-0.7,2.6-1.1,4.1-1.3l3.3-0.5l8.7-1.3c0.1,0,0.1,0,0.2,0
		l11.9,0l9.3,0c0.4,0,0.8,0.2,1.1,0.5l0,0c0.5,0.6,0.7,1.4,0.7,2.2l0,1.7c0,0.1,0,0.1,0,0.2l-0.8,6.2c0,0,0,0.1,0,0.1l-0.6,2.8
		c-0.3,1.7-1.3,3.2-2.7,4.1l0,0c-0.1,0.1-0.2,0.1-0.4,0.2l-4.2,1.3c-1.4,0.4-2.8,0.8-4.3,1l-3.6,0.5c-0.1,0-0.1,0-0.2,0l-5.5,0
		l-0.9,0c-3.2,0-6.4-0.5-9.5-1.6l0,0c0,0,0,0-0.1,0l-1.4-0.6c-2.4-1-4.2-2.9-4.9-5.3v0c0,0,0-0.1,0-0.1l-1.4-6.2"/>
	<path class="st7" d="M107.6,101l-4.3-0.3c-0.8,0.1-1.6-0.6-1.6-1.4l0-1.6l0-2c0-0.1,0-0.1,0-0.2l-0.5-3.3c-0.1-0.9,0.5-1.7,1.4-1.7
		l0,0c0.6,0,1.2,0.4,1.4,1l1.2,4"/>
	<path class="st7" d="M203.5,90l4.6,0l0.2,3.4c0,0.9-0.6,1.6-1.5,1.6l-3.8,0.3l-3.6-3.4"/>
	<line class="st7" x1="208.1" y1="90" x2="201.7" y2="87"/>
</g>
<path class="st8" d="M144.9,90.6l-0.8-0.1c-0.1,0-0.2,0-0.3,0l-13-0.5l-7,0.6c-0.1,0-0.1,0-0.2,0L110.9,92c-1.1,0.1-2.2,0.6-3.2,1.2
	c-0.4,0.2-0.6,0.6-0.7,1l0.6,6.7c0,0.3,0.1,0.5,0.1,0.8l0.9,4.6c0.3,1.3,0.9,2.4,1.7,3.3h0c1.3,1.4,3.1,2.2,5,2.2l1.5,0l11-0.1
	c0.4,0,0.4,0,0.8-0.1l8.1-1.5c0.6-0.1,1.2-0.3,1.8-0.4l1.9-0.5c2.4-0.7,4.6-2.1,6.3-4c0.3-0.3,0.5-0.6,0.7-1
	c1.2-1.9,1.8-4.2,1.8-6.4l0-0.4l0-3.1C148.6,92.8,146.8,90.9,144.9,90.6z"/>
<path class="st9" d="M105.3,95.6l-3.5,0L105.3,95.6l-1.2-4c-0.2-0.6-0.7-1-1.4-1c-0.9,0-1.6,0.8-1.4,1.7l0.5,3.3c0,0.1,0,0.1,0,0.2
	l0,2l0,1.6c0,0.8,0.7,1.5,1.6,1.4l4.3,0.3l-0.6-6.7C106.8,95.1,106.1,95.6,105.3,95.6z"/>
<polygon class="st9" points="148.7,92.7 149.4,94.2 163,94.1 163,92.6 "/>
<path class="st8" d="M203.5,91.4l0-1.7c0-0.8-0.3-1.5-0.7-2.2c0,0,0,0,0,0l-1-0.5l-9.3,0l-11.9,0c-0.1,0-0.1,0-0.2,0l-8.7,1.3
	l-3.3,0.5c-1.4,0.2-2.8,0.7-4.1,1.3c-0.3,0.2-0.5,0.4-0.6,0.8l-0.6,1.8l0,1.4l1.4,6.2c0,0,0,0.1,0,0.1c0.8,2.4,2.6,4.4,4.9,5.3
	l1.4,0.6c0,0,0,0,0.1,0c3,1.1,6.2,1.6,9.5,1.6l0.9,0l5.5,0c0.1,0,0.1,0,0.2,0l3.6-0.5c1.5-0.2,2.9-0.6,4.3-1l4.2-1.3
	c0.1,0,0.3-0.1,0.4-0.2c1.4-1,2.4-2.5,2.7-4.1l0.6-2.8c0,0,0-0.1,0-0.1l0.3-2.4l0,0l-3.6-3.4l3.6,3.4l0,0l0.5-3.8
	C203.5,91.5,203.5,91.4,203.5,91.4z"/>
<path class="st8" d="M203.5,89.7c0-0.8-0.3-1.5-0.7-2.2c0,0,0,0,0,0l-1-0.5l-2.6,0l0.3,5l-0.3-5l-6.8,0l-11.9,0c-0.1,0-0.1,0-0.2,0
	l-8.7,1.3l-3.3,0.5c-1.4,0.2-2.8,0.7-4.1,1.3c-0.3,0.2-0.5,0.4-0.6,0.8l-0.6,1.8l0,1.4l1.4,6.2c0,0,0,0.1,0,0.1
	c0.8,2.4,2.6,4.4,4.9,5.3l1.4,0.6c0,0,0,0,0.1,0c3,1.1,6.2,1.6,9.5,1.6l0.9,0l5.5,0c0.1,0,0.1,0,0.2,0l3.6-0.5
	c1.5-0.2,2.9-0.6,4.3-1l4.2-1.3c0.1,0,0.3-0.1,0.4-0.2c1.4-1,2.4-2.5,2.7-4.1l0.6-2.8c0,0,0-0.1,0-0.1l0.3-2.4l-3.6-3.4l3.6,3.4
	l0.5-3.8c0-0.1,0-0.1,0-0.2L203.5,89.7z"/>
<path class="st8" d="M199.2,87l-6.8,0l-11.9,0c-0.1,0-0.1,0-0.2,0l-8.7,1.3l-3.3,0.5c-1.4,0.2-2.8,0.7-4.1,1.3
	c-0.3,0.2-0.5,0.4-0.6,0.8l-0.6,1.8l0,1.4l1.4,6.2c0,0,0,0.1,0,0.1c0.8,2.4,2.6,4.4,4.9,5.3l1.4,0.6c0,0,0,0,0.1,0
	c3,1.1,6.2,1.6,9.5,1.6l0.9,0l5.5,0c0.1,0,0.1,0,0.2,0l3.6-0.5c1.5-0.2,2.9-0.6,4.3-1l4.2-1.3c0.1,0,0.3-0.1,0.4-0.2
	c1.4-1,2.4-2.5,2.7-4.1l0.6-2.8c0,0,0-0.1,0-0.1l0.3-2.4l-3.6-3.4L199.2,87z"/>
<path class="st9" d="M203.5,91.4l0-1.7c0-0.8-0.3-1.5-0.7-2.2c0,0,0,0,0,0l-1-0.5l-2.6,0l0.3,5l3.6,3.4l0.5-3.8
	C203.5,91.5,203.5,91.4,203.5,91.4z"/>
<path class="st8" d="M201.7,87l1,0.5C202.5,87.2,202.1,87,201.7,87z"/>
<path class="st10" d="M106.9,90.1l8-3.3c1.1-0.4,2.2-0.7,3.4-0.7h4.4c1.8,0,3.6,0.1,5.3,0.4l7.5,1c0,0,5.7,1.3,8.5,1
	c0.9-0.1,1.4-1.4,1.4-1.6v0c0-0.1,0-0.2-0.1-0.3c-0.5-1.2-1.7-2-3-2.2l-5.7-0.8l-10.5-2L121,81c-1-0.1-1.9,0.1-2.8,0.5l-3.4,1.8
	c-2.7,1.4-5.2,3.4-7.1,5.8L106.9,90.1z"/>
<path class="st10" d="M164.1,83.7l7.4-2.6c0,0,0.1,0,0.1,0l7.2-2.2c1.8-0.5,3.7-0.8,5.6-0.8l0,0l0,0c2,0,4,0.7,5.6,1.9l6.3,4.8
	c0.1,0.1,0.1,0.1,0.2,0.2l1.4,1.4l-2.4-0.7c-0.1,0-0.2-0.1-0.3-0.1l-5.3-2.4c-1.3-0.6-2.8-0.9-4.3-0.7l-1.7,0.2
	c-0.6,0.1-1.2,0.2-1.7,0.4l-4.9,1.5c-0.4,0.1-0.9,0.3-1.3,0.4l-5.7,1.5l-4.4,1.1c-1.3,0.3-2.5-0.5-2.8-1.8v0
	C162.9,84.8,163.3,84,164.1,83.7z"/>
<g>
	<path class="st11" d="M136,141.6l2.8,2.2l4.3,2.4c1.1,0.6,2.2,1,3.4,1.3l0.6,0.1c3.4,0.7,7,0.9,10.5,0.6l0.1,0c3-0.2,6-1,8.8-2.2
		l0,0c0.4-0.2,0.7-0.4,1.1-0.6l1.1-0.8c1.5-1.1,2.9-2.3,4.1-3.7l1.6-1.8l0.8-1.3h0c-2,0-4-0.2-5.9-0.6l0,0c-0.3-0.1-0.5-0.1-0.8-0.2
		h0c-1.4-0.4-2.9-0.7-4.3-0.8l0,0c-1.6-0.1-3.3,0-4.8,0.6l-0.3,0.1c-1.4,0.5-2.8,0.6-4.2,0.3l-3.5-0.6c-1-0.2-2.1-0.1-3.1,0.2
		c-1.6,0.5-4,1.2-5.4,1.6c-0.7,0.2-1.5,0.4-2.3,0.5l-3.8,0.6l-2.3,0.5l0,0C134.9,140.6,135.4,141.2,136,141.6z"/>
	<path class="st12" d="M136,141.6l2.8,2.2l0,0l4.3,2.4c0.7,0.4,1.5,0.7,2.3,1c0.8,0.2,1.6,0.4,2.4,0.5c3.2,0.6,6.5,0.7,9.8,0.5
		c3.3-0.3,6.5-1.1,9.4-2.6c1.4-0.9,2.7-1.8,3.9-3c1.2-1.1,2.2-2.4,3.3-3.6l0,0l0.7-1.2l0-0.1l0,0c0.1,0.1-0.1-0.2,0.1,0.2l0,0l0,0
		l-0.2,0l-0.4,0l-0.7,0c-0.9,0-1.9-0.1-2.8-0.3c-1.9-0.2-3.7-0.9-5.5-1.2c-1.9-0.3-3.8-0.3-5.6,0.2c-0.9,0.3-1.8,0.6-2.8,0.7
		c-0.9,0.1-1.9,0-2.8-0.2l-2.8-0.5c-0.9-0.2-1.9-0.2-2.8,0l-5.5,1.6c-0.9,0.3-1.9,0.4-2.8,0.6l-2.8,0.4c-0.9,0.1-1.9,0.3-2.8,0.5
		l-0.3,0.1l-0.1,0c0,0,0,0,0,0.1l0.1,0.1c0.1,0.2,0.3,0.4,0.4,0.6C135.3,141,135.7,141.4,136,141.6z M136,141.6
		c-0.4-0.3-0.7-0.6-1-1c-0.2-0.2-0.3-0.4-0.4-0.6l-0.1-0.1c0,0-0.1,0,0-0.1l0.1,0l0.3-0.1c0.9-0.2,1.8-0.4,2.8-0.6l2.8-0.4
		c0.9-0.2,1.9-0.4,2.8-0.6l5.5-1.6c0.9-0.2,1.9-0.2,2.8-0.1l2.8,0.5c0.9,0.2,1.9,0.2,2.8,0.1c0.9-0.1,1.8-0.4,2.7-0.7
		c1.8-0.5,3.8-0.6,5.7-0.3c1.9,0.2,3.7,1,5.6,1.2c0.9,0.1,1.9,0.2,2.8,0.2l0.7,0l0.4,0l0.2,0l0,0l0,0c0.2,0.4,0.1,0.1,0.1,0.2l0,0
		l0,0.1l-0.7,1.2l0,0l0,0c-1.1,1.2-2.1,2.5-3.4,3.6c-1.2,1.1-2.6,2.1-4,3c-2.9,1.5-6.2,2.3-9.5,2.6c-3.3,0.2-6.6,0.1-9.8-0.5
		c-0.8-0.2-1.6-0.3-2.4-0.5c-0.8-0.2-1.6-0.6-2.3-1l-4.3-2.4l0,0L136,141.6z"/>
</g>
<g class="st13">
	<path class="st5" d="M147.3,107.6l-1.9,7l-1.2,2.7l-0.7,0.9c-0.9,1.2-1.6,2.5-2,4l-0.2,0.8c-0.1,0.3-0.1,0.7,0.1,1l0,0
		c0.8,1.7,2.2,3.1,4,3.8v0h1.8l0,0c1.3,0,2.5,0.3,3.7,1l0,0c0.4,0.2,0.9,0.4,1.4,0.5l2.4,0.5l0,0c1.6,0,3.1-0.3,4.6-0.8l0.9-0.3
		l2.6-1.2l0.4-0.2c0.5-0.3,1.9,0.1,3.3-0.1c1.7-0.3,3.1-1.3,3.9-2.8v-0.7l-0.4-1.7c-0.3-1.5-0.8-2.9-1.4-4.2l-1.1-2.5l-1.5-3.8
		l-1.2-4.6l-1.4-6.7"/>
	<path class="st5" d="M147.3,107.6l-1.9,7.1l0,0l0,0l-1.2,2.7l0,0l0,0c-0.7,0.9-1.4,1.9-1.9,3c-0.2,0.5-0.5,1.1-0.6,1.6l-0.2,0.8
		c-0.1,0.3-0.1,0.5-0.1,0.8c0.4,1,1.1,2,2,2.8c0.4,0.4,0.9,0.7,1.4,1c0.1,0.1,0.3,0.1,0.4,0.2l0.2,0.1c0,0,0.1,0-0.1,0l0,0l0,0l0,0
		l0.1,0l0.1,0l0.9,0c1.2-0.1,2.4,0.1,3.6,0.5c0.6,0.2,1.1,0.6,1.6,0.7c0.5,0.2,1.1,0.3,1.7,0.4l0.9,0.2l0.4,0.1c0.1,0,0.3,0,0.4,0
		c0.6,0,1.2-0.1,1.7-0.2c1.2-0.2,2.2-0.6,3.3-1l0,0l2.6-1.2l0,0c0.2-0.1,0.3-0.2,0.5-0.3c0.2-0.1,0.4-0.1,0.6-0.1
		c0.4,0,0.7,0,1.1,0.1c0.7,0.1,1.4,0,2.1-0.2c1.3-0.4,2.5-1.3,3.2-2.6l0,0.1l0-0.7l0,0c-0.2-1.1-0.4-2.1-0.7-3.1c-0.3-1-0.7-2-1.1-3
		c-0.4-1-0.9-2-1.3-3l-1.2-3l0,0l0,0l-0.7-2.8c-0.2-0.9-0.5-1.9-0.7-2.8l-1.1-5.7l1.3,5.6c0.2,0.9,0.5,1.9,0.7,2.8l0.8,2.8l0,0
		l1.2,3c0.4,1,0.9,2,1.3,3c0.5,1,0.8,2,1.1,3.1c0.3,1,0.5,2.1,0.7,3.2l0,0l0,0l0,0.7l0,0l0,0c-0.7,1.3-2,2.4-3.4,2.8
		c-0.7,0.2-1.5,0.3-2.2,0.2c-0.4,0-0.7-0.1-1.1-0.1c-0.2,0-0.3,0-0.5,0.1c-0.1,0-0.3,0.2-0.4,0.3l0,0l0,0l-2.6,1.2l0,0l0,0
		c-1.1,0.4-2.3,0.8-3.4,1c-0.6,0.1-1.2,0.1-1.8,0.2c-0.2,0-0.3,0-0.5,0l-0.4-0.1l-0.9-0.2c-0.6-0.1-1.2-0.2-1.7-0.4
		c-0.6-0.2-1.1-0.6-1.6-0.8c-1.1-0.4-2.2-0.6-3.4-0.5l-0.9,0l-0.1,0l-0.1,0l0,0l0,0l0,0c-0.1,0,0,0-0.1,0l-0.2-0.1
		c-0.1-0.1-0.3-0.1-0.4-0.2c-0.5-0.3-1-0.6-1.5-1c-0.9-0.8-1.6-1.8-2.1-3c0.2-2.5,1.4-4.6,2.9-6.5l0,0l1.2-2.7l0,0L147.3,107.6z"/>
</g>
<g>
	<path class="st11" d="M134.4,139.9l3.7,1.1c0.8,0.2,1.6,0.4,2.4,0.6l2.2,0.4c0.9,0.2,1.8,0.3,2.7,0.3l3.9,0.3
		c0.7,0.1,1.4,0.1,2.1,0.1h5.3l5.3-0.4h0c2.5,0,5-0.3,7.4-0.9l0,0c0.9-0.2,1.8-0.6,2.6-1.1l2.8-1.8"/>
	<path class="st14" d="M134.4,139.9c1.8,0.5,3.6,1,5.5,1.4c0.9,0.2,1.9,0.3,2.8,0.5l2.8,0.3c1.9,0.1,3.8,0.3,5.6,0.3l5.7,0l0,0
		l4.7-0.4c1.6-0.1,3.1-0.1,4.7-0.3c1.5-0.2,3.1-0.5,4.6-1c0.7-0.3,1.4-0.7,2.1-1.1l2-1.2l-2,1.3c-0.7,0.4-1.3,0.9-2,1.2
		c-0.7,0.4-1.5,0.5-2.3,0.7c-0.8,0.2-1.6,0.3-2.3,0.5c-0.8,0.1-1.6,0.2-2.4,0.3c-0.4,0-0.8,0-1.2,0.1l-0.6,0l-0.6,0.1l-4.7,0.4l0,0
		l0,0c-1.9,0-3.8,0-5.7,0c-1.9,0-3.8-0.2-5.7-0.4l-2.8-0.4c-0.9-0.2-1.9-0.3-2.8-0.6C138,141.1,136.2,140.5,134.4,139.9z"/>
</g>
<path class="st15" d="M147.3,105.6l-1.9,7l-1.2,2.7l-0.7,0.9c-0.9,1.2-1.6,2.5-2,4l-0.2,0.8c-0.1,0.3-0.1,0.7,0.1,1l0,0
	c0.8,1.7,2.2,3.1,4,3.8v0h1.8l0,0c1.3,0,2.5,0.3,3.7,1l0,0c0.4,0.2,0.9,0.4,1.4,0.5l2.4,0.5l0,0c1.6,0,3.1-0.3,4.6-0.8l0.9-0.3
	l2.6-1.2l0.4-0.2c0.5-0.3,1.9,0.1,3.3-0.1c1.7-0.3,3.1-1.3,3.9-2.8v-0.7l-0.4-1.7c-0.3-1.5-0.8-2.9-1.4-4.2l-1.1-2.5l-1.5-3.8
	l-1.2-4.6l-1.4-6.7"/>
<g>
	<path class="st16" d="M119.2,98.2l8.7,3.2c1.1,0.1,2.2,0.1,3.4,0.2l9.3-2.4c0.3-0.1,0.3-0.4,0.1-0.6l-5-3.6c-0.9-0.7-2-1.1-3.2-1.2
		c-2.6-0.2-5.2,0.3-7.6,1.5L119.2,98.2"/>
	<path d="M119.2,98.2c2.9,1,5.8,2,8.7,3.1l0,0l3.4,0.1l-0.1,0l8.2-2.2l1-0.3c0.1,0,0.1-0.1,0.1-0.1c0,0,0,0-0.1-0.1l-0.2-0.2
		l-1.7-1.2c-1.2-0.8-2.3-1.7-3.5-2.5c-0.6-0.4-1.2-0.6-1.9-0.8c-0.7-0.2-1.4-0.2-2.1-0.2c-1.4,0-2.8,0.2-4.1,0.6
		c-1.3,0.4-2.6,1.1-3.9,1.7L119.2,98.2l3.8-2c1.3-0.7,2.5-1.4,3.9-1.8c1.4-0.5,2.8-0.7,4.2-0.8c0.7,0,1.4,0,2.2,0.2
		c0.7,0.2,1.4,0.4,2,0.8c1.2,0.8,2.3,1.6,3.5,2.4l1.7,1.2l0.2,0.2c0.1,0,0.2,0.2,0.3,0.3c0.1,0.3-0.2,0.7-0.4,0.7l-1,0.3l-8.3,2.1
		l0,0l0,0l-3.4-0.2l0,0l0,0C124.9,100.5,122,99.3,119.2,98.2z"/>
</g>
<path class="st17" d="M127,100.2l-0.1-0.1c-1.4-1.6-1.2-4.1,0.5-5.4l0.1-0.1c1.6-1.4,4.1-1.2,5.4,0.5l0.1,0.1
	c1.4,1.6,1.2,4.1-0.5,5.4l-0.1,0.1C130.8,102.1,128.4,101.9,127,100.2z"/>
<g>
	<path class="st16" d="M166.4,98.5l7.7,0.9c3.4,0.2,13.8-3.9,13.8-3.9c-0.1-1.9-7.1-3.5-11-4.3c-1.5-0.3-3,0-4.2,0.9v0
		c-1.3,0.9-3.4,2.6-4.6,4.1L166.4,98.5"/>
	<path d="M166.4,98.5L172,99l1.4,0.1c0.5,0.1,0.9,0.1,1.4,0.1c0.9-0.1,1.8-0.2,2.7-0.5c1.8-0.4,3.5-1,5.3-1.6
		c1.7-0.6,3.5-1.2,5.2-1.9l-0.2,0.2c0-0.4-0.4-0.7-0.9-1c-0.4-0.3-0.9-0.5-1.4-0.7c-1-0.4-2-0.7-3-1c-2-0.6-4.1-1.1-6.2-1.4
		c-1-0.1-2.1,0.1-3,0.6c-0.9,0.5-1.7,1.2-2.6,1.9c-0.8,0.7-1.6,1.4-2.3,2.2L166.4,98.5l1.9-2.6c0.7-0.8,1.5-1.6,2.3-2.3
		c0.8-0.7,1.6-1.4,2.6-1.9c0.9-0.6,2.1-0.8,3.2-0.7c2.2,0.3,4.2,0.8,6.3,1.4c1,0.3,2.1,0.6,3.1,1c0.5,0.2,1,0.4,1.5,0.8
		c0.4,0.3,1,0.7,1.1,1.4l0,0.2l-0.2,0.1c-1.7,0.7-3.5,1.3-5.2,1.9c-1.8,0.6-3.5,1.1-5.3,1.5c-0.9,0.2-1.8,0.4-2.8,0.4
		c-0.5,0-0.9,0-1.4-0.1l-1.4-0.2L166.4,98.5z"/>
</g>
<path class="st17" d="M172.3,98.1l-0.3-0.4c-1.4-1.6-1.2-4.1,0.5-5.4l0.4-0.3c1.6-1.4,4.1-1.2,5.4,0.5l0.3,0.4
	c1.4,1.6,1.2,4.1-0.5,5.4l-0.4,0.3C176.1,99.9,173.6,99.7,172.3,98.1z"/>
<g>
	<path class="st18" d="M116.8,95.7l2.7-1.5c0.9-0.5,1.8-1,2.8-1.3c1-0.3,2-0.5,3.1-0.6l3.1-0.2c2.1-0.1,4.2,0,6.2,0.5
		c1,0.2,2,0.6,3,1c1,0.4,1.9,0.9,2.8,1.4c-1.8-1-3.8-1.7-5.8-2.2c-2-0.5-4.1-0.6-6.2-0.4l-3.1,0.2c-1,0-2.1,0.2-3,0.5
		c-1,0.3-1.9,0.8-2.8,1.3L116.8,95.7z"/>
</g>
<g>
	<path class="st18" d="M140.6,99.8c-1.6,0.6-3.2,1.2-4.8,1.7l-2.4,0.8c-0.8,0.3-1.6,0.5-2.5,0.6l0,0l0,0c-2.4-0.1-4.9-0.1-7.3-0.2
		c2.4,0,4.9,0,7.3,0l0,0c0.8-0.1,1.6-0.3,2.4-0.6l2.4-0.8C137.4,100.8,139,100.3,140.6,99.8z"/>
</g>
<g>
	<path class="st18" d="M168.1,91.6c1.9-0.6,3.7-1.3,5.6-1.7c1.9-0.4,3.9-0.5,5.8-0.3c1,0.1,1.9,0.3,2.9,0.5c0.9,0.3,1.9,0.6,2.8,0.9
		c0.9,0.3,1.9,0.6,2.7,1.1c0.8,0.5,1.6,1.1,2.4,1.6c-0.8-0.5-1.7-1-2.5-1.5c-0.8-0.5-1.8-0.8-2.7-1.1c-0.9-0.3-1.8-0.6-2.8-0.9
		c-0.9-0.2-1.9-0.4-2.9-0.5c-1.9-0.2-3.9-0.1-5.8,0.2c-1,0.2-1.9,0.5-2.8,0.7L168.1,91.6z"/>
</g>
<g>
	<path class="st18" d="M166.4,98.5l3.5,0.9c1.2,0.3,2.3,0.6,3.5,0.8c1.2,0.1,2.4,0.3,3.6,0.4c1.2,0,2.4-0.2,3.5-0.7
		c-1.1,0.6-2.3,0.9-3.5,0.9c-1.2-0.1-2.4-0.2-3.6-0.4c-1.2-0.1-2.4-0.5-3.5-0.9L166.4,98.5z"/>
</g>
<circle cx="130" cy="97.7" r="1.9"/>
<circle cx="175.2" cy="95.2" r="1.9"/>
<circle class="st19" cx="133.1" cy="97.7" r="1"/>
<circle class="st19" cx="171.3" cy="96.3" r="1"/>
<g>
	<path class="st5" d="M143.2,170.6c1.2,1.3,2.8,2.1,4.5,2.6c1.7,0.5,3.4,0.7,5.1,0.7c1.7,0,3.5-0.2,5.1-0.7c0.8-0.3,1.6-0.6,2.4-1
		c0.8-0.4,1.4-1,2-1.7c-1,1.5-2.6,2.3-4.3,2.9c-1.7,0.5-3.4,0.8-5.2,0.8c-1.8,0-3.5-0.2-5.2-0.8
		C145.9,172.8,144.3,171.9,143.2,170.6z"/>
</g>
<g>
	<path class="st20" d="M88.3,153.7c1-6.7,0.4-13.7-1.7-20.2c-0.6-1.6-0.7-3.4-0.6-5.1c0.1-1.7,0.5-3.4,0.9-5c0.4-1.7,0.7-3.3,0.7-5
		c0.1-1.7-0.5-3.3-0.8-5c-0.5-3.4-0.3-6.9,0.6-10.2c0.2-0.8,0.5-1.6,0.8-2.4c0.2-0.4,0.3-0.8,0.5-1.2L89,99l0.1-0.3
		c0-0.1,0-0.2,0.1-0.3l0.8-5l1.6-10.1c0.6-3.4,1.7-6.6,3-9.8c2.6-6.3,6.4-12.2,11.6-16.7c1.3-1.1,2.7-2.1,4-3.1
		c1.3-1,2.6-2.1,3.9-3.3c2.6-2.3,5-4.6,7.6-6.8c2.6-2.2,5.3-4.3,8.2-6.2c2.9-1.8,5.9-3.4,9.1-4.6c6.4-2.5,13.1-3.8,19.9-4.4l0,0
		c-6.8,0.6-13.5,2-19.9,4.5c-6.4,2.5-12.1,6.3-17.2,10.8c-2.6,2.2-5,4.6-7.6,6.8c-1.3,1.1-2.6,2.2-3.9,3.3c-1.3,1.1-2.8,2-4,3.1
		c-5.2,4.4-8.9,10.3-11.6,16.6c-1.3,3.1-2.4,6.4-3.1,9.7l-1.6,10.1l-0.8,5.1c0,0.1,0,0.2-0.1,0.3L89.1,99l-0.3,0.6
		c-0.2,0.4-0.3,0.8-0.5,1.2c-0.3,0.8-0.6,1.6-0.8,2.4c-0.9,3.3-1.1,6.7-0.6,10.1c0.1,0.8,0.3,1.7,0.5,2.5c0.2,0.8,0.3,1.7,0.3,2.6
		c0,1.7-0.3,3.4-0.7,5.1c-0.4,1.7-0.8,3.3-0.9,5c-0.2,1.7-0.1,3.4,0.5,5C88.8,139.9,89.3,146.9,88.3,153.7z"/>
</g>
<g>
	<path class="st20" d="M90.3,157.4c2.3,5.5,4.9,11,7.6,16.3c2.7,5.4,4.7,11.1,5.6,17.1c0.5,3,0.7,6,0.7,9c0,1.5-0.1,3-0.2,4.5
		l-0.1,1.1c0,0.4-0.1,0.7,0,1.1l0.4,2.2c1.1,5.9,3.3,11.6,6.3,16.7c3,5.2,6.9,9.8,11.4,13.8l0.9,0.7l0.4,0.4l0.2,0.2l0.1,0
		c0,0,0.1,0.2,0.1,0.1l0,0l0,0.1c0.1,0.7,0.2,1.5,0.3,2.2c0.2,1.5,0.3,3,0.3,4.5c0.1,3-0.1,6-0.5,9c-0.4,3-1.1,5.9-2.1,8.8
		c-0.5,1.4-1,2.8-1.6,4.2c-0.6,1.4-1.2,2.7-1.7,4.2c-1,2.8-1.8,5.7-2.2,8.7l-1.2,8.9l0,0l1.2-8.9c0.4-3,1.1-5.9,2.1-8.7
		c0.5-1.4,1.1-2.8,1.7-4.2c0.6-1.4,1.1-2.8,1.6-4.2c0.9-2.8,1.6-5.8,2-8.7c0.4-3,0.6-6,0.5-9c0-1.5-0.1-3-0.3-4.5
		c-0.1-0.7-0.2-1.5-0.3-2.2l0-0.1l0,0c0-0.1,0,0.1,0,0l-0.1,0l-0.2-0.2l-0.4-0.4l-0.9-0.7c-4.5-3.9-8.4-8.6-11.4-13.9
		c-3-5.2-5.1-10.9-6.3-16.8l-0.4-2.2c-0.1-0.4,0-0.8,0-1.1l0.1-1.1c0.1-1.5,0.1-3,0.1-4.5c0-3-0.3-6-0.8-9c-1-5.9-2.8-11.7-5.5-17
		C95,168.4,92.5,163,90.3,157.4L90.3,157.4z"/>
</g>
<path class="st21" d="M209,104.4l-3.4,17.2l-0.3,8c-0.2,6.6,0.5,13.3,2.3,19.6c1.9,6.5,1.4,9.9-0.9,20l-1.2,5.5l0,0.1
	c-0.8,3.4-2.3,6.6-4.4,9.4c-8,11-9.5,25.6-3.5,38.1l4.8,10c0,0.1,6.1,9,3.2,38.8l0,0l-3.2,12.5"/>
<g>
	<path class="st20" d="M192.9,39.6c2.6,6.3,5.2,12.7,7.8,19c2.5,6.4,5.1,12.7,7.5,19.1c-2.6-6.3-5.2-12.7-7.8-19
		C197.9,52.4,195.3,46,192.9,39.6z"/>
</g>
<path class="st21" d="M214.5,195.4l-2.6,7.2c-4.6,12.7-3.6,9.3,2.8,21.3v0c2.9,5.4,4.7,11.3,5.5,17.4l0.2,2
	c1.4,11.4,0.4,22.9-2.9,25.9l-3.4,11.4"/>
<path class="st21" d="M192.6,142.2l-1.4,2.8c-2.4,4.9-1.9,10.3,1.5,14.9v0c1.5,2.1,2.5,4.4,2.9,6.7l0.1,0.8c0.7,4.4,0.2,8.8-1.6,13
	l-1.8,4.4"/>
<path class="st21" d="M214.7,102.9l-1.4,3.4c-2.4,6.1-1.9,12.8,1.5,18.4l0,0c1.5,2.6,2.5,5.4,2.9,8.3l0.1,1
	c0.7,5.4,0.2,10.9-1.6,16.1l-1.8,5.4c0.3,3.2,6.9,2.7,1.5,20"/>
<g>
	<path class="st20" d="M97.2,111.8c1.7,5.2,3.6,10.3,5.5,15.5c1.8,5.2,2.9,10.6,3.2,16.1c0.2,2.7,0.1,5.5,0,8.2c0,0.3-0.1,0.7,0,1
		l0.1,1l0.2,2c0.1,1.4,0.2,2.7,0.4,4.1c0.2,1.4,0.4,2.7,1,4c0.5,1.3,1.2,2.4,2,3.5c1.6,2.2,3.5,4.2,5.4,6.2c0.5,0.5,1,1,1.2,1.7
		c0.2,0.7,0.2,1.4,0,2.1c-0.2,0.7-0.7,1.2-1.3,1.6c-0.1,0.1-0.3,0.2-0.5,0.2c-0.1,0-0.2,0.1-0.2,0.1l-0.1,0l-0.1,0l0,0
		c-0.1,0.1,0.1-0.1,0.1-0.1c0.1,0.3,0.1,0.7,0.2,1c0.3,1.3,1.1,2.5,2.1,3.4c0.9,1,2,1.8,2.9,2.9c0.9,1,1.7,2.2,2,3.6
		c0.3,1.4,0.3,2.8,0,4.1c-0.5,2.7-1.6,5.3-2.9,7.7c-0.6,1.2-1.3,2.4-2,3.6c-0.2,0.3-0.4,0.6-0.5,0.9c-0.1,0.3-0.2,0.6-0.2,1
		c-0.1,0.7,0,1.3,0.1,2c0.4,2.7,1.4,5.3,2.9,7.6c0.7,1.2,1.6,2.2,2.5,3.2c0.9,1,2,1.9,3,2.8l6,5.6l0,0l-6.1-5.5c-1-0.9-2-1.8-3-2.8
		c-0.9-1-1.8-2.1-2.5-3.2c-1.5-2.3-2.5-4.9-3-7.6c-0.1-0.7-0.2-1.4-0.1-2.1c0-0.3,0.1-0.7,0.2-1c0.2-0.4,0.3-0.6,0.5-0.9
		c0.7-1.2,1.4-2.4,2-3.6c1.2-2.4,2.4-4.9,2.9-7.6c0.2-1.3,0.3-2.7,0-4c-0.3-1.3-1-2.5-2-3.5c-0.9-1-2-1.9-2.9-2.9
		c-0.9-1-1.8-2.2-2.1-3.5c-0.1-0.3-0.1-0.7-0.2-1c0,0,0.1-0.2,0.1-0.1l0,0l0.1,0l0.1,0c0.1,0,0.2,0,0.2-0.1c0.1-0.1,0.3-0.1,0.4-0.2
		c0.6-0.3,1-0.9,1.2-1.5c0.2-0.6,0.2-1.3,0-2c-0.2-0.6-0.7-1.1-1.2-1.6c-1.9-2-3.7-4-5.3-6.2c-0.8-1.1-1.5-2.3-2-3.6
		c-0.5-1.3-0.8-2.6-1-4c-0.2-1.4-0.3-2.7-0.4-4.1l-0.2-2l-0.1-1c0-0.4,0-0.7,0-1c0.1-2.7,0.2-5.5,0-8.2c-0.4-5.4-1.4-10.9-3.1-16
		C100.6,122.2,98.7,117.1,97.2,111.8L97.2,111.8z"/>
</g>
<path class="st21" d="M151.3,19c-25.3,7-34.5,15.5-34.5,15.5l-15,14.5"/>
<path class="st0" d="M287,95.2C264.2,43.4,211.5,7,150,7C67.7,7,1,72.1,1,152.5S67.7,298,150,298c1,0,2,0,3,0l2-283
	C154.9,3.7,242.1,59.8,287,95.2z"/>
<path class="st0" d="M300,152.5c0-20.3-4.3-39.7-12-57.3C243.1,59.8,155.9,3.7,156,15l-2,283C234.9,296.4,300,231.9,300,152.5z"/>
<path class="st2" d="M62.4,270.3c0,0,0.1,0.1,0.3,0.2c-0.1-0.5-0.2-1-0.3-1.5V270.3z"/>
<path class="st2" d="M161.5,176.6l49.1-1.1c-1.4-0.2-2.9-0.3-4.3-0.2l-48.3,1.1l3.5,0.1V176.6z"/>
<path class="st2" d="M245.5,272.3V271c-0.1,0.5-0.2,1-0.3,1.5C245.4,272.3,245.5,272.3,245.5,272.3z"/>
<path class="st2" d="M154.4,176.4l3.5-0.1l-48.3-1.1c-1.5,0-2.9,0.1-4.3,0.2l49.1,1.1V176.4z"/>
<path class="st2" d="M245.7,218.6c0,0,0,0.5-0.2,0.1l-5.5-22.4c-1.1-3.9-10.5-11.5-14.4-14l-5.4-3.4c-2.8-1.8-6.1-2.9-9.6-3.4
	l-49.1,1.2v-0.2l-3.5-0.1l-3.5,0.1v0.2l-49.1-1.2c-3.5,0.5-6.8,1.6-9.6,3.4l-5.4,3.4c-3.9,2.4-13.3,10.1-14.4,14l-5.5,22.4
	c-0.1,0.4-0.2-0.1-0.2-0.1c0,0,0.2,1.9,0.2,15.8v40.2C93.5,290,121.2,299,151,299c36,0,69-13.1,94.5-34.9v-29.7
	C245.5,220.5,245.7,218.6,245.7,218.6z"/>
<path class="st4" d="M172.3,158.7l2.1,14.7c-0.2,1.8-0.5,3.5-1,5.2l-0.1,1.5c-0.8,9.8,0.4,19.6,2.4,29.3c0,0,0,0.1,0,0.1l0,0.2
	c0,2.4,0.7,4.7,1.7,6.8c2.9,6.4-8.1,30-4,36.8c10.2,16.6-8.6,38.3-8.6,38.3L188,293c-5.3,2.4,25.4-4.7,38-15l1-8.7v0
	c3-4.1,4.4-9.1,3.9-14.2l-0.7-6.3c-0.1-1.3-0.2-2.5-0.2-3.8v-15.8v-11l-2-15.3l-6.3-14.7h0c-2.1-6.8-1.3-14.2,2.3-20.3l0.4-0.7
	l1.5-6c1.4-5.7,1.7-11.7,0.8-17.6l-0.9-5.8l-3-12.3l-4.3-12.5v0c-2.4-7.3-3.1-15.1-2-22.8v0c0-0.2,0-0.4,0-0.6l-0.5-4.1
	c-0.6-5.1-1.5-10.1-2.9-15l0,0c-1.7-6.2-4-12.2-6.8-18l0,0c-1-2-2-3.9-3.1-5.8l-1.5-2.6c-2.4-4.2-5.2-8.1-8.3-11.7l0,0
	c-2.4-2.8-4.9-5.3-7.7-7.7l0,0c-3.3-2.7-7.3-4.2-11.6-4.2h0c-0.4,0-0.7-0.1-1.1-0.3l-5.7-3.3c-5.4-3.1-11.5-4.8-17.7-4.8h0
	c-7.2,0-14.3,1.2-21.1,3.5l0,0c-4.8,1.6-9.3,4.1-13.2,7.2l0,0c-5.6,4.4-10.5,9.6-14.4,15.5l-9.4,14.1L88.5,59
	c-3.6,8.2-6.3,16.7-8,25.5l-0.6,3.1c-1.1,5.7-1.6,11.6-1.6,17.4v12.5c0,4.9,0.5,9.8,1.4,14.7l0,0c1.1,5.5,0.6,11.2-1.4,16.4v0h0
	c-1.1,4.2-1.1,8.5-0.1,12.7l0.7,3l7.3,10.7l0,0c4.9,4.9,7.5,11.6,7.3,18.5L93,210l1.3,14l-0.3,5c-0.2,3.6-0.1,7.1,0.2,10.7l0.3,2.5
	c0.5,4.7,1.9,9.3,4.1,13.4v0h0c1.5,7,1.2,14.3-0.9,21.1l-0.4,1.2h0c-1.5,7,3.8,13.7,11,13.7h45.8l-2.7-22l-7.1-22.3l-3.2-12
	c-1-3.7-1.3-7.6-0.9-11.4v0c1.1-10.4-0.2-21-3.9-30.8l-1.7-4.4l-1.8-13.8l-0.1-7.6l1.3-8.2"/>
<path class="st3" d="M134.2,159.2l-1,12.1c0.3,0.5-1.5,1.6-1.2,2.1l15.4,21.4c2.1,3.5,3.8,7.1,5,10.9c4.2,13.1,6.4-1.7,8.1-5
	l15.2-30.1v-11.8"/>
<g>
	<path class="st3" d="M199.2,106.2l-0.3,3.6l-0.6,4.3l-0.9,5.5l-0.8,5l-1.1,4.3l-1.5,3.4l-1.4,3.1l-2,3.9l-2.4,3.5l-2.3,3.1
		l-2.3,2.5l-2.4,2.8l-2.9,2.9l-2.1,1.9l-4.1,2.8l-3.3,2.4l-2.9,1.8l-3.8,1.6l-4.1,1.3h-1.9h-4.3h-3.3l-3.6-0.8l-3.8-1.3l-4-2.3
		l-3.4-2.3l-3.5-2.2l-4.7-3.2l-2.5-2.3l-3.8-4l-3.3-4.5L113,138l-2.8-6.1l-2.1-6l-1.5-6.3l-1.5-5.3l-0.8-4.3l-0.8-4.5l0.3-12.6"/>
	<path class="st5" d="M199.2,106.2l-0.2,2.3c0,0.8-0.1,1.5-0.2,2.3c-0.2,1.5-0.4,3.1-0.7,4.6c-0.5,3-0.9,6.1-1.4,9.1l0,0l-1.1,4.3
		l0,0l0,0l-2.3,5.2l-0.6,1.3l-0.7,1.3l-1.3,2.6l0,0l0,0l-2.3,3.3l-2.4,3.3l0,0l0,0l-2.3,2.6l-2.3,2.7l0,0l0,0l-2.4,2.4
		c-0.8,0.8-1.7,1.5-2.6,2.3l0,0l0,0l-3.7,2.5c-0.6,0.4-1.2,0.9-1.8,1.3l-1.8,1.3l0,0l0,0l-2.9,1.8l0,0l0,0l-3.7,1.6l0,0l0,0
		l-4.1,1.3l0,0l0,0l-9.4,0l0,0l0,0l-3.6-0.7l0,0l0,0l-3.7-1.3l0,0l0,0l-4-2.3l0,0l0,0l-2.9-1.9c-1-0.6-1.9-1.2-2.9-1.8
		c-1.9-1.2-3.8-2.6-5.7-3.8l0,0l0,0l-1.6-1.5c-0.6-0.5-1.1-1-1.6-1.6l-3.1-3.2l0,0l0,0l-3.4-4.6l-3.3-4.7l0,0l0,0l-2.7-6.1l0,0l0,0
		l-2.1-6l0,0l-1.4-5.9c-0.2-1-0.5-1.9-0.8-2.9l-0.8-2.9l0,0c-0.6-2.9-1.1-5.9-1.7-8.8l0,0l0.3-12.6l-0.3,12.6l0,0
		c0.5,2.9,1.1,5.9,1.7,8.8l0,0l0.8,2.9c0.3,1,0.6,1.9,0.8,2.9l1.4,5.9l0,0l2.1,6l0,0l2.8,6.1l0,0l3.3,4.7l3.4,4.6l0,0l3.1,3.2
		c0.5,0.5,1,1.1,1.6,1.6l1.6,1.5l0,0c1.9,1.3,3.8,2.6,5.7,3.8c1,0.6,2,1.2,2.9,1.8l2.9,1.9l0,0l4,2.2l0,0l3.8,1.2l0,0l3.6,0.8l0,0
		l9.4,0l0,0l4.1-1.2l0,0l3.8-1.6l0,0l2.9-1.7l0,0l1.8-1.3c0.6-0.4,1.2-0.9,1.8-1.3l3.7-2.5l0,0c0.9-0.8,1.8-1.5,2.6-2.3l2.4-2.4l0,0
		l2.3-2.6l2.3-2.6l0,0l2.4-3.3l2.3-3.3l0,0l1.3-2.5l0.7-1.3l0.6-1.3l2.3-5.2l0,0l1.1-4.2l0,0c0.5-3,0.9-6.1,1.4-9.1
		c0.3-1.5,0.5-3,0.7-4.6c0.1-0.8,0.2-1.5,0.3-2.3L199.2,106.2z"/>
</g>
<path class="st3" d="M199,106.4l0.1-12.2v-6.5v-5.2c0-2.4-0.3-4.7-1-6.9l-1.2-4l0,0c-0.7-2.4-2-4.7-3.8-6.5l-1.4-1.5
	c-1.3-1.4-2.4-3-3.1-4.8c-1.1-2.7-2.1-5.7-4-7.4l-3.2-2.9c-1.5-1.4-3.6-1.9-5.6-1.5l-2.7,0.6c-0.2,0.1-0.5,0.1-0.7,0.2l-9.2,3.2
	c-1.4,0.5-2.8,0.9-4.2,1.2l-13,2.8c-0.1,0-0.3,0.1-0.4,0.1l-8.4,2.4c-1.7,0.5-3.3,1.1-4.9,1.9l-4.1,2.1c-2,1-3.9,2.2-5.6,3.6
	l-5.7,4.4c-2.5,2-4.6,4.4-6.2,7.3l-4.5,8.1c-0.2,0.4-0.4,0.8-0.5,1.3l-2,6.9"/>
<g>
	<path class="st7" d="M101.8,95.6l3.5,0c0.8,0,1.5-0.6,1.7-1.4l0,0c0.1-0.4,0.4-0.8,0.7-1l0,0c0.9-0.7,2-1.1,3.2-1.2l12.8-1.5
		c0.1,0,0.1,0,0.2,0l7-0.6l13,0.5c0.1,0,0.2,0,0.3,0l0.8,0.1c1.9,0.3,3.7,2.2,4.5,3.7l-0.7-1.6"/>
	<path class="st7" d="M148.7,92.7l14.3,0l0,1.4l-13.6,0.2l0,3.1l0,0.4c0,2.3-0.6,4.5-1.8,6.4l0,0c-0.2,0.4-0.5,0.7-0.7,1v0
		c-1.7,1.9-3.9,3.3-6.3,4l-1.9,0.5c-0.6,0.2-1.2,0.3-1.8,0.4l-8.1,1.5c-0.4,0.1-0.4,0.1-0.8,0.1l-11,0.1l-1.5,0
		c-1.9,0-3.7-0.8-5-2.2v0c-0.9-0.9-1.5-2.1-1.7-3.3l-0.9-4.6c-0.1-0.2-0.1-0.5-0.1-0.8l-0.6-6.7"/>
	<path class="st7" d="M163,92.6l0.6-1.8c0.1-0.3,0.3-0.6,0.6-0.8h0c1.3-0.7,2.6-1.1,4.1-1.3l3.3-0.5l8.7-1.3c0.1,0,0.1,0,0.2,0
		l11.9,0l9.3,0c0.4,0,0.8,0.2,1.1,0.5l0,0c0.5,0.6,0.7,1.4,0.7,2.2l0,1.7c0,0.1,0,0.1,0,0.2l-0.8,6.2c0,0,0,0.1,0,0.1l-0.6,2.8
		c-0.3,1.7-1.3,3.2-2.7,4.1l0,0c-0.1,0.1-0.2,0.1-0.4,0.2l-4.2,1.3c-1.4,0.4-2.8,0.8-4.3,1l-3.6,0.5c-0.1,0-0.1,0-0.2,0l-5.5,0
		l-0.9,0c-3.2,0-6.4-0.5-9.5-1.6l0,0c0,0,0,0-0.1,0l-1.4-0.6c-2.4-1-4.2-2.9-4.9-5.3v0c0,0,0-0.1,0-0.1l-1.4-6.2"/>
	<path class="st7" d="M107.6,101l-4.3-0.3c-0.8,0.1-1.6-0.6-1.6-1.4l0-1.6l0-2c0-0.1,0-0.1,0-0.2l-0.5-3.3c-0.1-0.9,0.5-1.7,1.4-1.7
		l0,0c0.6,0,1.2,0.4,1.4,1l1.2,4"/>
	<path class="st7" d="M203.5,90l4.6,0l0.2,3.4c0,0.9-0.6,1.6-1.5,1.6l-3.8,0.3l-3.6-3.4"/>
	<line class="st7" x1="208.1" y1="90" x2="201.7" y2="87"/>
</g>
<path class="st8" d="M144.9,90.6l-0.8-0.1c-0.1,0-0.2,0-0.3,0l-13-0.5l-7,0.6c-0.1,0-0.1,0-0.2,0L110.9,92c-1.1,0.1-2.2,0.6-3.2,1.2
	c-0.4,0.2-0.6,0.6-0.7,1l0.6,6.7c0,0.3,0.1,0.5,0.1,0.8l0.9,4.6c0.3,1.3,0.9,2.4,1.7,3.3h0c1.3,1.4,3.1,2.2,5,2.2l1.5,0l11-0.1
	c0.4,0,0.4,0,0.8-0.1l8.1-1.5c0.6-0.1,1.2-0.3,1.8-0.4l1.9-0.5c2.4-0.7,4.6-2.1,6.3-4c0.3-0.3,0.5-0.6,0.7-1
	c1.2-1.9,1.8-4.2,1.8-6.4l0-0.4l0-3.1C148.6,92.8,146.8,90.9,144.9,90.6z"/>
<path class="st9" d="M105.3,95.6l-3.5,0L105.3,95.6l-1.2-4c-0.2-0.6-0.7-1-1.4-1c-0.9,0-1.6,0.8-1.4,1.7l0.5,3.3c0,0.1,0,0.1,0,0.2
	l0,2l0,1.6c0,0.8,0.7,1.5,1.6,1.4l4.3,0.3l-0.6-6.7C106.8,95.1,106.1,95.6,105.3,95.6z"/>
<polygon class="st9" points="148.7,92.7 149.4,94.2 163,94.1 163,92.6 "/>
<path class="st8" d="M203.5,91.4l0-1.7c0-0.8-0.3-1.5-0.7-2.2c0,0,0,0,0,0l-1-0.5l-9.3,0l-11.9,0c-0.1,0-0.1,0-0.2,0l-8.7,1.3
	l-3.3,0.5c-1.4,0.2-2.8,0.7-4.1,1.3c-0.3,0.2-0.5,0.4-0.6,0.8l-0.6,1.8l0,1.4l1.4,6.2c0,0,0,0.1,0,0.1c0.8,2.4,2.6,4.4,4.9,5.3
	l1.4,0.6c0,0,0,0,0.1,0c3,1.1,6.2,1.6,9.5,1.6l0.9,0l5.5,0c0.1,0,0.1,0,0.2,0l3.6-0.5c1.5-0.2,2.9-0.6,4.3-1l4.2-1.3
	c0.1,0,0.3-0.1,0.4-0.2c1.4-1,2.4-2.5,2.7-4.1l0.6-2.8c0,0,0-0.1,0-0.1l0.3-2.4l0,0l-3.6-3.4l3.6,3.4l0,0l0.5-3.8
	C203.5,91.5,203.5,91.4,203.5,91.4z"/>
<path class="st8" d="M203.5,89.7c0-0.8-0.3-1.5-0.7-2.2c0,0,0,0,0,0l-1-0.5l-2.6,0l0.3,5l-0.3-5l-6.8,0l-11.9,0c-0.1,0-0.1,0-0.2,0
	l-8.7,1.3l-3.3,0.5c-1.4,0.2-2.8,0.7-4.1,1.3c-0.3,0.2-0.5,0.4-0.6,0.8l-0.6,1.8l0,1.4l1.4,6.2c0,0,0,0.1,0,0.1
	c0.8,2.4,2.6,4.4,4.9,5.3l1.4,0.6c0,0,0,0,0.1,0c3,1.1,6.2,1.6,9.5,1.6l0.9,0l5.5,0c0.1,0,0.1,0,0.2,0l3.6-0.5
	c1.5-0.2,2.9-0.6,4.3-1l4.2-1.3c0.1,0,0.3-0.1,0.4-0.2c1.4-1,2.4-2.5,2.7-4.1l0.6-2.8c0,0,0-0.1,0-0.1l0.3-2.4l-3.6-3.4l3.6,3.4
	l0.5-3.8c0-0.1,0-0.1,0-0.2L203.5,89.7z"/>
<path class="st8" d="M199.2,87l-6.8,0l-11.9,0c-0.1,0-0.1,0-0.2,0l-8.7,1.3l-3.3,0.5c-1.4,0.2-2.8,0.7-4.1,1.3
	c-0.3,0.2-0.5,0.4-0.6,0.8l-0.6,1.8l0,1.4l1.4,6.2c0,0,0,0.1,0,0.1c0.8,2.4,2.6,4.4,4.9,5.3l1.4,0.6c0,0,0,0,0.1,0
	c3,1.1,6.2,1.6,9.5,1.6l0.9,0l5.5,0c0.1,0,0.1,0,0.2,0l3.6-0.5c1.5-0.2,2.9-0.6,4.3-1l4.2-1.3c0.1,0,0.3-0.1,0.4-0.2
	c1.4-1,2.4-2.5,2.7-4.1l0.6-2.8c0,0,0-0.1,0-0.1l0.3-2.4l-3.6-3.4L199.2,87z"/>
<path class="st9" d="M203.5,91.4l0-1.7c0-0.8-0.3-1.5-0.7-2.2c0,0,0,0,0,0l-1-0.5l-2.6,0l0.3,5l3.6,3.4l0.5-3.8
	C203.5,91.5,203.5,91.4,203.5,91.4z"/>
<path class="st8" d="M201.7,87l1,0.5C202.5,87.2,202.1,87,201.7,87z"/>
<path class="st10" d="M106.9,90.1l8-3.3c1.1-0.4,2.2-0.7,3.4-0.7h4.4c1.8,0,3.6,0.1,5.3,0.4l7.5,1c0,0,5.7,1.3,8.5,1
	c0.9-0.1,1.4-1.4,1.4-1.6v0c0-0.1,0-0.2-0.1-0.3c-0.5-1.2-1.7-2-3-2.2l-5.7-0.8l-10.5-2L121,81c-1-0.1-1.9,0.1-2.8,0.5l-3.4,1.8
	c-2.7,1.4-5.2,3.4-7.1,5.8L106.9,90.1z"/>
<path class="st10" d="M164.1,83.7l7.4-2.6c0,0,0.1,0,0.1,0l7.2-2.2c1.8-0.5,3.7-0.8,5.6-0.8l0,0l0,0c2,0,4,0.7,5.6,1.9l6.3,4.8
	c0.1,0.1,0.1,0.1,0.2,0.2l1.4,1.4l-2.4-0.7c-0.1,0-0.2-0.1-0.3-0.1l-5.3-2.4c-1.3-0.6-2.8-0.9-4.3-0.7l-1.7,0.2
	c-0.6,0.1-1.2,0.2-1.7,0.4l-4.9,1.5c-0.4,0.1-0.9,0.3-1.3,0.4l-5.7,1.5l-4.4,1.1c-1.3,0.3-2.5-0.5-2.8-1.8v0
	C162.9,84.8,163.3,84,164.1,83.7z"/>
<g>
	<path class="st11" d="M136,141.6l2.8,2.2l4.3,2.4c1.1,0.6,2.2,1,3.4,1.3l0.6,0.1c3.4,0.7,7,0.9,10.5,0.6l0.1,0c3-0.2,6-1,8.8-2.2
		l0,0c0.4-0.2,0.7-0.4,1.1-0.6l1.1-0.8c1.5-1.1,2.9-2.3,4.1-3.7l1.6-1.8l0.8-1.3h0c-2,0-4-0.2-5.9-0.6l0,0c-0.3-0.1-0.5-0.1-0.8-0.2
		h0c-1.4-0.4-2.9-0.7-4.3-0.8l0,0c-1.6-0.1-3.3,0-4.8,0.6l-0.3,0.1c-1.4,0.5-2.8,0.6-4.2,0.3l-3.5-0.6c-1-0.2-2.1-0.1-3.1,0.2
		c-1.6,0.5-4,1.2-5.4,1.6c-0.7,0.2-1.5,0.4-2.3,0.5l-3.8,0.6l-2.3,0.5l0,0C134.9,140.6,135.4,141.2,136,141.6z"/>
	<path class="st12" d="M136,141.6l2.8,2.2l0,0l4.3,2.4c0.7,0.4,1.5,0.7,2.3,1c0.8,0.2,1.6,0.4,2.4,0.5c3.2,0.6,6.5,0.7,9.8,0.5
		c3.3-0.3,6.5-1.1,9.4-2.6c1.4-0.9,2.7-1.8,3.9-3c1.2-1.1,2.2-2.4,3.3-3.6l0,0l0.7-1.2l0-0.1l0,0c0.1,0.1-0.1-0.2,0.1,0.2l0,0l0,0
		l-0.2,0l-0.4,0l-0.7,0c-0.9,0-1.9-0.1-2.8-0.3c-1.9-0.2-3.7-0.9-5.5-1.2c-1.9-0.3-3.8-0.3-5.6,0.2c-0.9,0.3-1.8,0.6-2.8,0.7
		c-0.9,0.1-1.9,0-2.8-0.2l-2.8-0.5c-0.9-0.2-1.9-0.2-2.8,0l-5.5,1.6c-0.9,0.3-1.9,0.4-2.8,0.6l-2.8,0.4c-0.9,0.1-1.9,0.3-2.8,0.5
		l-0.3,0.1l-0.1,0c0,0,0,0,0,0.1l0.1,0.1c0.1,0.2,0.3,0.4,0.4,0.6C135.3,141,135.7,141.4,136,141.6z M136,141.6
		c-0.4-0.3-0.7-0.6-1-1c-0.2-0.2-0.3-0.4-0.4-0.6l-0.1-0.1c0,0-0.1,0,0-0.1l0.1,0l0.3-0.1c0.9-0.2,1.8-0.4,2.8-0.6l2.8-0.4
		c0.9-0.2,1.9-0.4,2.8-0.6l5.5-1.6c0.9-0.2,1.9-0.2,2.8-0.1l2.8,0.5c0.9,0.2,1.9,0.2,2.8,0.1c0.9-0.1,1.8-0.4,2.7-0.7
		c1.8-0.5,3.8-0.6,5.7-0.3c1.9,0.2,3.7,1,5.6,1.2c0.9,0.1,1.9,0.2,2.8,0.2l0.7,0l0.4,0l0.2,0l0,0l0,0c0.2,0.4,0.1,0.1,0.1,0.2l0,0
		l0,0.1l-0.7,1.2l0,0l0,0c-1.1,1.2-2.1,2.5-3.4,3.6c-1.2,1.1-2.6,2.1-4,3c-2.9,1.5-6.2,2.3-9.5,2.6c-3.3,0.2-6.6,0.1-9.8-0.5
		c-0.8-0.2-1.6-0.3-2.4-0.5c-0.8-0.2-1.6-0.6-2.3-1l-4.3-2.4l0,0L136,141.6z"/>
</g>
<g class="st13">
	<path class="st5" d="M147.3,107.6l-1.9,7l-1.2,2.7l-0.7,0.9c-0.9,1.2-1.6,2.5-2,4l-0.2,0.8c-0.1,0.3-0.1,0.7,0.1,1l0,0
		c0.8,1.7,2.2,3.1,4,3.8v0h1.8l0,0c1.3,0,2.5,0.3,3.7,1l0,0c0.4,0.2,0.9,0.4,1.4,0.5l2.4,0.5l0,0c1.6,0,3.1-0.3,4.6-0.8l0.9-0.3
		l2.6-1.2l0.4-0.2c0.5-0.3,1.9,0.1,3.3-0.1c1.7-0.3,3.1-1.3,3.9-2.8v-0.7l-0.4-1.7c-0.3-1.5-0.8-2.9-1.4-4.2l-1.1-2.5l-1.5-3.8
		l-1.2-4.6l-1.4-6.7"/>
	<path class="st5" d="M147.3,107.6l-1.9,7.1l0,0l0,0l-1.2,2.7l0,0l0,0c-0.7,0.9-1.4,1.9-1.9,3c-0.2,0.5-0.5,1.1-0.6,1.6l-0.2,0.8
		c-0.1,0.3-0.1,0.5-0.1,0.8c0.4,1,1.1,2,2,2.8c0.4,0.4,0.9,0.7,1.4,1c0.1,0.1,0.3,0.1,0.4,0.2l0.2,0.1c0,0,0.1,0-0.1,0l0,0l0,0l0,0
		l0.1,0l0.1,0l0.9,0c1.2-0.1,2.4,0.1,3.6,0.5c0.6,0.2,1.1,0.6,1.6,0.7c0.5,0.2,1.1,0.3,1.7,0.4l0.9,0.2l0.4,0.1c0.1,0,0.3,0,0.4,0
		c0.6,0,1.2-0.1,1.7-0.2c1.2-0.2,2.2-0.6,3.3-1l0,0l2.6-1.2l0,0c0.2-0.1,0.3-0.2,0.5-0.3c0.2-0.1,0.4-0.1,0.6-0.1
		c0.4,0,0.7,0,1.1,0.1c0.7,0.1,1.4,0,2.1-0.2c1.3-0.4,2.5-1.3,3.2-2.6l0,0.1l0-0.7l0,0c-0.2-1.1-0.4-2.1-0.7-3.1c-0.3-1-0.7-2-1.1-3
		c-0.4-1-0.9-2-1.3-3l-1.2-3l0,0l0,0l-0.7-2.8c-0.2-0.9-0.5-1.9-0.7-2.8l-1.1-5.7l1.3,5.6c0.2,0.9,0.5,1.9,0.7,2.8l0.8,2.8l0,0
		l1.2,3c0.4,1,0.9,2,1.3,3c0.5,1,0.8,2,1.1,3.1c0.3,1,0.5,2.1,0.7,3.2l0,0l0,0l0,0.7l0,0l0,0c-0.7,1.3-2,2.4-3.4,2.8
		c-0.7,0.2-1.5,0.3-2.2,0.2c-0.4,0-0.7-0.1-1.1-0.1c-0.2,0-0.3,0-0.5,0.1c-0.1,0-0.3,0.2-0.4,0.3l0,0l0,0l-2.6,1.2l0,0l0,0
		c-1.1,0.4-2.3,0.8-3.4,1c-0.6,0.1-1.2,0.1-1.8,0.2c-0.2,0-0.3,0-0.5,0l-0.4-0.1l-0.9-0.2c-0.6-0.1-1.2-0.2-1.7-0.4
		c-0.6-0.2-1.1-0.6-1.6-0.8c-1.1-0.4-2.2-0.6-3.4-0.5l-0.9,0l-0.1,0l-0.1,0l0,0l0,0l0,0c-0.1,0,0,0-0.1,0l-0.2-0.1
		c-0.1-0.1-0.3-0.1-0.4-0.2c-0.5-0.3-1-0.6-1.5-1c-0.9-0.8-1.6-1.8-2.1-3c0.2-2.5,1.4-4.6,2.9-6.5l0,0l1.2-2.7l0,0L147.3,107.6z"/>
</g>
<g>
	<path class="st11" d="M134.4,139.9l3.7,1.1c0.8,0.2,1.6,0.4,2.4,0.6l2.2,0.4c0.9,0.2,1.8,0.3,2.7,0.3l3.9,0.3
		c0.7,0.1,1.4,0.1,2.1,0.1h5.3l5.3-0.4h0c2.5,0,5-0.3,7.4-0.9l0,0c0.9-0.2,1.8-0.6,2.6-1.1l2.8-1.8"/>
	<path class="st14" d="M134.4,139.9c1.8,0.5,3.6,1,5.5,1.4c0.9,0.2,1.9,0.3,2.8,0.5l2.8,0.3c1.9,0.1,3.8,0.3,5.6,0.3l5.7,0l0,0
		l4.7-0.4c1.6-0.1,3.1-0.1,4.7-0.3c1.5-0.2,3.1-0.5,4.6-1c0.7-0.3,1.4-0.7,2.1-1.1l2-1.2l-2,1.3c-0.7,0.4-1.3,0.9-2,1.2
		c-0.7,0.4-1.5,0.5-2.3,0.7c-0.8,0.2-1.6,0.3-2.3,0.5c-0.8,0.1-1.6,0.2-2.4,0.3c-0.4,0-0.8,0-1.2,0.1l-0.6,0l-0.6,0.1l-4.7,0.4l0,0
		l0,0c-1.9,0-3.8,0-5.7,0c-1.9,0-3.8-0.2-5.7-0.4l-2.8-0.4c-0.9-0.2-1.9-0.3-2.8-0.6C138,141.1,136.2,140.5,134.4,139.9z"/>
</g>
<path class="st15" d="M147.3,105.6l-1.9,7l-1.2,2.7l-0.7,0.9c-0.9,1.2-1.6,2.5-2,4l-0.2,0.8c-0.1,0.3-0.1,0.7,0.1,1l0,0
	c0.8,1.7,2.2,3.1,4,3.8v0h1.8l0,0c1.3,0,2.5,0.3,3.7,1l0,0c0.4,0.2,0.9,0.4,1.4,0.5l2.4,0.5l0,0c1.6,0,3.1-0.3,4.6-0.8l0.9-0.3
	l2.6-1.2l0.4-0.2c0.5-0.3,1.9,0.1,3.3-0.1c1.7-0.3,3.1-1.3,3.9-2.8v-0.7l-0.4-1.7c-0.3-1.5-0.8-2.9-1.4-4.2l-1.1-2.5l-1.5-3.8
	l-1.2-4.6l-1.4-6.7"/>
<g>
	<path class="st16" d="M119.2,98.2l8.7,3.2c1.1,0.1,2.2,0.1,3.4,0.2l9.3-2.4c0.3-0.1,0.3-0.4,0.1-0.6l-5-3.6c-0.9-0.7-2-1.1-3.2-1.2
		c-2.6-0.2-5.2,0.3-7.6,1.5L119.2,98.2"/>
	<path d="M119.2,98.2c2.9,1,5.8,2,8.7,3.1l0,0l3.4,0.1l-0.1,0l8.2-2.2l1-0.3c0.1,0,0.1-0.1,0.1-0.1c0,0,0,0-0.1-0.1l-0.2-0.2
		l-1.7-1.2c-1.2-0.8-2.3-1.7-3.5-2.5c-0.6-0.4-1.2-0.6-1.9-0.8c-0.7-0.2-1.4-0.2-2.1-0.2c-1.4,0-2.8,0.2-4.1,0.6
		c-1.3,0.4-2.6,1.1-3.9,1.7L119.2,98.2l3.8-2c1.3-0.7,2.5-1.4,3.9-1.8c1.4-0.5,2.8-0.7,4.2-0.8c0.7,0,1.4,0,2.2,0.2
		c0.7,0.2,1.4,0.4,2,0.8c1.2,0.8,2.3,1.6,3.5,2.4l1.7,1.2l0.2,0.2c0.1,0,0.2,0.2,0.3,0.3c0.1,0.3-0.2,0.7-0.4,0.7l-1,0.3l-8.3,2.1
		l0,0l0,0l-3.4-0.2l0,0l0,0C124.9,100.5,122,99.3,119.2,98.2z"/>
</g>
<path class="st17" d="M127,100.2l-0.1-0.1c-1.4-1.6-1.2-4.1,0.5-5.4l0.1-0.1c1.6-1.4,4.1-1.2,5.4,0.5l0.1,0.1
	c1.4,1.6,1.2,4.1-0.5,5.4l-0.1,0.1C130.8,102.1,128.4,101.9,127,100.2z"/>
<g>
	<path class="st16" d="M166.4,98.5l7.7,0.9c3.4,0.2,13.8-3.9,13.8-3.9c-0.1-1.9-7.1-3.5-11-4.3c-1.5-0.3-3,0-4.2,0.9v0
		c-1.3,0.9-3.4,2.6-4.6,4.1L166.4,98.5"/>
	<path d="M166.4,98.5L172,99l1.4,0.1c0.5,0.1,0.9,0.1,1.4,0.1c0.9-0.1,1.8-0.2,2.7-0.5c1.8-0.4,3.5-1,5.3-1.6
		c1.7-0.6,3.5-1.2,5.2-1.9l-0.2,0.2c0-0.4-0.4-0.7-0.9-1c-0.4-0.3-0.9-0.5-1.4-0.7c-1-0.4-2-0.7-3-1c-2-0.6-4.1-1.1-6.2-1.4
		c-1-0.1-2.1,0.1-3,0.6c-0.9,0.5-1.7,1.2-2.6,1.9c-0.8,0.7-1.6,1.4-2.3,2.2L166.4,98.5l1.9-2.6c0.7-0.8,1.5-1.6,2.3-2.3
		c0.8-0.7,1.6-1.4,2.6-1.9c0.9-0.6,2.1-0.8,3.2-0.7c2.2,0.3,4.2,0.8,6.3,1.4c1,0.3,2.1,0.6,3.1,1c0.5,0.2,1,0.4,1.5,0.8
		c0.4,0.3,1,0.7,1.1,1.4l0,0.2l-0.2,0.1c-1.7,0.7-3.5,1.3-5.2,1.9c-1.8,0.6-3.5,1.1-5.3,1.5c-0.9,0.2-1.8,0.4-2.8,0.4
		c-0.5,0-0.9,0-1.4-0.1l-1.4-0.2L166.4,98.5z"/>
</g>
<path class="st17" d="M172.3,98.1l-0.3-0.4c-1.4-1.6-1.2-4.1,0.5-5.4l0.4-0.3c1.6-1.4,4.1-1.2,5.4,0.5l0.3,0.4
	c1.4,1.6,1.2,4.1-0.5,5.4l-0.4,0.3C176.1,99.9,173.6,99.7,172.3,98.1z"/>
<g>
	<path class="st18" d="M116.8,95.7l2.7-1.5c0.9-0.5,1.8-1,2.8-1.3c1-0.3,2-0.5,3.1-0.6l3.1-0.2c2.1-0.1,4.2,0,6.2,0.5
		c1,0.2,2,0.6,3,1c1,0.4,1.9,0.9,2.8,1.4c-1.8-1-3.8-1.7-5.8-2.2c-2-0.5-4.1-0.6-6.2-0.4l-3.1,0.2c-1,0-2.1,0.2-3,0.5
		c-1,0.3-1.9,0.8-2.8,1.3L116.8,95.7z"/>
</g>
<g>
	<path class="st18" d="M140.6,99.8c-1.6,0.6-3.2,1.2-4.8,1.7l-2.4,0.8c-0.8,0.3-1.6,0.5-2.5,0.6l0,0l0,0c-2.4-0.1-4.9-0.1-7.3-0.2
		c2.4,0,4.9,0,7.3,0l0,0c0.8-0.1,1.6-0.3,2.4-0.6l2.4-0.8C137.4,100.8,139,100.3,140.6,99.8z"/>
</g>
<g>
	<path class="st18" d="M168.1,91.6c1.9-0.6,3.7-1.3,5.6-1.7c1.9-0.4,3.9-0.5,5.8-0.3c1,0.1,1.9,0.3,2.9,0.5c0.9,0.3,1.9,0.6,2.8,0.9
		c0.9,0.3,1.9,0.6,2.7,1.1c0.8,0.5,1.6,1.1,2.4,1.6c-0.8-0.5-1.7-1-2.5-1.5c-0.8-0.5-1.8-0.8-2.7-1.1c-0.9-0.3-1.8-0.6-2.8-0.9
		c-0.9-0.2-1.9-0.4-2.9-0.5c-1.9-0.2-3.9-0.1-5.8,0.2c-1,0.2-1.9,0.5-2.8,0.7L168.1,91.6z"/>
</g>
<g>
	<path class="st18" d="M166.4,98.5l3.5,0.9c1.2,0.3,2.3,0.6,3.5,0.8c1.2,0.1,2.4,0.3,3.6,0.4c1.2,0,2.4-0.2,3.5-0.7
		c-1.1,0.6-2.3,0.9-3.5,0.9c-1.2-0.1-2.4-0.2-3.6-0.4c-1.2-0.1-2.4-0.5-3.5-0.9L166.4,98.5z"/>
</g>
<circle cx="130" cy="97.7" r="1.9"/>
<circle cx="175.2" cy="95.2" r="1.9"/>
<circle class="st19" cx="133.1" cy="97.7" r="1"/>
<circle class="st19" cx="171.3" cy="96.3" r="1"/>
<g>
	<path class="st5" d="M143.2,170.6c1.2,1.3,2.8,2.1,4.5,2.6c1.7,0.5,3.4,0.7,5.1,0.7c1.7,0,3.5-0.2,5.1-0.7c0.8-0.3,1.6-0.6,2.4-1
		c0.8-0.4,1.4-1,2-1.7c-1,1.5-2.6,2.3-4.3,2.9c-1.7,0.5-3.4,0.8-5.2,0.8c-1.8,0-3.5-0.2-5.2-0.8
		C145.9,172.8,144.3,171.9,143.2,170.6z"/>
</g>
<g>
	<path class="st20" d="M88.3,153.7c1-6.7,0.4-13.7-1.7-20.2c-0.6-1.6-0.7-3.4-0.6-5.1c0.1-1.7,0.5-3.4,0.9-5c0.4-1.7,0.7-3.3,0.7-5
		c0.1-1.7-0.5-3.3-0.8-5c-0.5-3.4-0.3-6.9,0.6-10.2c0.2-0.8,0.5-1.6,0.8-2.4c0.2-0.4,0.3-0.8,0.5-1.2L89,99l0.1-0.3
		c0-0.1,0-0.2,0.1-0.3l0.8-5l1.6-10.1c0.6-3.4,1.7-6.6,3-9.8c2.6-6.3,6.4-12.2,11.6-16.7c1.3-1.1,2.7-2.1,4-3.1
		c1.3-1,2.6-2.1,3.9-3.3c2.6-2.3,5-4.6,7.6-6.8c2.6-2.2,5.3-4.3,8.2-6.2c2.9-1.8,5.9-3.4,9.1-4.6c6.4-2.5,13.1-3.8,19.9-4.4l0,0
		c-6.8,0.6-13.5,2-19.9,4.5c-6.4,2.5-12.1,6.3-17.2,10.8c-2.6,2.2-5,4.6-7.6,6.8c-1.3,1.1-2.6,2.2-3.9,3.3c-1.3,1.1-2.8,2-4,3.1
		c-5.2,4.4-8.9,10.3-11.6,16.6c-1.3,3.1-2.4,6.4-3.1,9.7l-1.6,10.1l-0.8,5.1c0,0.1,0,0.2-0.1,0.3L89.1,99l-0.3,0.6
		c-0.2,0.4-0.3,0.8-0.5,1.2c-0.3,0.8-0.6,1.6-0.8,2.4c-0.9,3.3-1.1,6.7-0.6,10.1c0.1,0.8,0.3,1.7,0.5,2.5c0.2,0.8,0.3,1.7,0.3,2.6
		c0,1.7-0.3,3.4-0.7,5.1c-0.4,1.7-0.8,3.3-0.9,5c-0.2,1.7-0.1,3.4,0.5,5C88.8,139.9,89.3,146.9,88.3,153.7z"/>
</g>
<g>
	<path class="st20" d="M90.3,157.4c2.3,5.5,4.9,11,7.6,16.3c2.7,5.4,4.7,11.1,5.6,17.1c0.5,3,0.7,6,0.7,9c0,1.5-0.1,3-0.2,4.5
		l-0.1,1.1c0,0.4-0.1,0.7,0,1.1l0.4,2.2c1.1,5.9,3.3,11.6,6.3,16.7c3,5.2,6.9,9.8,11.4,13.8l0.9,0.7l0.4,0.4l0.2,0.2l0.1,0
		c0,0,0.1,0.2,0.1,0.1l0,0l0,0.1c0.1,0.7,0.2,1.5,0.3,2.2c0.2,1.5,0.3,3,0.3,4.5c0.1,3-0.1,6-0.5,9c-0.4,3-1.1,5.9-2.1,8.8
		c-0.5,1.4-1,2.8-1.6,4.2c-0.6,1.4-1.2,2.7-1.7,4.2c-1,2.8-1.8,5.7-2.2,8.7l-1.2,8.9l0,0l1.2-8.9c0.4-3,1.1-5.9,2.1-8.7
		c0.5-1.4,1.1-2.8,1.7-4.2c0.6-1.4,1.1-2.8,1.6-4.2c0.9-2.8,1.6-5.8,2-8.7c0.4-3,0.6-6,0.5-9c0-1.5-0.1-3-0.3-4.5
		c-0.1-0.7-0.2-1.5-0.3-2.2l0-0.1l0,0c0-0.1,0,0.1,0,0l-0.1,0l-0.2-0.2l-0.4-0.4l-0.9-0.7c-4.5-3.9-8.4-8.6-11.4-13.9
		c-3-5.2-5.1-10.9-6.3-16.8l-0.4-2.2c-0.1-0.4,0-0.8,0-1.1l0.1-1.1c0.1-1.5,0.1-3,0.1-4.5c0-3-0.3-6-0.8-9c-1-5.9-2.8-11.7-5.5-17
		C95,168.4,92.5,163,90.3,157.4L90.3,157.4z"/>
</g>
<path class="st21" d="M209,104.4l-3.4,17.2l-0.3,8c-0.2,6.6,0.5,13.3,2.3,19.6c1.9,6.5,1.4,9.9-0.9,20l-1.2,5.5l0,0.1
	c-0.8,3.4-2.3,6.6-4.4,9.4c-8,11-9.5,25.6-3.5,38.1l4.8,10c0,0.1,6.1,9,3.2,38.8l0,0l-3.2,12.5"/>
<g>
	<path class="st20" d="M192.9,39.6c2.6,6.3,5.2,12.7,7.8,19c2.5,6.4,5.1,12.7,7.5,19.1c-2.6-6.3-5.2-12.7-7.8-19
		C197.9,52.4,195.3,46,192.9,39.6z"/>
</g>
<path class="st21" d="M214.5,195.4l-2.6,7.2c-4.6,12.7-3.6,9.3,2.8,21.3v0c2.9,5.4,4.7,11.3,5.5,17.4l0.2,2
	c1.4,11.4,0.4,22.9-2.9,25.9l-3.4,11.4"/>
<path class="st21" d="M192.6,142.2l-1.4,2.8c-2.4,4.9-1.9,10.3,1.5,14.9v0c1.5,2.1,2.5,4.4,2.9,6.7l0.1,0.8c0.7,4.4,0.2,8.8-1.6,13
	l-1.8,4.4"/>
<path class="st21" d="M214.7,102.9l-1.4,3.4c-2.4,6.1-1.9,12.8,1.5,18.4l0,0c1.5,2.6,2.5,5.4,2.9,8.3l0.1,1
	c0.7,5.4,0.2,10.9-1.6,16.1l-1.8,5.4c0.3,3.2,6.9,2.7,1.5,20"/>
<g>
	<path class="st20" d="M97.2,111.8c1.7,5.2,3.6,10.3,5.5,15.5c1.8,5.2,2.9,10.6,3.2,16.1c0.2,2.7,0.1,5.5,0,8.2c0,0.3-0.1,0.7,0,1
		l0.1,1l0.2,2c0.1,1.4,0.2,2.7,0.4,4.1c0.2,1.4,0.4,2.7,1,4c0.5,1.3,1.2,2.4,2,3.5c1.6,2.2,3.5,4.2,5.4,6.2c0.5,0.5,1,1,1.2,1.7
		c0.2,0.7,0.2,1.4,0,2.1c-0.2,0.7-0.7,1.2-1.3,1.6c-0.1,0.1-0.3,0.2-0.5,0.2c-0.1,0-0.2,0.1-0.2,0.1l-0.1,0l-0.1,0l0,0
		c-0.1,0.1,0.1-0.1,0.1-0.1c0.1,0.3,0.1,0.7,0.2,1c0.3,1.3,1.1,2.5,2.1,3.4c0.9,1,2,1.8,2.9,2.9c0.9,1,1.7,2.2,2,3.6
		c0.3,1.4,0.3,2.8,0,4.1c-0.5,2.7-1.6,5.3-2.9,7.7c-0.6,1.2-1.3,2.4-2,3.6c-0.2,0.3-0.4,0.6-0.5,0.9c-0.1,0.3-0.2,0.6-0.2,1
		c-0.1,0.7,0,1.3,0.1,2c0.4,2.7,1.4,5.3,2.9,7.6c0.7,1.2,1.6,2.2,2.5,3.2c0.9,1,2,1.9,3,2.8l6,5.6l0,0l-6.1-5.5c-1-0.9-2-1.8-3-2.8
		c-0.9-1-1.8-2.1-2.5-3.2c-1.5-2.3-2.5-4.9-3-7.6c-0.1-0.7-0.2-1.4-0.1-2.1c0-0.3,0.1-0.7,0.2-1c0.2-0.4,0.3-0.6,0.5-0.9
		c0.7-1.2,1.4-2.4,2-3.6c1.2-2.4,2.4-4.9,2.9-7.6c0.2-1.3,0.3-2.7,0-4c-0.3-1.3-1-2.5-2-3.5c-0.9-1-2-1.9-2.9-2.9
		c-0.9-1-1.8-2.2-2.1-3.5c-0.1-0.3-0.1-0.7-0.2-1c0,0,0.1-0.2,0.1-0.1l0,0l0.1,0l0.1,0c0.1,0,0.2,0,0.2-0.1c0.1-0.1,0.3-0.1,0.4-0.2
		c0.6-0.3,1-0.9,1.2-1.5c0.2-0.6,0.2-1.3,0-2c-0.2-0.6-0.7-1.1-1.2-1.6c-1.9-2-3.7-4-5.3-6.2c-0.8-1.1-1.5-2.3-2-3.6
		c-0.5-1.3-0.8-2.6-1-4c-0.2-1.4-0.3-2.7-0.4-4.1l-0.2-2l-0.1-1c0-0.4,0-0.7,0-1c0.1-2.7,0.2-5.5,0-8.2c-0.4-5.4-1.4-10.9-3.1-16
		C100.6,122.2,98.7,117.1,97.2,111.8L97.2,111.8z"/>
</g>
<path class="st21" d="M151.3,19c-25.3,7-34.5,15.5-34.5,15.5l-15,14.5"/>
<linearGradient id="SVGID_2_" gradientUnits="userSpaceOnUse" x1="174.608" y1="-22.8921" x2="196.4828" y2="77.475">
	<stop  offset="0" style="stop-color:#FFFFFF"/>
	<stop  offset="1.957105e-04" style="stop-color:#F6F6F6"/>
	<stop  offset="1.264286e-03" style="stop-color:#C8C8C8"/>
	<stop  offset="2.468570e-03" style="stop-color:#9D9D9D"/>
	<stop  offset="3.762894e-03" style="stop-color:#777777"/>
	<stop  offset="5.171730e-03" style="stop-color:#575757"/>
	<stop  offset="6.728693e-03" style="stop-color:#3B3B3B"/>
	<stop  offset="8.486005e-03" style="stop-color:#252525"/>
	<stop  offset="1.053891e-02" style="stop-color:#141414"/>
	<stop  offset="1.307624e-02" style="stop-color:#090909"/>
	<stop  offset="1.663635e-02" style="stop-color:#020202"/>
	<stop  offset="2.651815e-02" style="stop-color:#000000"/>
</linearGradient>
<path style="opacity:0.28;fill:url(#SVGID_2_);" d="M300,152.5c0-20.3-4.3-39.7-12-57.3C243.1,59.8,155.9,3.7,156,15l-2,283
	C234.9,296.4,300,231.9,300,152.5z"/>
</svg>
